<svg width="68" height="102" viewBox="0 0 68 102" fill="none" xmlns="http://www.w3.org/2000/svg">
<g clip-path="url(#clip0)">
<path d="M22.5296 8.54558C20.397 11.3868 19.5035 14.9585 18.7686 18.4498C18.0337 21.9411 17.3853 25.5273 15.6345 28.6242C12.7814 33.6712 7.39208 36.7462 4.16428 41.5522C2.08926 44.6491 1.00853 48.3303 0.403312 52.0188C-0.158671 55.4298 -0.309975 59.0526 1.08057 62.2079C2.69448 65.8745 6.2537 68.5623 7.16152 72.4773C7.65866 74.6319 7.2768 76.8889 7.22637 79.102C7.17593 81.3151 7.5722 83.7473 9.21492 85.2154C10.4181 86.2891 12.1041 86.6543 13.7108 86.647C17.7239 86.6324 21.7227 84.6092 25.6133 85.5879C28.7114 86.3621 31.0314 88.8601 33.5315 90.8687C36.0316 92.8773 39.4035 94.5061 42.3287 93.2059C44.519 92.2345 45.7655 89.9045 47.5595 88.2977C50.0092 86.0919 53.4099 85.2957 56.0469 83.331C58.792 81.2786 60.55 78.0356 61.1696 74.6319C61.7892 71.2283 61.3353 67.6932 60.269 64.4064C59.0729 60.7106 57.0916 57.2047 56.7458 53.3262C56.3135 48.5494 58.4029 43.9626 59.4908 39.2953C60.2978 35.8259 60.5572 32.1739 59.7862 28.6972C59.0153 25.2206 57.1564 21.9192 54.3105 19.8302C51.1403 17.5076 46.9327 16.7406 44.2092 13.9067C42.4944 12.1245 41.5362 9.685 39.7133 8.01969C37.5375 6.03301 33.7549 5.04697 30.9089 4.5357C27.7316 3.95868 24.3957 6.06223 22.5296 8.54558Z" fill="#56BCB4" fill-opacity="0.2"/>
<path d="M60.1104 89.5396C60.1104 95.5726 55.2904 100.459 49.3391 100.459C48.6907 100.459 48.0638 100.408 47.4442 100.284C47.0407 100.218 46.6445 100.123 46.2482 99.9989C45.326 99.714 44.447 99.3196 43.6328 98.8083C43.3086 98.5965 42.9988 98.3774 42.6962 98.1436C41.8676 97.4863 41.1399 96.7121 40.5419 95.8429C39.2882 94.0607 38.5605 91.8841 38.5605 89.5396C38.5605 83.5138 43.3806 78.6201 49.3319 78.6201C50.3046 78.6201 51.234 78.7443 52.1346 78.9926C52.5021 79.0949 52.8623 79.2117 53.2081 79.3578C54.2384 79.7595 55.1967 80.3292 56.0541 81.0158C56.1766 81.1181 56.299 81.213 56.4143 81.3153C56.6953 81.5636 56.9691 81.8339 57.2213 82.1187C59.0153 84.0616 60.1104 86.6691 60.1104 89.5396Z" fill="#3B847E"/>
<path d="M58.0426 87.3192C58.0426 93.3522 53.2225 98.2386 47.2713 98.2386C46.6228 98.2386 45.996 98.1875 45.3764 98.0633C44.9729 97.9976 44.5766 97.9026 44.1804 97.7784C43.2582 97.4936 42.3791 97.0992 41.565 96.5879C41.2408 96.3761 40.931 96.157 40.6284 95.9232C40.5995 95.894 40.5635 95.8794 40.5419 95.8429C39.2882 94.0607 38.5605 91.8841 38.5605 89.5396C38.5605 83.5138 43.3806 78.6201 49.3319 78.6201C50.3046 78.6201 51.234 78.7443 52.1346 78.9926C52.5021 79.0949 52.8623 79.2117 53.2081 79.3578C54.2384 79.7595 55.2039 80.3219 56.0541 81.0158C57.3077 82.798 58.0426 84.9746 58.0426 87.3192Z" fill="#1C5F59"/>
<path d="M38.6329 33.8468C38.6113 34.0659 38.5752 34.2923 38.46 34.4749C38.3014 34.716 38.0205 34.8474 37.7539 34.957C36.5507 35.461 35.2033 34.9132 34.2379 34.1243C33.4597 33.4889 32.8545 32.6562 32.3358 31.7725C32.2853 31.6921 32.2421 31.6118 32.1917 31.5387C31.9179 31.0713 31.6585 30.5308 31.8026 30.0049C31.8242 29.9392 31.8458 29.8734 31.8747 29.8077C31.9035 29.7493 31.9323 29.6835 31.9611 29.6251C31.9971 29.552 32.0332 29.4717 32.062 29.3987C32.4294 28.4564 31.9179 26.8496 31.6873 25.8928C31.3919 24.6803 31.0461 23.4678 30.7147 22.2554C30.376 21.0137 30.0806 19.7209 29.6772 18.4792C29.5259 18.0191 29.3601 17.5589 29.1728 17.1134C28.4523 15.4116 22.8613 6.6833 22.8613 6.6833C22.7172 4.89383 24.6193 4.2876 24.6193 4.2876C24.6193 4.2876 24.8355 4.51402 25.2029 4.90113C26.7808 6.58105 31.1253 11.3505 33.0058 14.7177C33.2292 15.1121 33.539 15.8133 33.892 16.719C34.771 18.9102 35.9454 22.27 36.8893 25.3303C36.9902 25.6663 37.0982 25.995 37.1919 26.3237C37.5521 27.5361 37.9916 28.8728 38.2942 30.224C38.5896 31.4511 38.7482 32.6854 38.6329 33.8468Z" fill="#F5A784"/>
<path d="M25.2243 4.87175C25.2243 4.87175 24.6767 4.19979 24.0787 3.3014C23.4807 2.3957 22.191 0.401719 21.4849 0.0365199C21.4849 0.0365199 21.3408 0 21.1103 0C21.0815 0 21.0454 0 21.0094 0.00730397C20.8077 0.0219119 20.5555 0.0584318 20.2889 0.189903C20.2673 0.197207 20.2457 0.211815 20.2241 0.219119C20.0368 0.314071 19.8422 0.445542 19.6693 0.635446C19.6549 0.650054 19.6405 0.664662 19.6261 0.686574C19.4892 0.832653 19.3595 1.00795 19.237 1.22707C19.237 1.22707 20.5987 3.22836 20.7933 4.02449C20.7933 4.02449 19.6693 3.04576 19.237 3.21375L19.0425 3.46939C19.0425 3.46939 20.1304 4.65994 20.5699 5.23695C21.6363 6.63931 23.4663 6.78539 23.4663 6.78539C23.4663 6.78539 25.3252 6.14264 25.2243 4.87175Z" fill="#F5A784"/>
<path d="M19.6624 0.628418C19.648 0.643026 19.6336 0.657634 19.6191 0.679546C20.2964 1.52681 20.8224 2.46172 21.3915 3.39662C21.406 3.41123 21.4348 3.40393 21.4276 3.38202C21.0745 2.33024 20.4117 1.43186 19.6624 0.628418Z" fill="#E0855C"/>
<path d="M20.289 0.182617C20.2674 0.189921 20.2457 0.204529 20.2241 0.211833C20.9086 1.05909 21.4273 1.994 22.0037 2.92891C22.0181 2.94352 22.047 2.93622 22.0398 2.9143C21.6795 1.86984 21.0239 0.986054 20.289 0.182617Z" fill="#E0855C"/>
<path d="M21.1101 0C21.0813 0 21.0453 0 21.0093 0.00730397C21.6433 0.810741 22.1404 1.70183 22.6808 2.58561C22.688 2.60752 22.724 2.59291 22.7168 2.571C22.407 1.58496 21.7874 0.759613 21.1101 0Z" fill="#E0855C"/>
<path d="M67.4668 101.774C66.7031 101.861 65.9322 101.92 65.1469 101.956C64.9235 101.964 1.81563 101.993 1.81563 101.993C1.7724 101.985 1.72917 101.985 1.68594 101.985C1.34731 101.956 1.01588 101.927 0.677251 101.891C-0.187339 101.803 -0.187339 100.62 0.677251 100.532C1.00868 100.495 1.34731 100.466 1.68594 100.444C1.73637 100.437 1.7796 100.437 1.83004 100.437C1.83004 100.437 64.9307 100.459 65.1469 100.474C65.925 100.51 66.6959 100.576 67.474 100.656C68.1801 100.736 68.1729 101.693 67.4668 101.774Z" fill="#C6C6C6"/>
<path d="M23.5167 27.6964C23.351 27.543 23.1853 27.3897 22.9908 27.2509C22.1406 26.6593 21.5498 25.4322 21.6795 24.3877C21.7659 23.6719 22.1694 23.0365 22.6161 22.4741C23.2285 21.6999 24.0355 20.9695 25.0154 20.911C25.1018 20.9037 25.1883 20.9037 25.2675 20.8745C25.3756 20.8307 25.4549 20.743 25.5341 20.6627C26.7878 19.5014 28.4737 20.8964 29.1078 22.0578C29.5112 22.7955 29.6337 23.7084 29.3455 24.4973C29.0861 25.2131 28.5386 25.7463 28.0702 26.3087C27.6091 26.8638 27.3858 27.1778 27.184 27.8498C27.0616 28.2734 26.6148 28.4633 26.2186 28.5364C25.599 28.6605 24.9361 28.5729 24.3597 28.3173C24.0211 28.1639 23.7689 27.9301 23.5167 27.6964Z" fill="black"/>
<path d="M45.7725 51.4418C45.7797 51.7631 45.7292 52.0772 45.5923 52.3621C45.3113 52.9391 44.7133 53.275 44.1297 53.5234C42.3357 54.2976 40.3111 54.6263 38.409 54.1734C36.1251 53.6256 34.9507 51.7704 34.0933 49.7838C33.8699 49.2579 33.661 48.7247 33.4665 48.1988C32.3497 45.248 30.5485 43.2467 28.1636 41.26C28.0844 41.1943 27.9979 41.1212 27.9187 41.0482C26.1895 39.5655 24.835 37.9002 23.1778 36.3006C23.0626 36.1984 23.0481 36.0231 23.1274 35.8916C23.2571 35.6944 23.4949 35.373 23.8407 34.9786C24.3378 34.4162 25.0511 33.7077 25.995 33.0357C26.4489 32.7144 26.9532 32.4003 27.5008 32.1081C27.508 32.1008 27.5224 32.0935 27.544 32.0862C27.6305 32.0351 27.7169 31.9913 27.8106 31.9401C27.8394 31.9255 27.8682 31.9109 27.8971 31.8963C28.0267 31.8379 26.5209 29.3618 26.3552 29.1573C26.1607 28.9309 25.9445 28.6899 25.9373 28.3977C25.9373 28.3612 25.9373 28.3247 25.9589 28.2955C25.9661 28.2808 25.9733 28.2735 25.9878 28.2589C26.0094 28.2443 26.0382 28.237 26.0598 28.237C26.0958 28.2297 26.1319 28.237 26.1607 28.2443C26.2111 28.2589 26.2471 28.2735 26.2904 28.2808C26.3336 28.2881 26.3768 28.2955 26.42 28.3028C26.5065 28.3101 26.593 28.3247 26.6866 28.332C26.7659 28.3393 26.8523 28.3539 26.9388 28.3539C27.1045 28.3612 27.2846 28.3685 27.4792 28.3612C27.5008 28.3612 27.5296 28.3539 27.5512 28.3539C27.6017 28.3539 27.6521 28.3466 27.7097 28.3466C27.7241 28.3539 27.7458 28.3466 27.7674 28.3393C27.8322 28.3393 27.8971 28.332 27.9619 28.3174C28.07 28.3101 28.1853 28.2955 28.2933 28.2735C28.4086 28.2516 28.5239 28.237 28.6392 28.2078C28.7761 28.1713 28.9129 28.1348 29.0498 28.0909C29.266 28.0252 29.5182 27.8499 29.7487 27.8207C29.7992 27.8061 29.8496 27.8061 29.9072 27.8134C30.2026 27.8645 30.4692 28.2443 30.6349 28.4707C30.7574 28.6387 31.1104 29.1062 31.1609 29.1719C31.2906 29.3472 31.4275 29.5298 31.6076 29.654C31.7085 29.727 31.7949 29.7636 31.8814 29.7782C31.9174 29.7855 31.9606 29.7855 32.0039 29.7782C32.1263 29.7709 32.2488 29.7197 32.4001 29.6686C32.9333 29.4276 34.1365 28.9163 35.2893 28.573C36.1107 28.3174 37.2058 27.7477 37.4364 28.237C37.739 28.8871 38.0344 29.5371 38.3082 30.1945C39.4826 32.9408 40.484 35.7236 41.7809 38.4261C43.6182 42.2534 44.9295 46.3363 45.6644 50.5215C45.7148 50.8428 45.7725 51.1423 45.7725 51.4418Z" fill="#F5A784"/>
<path d="M31.0095 28.9967C30.008 29.7344 27.6952 30.5013 25.9877 28.2736C25.9733 28.259 25.9589 28.2444 25.9517 28.2225C25.9661 28.2225 26.0021 28.2298 26.0597 28.2444C26.1174 28.259 26.1966 28.2809 26.2975 28.2955C26.3407 28.3028 26.384 28.3101 26.4272 28.3174C26.5713 28.3466 26.7514 28.3613 26.9459 28.3686C27.1117 28.3759 27.2918 28.3832 27.4863 28.3759C27.7385 28.3686 28.0051 28.3466 28.2933 28.2955C28.5382 28.259 28.7904 28.2006 29.0498 28.1129C29.2803 28.0399 29.5181 27.9522 29.7487 27.8427C29.7991 27.8281 29.8495 27.8281 29.9072 27.8354C30.2026 27.8865 30.4691 28.2663 30.6349 28.4927C30.7573 28.668 30.887 28.8287 31.0095 28.9967Z" fill="#E0855C"/>
<path d="M28.0128 21.6633C28.5964 21.8021 29.144 22.6128 29.7492 23.5039C31.5864 26.2064 31.3127 27.6015 30.0158 28.6605C28.7189 29.7196 26.9177 30.1213 25.0012 27.7548C24.0429 26.5716 23.1351 25.4906 23.2431 24.6433C23.4089 23.3725 26.226 21.2324 28.0128 21.6633Z" fill="#F5A784"/>
<path d="M24.9649 27.2586C24.9649 27.2586 23.8121 26.3894 23.5239 27.4339C23.2357 28.4784 25.2603 29.6032 26.2041 28.807C26.2041 28.807 25.5413 27.4412 24.9649 27.2586Z" fill="#F5A784"/>
<path d="M24.1652 27.7553C24.331 27.6823 24.5759 27.7261 24.7416 27.7626C24.9218 27.7991 25.1379 27.843 25.2892 27.9525C25.3324 27.9891 25.2892 28.0548 25.2388 28.0475C25.1019 28.0256 24.965 27.9671 24.8281 27.9306C24.8137 28.0329 24.7921 28.1351 24.7272 28.2155C24.6768 28.2812 24.5831 28.2301 24.5759 28.1643C24.5687 28.0767 24.6047 27.9891 24.6408 27.9014C24.4823 27.8868 24.3093 27.9087 24.158 27.8649C24.1148 27.8503 24.1148 27.7772 24.1652 27.7553Z" fill="#E0855C"/>
<path d="M28.5096 24.2202C28.5096 24.2202 28.805 24.1544 28.4952 23.7527C28.2214 23.3948 28.0845 23.5555 28.0845 23.5555C28.0845 23.5555 27.9188 23.6578 28.1566 23.9791C28.4015 24.2932 28.5096 24.2202 28.5096 24.2202Z" fill="black"/>
<path d="M26.1248 25.7685C26.1248 25.7685 26.413 25.7028 26.1104 25.301C25.8366 24.9432 25.6997 25.1038 25.6997 25.1038C25.6997 25.1038 25.534 25.2061 25.7718 25.5275C26.0096 25.8488 26.1248 25.7685 26.1248 25.7685Z" fill="black"/>
<path d="M28.1565 26.0386C28.2646 25.9436 28.5816 25.8341 28.56 25.6734C28.5383 25.5346 27.9403 25.016 27.8395 24.9211C27.4936 24.5851 27.2198 24.3879 26.8452 23.957C26.8308 23.935 26.8596 23.9058 26.8812 23.9204C27.5585 24.3733 28.1565 25.0891 28.7473 25.6515C28.7833 25.6807 28.7761 25.7391 28.7401 25.761C28.56 25.8706 28.4159 26.0167 28.2429 26.1335C28.1781 26.1774 28.0988 26.0897 28.1565 26.0386Z" fill="#E0855C"/>
<path d="M27.4435 23.1025C27.5588 22.9053 27.8614 22.6788 28.092 22.7738C28.1352 22.7884 28.1352 22.8614 28.0992 22.8834C28.0127 22.9345 27.9118 22.9418 27.8254 22.9856C27.7317 23.0367 27.6597 23.1171 27.5876 23.1974C27.5228 23.2778 27.3931 23.1901 27.4435 23.1025Z" fill="black"/>
<path d="M25.0944 24.9283C25.0368 24.6215 25.4403 24.3294 25.714 24.3659C25.7789 24.3732 25.7933 24.4535 25.7573 24.4974C25.6708 24.5996 25.5411 24.6288 25.4403 24.7092C25.3538 24.7822 25.3034 24.8699 25.2313 24.9575C25.1881 25.0013 25.1016 24.9867 25.0944 24.9283Z" fill="black"/>
<path d="M29.288 26.5137C29.288 26.5137 28.5171 27.1929 27.6309 27.2222C27.6309 27.2222 28.2073 27.6458 28.8269 27.4486C29.4393 27.2514 29.288 26.5137 29.288 26.5137Z" fill="white"/>
<path d="M10.1082 100.693C11.5275 101.043 13.408 100.722 14.8634 100.714C15.9586 100.707 17.0537 100.707 18.1561 100.7C19.208 100.693 20.4112 101.226 20.6418 99.7796C20.757 99.0054 20.5913 98.2165 20.5409 97.4496C20.5337 97.4277 20.5337 97.4131 20.5337 97.3985C20.4616 96.2226 21.0452 95.0247 21.7729 93.9072C22.3709 92.9942 23.0698 92.1396 23.5814 91.4092C25.5267 88.641 27.2271 85.8582 28.5095 82.7029C29.828 79.4526 30.9016 76.0709 32.6524 73.0105C34.3311 70.067 36.6871 66.8094 38.4523 63.362C38.5316 63.2013 38.618 63.0406 38.6973 62.8726C40.4337 59.3448 41.5 55.649 40.5489 51.9239C40.3688 51.2009 40.0518 50.5435 39.5619 50.0614C39.389 49.8934 39.2232 49.7108 39.0575 49.5063C38.7837 49.185 38.5172 48.8198 38.2578 48.4546C37.0041 46.7162 35.8153 44.8683 34.54 46.1757C34.2014 46.519 33.8268 47.1983 33.4593 48.0236C32.4938 50.1783 31.514 53.392 31.1033 54.568C27.9043 63.8659 25.2241 73.3246 21.8666 82.5203C21.7225 82.9074 21.528 83.4625 21.2974 84.1418C20.5337 86.3549 19.3377 89.8243 18.2858 92.5121C17.6301 94.1847 17.0177 95.5579 16.5998 96.1276C16.5494 96.2006 16.4917 96.2737 16.4269 96.3394C15.7424 97.1721 14.777 97.7637 13.7755 98.2165C12.7019 98.7059 11.578 99.0638 10.5189 99.5678C10.2667 99.6846 9.38047 100.517 10.1082 100.693Z" fill="#F5A784"/>
<path d="M38.6976 62.8727C39.4901 66.1303 40.5709 69.3221 41.2553 72.1561C42.1127 75.7204 42.2208 79.4016 42.6027 83.039C42.9773 86.5522 43.8707 89.8317 45.0019 93.1623C45.1316 93.5348 45.2541 93.9 45.3549 94.2579C45.6936 95.3389 45.9385 96.3687 46.0898 97.4789C46.1547 97.9318 46.2051 98.4065 46.2339 98.8959C46.2556 99.2173 46.2844 99.546 46.4573 99.8162C46.7455 100.269 47.3579 100.371 47.8911 100.422C50.4921 100.422 53.0642 100.525 55.6796 100.43C55.8381 100.422 56.011 100.408 56.1263 100.298C56.3064 100.138 56.256 99.8162 56.0831 99.6482C55.9101 99.4729 55.6652 99.4072 55.4346 99.3414C54.2458 99.0347 53.2011 98.5234 52.0339 98.202C51.5079 98.0559 50.9676 97.9099 50.5353 97.5739C50.1318 97.2525 49.8652 96.8216 49.6851 96.3322C49.4041 95.558 49.3537 94.6523 49.3321 93.8489C49.3249 93.637 48.9142 80.059 48.7629 76.2974C48.59 71.9369 48.5467 67.6057 48.1721 63.2598C47.9199 60.3382 47.7902 57.2267 47.2426 54.2686C47.0121 53.0269 46.7095 51.8145 46.2988 50.6458C45.8953 49.5137 45.3261 48.3451 44.3607 47.6877C44.231 47.6001 44.1013 47.5124 43.95 47.4467C42.264 46.5921 40.7078 46.9646 39.6703 48.4108C39.5766 48.535 39.4901 48.6738 39.4109 48.8126C39.2812 49.039 39.1587 49.2727 39.0434 49.5064C37.0621 53.5528 37.588 58.2785 38.6976 62.8727Z" fill="#F5A784"/>
<path d="M49.3392 93.8486C49.2311 93.9216 49.1086 93.9947 48.979 94.0458C48.7268 94.1481 48.4602 94.2065 48.172 94.243C47.9487 94.2722 47.7181 94.2795 47.4947 94.2649C46.4212 94.243 45.3549 94.2576 45.3549 94.2576C45.254 93.8997 45.1315 93.5345 45.0018 93.162C43.8707 89.8314 42.9773 86.5592 42.6026 83.0387C42.4297 81.3807 42.3072 79.7154 42.1487 78.0574C41.9614 76.0634 41.7236 74.0914 41.2553 72.1558C40.5708 69.3219 39.4901 66.13 38.6975 62.8724L38.4526 63.3618C36.6874 66.802 34.3314 70.0669 32.6526 73.0104C30.9018 76.0707 29.8355 79.4452 28.5098 82.7027C27.2273 85.8581 25.527 88.6409 23.5816 91.4091C23.0701 92.1468 22.3712 92.994 21.7732 93.907C20.4115 93.9801 18.2788 92.512 18.2788 92.512C19.3307 89.8241 20.5195 86.3547 21.2905 84.1416C21.521 83.4624 21.7156 82.9073 21.8597 82.5201C25.2171 73.3244 27.8974 63.8658 31.0964 54.5678C31.507 53.3846 32.4869 50.1781 33.4524 48.0235C35.1815 48.3448 36.8099 48.4544 38.258 48.4544C38.7552 48.4544 39.2379 48.4325 39.6846 48.4033C40.3691 48.3667 41.0031 48.301 41.5795 48.228C41.6516 48.2207 41.7308 48.2061 41.8029 48.1915C42.1919 48.1403 42.5522 48.0746 42.8836 48.0162C43.0133 47.9942 43.1358 47.965 43.2438 47.9431C43.6978 47.8482 44.0796 47.7605 44.3678 47.6802C45.3261 48.3594 45.9025 49.5062 46.3059 50.6383C46.7166 51.7996 47.0192 53.0194 47.2498 54.2611C47.7973 57.2192 47.927 60.338 48.1792 63.2523C48.5539 67.5981 48.5899 71.9294 48.77 76.2898C48.9213 80.0587 49.3392 93.6295 49.3392 93.8486Z" fill="#56BCB4"/>
<path d="M20.6418 99.7794C20.4184 101.226 19.2152 100.692 18.1561 100.7C17.0537 100.707 15.9586 100.707 14.8634 100.714C13.408 100.722 11.5203 101.043 10.1082 100.692C9.38047 100.517 10.2667 99.6844 10.5189 99.5602C11.5852 99.0563 12.7091 98.6984 13.7755 98.209C14.7698 97.7635 15.7352 97.1718 16.4269 96.3319C16.4773 96.3173 16.5278 96.31 16.5782 96.2954C17.3203 96.1785 18.0984 96.7555 18.2065 97.5078C18.8117 98.0264 19.77 97.391 20.5337 97.4421C20.5913 98.2236 20.7498 99.0124 20.6418 99.7794Z" fill="black"/>
<path d="M56.1263 100.291C56.011 100.4 55.8381 100.408 55.6796 100.422C53.0642 100.517 50.492 100.415 47.8911 100.415C47.3579 100.364 46.7455 100.262 46.4573 99.8087C46.2844 99.5384 46.2628 99.2098 46.2339 98.8884C46.1979 98.399 46.1547 97.9243 46.0898 97.4714C46.8752 97.2961 47.9271 98.0703 48.5755 97.5152C48.662 96.9382 49.1375 96.4635 49.6923 96.3247C49.8652 96.8141 50.1318 97.245 50.5425 97.5664C50.9748 97.9024 51.5151 98.0484 52.0411 98.1945C53.2083 98.5159 54.2602 99.0272 55.4418 99.3339C55.6724 99.3924 55.9174 99.4654 56.0903 99.6407C56.256 99.8087 56.3064 100.13 56.1263 100.291Z" fill="black"/>
<path d="M38.1424 56.1895C37.9623 55.6198 37.3355 55.3204 36.7519 55.2911C36.3916 55.2765 36.0458 55.3423 35.7 55.4372C35.4766 55.4957 35.2461 55.5687 35.0299 55.6344C34.4967 55.7805 34.0068 55.7951 33.5313 55.7221C31.5643 55.4007 29.8424 54.2321 28.2861 53.0488C27.4791 52.4353 26.7226 51.7341 25.8941 51.1571C25.0223 50.5582 24.7773 50.3829 25.1664 49.2215C25.1808 49.185 25.188 49.1485 25.2024 49.1047C26.103 46.4168 27.9907 40.8293 28.0267 40.7124C28.2645 40.0185 28.5022 39.3027 28.5239 38.565C28.6103 36.2716 25.822 33.3646 23.8407 34.9788C23.6389 35.1395 23.4444 35.3513 23.2643 35.6142C22.8896 36.1547 22.7023 36.7975 22.5222 37.4329C21.8305 39.8871 21.2109 42.3631 20.6705 44.8465C20.4688 45.7668 20.2814 46.6944 20.1445 47.622C20.0797 48.0456 20.0293 48.4692 19.986 48.9002C19.8924 49.9958 19.705 51.6099 20.195 52.6179C21.0091 54.2759 23.3291 55.3204 24.943 55.9193C26.7154 56.584 28.5383 57.1244 30.3611 57.6576C31.5571 58.0082 32.782 58.3515 34.014 58.6145C34.4679 58.7094 34.9434 58.7971 35.3974 58.8628C35.6856 58.8993 35.9737 58.9358 36.2547 58.965C37.4724 59.0746 38.5315 57.3874 38.1424 56.1895ZM33.978 56.2626C33.9924 56.248 34.0068 56.248 34.0212 56.2553C34.0068 56.2626 33.9924 56.2626 33.978 56.2626Z" fill="#F5A784"/>
<path d="M45.3261 48.2646C45.2973 48.3449 45.2612 48.4179 45.218 48.4837C44.937 48.9146 44.375 49.1264 43.8563 49.2433C42.3144 49.5939 40.7221 49.5793 39.1443 49.55C37.4151 49.5208 35.6715 49.4916 34.0072 49.0461C33.719 48.9657 33.4164 48.8708 33.193 48.6736C32.9985 48.4983 32.8688 48.2792 32.7607 48.0308C32.6887 47.8628 32.6238 47.6802 32.5734 47.5122C31.68 44.9047 30.2318 42.9838 28.1568 41.2527C28.0775 41.187 27.9911 41.114 27.9118 41.0409C27.0112 43.7215 26.1034 46.4093 25.1955 49.0972C23.7185 48.9219 22.2631 48.5348 20.887 47.9651C20.6348 47.8628 20.3827 47.746 20.1377 47.6145C20.2746 46.6869 20.4619 45.7593 20.6637 44.839C21.2112 42.3483 21.8236 39.8723 22.5153 37.4255C22.6954 36.79 22.89 36.1473 23.2574 35.6068C23.4375 35.3438 23.6321 35.132 23.8338 34.9713C24.331 34.4089 25.0442 33.7004 25.9881 33.0285C26.442 32.7071 26.9463 32.393 27.4939 32.1009C27.5011 32.0935 27.5155 32.0862 27.5371 32.0789C27.6236 32.0278 27.7101 31.9767 27.8037 31.9329C28.6899 32.3054 29.3023 32.9189 30.3254 33.0796C31.0099 33.1891 31.8529 33.0723 32.1843 32.4514C32.2996 32.2396 32.3284 32.0059 32.3284 31.7503C32.3212 31.5311 32.2852 31.3047 32.2492 31.0929C32.1699 30.662 31.9754 29.6686 31.9682 29.6029C32.0042 29.5299 32.0402 29.4495 32.069 29.3765C32.4365 28.4343 31.9249 26.8274 31.6944 25.8706C31.399 24.6581 31.0531 23.4456 30.7217 22.2332C30.3831 20.9915 30.0877 19.6987 29.6842 18.457C30.1021 17.7193 31.0243 17.23 31.8817 16.9743C32.5302 16.7771 33.229 16.6529 33.9063 16.6895C34.7853 18.8807 35.9597 22.2405 36.9035 25.3009C37.0044 25.6368 37.1125 25.9655 37.2061 26.2942C38.3589 30.1507 40.0016 33.8465 41.7092 37.4985C43.143 40.5662 44.2886 43.7069 45.2396 46.9717C45.3621 47.4027 45.4774 47.8555 45.3261 48.2646Z" fill="#3B847E"/>
<path d="M16.3695 11.7447C11.7151 17.0766 6.28261 23.9642 6.24658 31.4581C6.24658 31.5969 6.46993 31.6407 6.49875 31.4946C7.08235 27.755 8.20632 24.2929 10.0868 21.0061C11.9457 17.7485 14.3233 14.8781 16.5352 11.8762C16.6073 11.7812 16.4487 11.657 16.3695 11.7447Z" fill="black"/>
<path d="M13.8188 23.7891C11.6718 26.4331 10.3533 29.9536 9.54631 33.2404C8.71775 36.6075 8.39353 40.223 8.97712 43.6559C9.00594 43.8166 9.26532 43.7801 9.25812 43.6194C9.13563 40.1573 9.22209 36.7609 10.0218 33.3719C10.8288 29.9463 12.3562 26.9809 13.9341 23.8767C13.9701 23.811 13.8765 23.716 13.8188 23.7891Z" fill="black"/>
<path d="M32.7679 48.0382C32.6958 47.8702 32.631 47.6876 32.5805 47.5196C31.6871 44.9121 30.2389 42.9912 28.1639 41.2601C28.0847 41.1944 27.9982 41.1213 27.9189 41.0483L28.5314 38.5649C28.5314 38.5722 32.1554 41.3331 32.7679 48.0382Z" fill="#3B847E"/>
<path d="M42.1484 78.0428C41.9683 76.0634 41.7233 74.0913 41.255 72.1558C40.5705 69.3218 39.4898 66.13 38.6973 62.8724L39.3529 59.6587C39.3529 59.6587 42.1124 65.6699 42.415 70.9725C42.5303 73.1345 42.379 75.7274 42.1484 78.0428Z" fill="#1C5F59"/>
<path d="M23.5599 43.5099C23.2861 43.6267 23.0411 43.8312 22.7962 43.9992C22.5584 44.1599 22.3279 44.3206 22.1117 44.5032C21.9316 44.6493 22.1621 44.8976 22.3423 44.81C22.6161 44.6785 22.8682 44.5178 23.1276 44.3571C23.3654 44.2037 23.6247 44.0723 23.8337 43.8751C24.0426 43.6852 23.7761 43.4149 23.5599 43.5099Z" fill="black"/>
<path d="M24.756 38.8866C24.5903 38.5871 24.4101 38.2949 24.2228 38.0101C24.1508 37.9078 23.9634 37.9663 24.0139 38.0977C24.1219 38.3972 24.23 38.6894 24.3669 38.9815C24.4894 39.2518 24.5903 39.6243 24.828 39.8142C24.9289 39.8945 25.1162 39.858 25.109 39.6973C25.0946 39.3905 24.8929 39.1349 24.756 38.8866Z" fill="black"/>
<path d="M30.4552 35.198C29.8932 34.9862 29.1295 34.9424 28.5315 34.9424C28.3802 34.9424 28.3657 35.1542 28.4954 35.198C29.0646 35.4025 29.7851 35.6217 30.3975 35.6143C30.6497 35.6143 30.6713 35.2784 30.4552 35.198Z" fill="black"/>
<path d="M31.7807 41.253C31.5717 41.2311 31.3556 41.2822 31.1466 41.2895C30.9377 41.2968 30.7215 41.2895 30.5126 41.2749C30.21 41.253 30.21 41.7277 30.5126 41.7496C30.9233 41.7789 31.442 41.8373 31.8311 41.6912C32.0761 41.6036 32.0328 41.2749 31.7807 41.253Z" fill="black"/>
<path d="M35.3615 44.8099C35.3039 44.5104 35.275 44.211 35.203 43.9188C35.1742 43.7946 34.9796 43.7946 34.958 43.9188C34.886 44.2475 34.8932 44.5689 34.9364 44.8975C34.9724 45.1897 34.9724 45.4965 35.2174 45.6864C35.3111 45.7594 35.4263 45.6718 35.4624 45.5841C35.556 45.3431 35.4119 45.0582 35.3615 44.8099Z" fill="black"/>
<path d="M36.2909 37.6887C36.0315 37.5353 35.7721 37.5645 35.4839 37.5061C35.1669 37.4404 34.8499 37.3235 34.5617 37.1774C34.4176 37.1044 34.2375 37.3016 34.3816 37.4185C34.8283 37.791 35.7289 38.3022 36.2909 37.9297C36.3773 37.8713 36.3846 37.7471 36.2909 37.6887Z" fill="black"/>
<path d="M40.4841 41.8224C40.3904 41.4864 40.3256 41.1358 40.2391 40.7925C40.1815 40.5661 39.8717 40.6318 39.8573 40.8437C39.8356 41.2016 39.8717 41.5521 39.9509 41.9027C40.0086 42.173 40.059 42.5674 40.34 42.6843C40.4192 42.7135 40.5129 42.7135 40.5561 42.6258C40.7074 42.3702 40.5633 42.0926 40.4841 41.8224Z" fill="black"/>
<path d="M40.895 46.0296C40.6284 45.7301 40.052 45.6863 39.6774 45.6936C39.5477 45.6936 38.9136 45.7155 39.0721 46.0223C39.1874 46.256 39.5549 46.2195 39.771 46.256C40.0808 46.3071 40.4195 46.4824 40.7293 46.4459C40.931 46.424 41.0463 46.1976 40.895 46.0296Z" fill="black"/>
<path d="M37.0406 33.8246C36.8749 33.5543 36.5074 33.4375 36.2336 33.2987C36.0823 33.2257 35.9382 33.1526 35.7797 33.0869C35.7005 33.0504 35.3907 32.9919 35.3618 32.9116C35.3474 32.8678 35.2682 32.8532 35.261 32.9116C35.2105 33.2037 35.4843 33.3498 35.6933 33.4959C35.895 33.6347 36.1111 33.7662 36.3201 33.8976C36.5074 34.0072 36.6515 34.124 36.8749 34.124C37.0118 34.1167 37.1126 33.9488 37.0406 33.8246Z" fill="black"/>
<path d="M34.5547 27.5874C34.2305 28.011 34.0936 28.6684 33.9783 29.1797C33.9351 29.3696 34.2017 29.4426 34.2665 29.26C34.353 29.0044 34.4467 28.7487 34.5403 28.5004C34.634 28.2521 34.7781 28.0037 34.8213 27.7481C34.8429 27.602 34.6628 27.4413 34.5547 27.5874Z" fill="black"/>
<path d="M33.7188 23.913C33.5747 23.6792 33.3009 23.5624 33.0703 23.4309C32.8254 23.2921 32.566 23.1314 32.2922 23.073C32.1841 23.0511 32.1265 23.1679 32.1913 23.2556C32.3642 23.4747 32.6308 23.6427 32.8542 23.8034C33.0775 23.9568 33.3009 24.1394 33.5675 24.1686C33.6972 24.1832 33.7836 24.0152 33.7188 23.913Z" fill="black"/>
<path d="M33.5891 20.1446C33.5458 19.7648 33.5098 19.3777 33.4738 18.9979C33.4522 18.7277 33.0343 18.7204 33.0487 18.9979C33.0703 19.4069 33.0919 19.816 33.1352 20.225C33.164 20.5537 33.1568 20.9189 33.3297 21.211C33.409 21.3352 33.6035 21.3133 33.6395 21.1672C33.7332 20.8385 33.6251 20.4806 33.5891 20.1446Z" fill="black"/>
</g>
<defs>
<clipPath id="clip0">
<rect width="68" height="102" fill="white"/>
</clipPath>
</defs>
</svg>
