<svg width="79" height="93" viewBox="0 0 79 93" fill="none" xmlns="http://www.w3.org/2000/svg">
<path d="M78.4354 92.7578C77.6149 92.8515 76.7789 92.914 75.9429 92.953C75.703 92.9608 7.90354 92.992 7.90354 92.992C7.8571 92.9842 7.81065 92.9842 7.76421 92.9842C7.40041 92.953 7.04434 92.9218 6.68054 92.8827C5.75167 92.7891 5.75167 91.5243 6.68054 91.4306C7.0366 91.3916 7.40041 91.3603 7.76421 91.3369C7.8184 91.3291 7.86484 91.3291 7.91902 91.3291C7.91902 91.3291 75.7107 91.3525 75.9429 91.3681C76.7789 91.4072 77.6071 91.4774 78.4431 91.5633C79.194 91.6492 79.1862 92.6719 78.4354 92.7578Z" fill="#C6C6C6"/>
<path d="M22.3162 19.6586C21.4493 23.4217 20.4972 27.3565 17.9428 30.2374C15.3807 33.1417 11.5801 34.5392 8.38324 36.7096C5.10125 38.9347 2.36884 42.081 0.975538 45.8207C-0.41776 49.5604 -0.379057 53.8856 1.40901 57.4457C2.95712 60.5217 5.72049 62.9732 6.66484 66.2913C7.16797 68.0636 7.10605 69.9529 7.60919 71.7252C9.04119 76.8155 14.6144 79.5246 19.7928 80.3834C24.9712 81.2422 30.4128 80.9143 35.2971 82.8583C38.1766 84.006 41.0793 85.95 44.0904 85.2473C46.2577 84.7398 47.8987 82.952 49.9422 82.062C52.8759 80.7972 56.243 81.5233 59.4167 81.1407C63.7668 80.6176 67.7919 77.8304 69.8354 73.919C71.5229 70.6868 71.8634 66.9393 72.7072 63.387C74.0076 57.9454 76.5465 52.8394 77.5837 47.3353C78.6209 41.8312 77.785 35.4292 73.4967 31.8769C71.9408 30.5887 70.0522 29.7768 68.4808 28.5198C62.0717 23.4061 62.8148 13.1083 57.7911 6.60486C54.3853 2.19376 48.6418 0.11703 43.0996 -7.88583e-05C38.6642 -0.0859586 34.1515 0.975827 30.498 3.48976C24.8242 7.36997 23.7637 13.3816 22.3162 19.6586Z" fill="#B4E2DE"/>
<path d="M41.7993 40.3478C41.7451 41.433 41.6057 42.6978 41.4045 44.0796C41.0484 46.5389 40.4834 49.3339 39.8796 52.043C38.4786 58.281 36.8453 64.035 36.8453 64.035C36.7834 67.4077 36.2493 71.3504 35.5991 74.9886C35.5372 75.3867 35.4598 75.7771 35.3901 76.1596C35.1501 77.4166 34.9102 78.6189 34.6702 79.7354C33.811 83.7093 33.0292 86.5667 33.0292 86.5667L29.2596 85.8484C29.0815 83.6858 29.0119 81.6325 29.0196 79.7041C29.0196 78.5018 29.0506 77.3542 29.097 76.2533C29.1202 75.6756 29.1589 75.1135 29.1899 74.5748C29.6311 68.0011 30.7612 63.6524 30.769 62.778C30.7999 58.3825 31.0554 54.5492 31.4037 51.2701C32.3713 42.2527 34.1052 37.5606 34.1052 37.5606C36.5434 31.9081 40.197 32.2985 41.4045 36.4598C41.7141 37.5294 41.8689 38.8332 41.7993 40.3478Z" fill="#F5A784"/>
<path d="M53.7894 80.9378C53.7661 82.4992 53.6965 84.1466 53.5571 85.8485L49.7875 86.5668C49.7875 86.5668 49.1218 84.1075 48.34 80.5786C48.0536 79.2826 47.7517 77.8461 47.4653 76.3315C47.3879 75.8943 47.3028 75.4571 47.2254 75.0199C46.5752 71.3739 46.0333 67.4078 45.9714 64.0273C45.9714 64.0273 44.3149 58.2265 42.9216 51.9651C42.3179 49.2794 41.7606 46.5 41.4045 44.0641C41.2032 42.6822 41.0639 41.4175 41.0175 40.3323C40.9478 38.8177 41.1026 37.5138 41.4122 36.4521C42.6352 32.283 46.281 31.9004 48.7116 37.5529C48.7116 37.5529 50.43 42.2216 51.3975 51.2C51.7536 54.479 52.009 58.3436 52.0477 62.7703C52.0555 63.6369 53.1624 67.9075 53.6191 74.3875C53.6578 74.9262 53.6887 75.4805 53.712 76.0582C53.7816 77.5885 53.8126 79.2124 53.7894 80.9378Z" fill="#F5A784"/>
<path d="M53.6114 74.3952C51.6221 74.7075 49.4548 74.9105 47.2255 75.0198C46.5753 71.3738 46.0334 67.4077 45.9715 64.0272C45.9715 64.0272 44.315 58.2264 42.9217 51.965C42.318 49.2793 41.7607 46.4999 41.4046 44.064C41.0485 46.5155 40.4835 49.3183 39.8797 52.0274C38.4787 58.2654 36.8454 64.0194 36.8454 64.0194C36.7835 67.3921 36.2494 71.3348 35.5992 74.9729C33.2461 74.8636 31.0555 74.7153 29.1978 74.5592C29.639 67.9854 30.7691 63.6368 30.7768 62.7624C30.8078 58.3669 31.0632 54.5335 31.4116 51.2545C32.3791 42.2371 34.113 37.545 34.113 37.545C36.5513 31.8925 40.2048 32.2829 41.4123 36.4441C42.3335 33.2666 44.6866 32.2907 46.8307 34.5236C47.4964 35.2184 48.1389 36.2099 48.7194 37.545C48.7194 37.545 49.269 39.0205 49.9115 41.917C50.4146 44.1577 50.9796 47.265 51.4054 51.192C51.7614 54.4711 52.0169 58.3357 52.0556 62.7624C52.0478 63.6446 53.1547 67.9152 53.6114 74.3952Z" fill="#3B847E"/>
<path d="M49.9036 41.9403C47.7827 39.6138 38.4863 39.0048 38.4863 39.0048L46.8229 34.5469C47.4886 35.2417 48.131 36.2332 48.7116 37.5683C48.7116 37.5605 49.2534 39.0439 49.9036 41.9403Z" fill="#1C5F59"/>
<path d="M33.517 90.408C33.517 90.447 33.5092 90.4861 33.5092 90.5251C33.3854 92.2817 31.9611 92.0163 29.8557 92.0475C28.176 92.0709 27.2781 91.1028 27.3787 90.0801C27.4019 89.7912 27.5103 89.5024 27.6961 89.2213C28.2766 88.3781 28.594 87.3476 28.7333 86.762C28.8339 86.3716 29.0429 86.0125 29.3603 85.7627C30.6839 84.6853 31.9534 85.5129 32.5959 86.1062C32.8745 86.3638 33.068 86.6996 33.1532 87.0743C33.3157 87.777 33.5402 89.112 33.517 90.408Z" fill="black"/>
<path d="M52.9689 92.0474C50.8093 92.0162 49.3386 92.2972 49.3076 90.4079C49.3076 90.3532 49.2999 90.2986 49.3076 90.2439C49.2767 89.0494 49.4934 87.8549 49.6482 87.1601C49.7411 86.7307 49.9578 86.3481 50.2829 86.0515C50.9099 85.4893 52.0555 84.7789 53.2708 85.6064C53.6888 85.8953 53.9752 86.3325 54.1068 86.8244C54.2616 87.4255 54.5712 88.4014 55.1285 89.2056C55.2369 89.3617 55.3143 89.5179 55.3685 89.6818C55.7555 90.8451 54.8576 92.0786 52.9689 92.0474Z" fill="black"/>
<path d="M45.2905 10.1104C45.515 9.86833 45.6234 9.55604 45.6776 9.25937C45.755 8.76751 45.724 8.24442 45.9407 7.7916C46.0491 7.55738 46.2271 7.3544 46.2891 7.10456C46.3432 6.85473 46.2658 6.57367 46.0878 6.3863C45.9562 6.25357 45.7704 6.15989 45.7085 5.98032C45.6698 5.87102 45.693 5.75391 45.6853 5.64461C45.6621 5.30109 45.4066 5.01222 45.1048 4.84827C44.8029 4.69212 44.4623 4.62966 44.1217 4.56721C43.7889 4.49694 43.4405 4.41106 43.1696 4.20807C43.0458 4.11439 42.9374 3.98947 42.7981 3.9114C42.5581 3.77867 42.264 3.80209 41.9853 3.84894C41.4744 3.93482 40.9713 4.09096 40.4914 4.29395C40.3134 4.37202 40.1353 4.4579 39.9418 4.48913C39.6477 4.52817 39.3535 4.43448 39.0671 4.48913C38.6259 4.57501 38.324 4.98099 38.1073 5.37916C38.0454 5.49627 37.9835 5.62119 37.8751 5.69145C37.759 5.76952 37.6042 5.78514 37.4726 5.82417C37.1088 5.94128 36.8611 6.29261 36.7605 6.65955C36.6521 7.04991 36.6985 7.43247 36.7372 7.83064C36.7759 8.21319 36.7682 8.59575 36.8688 8.9783C37.6506 12.1246 37.8674 11.2268 37.8674 11.2268C38.6491 11.1565 39.4309 11.0706 40.2127 10.9848C41.2655 10.8677 42.3182 10.7506 43.3631 10.5944C43.7811 10.5319 44.1991 10.4461 44.6094 10.3836C44.8803 10.3368 45.0815 10.3212 45.2905 10.1104Z" fill="black"/>
<path d="M37.6582 9.86066C37.6582 9.86066 36.9616 9.07212 36.3191 9.89969C35.6766 10.7273 36.8609 12.2497 37.7356 12.2887C37.7356 12.2887 37.7666 10.2042 37.6582 9.86066Z" fill="#E0855C"/>
<path d="M50.4224 18.878C50.0818 19.768 48.9749 22.7738 48.3866 25.6547C48.3247 25.9514 48.2783 26.2324 48.2241 26.5213C48.1776 26.779 48.1467 27.0132 48.1157 27.2396C48.1002 27.3801 48.077 27.5597 48.0538 27.7783C47.8138 30.1048 47.3649 36.6239 47.2797 37.7325C47.272 37.834 47.272 37.8887 47.272 37.8887C41.2653 39.7624 34.9258 38.2712 34.9258 38.2712C34.9258 38.2712 34.9181 38.1541 34.8794 37.9277C34.7401 36.8503 33.4397 25.3268 33.3932 24.8662C33.1223 22.1258 32.9288 19.6041 32.9133 18.0348C32.9056 17.8084 33.1145 17.6757 33.4164 17.5898C33.9041 17.4493 34.593 17.4181 35.1348 17.3322C36.2649 17.137 37.4802 17.0433 38.1846 17.0121C38.2775 17.0043 38.3626 17.0043 38.44 16.9965C38.4942 16.9887 38.5484 16.9887 38.5949 16.9887C38.7187 16.9887 38.7806 16.9809 38.7806 16.9809L38.9741 13.8658C39.0748 13.8892 39.1754 13.9048 39.276 13.9048C39.4773 13.936 39.6785 13.9516 39.8643 13.9516C40.1197 13.9516 40.3597 13.9438 40.5842 13.9126C40.7003 13.897 40.8087 13.8892 40.917 13.8658C41.0718 13.8423 41.2266 13.8111 41.3737 13.7799C41.6137 13.7174 41.8536 13.6472 42.0704 13.5613C42.14 13.5379 42.2097 13.5222 42.2716 13.4832C42.2948 13.4754 42.3103 13.4754 42.3258 13.4598C42.38 13.4364 42.4342 13.4129 42.4806 13.3973C42.8057 13.2568 43.0766 13.0928 43.3011 12.9523C43.4404 12.8586 43.572 12.7727 43.6649 12.7025C43.7036 12.6713 43.7191 12.6634 43.7268 12.6478C43.781 12.6088 43.8275 12.5776 43.8662 12.5385C43.9126 12.4995 43.9436 12.4761 43.9513 12.4683C43.9358 12.5776 43.9281 12.6244 43.9204 12.6791C43.8584 13.1865 43.8197 13.8501 43.812 14.506C43.7965 14.951 43.7965 15.396 43.7888 15.7863C43.7888 16.4578 43.8042 16.9418 43.8042 16.9418C43.9281 16.934 44.0442 16.934 44.1603 16.9496C44.1835 16.9496 44.2145 16.9496 44.2377 16.9574C44.2532 16.9496 44.2764 16.9496 44.2919 16.9496C44.9576 16.9574 45.5923 17.0199 46.1728 17.1136C47.8371 17.379 48.9672 17.6835 49.6329 17.9568C49.8032 18.027 49.927 18.0895 50.0354 18.1519C50.167 18.23 50.4766 18.7297 50.4224 18.878Z" fill="#F5A784"/>
<path d="M43.9513 12.4683C43.2778 16.0596 39.7172 15.9269 38.8657 15.4819L38.9664 13.8658C41.9155 14.3732 43.9513 12.4683 43.9513 12.4683Z" fill="#E0855C"/>
<path d="M37.7435 7.51076C37.31 7.99481 37.31 9.04098 37.3023 10.1965C37.2945 13.7097 38.3705 14.7715 40.1508 14.9042C41.9311 15.0448 43.7656 14.2953 44.052 11.0318C44.1914 9.40012 44.3539 7.89332 43.7424 7.20628C42.8445 6.19914 39.0594 6.03519 37.7435 7.51076Z" fill="#F5A784"/>
<path d="M43.7966 10.5789C43.7966 10.5789 44.2997 9.11118 45.1744 9.85286C46.0568 10.5946 44.9344 12.8274 43.6186 12.7025C43.6186 12.7025 43.3941 11.0864 43.7966 10.5789Z" fill="#F5A784"/>
<path d="M44.7951 10.5241C44.6093 10.5631 44.4158 10.7505 44.2842 10.8832C44.1449 11.0238 43.9823 11.1955 43.9126 11.3829C43.8894 11.4454 43.9746 11.4766 44.0133 11.4376C44.1216 11.3283 44.2068 11.2033 44.3074 11.0862C44.3848 11.1643 44.4622 11.2424 44.5628 11.2814C44.6403 11.3048 44.6944 11.2111 44.6635 11.1409C44.617 11.055 44.5319 11.0003 44.4467 10.9457C44.5783 10.8364 44.7409 10.7505 44.8492 10.6178C44.8957 10.5788 44.8492 10.5163 44.7951 10.5241Z" fill="#E0855C"/>
<path d="M38.8269 10.0714C38.8269 10.0714 38.5328 10.1963 38.556 9.65762C38.5792 9.17357 38.7959 9.23603 38.7959 9.23603C38.7959 9.23603 39.0049 9.22822 38.9895 9.64981C38.974 10.0636 38.8269 10.0714 38.8269 10.0714Z" fill="black"/>
<path d="M41.8689 9.97765C41.8689 9.97765 41.5748 10.1026 41.598 9.56387C41.6212 9.07982 41.8379 9.14228 41.8379 9.14228C41.8379 9.14228 42.0469 9.13447 42.0315 9.55606C42.016 9.96984 41.8689 9.97765 41.8689 9.97765Z" fill="black"/>
<path d="M40.2359 11.461C40.0811 11.4454 39.7328 11.5469 39.6631 11.3829C39.6012 11.2502 39.8179 10.4226 39.8489 10.2821C39.9572 9.77461 40.0811 9.43109 40.1585 8.82212C40.1585 8.7987 40.1198 8.78309 40.1043 8.80651C39.7792 9.61846 39.6786 10.6178 39.4851 11.4766C39.4773 11.5234 39.5083 11.5703 39.5625 11.5703C39.7869 11.5625 40.0037 11.6015 40.2282 11.5937C40.2978 11.5937 40.3133 11.4688 40.2359 11.461Z" fill="#E0855C"/>
<path d="M39.4231 8.45511C39.2451 8.40827 39.0516 8.4473 38.8658 8.43169C38.6723 8.41607 38.4788 8.338 38.2775 8.35362C38.1846 8.36142 38.1227 8.47853 38.2001 8.5488C38.4555 8.80644 39.1444 8.89232 39.4541 8.72056C39.5702 8.66591 39.5392 8.48634 39.4231 8.45511Z" fill="black"/>
<path d="M42.6895 8.04125C42.3954 8.16616 42.1709 8.30669 41.8458 8.32231C41.6523 8.33012 41.42 8.28327 41.2652 8.416C41.242 8.43942 41.2343 8.48626 41.2498 8.50968C41.5516 8.9547 42.5424 8.43161 42.7746 8.11932C42.8211 8.07248 42.7437 8.01783 42.6895 8.04125Z" fill="black"/>
<path d="M41.3891 12.3742C41.0795 12.2962 40.7234 12.3352 40.406 12.3508C40.1816 12.3586 39.8642 12.3118 39.7017 12.4991C39.8797 12.6709 40.1816 12.5928 40.406 12.5928C40.7311 12.585 41.0717 12.6241 41.3891 12.5616C41.482 12.5382 41.4742 12.3976 41.3891 12.3742Z" fill="#E0855C"/>
<path d="M67.8924 53.0267H13.5925C13.3138 53.0267 13.0894 52.8002 13.0894 52.5192C13.0894 52.2381 13.3138 52.0117 13.5925 52.0117H67.8924C68.1711 52.0117 68.3955 52.2381 68.3955 52.5192C68.3955 52.8002 68.1711 53.0267 67.8924 53.0267Z" fill="black"/>
<path d="M15.3109 55.1347C14.8387 55.1347 14.4517 54.7443 14.4517 54.2681V50.7626C14.4517 50.2864 14.8387 49.896 15.3109 49.896C15.783 49.896 16.1701 50.2864 16.1701 50.7626V54.2681C16.1701 54.7521 15.7908 55.1347 15.3109 55.1347Z" fill="black"/>
<path d="M17.0291 58.2028C16.5569 58.2028 16.1699 57.8125 16.1699 57.3362V47.7021C16.1699 47.2258 16.5569 46.8354 17.0291 46.8354C17.5013 46.8354 17.8883 47.2258 17.8883 47.7021V57.3362C17.8961 57.8125 17.509 58.2028 17.0291 58.2028Z" fill="black"/>
<path d="M18.7557 59.6551C18.2835 59.6551 17.8965 59.2648 17.8965 58.7885V46.5312C17.8965 46.0549 18.2835 45.6646 18.7557 45.6646C19.2279 45.6646 19.6149 46.0549 19.6149 46.5312V58.7885C19.6149 59.2726 19.2279 59.6551 18.7557 59.6551Z" fill="black"/>
<path d="M65.4232 55.1347C65.8953 55.1347 66.2824 54.7443 66.2824 54.2681V50.7626C66.2824 50.2864 65.8953 49.896 65.4232 49.896C64.951 49.896 64.564 50.2864 64.564 50.7626V54.2681C64.564 54.7521 64.951 55.1347 65.4232 55.1347Z" fill="black"/>
<path d="M63.705 58.2028C64.1772 58.2028 64.5642 57.8125 64.5642 57.3362V47.7021C64.5642 47.2258 64.1772 46.8354 63.705 46.8354C63.2328 46.8354 62.8458 47.2258 62.8458 47.7021V57.3362C62.8381 57.8125 63.2251 58.2028 63.705 58.2028Z" fill="black"/>
<path d="M61.9788 59.6551C62.451 59.6551 62.838 59.2648 62.838 58.7885V46.5312C62.838 46.0549 62.451 45.6646 61.9788 45.6646C61.5067 45.6646 61.1196 46.0549 61.1196 46.5312V58.7885C61.1196 59.2726 61.5067 59.6551 61.9788 59.6551Z" fill="black"/>
<path d="M36.2415 23.9369C35.9706 25.0611 35.4443 26.1073 34.9334 27.1457C34.7089 27.6141 33.8033 29.5972 33.7646 29.6752C32.3558 32.8137 30.3665 37.3966 30.2194 37.9353C29.7472 39.6997 28.8029 49.9272 28.7951 49.935C27.8276 51.4028 25.9853 50.6923 25.9853 50.6923C25.9853 50.6923 25.9466 50.3801 25.9079 49.8492C25.6989 47.5773 25.2035 41.1831 25.7763 37.4122C25.9389 36.366 26.5736 33.8287 27.3244 30.9556C27.9437 28.5822 28.2146 26.3962 28.95 24.1087C29.4995 22.3911 30.3123 20.611 31.7056 18.667C31.9765 18.2923 32.9441 17.6364 33.4162 17.5896C33.7026 17.5584 33.8265 17.9643 34.0665 18.0658C34.7476 18.3703 35.3127 18.9168 35.6378 19.5883C36.2803 20.9077 36.5744 22.5004 36.2415 23.9369Z" fill="#F5A784"/>
<path d="M25.7995 51.8011C25.8305 51.4497 25.8692 51.0984 25.8769 50.7627C25.8924 50.224 25.8847 49.8727 25.8847 49.8727C26.3414 49.2091 27.7888 49.0451 28.4236 49.4667C28.6171 49.5916 28.7719 49.7712 28.9344 49.9351C29.2441 50.2318 29.6001 50.466 29.8865 50.7783C30.1729 51.0906 30.3897 51.52 30.3045 51.9416C29.933 52.0119 29.5924 52.1212 29.3447 52.4256C29.0583 52.7848 29.1744 53.1127 29.0428 53.5109C28.9344 53.8231 28.5629 53.9481 28.2378 54.0027C27.247 54.1432 25.8305 54.1979 25.7453 52.9097C25.7376 52.5428 25.7686 52.1758 25.7995 51.8011Z" fill="#F5A784"/>
<path d="M56.7849 49.8493C56.7384 50.3802 56.7075 50.6925 56.7075 50.6925C56.7075 50.6925 54.8652 51.403 53.8899 49.9352C53.8822 49.9274 52.9378 39.6999 52.4734 37.9355C52.396 37.6388 51.7922 36.1945 51.0336 34.4456C50.2364 32.6109 47.8368 27.3176 47.7594 27.1459C47.2485 26.1075 46.7144 25.0691 46.4512 23.9371C46.1184 22.5005 46.4125 20.9079 47.055 19.5962C47.3801 18.9248 47.9529 18.3783 48.6263 18.0738C48.8663 17.9645 49.1295 17.8943 49.3927 17.9099C49.4778 17.9177 49.5629 17.9333 49.6403 17.9567C49.7952 18.0036 49.919 18.066 50.0429 18.1519C50.2364 18.2768 50.4144 18.4408 50.577 18.5969C52.009 20.0413 52.9146 21.876 53.5725 23.8434C54.3621 26.1856 54.8033 28.7073 55.3916 30.9636C56.1424 33.8367 56.7694 36.3662 56.9319 37.4202C57.4893 41.1911 56.9861 47.5774 56.7849 49.8493Z" fill="#F5A784"/>
<path d="M56.8545 51.8089C56.8313 51.4263 56.8158 51.0672 56.8003 50.7705C56.7848 50.2318 56.7926 49.8727 56.7926 49.8727C56.3359 49.2091 54.8884 49.0451 54.2537 49.4667C54.0602 49.5916 53.9054 49.7712 53.7428 49.9351C53.4332 50.2318 53.0771 50.466 52.7907 50.7783C52.5043 51.0906 52.2876 51.52 52.3727 51.9416C52.3805 51.9728 53.2629 52.1758 53.3867 52.3007C53.6809 52.5974 53.4564 52.8629 53.4564 53.1986C53.4487 53.6748 53.7892 53.8388 54.1995 53.9168C54.4936 53.9715 54.78 54.0261 55.0742 54.073C55.5386 54.1432 56.034 54.1823 56.4442 53.9481C56.5062 53.909 56.5681 53.87 56.6145 53.8075C56.6532 53.7529 56.6765 53.6904 56.6919 53.6202C56.8545 53.0112 56.8932 52.4413 56.8545 51.8089Z" fill="#F5A784"/>
<path d="M48.3861 25.6548L48.8119 37.8731C41.6674 40.6838 33.9345 38.0605 33.9345 38.0605L33.7643 26.3496C33.6868 26.3262 33.6094 26.3106 33.532 26.2872C33.1837 26.1779 32.8122 26.0608 32.4329 25.9046C32.2084 25.8188 31.9917 25.7251 31.7672 25.6236C30.7996 25.1864 29.8166 24.6477 28.9419 24.1168C29.4915 22.3992 30.3042 20.6191 31.6975 18.6751C31.9684 18.3004 32.936 17.6446 33.4082 17.5977C33.8958 17.4572 34.5848 17.426 35.1266 17.3401C36.2567 17.1449 37.472 17.0512 38.1764 17.02L40.9939 24.0387C40.9939 24.0387 43.1148 20.0023 44.1521 16.9575C44.1753 16.9575 44.2063 16.9575 44.2295 16.9653C44.245 16.9575 44.2682 16.9575 44.2837 16.9575C44.9493 16.9653 45.5841 17.0278 46.1646 17.1215C47.8288 17.3869 48.9589 17.6914 49.6246 17.9647C49.7794 18.0115 49.9033 18.074 50.0271 18.1598C50.2207 18.2848 50.3987 18.4487 50.5612 18.6049C51.9932 20.0492 52.8989 21.8839 53.5568 23.8513C52.6512 24.2807 51.614 24.6633 50.7083 24.9678C49.4079 25.3894 48.3861 25.6548 48.3861 25.6548Z" fill="#56BCB4"/>
<path d="M33.7645 22.313V26.3493C33.6871 26.3259 33.6097 26.3103 33.5323 26.2869C33.1839 26.1776 32.8124 26.0605 32.4331 25.9043C33.1917 24.1789 33.7645 22.313 33.7645 22.313Z" fill="#27192E"/>
<path d="M31.7909 87.7146C31.1794 87.3711 30.0338 87.1056 29.43 87.5819C29.3913 87.6131 29.3913 87.6678 29.3991 87.7146C29.3991 87.7302 29.4068 87.7458 29.4068 87.7615C29.4145 87.8239 29.492 87.8395 29.5384 87.8161C29.5616 87.8005 29.5694 87.8083 29.5926 87.8005C29.7319 87.7146 29.879 87.6756 30.0338 87.6599C30.235 87.6443 30.4363 87.6834 30.6298 87.7146C31.0014 87.7849 31.3574 87.9176 31.7367 87.902C31.8373 87.8942 31.8838 87.7614 31.7909 87.7146Z" fill="#8A848D"/>
<path d="M32.1854 88.8152C31.8835 88.4795 31.3572 88.4249 30.9314 88.3702C30.5289 88.3234 29.9639 88.2531 29.6155 88.5107C29.5536 88.5576 29.5304 88.6747 29.6155 88.7137C29.9561 88.8699 30.3509 88.784 30.7224 88.8308C31.1637 88.8777 31.6358 89.1119 32.0848 89.0573C32.2086 89.0416 32.2706 88.9167 32.1854 88.8152Z" fill="#8A848D"/>
<path d="M53.023 87.2929C52.4192 86.7933 50.8788 86.9494 50.3834 87.574C50.306 87.6755 50.3447 87.8707 50.4995 87.8551C50.8943 87.816 51.2581 87.6208 51.6606 87.5818C52.0709 87.535 52.4734 87.6911 52.8759 87.6443C53.0307 87.6286 53.17 87.4178 53.023 87.2929Z" fill="#8A848D"/>
<path d="M53.348 88.3154C52.8681 88.128 52.2721 88.2139 51.7612 88.2295C51.3974 88.2373 50.9949 88.2373 50.7394 88.5418C50.6311 88.6823 50.724 88.9399 50.9329 88.8697C51.707 88.5964 52.5817 89.0102 53.348 88.7213C53.5492 88.6511 53.5492 88.3934 53.348 88.3154Z" fill="#8A848D"/>
<path d="M22.3547 81.6805C22.3238 81.6259 22.3083 81.5947 22.2928 81.5712C22.1535 81.2824 21.8438 80.4392 22.1225 78.8934C22.1535 78.7138 22.1922 78.5186 22.2464 78.3156C22.4863 77.3709 22.8037 73.5688 16.4255 73.5063C10.055 73.5688 10.3724 77.3787 10.6123 78.3156C10.6742 78.5654 10.7207 78.7919 10.7594 79.0105C11.0071 80.486 10.7129 81.298 10.5659 81.579C10.5504 81.6103 10.5349 81.6337 10.5194 81.6649C9.97759 82.6643 9.66797 83.7807 9.66797 84.9674C9.66797 88.7305 12.6945 91.7831 16.4255 91.7831C20.1564 91.7831 23.183 88.7305 23.183 84.9674C23.1907 83.7729 22.8811 82.6564 22.3547 81.6805ZM20.0403 78.5264C20.0326 78.5576 20.0248 78.5967 20.0171 78.6279C19.9319 78.784 19.8236 78.909 19.692 78.987C19.2585 79.2603 18.5928 79.1588 17.7568 78.8934C16.6499 78.5498 16.0075 78.542 14.529 79.0339C13.7937 79.2759 13.3757 79.1744 13.1435 79.0105C13.0119 78.9168 12.9345 78.8075 12.888 78.7216C12.8493 78.6279 12.8261 78.5186 12.8029 78.4015C12.7642 78.1673 12.7564 77.8784 12.7719 77.5427C12.9035 75.2083 16.4332 75.4504 16.4332 75.4504C16.4332 75.4504 19.9629 75.2083 20.0945 77.5427C20.1177 77.9409 20.1022 78.261 20.0403 78.5264Z" fill="#3B847E"/>
<path d="M22.2541 78.3146C22.1999 78.5176 22.1612 78.7128 22.1303 78.8924C21.3098 78.908 20.5667 78.7206 20.0403 78.5254C20.1022 78.2678 20.1177 77.9399 20.0945 77.5417C19.9629 75.2073 16.4332 75.4494 16.4332 75.4494C16.4332 75.4494 12.9035 75.2073 12.7719 77.5417C12.7565 77.8774 12.7642 78.1663 12.8029 78.4005C12.0908 78.7128 11.3632 78.8924 10.7594 79.0017C10.7207 78.7831 10.6742 78.5567 10.6123 78.3068C10.3724 77.3622 10.055 73.56 16.4255 73.4976C22.8114 73.5678 22.4863 77.37 22.2541 78.3146Z" fill="#1C5F59"/>
<path d="M14.1265 84.9584C14.1265 83.678 15.156 82.6396 16.4254 82.6396C17.6949 82.6396 18.7243 83.678 18.7243 84.9584C18.7243 86.2388 17.6949 87.2772 16.4254 87.2772C15.1637 87.285 14.1265 86.2466 14.1265 84.9584Z" fill="#1C5F59"/>
<path d="M12.6793 81.4998C11.704 82.1166 11.5027 83.7483 11.6343 84.7945C11.6575 84.9663 11.9207 85.0443 11.9671 84.8414C12.0832 84.2558 12.06 83.6547 12.2071 83.0691C12.3387 82.546 12.6019 82.14 12.865 81.6794C12.9192 81.5701 12.7954 81.4296 12.6793 81.4998Z" fill="#CCEBE9"/>
<path d="M21.1861 86.8634C21.1706 86.7385 21.0003 86.6605 20.9306 86.7932C20.7061 87.2382 20.59 87.691 20.2495 88.0892C20.0095 88.3702 19.5915 88.6123 19.5605 89.0104C19.5605 89.0417 19.5915 89.0729 19.6225 89.0729C20.0327 89.0495 20.443 88.5264 20.6829 88.2141C20.9693 87.8393 21.2325 87.3397 21.1861 86.8634Z" fill="#CCEBE9"/>
<path d="M26.6356 11.9136C24.027 12.3977 21.3178 11.9917 18.7789 12.9754C18.6086 13.0379 18.6164 13.3345 18.8254 13.3189C20.3657 13.233 21.8829 12.9208 23.4232 12.8271C24.5379 12.7568 25.846 12.9988 26.86 12.4445C27.1542 12.2728 26.9374 11.859 26.6356 11.9136Z" fill="black"/>
<path d="M27.58 8.25221C26.3105 7.61201 24.9869 7.01086 23.6478 6.53461C23.4156 6.44873 23.2762 6.80787 23.4852 6.92498C24.685 7.64324 25.97 8.26002 27.2471 8.82214C27.6264 8.98609 27.967 8.43958 27.58 8.25221Z" fill="black"/>
</svg>
