<svg width="102" height="84" viewBox="0 0 102 84" fill="none" xmlns="http://www.w3.org/2000/svg">
<path d="M101.461 82.6586C100.682 82.5712 99.9036 82.5128 99.1102 82.4764C98.8918 82.4691 92.2534 82.5201 90.7831 82.4837C90.754 82.4837 90.7248 82.4764 90.6957 82.4764C90.4774 82.4691 35.1427 82.4399 35.1427 82.4399C35.0918 82.4472 35.0481 82.4472 34.9972 82.4472C34.9753 82.4472 34.9535 82.4472 34.9389 82.4545C32.4568 82.4472 26.7283 82.4399 26.7283 82.4399C26.6773 82.4472 26.6336 82.4472 26.5827 82.4472C26.5245 82.4545 26.4662 82.4545 26.408 82.4618C25.2215 82.4618 10.2269 82.4399 10.2269 82.4399C10.1759 82.4472 10.1323 82.4472 10.0813 82.4472C10.0595 82.4472 10.0376 82.4545 10.0231 82.4545C7.54095 82.4472 1.81241 82.4399 1.81241 82.4399C1.76146 82.4472 1.71779 82.4472 1.66684 82.4472C1.32472 82.4691 0.982614 82.4983 0.647782 82.5347C-0.225693 82.6222 -0.225693 83.8031 0.647782 83.8906C0.989893 83.9271 1.32472 83.9562 1.66684 83.9854C1.71051 83.9927 1.75418 83.9927 1.79786 83.9927C1.79786 83.9927 7.37354 83.9781 10.0158 83.9781C10.0376 83.9781 10.0595 83.9854 10.0813 83.9854C10.125 83.9927 10.1687 83.9927 10.2123 83.9927C10.2123 83.9927 21.1016 83.9708 26.3934 83.9635C26.4517 83.9708 26.5172 83.9781 26.5754 83.9781C26.6191 83.9854 26.6628 83.9854 26.7064 83.9854C26.7064 83.9854 32.2821 83.9708 34.9244 83.9708C34.9462 83.9708 34.9681 83.9781 34.9899 83.9781C35.0336 83.9854 35.0772 83.9854 35.1209 83.9854C35.1209 83.9854 90.4628 83.9562 90.6884 83.9489C90.7176 83.9489 90.7467 83.9416 90.7758 83.9416C92.2389 83.9052 98.8773 83.9562 99.1029 83.9489C99.889 83.9125 100.668 83.8469 101.447 83.7667C102.175 83.7011 102.182 82.7388 101.461 82.6586Z" fill="#C6C6C6"/>
<path d="M68.5386 0.634049C72.3309 2.53668 72.4838 7.87279 74.8785 11.3792C79.3478 17.9254 89.9824 16.3581 95.7619 21.7744C98.8117 24.632 99.9909 29.1808 99.2412 33.2995C98.4915 37.4182 95.9875 41.085 92.7775 43.7603C90.652 45.5244 87.9224 47.5073 88.25 50.2555C88.3664 51.2323 88.8833 52.1071 89.2472 53.0256C90.8777 57.1298 89.2545 61.9993 86.2046 65.1922C83.1547 68.3852 78.9256 70.1639 74.6893 71.4104C70.9697 72.5039 67.1483 73.2474 63.2904 73.6265C61.165 73.8379 58.9813 73.9472 57.0233 74.7856C55.0579 75.6239 53.4493 77.1256 51.5568 78.1243C47.0365 80.508 41.5773 79.7353 36.5476 78.8678C30.0693 77.7525 23.591 76.5934 17.2511 74.8512C14.8781 74.1951 12.4542 73.4297 10.569 71.8478C8.68372 70.2659 7.43174 67.678 8.10868 65.3016C8.67644 63.3042 10.4016 61.9118 11.8064 60.3956C13.2185 58.8793 14.4268 56.7434 13.6698 54.8116C12.7745 52.5445 9.86291 52.0561 7.78113 50.7949C5.56105 49.4463 4.15621 47.0188 3.5375 44.4966C2.91879 41.9743 2.9843 39.3208 3.12988 36.7184C3.2609 34.4148 3.46471 32.0529 4.46193 29.9827C6.37629 26.0243 10.8528 23.8957 15.1984 23.2834C18.7214 22.7877 20.5047 22.6564 22.4118 19.099C24.7265 14.7762 26.2406 9.99411 29.174 6.06493C32.1074 2.13574 37.0935 -0.867643 41.803 0.466385C44.7655 1.312 47.0657 3.69575 49.9554 4.78193C53.2455 6.02848 55.9169 5.43072 58.4499 3.35313C61.1286 1.1662 64.9864 -1.14465 68.5386 0.634049Z" fill="#B4E2DE"/>
<path d="M50.5595 58.2376C60.9248 60.4245 73.8376 61.7002 73.8376 61.7002C73.5319 62.9978 73.7867 65.4909 74.2671 68.2392C75.2206 73.7575 77.0622 80.311 77.0622 80.311C78.962 80.8505 80.3669 79.7497 80.3669 79.7497C80.0975 74.1074 81.6043 58.7187 78.7218 56.9327C73.9177 53.9585 56.5428 49.0962 53.624 48.8921C51.6077 48.7536 49.6424 49.0816 48.7689 50.5906C48.405 51.2248 48.223 52.0777 48.3249 53.1931C48.3395 53.3316 48.354 53.4701 48.3758 53.6013C48.9727 57.3118 45.7918 57.2316 50.5595 58.2376Z" fill="#F5A784"/>
<path d="M53.0052 23.1086C52.9179 23.3418 52.7577 23.5241 52.6631 23.7428C52.5466 24.0125 52.5612 24.3405 52.452 24.6175C52.4156 24.6904 52.1681 25.2445 52.0735 24.9164C52.0153 24.9091 51.9498 24.9091 51.8915 24.9018C50.3411 24.7998 48.7907 24.6904 47.2548 24.5228C46.8181 24.4717 46.3813 24.4572 45.9446 24.3916C45.5661 24.3332 45.406 24.253 45.2167 23.9833C45.1803 23.9396 45.1585 23.8886 45.1294 23.8375C44.7509 23.1814 44.6053 22.4087 44.6126 21.6652C44.6198 21.3663 44.6417 21.0674 44.729 20.7831C44.8164 20.4769 44.9838 20.1999 45.173 19.9375C45.7481 19.1648 46.5779 18.6108 47.4805 18.2681C47.4295 18.0203 47.0146 17.8672 46.8618 17.6631C46.6798 17.408 46.5706 17.1018 46.5924 16.7883C46.6143 16.5623 46.6943 16.3436 46.8035 16.1468C47.1238 15.5928 47.7134 15.1846 48.3539 15.1263C48.9217 15.0752 49.5113 15.3012 49.8898 15.724C49.9408 15.775 49.9844 15.8334 50.0281 15.899C50.3921 16.4311 50.4212 17.182 50.0791 17.7214C49.9844 17.8745 49.8607 18.0713 49.9699 18.2171C50.0208 18.2754 50.0936 18.3046 50.1664 18.3338C50.7633 18.5452 51.3529 18.7784 51.8478 19.1648C52.5102 19.6678 52.9761 20.4186 53.1435 21.2278C53.2818 21.8401 53.2236 22.5035 53.0052 23.1086Z" fill="black"/>
<path d="M52.2193 23.6333C52.2193 23.6333 52.8526 22.8752 53.4786 23.6333C54.1118 24.3915 53.0345 25.8421 52.2193 25.9077C52.2193 25.9077 52.1247 23.9614 52.2193 23.6333Z" fill="#E0855C"/>
<path d="M56.6594 37.5206C56.6449 37.7466 56.6303 37.9725 56.6085 38.1985C56.2882 42.7328 55.8223 47.7117 55.6549 49.4394C55.6477 49.5633 55.5967 50.0736 55.5967 50.0736C55.5967 50.0736 54.5704 50.3433 52.9617 50.5474C50.7052 50.8317 47.3133 50.9848 43.9868 50.0736C43.9868 50.0736 43.9795 50.0225 43.9722 49.9278C43.8557 48.7978 43.1351 41.6393 42.8876 40.1595C42.8513 39.9481 42.8076 39.7294 42.7639 39.5034C42.6838 39.1243 42.6038 38.7453 42.5091 38.3735C41.8613 35.8075 40.8131 33.2123 40.4783 32.4323C40.4201 32.2865 40.471 32.1262 40.6093 32.046C41.0752 31.7544 42.3272 31.1202 44.0668 30.7265C44.1833 30.7046 44.307 30.6755 44.4308 30.6536C44.7802 30.5953 45.1441 30.537 45.5226 30.5005C45.741 30.4787 45.9666 30.4568 46.1923 30.4495C46.2069 30.4422 46.2287 30.4422 46.2432 30.4495C46.3743 30.4349 46.5126 30.4276 46.6509 30.4276C46.6509 30.4276 46.6509 29.9757 46.629 29.3487C46.6145 28.9843 46.5999 28.576 46.5708 28.1532C46.5417 27.5409 46.4762 26.9285 46.4107 26.4547C46.4034 26.4037 46.3961 26.3672 46.3888 26.3235C46.3888 26.2725 46.4179 26.2943 46.4616 26.3308C46.498 26.3599 46.5344 26.3891 46.5926 26.4256C46.6072 26.4328 46.6218 26.4474 46.6363 26.462C46.7528 26.5349 46.8692 26.6151 47.0075 26.6953C47.2186 26.8265 47.4807 26.965 47.7937 27.0889C47.8446 27.1108 47.8956 27.1254 47.9392 27.1472C47.9538 27.1545 47.9756 27.1618 47.9902 27.1691C48.0484 27.1983 48.1139 27.2128 48.1794 27.2347C48.3905 27.3003 48.6089 27.3659 48.8418 27.417C48.9801 27.4461 49.1257 27.468 49.2713 27.4899C49.3732 27.5044 49.4751 27.5117 49.5843 27.5263C49.7954 27.5482 50.021 27.5482 50.2467 27.5336C50.4432 27.5263 50.6252 27.5117 50.8072 27.4753C50.9091 27.468 51.0037 27.4461 51.0983 27.4243L51.2948 29.48C51.2948 29.4873 51.3676 30.3256 51.3676 30.3256C51.3676 30.3256 51.4259 30.3256 51.5423 30.3256C51.586 30.3256 51.6297 30.3256 51.6879 30.3329C51.9645 30.3402 52.4012 30.3474 52.9108 30.3766C53.3548 30.3985 53.8498 30.4349 54.352 30.4932C54.4976 30.5151 54.6504 30.5297 54.796 30.5516C55.6549 30.6682 56.8996 30.6099 56.9142 31.1493C56.9506 32.6 56.8341 34.9619 56.6594 37.5206Z" fill="#F5A784"/>
<path d="M46.374 26.2505C47.1092 29.5819 50.4575 29.3559 51.2436 28.9113L51.1053 27.4023C48.3466 27.9782 46.374 26.2505 46.374 26.2505Z" fill="#E0855C"/>
<path d="M52.0737 21.4466C52.4959 21.884 52.525 22.8608 52.5614 23.9397C52.6706 27.2128 51.6879 28.2407 50.0138 28.4156C48.3469 28.5979 46.5926 27.9491 46.236 24.9165C46.054 23.4003 45.8648 21.9933 46.418 21.3373C47.2405 20.3677 50.7926 20.1053 52.0737 21.4466Z" fill="#F5A784"/>
<path d="M46.4764 24.4791C46.4764 24.4791 45.9668 23.1232 45.1589 23.8449C44.3509 24.5666 45.4646 26.615 46.702 26.4619C46.6947 26.4619 46.8694 24.9457 46.4764 24.4791Z" fill="#F5A784"/>
<path d="M45.5302 24.4645C45.7121 24.4936 45.8941 24.6613 46.0178 24.7852C46.1561 24.9092 46.309 25.0695 46.3745 25.2445C46.3964 25.3028 46.3163 25.332 46.2799 25.2955C46.178 25.2007 46.0906 25.0841 45.996 24.9748C45.9232 25.0477 45.8577 25.1278 45.7558 25.1643C45.683 25.1935 45.6248 25.0987 45.6612 25.0404C45.7049 24.9602 45.7776 24.9019 45.8577 24.8508C45.7267 24.7488 45.5738 24.6759 45.4719 24.5592C45.4355 24.5155 45.4792 24.4499 45.5302 24.4645Z" fill="#E0855C"/>
<path d="M49.8465 25.2008C49.9921 25.1789 50.3197 25.2664 50.3852 25.1133C50.4434 24.9821 50.2105 24.2239 50.1814 24.0927C50.0649 23.6189 49.9412 23.3054 49.8538 22.7368C49.8465 22.715 49.8902 22.7004 49.9048 22.7222C50.2396 23.4731 50.3633 24.3989 50.5599 25.1935C50.5744 25.2372 50.538 25.281 50.4944 25.281C50.2833 25.281 50.0795 25.3247 49.8684 25.3247C49.7883 25.3247 49.7737 25.2081 49.8465 25.2008Z" fill="#E0855C"/>
<path d="M50.8144 22.3434C51.0182 22.2413 51.3967 22.2122 51.5423 22.4236C51.5714 22.46 51.535 22.5183 51.4914 22.5183C51.3895 22.511 51.3021 22.4673 51.2002 22.4527C51.091 22.4454 50.9891 22.4673 50.8872 22.5038C50.7926 22.5329 50.7271 22.3871 50.8144 22.3434Z" fill="#3B2645"/>
<path d="M47.8373 22.591C47.9538 22.3067 48.456 22.2775 48.6671 22.4525C48.7181 22.4962 48.6817 22.5691 48.6307 22.5837C48.507 22.6202 48.376 22.5764 48.2449 22.5837C48.1357 22.5983 48.0411 22.6493 47.9392 22.6858C47.881 22.7076 47.8155 22.6493 47.8373 22.591Z" fill="#3B2645"/>
<path d="M48.8711 23.4876C48.6527 23.3929 48.398 23.3929 48.165 23.4074C47.9685 23.422 47.7065 23.4512 47.5682 23.6116C47.5536 23.6261 47.5536 23.6553 47.5827 23.6626C47.772 23.6917 47.9685 23.6043 48.165 23.5897C48.3907 23.5751 48.609 23.6188 48.8347 23.6334C48.9002 23.6407 48.9439 23.5241 48.8711 23.4876Z" fill="#3B2645"/>
<path d="M51.3533 23.2837C51.1277 23.2837 50.902 23.3493 50.7346 23.4951C50.6327 23.5826 50.7637 23.7138 50.8656 23.6628C51.0403 23.5826 51.1932 23.517 51.3897 23.5315C51.5426 23.5388 51.6809 23.6409 51.8337 23.6263C51.8992 23.619 51.9356 23.5607 51.9065 23.5024C51.8192 23.3129 51.5426 23.2837 51.3533 23.2837Z" fill="#3B2645"/>
<path d="M50.7051 26.1192C50.3848 26.1848 50.1009 26.2868 49.7661 26.2358C49.4604 26.1848 49.242 26.0025 48.9654 25.9005C48.9072 25.8786 48.8708 25.9515 48.8926 25.9953C49.1911 26.5711 50.3266 26.6513 50.7852 26.2723C50.8652 26.1994 50.7852 26.0973 50.7051 26.1192Z" fill="#E0855C"/>
<path d="M92.1805 30.0774C90.0551 29.7931 84.3484 30.1357 84.2246 30.2305C82.7033 30.5512 74.1433 32.3299 72.4691 32.3882C71.0716 32.4393 65.4013 31.8269 61.3687 31.3822C60.5462 31.2875 59.7965 31.2073 59.1559 31.1271C58.7992 31.0906 55.2544 30.5439 55.2544 30.5439C52.9542 30.2888 53.8859 31.5572 53.6821 33.2338C53.6385 33.5619 53.6676 33.9191 53.7768 34.3054C53.966 34.9834 54.4755 35.5155 55.1015 35.8217C55.8367 36.1643 58.1878 36.4486 60.9829 36.6527C61.325 36.6819 61.6672 36.7038 62.0238 36.7256C66.5222 37.0172 71.7558 37.0974 73.2989 36.8714C77.0913 36.3101 83.0454 33.9482 85.2146 33.0516C85.2364 33.0516 85.2582 33.0443 85.2801 33.037C87.0998 32.4174 88.8249 32.7819 90.6883 32.5705C90.7684 32.5632 90.8558 32.5413 90.8849 32.4684C90.8994 32.432 90.8922 32.3882 90.8776 32.3518C90.7175 31.8998 90.0187 32.1185 89.7275 31.8561C89.975 31.6374 90.4045 31.6009 90.7102 31.4478C91.2707 31.1708 91.7802 30.7772 92.297 30.4346C92.3625 30.3908 92.4353 30.3325 92.4353 30.2523C92.4426 30.143 92.297 30.0919 92.1805 30.0774Z" fill="#F5A784"/>
<path d="M7.99207 30.0774C10.1175 29.7931 15.8242 30.1357 15.948 30.2305C17.4693 30.5512 26.0293 32.3299 27.7035 32.3882C29.101 32.4393 34.7713 31.8269 38.8039 31.3822C39.6264 31.2875 40.3761 31.2073 41.0167 31.1271C41.3734 31.0906 44.9182 30.5439 44.9182 30.5439C47.2184 30.2888 46.2867 31.5572 46.4905 33.2338C46.5341 33.5619 46.505 33.9191 46.3958 34.3054C46.2066 34.9834 45.6971 35.5155 45.0711 35.8217C44.3359 36.1643 41.9848 36.4486 39.1897 36.6527C38.8476 36.6819 38.5054 36.7038 38.1488 36.7256C33.6504 37.0172 28.4168 37.0974 26.8737 36.8714C23.0813 36.3101 17.1272 33.9482 14.958 33.0516C14.9362 33.0516 14.9144 33.0443 14.8925 33.037C13.0728 32.4174 11.3477 32.7819 9.48425 32.5705C9.40419 32.5632 9.31684 32.5413 9.28772 32.4684C9.27316 32.432 9.28044 32.3882 9.295 32.3518C9.45514 31.8998 10.1539 32.1185 10.4451 31.8561C10.1976 31.6374 9.76813 31.6009 9.46242 31.4478C8.90194 31.1708 8.39241 30.7772 7.8756 30.4346C7.81009 30.3908 7.7373 30.3325 7.7373 30.2523C7.7373 30.143 7.88288 30.0919 7.99207 30.0774Z" fill="#F5A784"/>
<path d="M53.2166 49.7163C53.253 49.8621 49.8392 66.3807 40.4566 71.1191C34.3423 74.21 27.5874 76.2292 20.8616 77.4831C20.585 77.5341 20.3084 77.5851 20.0318 77.6289C20.0027 78.3797 20.0901 79.3347 20.4394 79.998C20.716 80.5302 21.0363 81.0842 21.6332 81.3029C21.7424 81.3394 21.8588 81.3758 21.9462 81.4487C22.1937 81.6528 22.0918 82.0829 21.837 82.2652C21.5822 82.4547 21.2401 82.4693 20.9271 82.4766C19.8571 82.4984 18.6415 82.5932 18.132 81.5216C17.819 80.8582 17.5643 80.1511 17.3386 79.4513C16.9747 78.3505 15.8901 75.3763 17.375 74.9827C22.3465 73.6705 34.9246 67.0441 37.0355 65.8413C38.9426 64.7551 40.8715 53.3977 43.9942 49.9205C47.0877 46.4505 52.6707 47.267 53.2166 49.7163Z" fill="#F5A784"/>
<path d="M76.7711 79.276C76.8075 79.6186 76.8366 79.9612 76.8584 80.2966C76.9021 81.113 76.2761 82.0898 77.1059 82.6876C77.5499 83.0084 78.1541 82.9573 78.6709 82.9938C79.7991 83.0594 80.9274 83.0156 82.0556 82.9792C82.798 82.9573 83.5332 82.9209 84.2757 82.8844C84.8871 82.8553 85.8552 82.9573 86.372 82.6366C86.4375 82.5928 86.503 82.5418 86.5249 82.4689C86.5394 82.4033 86.5176 82.3304 86.4812 82.2721C86.3502 82.0461 86.0809 81.9295 85.8334 81.842C84.7051 81.4483 83.4968 81.3098 82.3759 80.8943C81.5169 80.5736 80.6653 80.0414 80.1776 79.2395C79.8282 78.6709 79.7991 78.0294 79.1222 77.7233C78.0449 77.2421 76.6255 78.0076 76.7711 79.276Z" fill="#F5A784"/>
<path d="M56.6154 38.1984C56.2951 42.7326 55.8293 47.7115 55.6619 49.4392C54.9704 49.7453 54.0387 50.139 52.9614 50.5545C50.7049 50.8388 47.3129 50.9919 43.9864 50.0807C43.9864 50.0807 43.9791 50.0296 43.9719 49.9349C43.8554 48.805 43.1348 41.6464 42.8873 40.1666C42.8509 39.9552 42.8072 39.7365 42.7636 39.5105C42.6835 39.1314 42.6034 38.7524 42.5088 38.3806C43.2294 37.3673 44.3067 35.0929 44.0665 30.7336C44.1829 30.7118 44.3067 30.6826 44.4304 30.6607C44.7798 30.6024 45.1438 30.5441 45.5223 30.5076C45.7188 32.2135 46.5195 36.7696 49.3146 36.6967C52.5101 36.6238 52.8886 32.6581 52.9177 30.3691C53.3617 30.391 53.8567 30.4275 54.3589 30.4858C54.3589 32.1624 54.5555 36.7987 56.6154 38.1984Z" fill="#56BCB4"/>
<path d="M80.3812 74.7128C78.4814 75.9302 75.6645 74.9169 75.6645 74.9169C73.2406 70.4264 73.0513 62.2546 73.0513 62.2546C73.0513 62.2546 59.1631 61.2195 53.6602 61.2195C52.4665 61.2195 51.5639 61.46 50.8214 61.8901C48.1209 63.4429 47.4731 67.4085 42.7199 71.1263C36.6566 75.8646 25.3669 76.528 25.3669 76.528C23.7291 75.3106 23.8238 72.4749 23.8238 72.4749C23.8238 72.4749 25.5343 70.3827 28.7371 68.5603C29.3194 68.2249 29.9599 67.8969 30.6441 67.598C34.9387 65.71 37.006 64.1135 37.1297 64.0114C39.2624 56.78 43.9137 49.4246 43.9137 49.4246C50.6322 50.9992 55.7129 48.8706 55.7129 48.8706C58.6463 48.8706 77.1203 54.8409 79.5442 56.78C81.9753 58.7264 82.2811 73.4881 80.3812 74.7128Z" fill="#3B847E"/>
<path d="M73.0517 62.2471C73.0517 62.2471 59.1635 61.2119 53.6606 61.2119C52.4668 61.2119 51.5642 61.4525 50.8218 61.8826C50.8436 61.7368 51.4405 58.6459 56.9215 58.8063C62.5409 58.9667 73.0517 62.2471 73.0517 62.2471Z" fill="#1C5F59"/>
<path d="M30.4044 71.1402C29.9676 70.9871 29.429 71.1329 28.9704 71.1475C28.5628 71.1621 28.0751 71.0673 27.7257 71.3006C27.6675 71.3443 27.6384 71.4391 27.7039 71.4901C28.0314 71.7744 28.5555 71.7234 28.9704 71.7234C29.4436 71.7234 30.0404 71.789 30.4553 71.5338C30.63 71.4391 30.5864 71.2058 30.4044 71.1402Z" fill="#CCEBE9"/>
<path d="M37.2391 69.2234C36.766 69.1578 36.3875 69.8868 36.1618 70.2294C35.8488 70.7178 35.5941 71.2572 35.5286 71.8331C35.4995 72.0591 35.8488 72.132 35.9435 71.9425C36.191 71.4686 36.3875 70.9802 36.6859 70.5355C36.897 70.2075 37.4648 69.8139 37.4138 69.3983C37.4065 69.2963 37.3483 69.238 37.2391 69.2234Z" fill="#E8CEE5"/>
<path d="M40.6967 63.6538C40.3037 63.5372 39.9397 63.8215 39.5831 63.9819C39.1245 64.1933 38.6732 64.4192 38.2656 64.7181C38.0909 64.842 38.1928 65.1263 38.4184 65.0753C38.8843 64.9733 39.3137 64.7983 39.7505 64.6088C40.1144 64.4484 40.6531 64.339 40.8278 63.96C40.8787 63.8433 40.835 63.6976 40.6967 63.6538Z" fill="#CCEBE9"/>
<path d="M45.7994 61.4668C45.5301 61.8313 45.3481 62.2614 45.1516 62.6623C44.9696 63.0341 44.7658 63.4132 44.6202 63.8068C44.511 64.113 44.9841 64.3025 45.137 64.0255C45.3408 63.661 45.4864 63.2601 45.6465 62.8737C45.8212 62.4582 46.025 62.0427 46.1197 61.6053C46.1633 61.4012 45.9159 61.3137 45.7994 61.4668Z" fill="#CCEBE9"/>
<path d="M43.7393 54.7313C43.7102 54.5782 43.4918 54.6001 43.4482 54.7313C43.1425 55.6935 43.1643 56.8089 43.1133 57.8076C43.0915 58.2231 43.7321 58.2158 43.7539 57.8076C43.8121 56.8089 43.9431 55.7227 43.7393 54.7313Z" fill="#CCEBE9"/>
<path d="M49.3951 53.5137C49.2204 53.1055 48.74 52.8431 48.3833 52.6025C48.0776 52.3984 47.5899 52.0266 47.1969 52.1433C47.1168 52.1651 47.0731 52.2453 47.095 52.3255C47.1823 52.6754 47.6554 52.9087 47.932 53.1055C48.2742 53.3461 48.6381 53.7762 49.0457 53.8636C49.235 53.9074 49.4825 53.7324 49.3951 53.5137Z" fill="#CCEBE9"/>
<path d="M56.0699 55.8463C55.109 55.8681 54.0318 55.9848 53.1001 56.2253C52.8817 56.2837 52.9399 56.5971 53.151 56.6117C54.1191 56.6773 55.1964 56.5898 56.1499 56.4367C56.4848 56.3784 56.3974 55.839 56.0699 55.8463Z" fill="#CCEBE9"/>
<path d="M58.9742 51.2321C58.6103 50.9842 58.1007 51.0644 57.6713 51.0425C57.2054 51.0207 56.7177 50.955 56.2592 51.0498C56.1354 51.0717 56.1209 51.2539 56.2228 51.3122C56.6449 51.5528 57.1545 51.6038 57.6276 51.6694C58.0643 51.7278 58.5739 51.859 58.9742 51.6257C59.1343 51.5382 59.1198 51.3268 58.9742 51.2321Z" fill="#CCEBE9"/>
<path d="M63.2467 55.8614C63.1593 55.475 62.8682 55.1251 62.6571 54.7898C62.446 54.4545 62.2422 54.09 61.9583 53.8057C61.8054 53.6526 61.5288 53.8057 61.5943 54.0171C61.7035 54.3961 61.9292 54.7606 62.1184 55.1033C62.3077 55.4459 62.4751 55.876 62.7662 56.1384C62.9773 56.3352 63.3122 56.1457 63.2467 55.8614Z" fill="#CCEBE9"/>
<path d="M69.8707 55.73C69.0773 55.4603 68.1165 55.3801 67.3086 55.628C67.0902 55.6936 67.1484 55.9925 67.3595 56.0143C68.1602 56.0945 68.9172 56.1674 69.696 56.3643C70.1037 56.4663 70.2638 55.8686 69.8707 55.73Z" fill="#CCEBE9"/>
<path d="M72.5275 60.1988C72.3528 59.8707 71.9234 59.6812 71.6177 59.4844C71.2756 59.2657 70.9334 59.0543 70.5549 58.8939C70.3584 58.8137 70.2274 59.098 70.3584 59.2292C70.6423 59.5281 70.9771 59.7614 71.312 60.0019C71.6177 60.2206 71.9307 60.5268 72.3165 60.5705C72.513 60.5997 72.6076 60.3519 72.5275 60.1988Z" fill="#CCEBE9"/>
<path d="M77.4627 58.3692C77.2734 57.9683 76.6765 57.8735 76.2908 57.735C75.7885 57.5528 75.2717 57.3341 74.7331 57.3122C74.6093 57.3049 74.522 57.4872 74.6239 57.5747C75.0097 57.8881 75.4901 58.0631 75.9486 58.2526C76.3635 58.4203 76.924 58.7993 77.368 58.6244C77.4627 58.5734 77.5136 58.4713 77.4627 58.3692Z" fill="#CCEBE9"/>
<path d="M76.975 61.8245C76.5965 62.7284 76.0069 63.9677 76.2762 64.9664C76.3126 65.1049 76.5092 65.1268 76.5819 65.0029C76.844 64.5728 76.8877 64.0552 76.9896 63.5668C77.106 63.02 77.2152 62.466 77.3535 61.9266C77.4263 61.6787 77.0696 61.5985 76.975 61.8245Z" fill="#CCEBE9"/>
<path d="M77.0329 71.1917C76.9092 70.8126 76.5743 70.4991 76.3268 70.2003C76.0284 69.8431 75.7372 69.4713 75.366 69.1797C75.2204 69.063 75.0239 69.2015 75.104 69.3838C75.3078 69.8066 75.5989 70.1784 75.8755 70.5429C76.1158 70.8563 76.3414 71.2573 76.6835 71.4614C76.8582 71.5561 77.0984 71.3885 77.0329 71.1917Z" fill="#CCEBE9"/>
<path d="M79.9008 66.4604C79.8863 65.8262 79.8499 65.192 79.7917 64.5651C79.7698 64.3318 79.4496 64.3318 79.4277 64.5651C79.3622 65.1993 79.3331 65.8262 79.3185 66.4604C79.304 67.0217 79.2385 67.6049 79.4132 68.1444C79.4787 68.3412 79.7553 68.3412 79.8208 68.1444C79.9809 67.6049 79.9154 67.0145 79.9008 66.4604Z" fill="#CCEBE9"/>
<path d="M33.6579 68.2903C31.8673 68.6548 30.0694 68.6548 28.7373 68.5601C29.3196 68.2247 29.9602 67.8967 30.6444 67.5978C34.939 65.7098 37.0062 64.1133 37.1299 64.0112C37.1372 64.0185 37.2173 67.5614 33.6579 68.2903Z" fill="#1C5F59"/>
<path d="M94.2407 72.8027V74.9313C94.2407 75.15 94.1897 75.3614 94.0878 75.5509C93.9641 75.7842 93.8331 76.0175 93.7239 76.207C93.3599 76.8412 93.5201 77.767 93.9495 78.3502C94.1242 78.5835 94.2407 78.8532 94.2407 79.1448V82.396C94.2407 82.7897 93.9204 83.1031 93.5346 83.1031H88.6577C88.2647 83.1031 87.9517 82.7824 87.9517 82.396V79.1594C87.9517 78.8678 88.0681 78.5981 88.2428 78.3575C88.6796 77.7743 88.8397 76.8485 88.4757 76.2143C88.3666 76.0175 88.2355 75.7842 88.1045 75.5364C88.0026 75.3468 87.9517 75.1354 87.9517 74.9167V72.8027C87.9517 72.5184 87.9735 72.256 88.0172 72.0081C88.3811 69.8941 90.1208 69.0558 90.1208 69.0558V68.1445H92.0788V69.0558C92.0788 69.0558 93.8039 69.8941 94.1752 71.9862C94.2189 72.2341 94.2407 72.5038 94.2407 72.8027Z" fill="#3B847E"/>
<path d="M91.4745 68.6619H90.7029C90.208 68.6619 89.8076 68.261 89.8076 67.7653C89.8076 67.2696 90.208 66.8687 90.7029 66.8687H91.4745C91.9695 66.8687 92.3698 67.2696 92.3698 67.7653C92.3698 68.261 91.9695 68.6619 91.4745 68.6619Z" fill="#1C5F59"/>
<path d="M94.2406 72.8024V74.5082H87.9443V72.8024C87.9443 72.5181 87.9662 72.2556 88.0098 72.0078C89.1381 71.4829 91.5401 70.7029 94.1679 71.9786C94.2188 72.2338 94.2406 72.5035 94.2406 72.8024Z" fill="#1C5F59"/>
<path d="M94.2406 79.3052V79.6332C93.3744 79.6259 92.5083 79.5968 91.6493 79.6113C90.8414 79.6259 88.3738 79.7207 87.9443 79.7353V79.4874C88.3374 79.4656 88.7377 79.4583 89.1235 79.4364C89.9315 79.4145 93.3381 79.3125 94.2406 79.3052Z" fill="#1C5F59"/>
<path d="M94.2406 80.3691V80.6607C93.2798 80.6826 92.3117 80.6826 91.3582 80.6826C90.2227 80.6826 89.0799 80.668 87.9443 80.6243V80.4275C89.0799 80.4275 93.2798 80.391 94.2406 80.3691Z" fill="#1C5F59"/>
<path d="M31.991 21.3806C29.3852 21.0161 26.7647 20.7974 24.1589 20.3455C22.8996 20.1268 21.6404 19.8716 20.3957 19.6019C19.2383 19.3541 18.0664 19.0042 16.8727 19.1208C16.7416 19.1354 16.6834 19.3468 16.8363 19.3759C21.8369 20.2653 26.8157 21.6868 31.9255 21.869C32.1948 21.8763 32.2676 21.4171 31.991 21.3806Z" fill="black"/>
<path d="M36.4531 17.5026C34.8226 16.2997 33.032 15.25 31.2996 14.193C31.1103 14.0764 30.9502 14.3607 31.1249 14.4919C32.7772 15.6728 34.4441 16.9121 36.191 17.9472C36.4822 18.1076 36.7078 17.6921 36.4531 17.5026Z" fill="black"/>
<path d="M64.4189 11.102C63.247 11.8966 62.1988 12.9245 61.1506 13.8648C60.1388 14.7761 58.8869 15.7092 58.1662 16.8828C58.1007 16.9849 58.2245 17.1015 58.3264 17.0432C59.4692 16.3944 60.4082 15.2936 61.3908 14.4189C62.4899 13.442 63.691 12.5381 64.7246 11.4884C64.9138 11.2988 64.6663 10.9344 64.4189 11.102Z" fill="black"/>
<path d="M75.0026 19.6675C72.717 19.7987 70.4314 19.9227 68.1531 20.0539C66.0276 20.1778 63.8221 20.1705 61.7258 20.5496C61.522 20.586 61.5875 20.8776 61.7694 20.8922C63.9531 21.0453 66.2023 20.7829 68.386 20.6735C70.5915 20.5642 72.7971 20.4402 75.0026 20.3236C75.4248 20.309 75.4248 19.6457 75.0026 19.6675Z" fill="black"/>
<path d="M47.83 16.7154C47.6408 17.6558 48.6525 18.188 48.7981 18.2609C48.0266 18.1151 47.4806 18.2681 47.4806 18.2681C47.4297 18.0203 47.0148 17.8672 46.8619 17.6631C46.68 17.408 46.5708 17.1018 46.5926 16.7883C46.6144 16.5623 46.6945 16.3436 46.8037 16.1468C47.124 15.5928 47.7136 15.1846 48.3541 15.1263C48.9219 15.0752 49.5115 15.3012 49.89 15.724C48.8709 15.5053 48.0193 15.7896 47.83 16.7154Z" fill="#373339"/>
<path d="M51.4476 43.6439C51.0764 43.622 50.6688 43.7897 50.3266 43.9209C50.0937 44.0083 49.8826 44.125 49.657 44.2197C49.4459 44.2999 49.2421 44.3874 49.031 44.4676C48.456 44.1177 48.3395 43.7824 48.667 43.4543C49.1038 42.5431 50.4504 42.0255 51.2074 41.4205C52.1173 40.6915 53.0199 39.27 51.302 38.9565C49.5915 38.6431 46.7964 39.5762 45.8428 41.0779C45.7991 41.1508 45.8865 41.2237 45.952 41.1872C46.84 40.7425 47.5315 40.101 48.4924 39.7584C48.8417 39.6345 49.2057 39.5324 49.5696 39.4668C50.0428 39.3793 52.1973 38.9492 51.5859 40.4801C51.3675 41.0341 50.4431 41.4496 49.9627 41.7777C49.4604 42.1276 48.9291 42.4775 48.5287 42.9513C48.1866 43.3523 47.6043 44.227 48.1284 44.7082C48.5069 45.0654 49.0455 44.8248 49.4459 44.6644C49.6788 44.5697 49.9045 44.4457 50.1374 44.351C50.8434 43.8407 51.353 44.1104 51.6587 45.1747C51.4258 45.408 51.1564 45.6048 50.8726 45.7725C50.6833 45.8818 50.858 46.188 51.0473 46.0713C51.5422 45.7506 52.5103 45.1237 52.4375 44.4093C52.4011 43.8917 51.9207 43.6657 51.4476 43.6439Z" fill="#3B847E"/>
</svg>
