<svg width="30" height="24" viewBox="0 0 30 24" fill="none" xmlns="http://www.w3.org/2000/svg">
<path d="M27.1875 0H2.8125C2.06658 0 1.35121 0.291757 0.823762 0.811089C0.296316 1.33042 0 2.03479 0 2.76923L0 18C0 18.7344 0.296316 19.4388 0.823762 19.9581C1.35121 20.4775 2.06658 20.7692 2.8125 20.7692H6.5625V22.1538H5.625V24H24.375V22.1538H23.4375V20.7692H27.1875C27.9334 20.7692 28.6488 20.4775 29.1762 19.9581C29.7037 19.4388 30 18.7344 30 18V2.76923C30 2.03479 29.7037 1.33042 29.1762 0.811089C28.6488 0.291757 27.9334 0 27.1875 0ZM21.5625 22.1538H8.4375V20.7692H21.5625V22.1538ZM28.125 18C28.125 18.2448 28.0262 18.4796 27.8504 18.6527C27.6746 18.8258 27.4361 18.9231 27.1875 18.9231H2.8125C2.56386 18.9231 2.3254 18.8258 2.14959 18.6527C1.97377 18.4796 1.875 18.2448 1.875 18V2.76923C1.875 2.52442 1.97377 2.28963 2.14959 2.11652C2.3254 1.94341 2.56386 1.84615 2.8125 1.84615H27.1875C27.4361 1.84615 27.6746 1.94341 27.8504 2.11652C28.0262 2.28963 28.125 2.52442 28.125 2.76923V18Z" fill="#56BCB4"/>
<path d="M21.4 5H18.52C18.0957 5 17.6887 5.18692 17.3886 5.51965C17.0886 5.85238 16.92 6.30365 16.92 6.77419V8.72581H13.08V6.77419C13.08 6.30365 12.9114 5.85238 12.6114 5.51965C12.3113 5.18692 11.9043 5 11.48 5H8.6C8.17565 5 7.76869 5.18692 7.46863 5.51965C7.16857 5.85238 7 6.30365 7 6.77419V14.2258C7 14.6964 7.16857 15.1476 7.46863 15.4804C7.76869 15.8131 8.17565 16 8.6 16H11.48C11.9043 16 12.3113 15.8131 12.6114 15.4804C12.9114 15.1476 13.08 14.6964 13.08 14.2258V12.2742H16.92V14.2258C16.92 14.6964 17.0886 15.1476 17.3886 15.4804C17.6887 15.8131 18.0957 16 18.52 16H21.4C21.8243 16 22.2313 15.8131 22.5314 15.4804C22.8314 15.1476 23 14.6964 23 14.2258V6.77419C23 6.30365 22.8314 5.85238 22.5314 5.51965C22.2313 5.18692 21.8243 5 21.4 5ZM11.8 14.2258C11.8 14.3199 11.7663 14.4102 11.7063 14.4767C11.6463 14.5433 11.5649 14.5806 11.48 14.5806H8.6C8.51513 14.5806 8.43374 14.5433 8.37373 14.4767C8.31371 14.4102 8.28 14.3199 8.28 14.2258V6.77419C8.28 6.68008 8.31371 6.58983 8.37373 6.52328C8.43374 6.45674 8.51513 6.41935 8.6 6.41935H11.48C11.5649 6.41935 11.6463 6.45674 11.7063 6.52328C11.7663 6.58983 11.8 6.68008 11.8 6.77419V14.2258ZM13.08 10.8548V10.1452H16.92V10.8548H13.08ZM21.72 14.2258C21.72 14.3199 21.6863 14.4102 21.6263 14.4767C21.5663 14.5433 21.4849 14.5806 21.4 14.5806H18.52C18.4351 14.5806 18.3537 14.5433 18.2937 14.4767C18.2337 14.4102 18.2 14.3199 18.2 14.2258V6.77419C18.2 6.68008 18.2337 6.58983 18.2937 6.52328C18.3537 6.45674 18.4351 6.41935 18.52 6.41935H21.4C21.4849 6.41935 21.5663 6.45674 21.6263 6.52328C21.6863 6.58983 21.72 6.68008 21.72 6.77419V14.2258Z" fill="#56BCB4"/>
</svg>
