<svg width="14" height="9" viewBox="0 0 14 9" fill="none" xmlns="http://www.w3.org/2000/svg">
<path d="M13.5246 2.82386C13.6317 2.71761 13.7167 2.5912 13.7748 2.45192C13.8328 2.31264 13.8627 2.16325 13.8627 2.01237C13.8627 1.86149 13.8328 1.7121 13.7748 1.57282C13.7167 1.43354 13.6317 1.30713 13.5246 1.20087C13.3104 0.988 13.0208 0.868514 12.7188 0.868514C12.4169 0.868514 12.1272 0.988 11.913 1.20087L6.99836 6.09269L2.08368 1.20087C1.97743 1.09375 1.85102 1.00872 1.71174 0.950693C1.57246 0.892667 1.42307 0.862792 1.27219 0.862792C1.12131 0.862792 0.971917 0.892667 0.832639 0.950693C0.693359 1.00872 0.56695 1.09375 0.460698 1.20087C0.253727 1.4156 0.13888 1.70271 0.140672 2.00094C0.139802 2.15136 0.168632 2.30047 0.225511 2.43972C0.282389 2.57898 0.366198 2.70563 0.472128 2.81243L6.24401 8.52717C6.45816 8.74004 6.74784 8.85953 7.04979 8.85953C7.35174 8.85953 7.64142 8.74004 7.85557 8.52717L13.5246 2.82386Z" fill="#56BCB4"/>
</svg>
