<svg width="8" height="14" viewBox="0 0 8 14" fill="none" xmlns="http://www.w3.org/2000/svg">
<path d="M1.96436 0.475289C1.85811 0.368162 1.7317 0.283134 1.59242 0.225108C1.45314 0.167082 1.30375 0.137207 1.15287 0.137207C1.00199 0.137207 0.852598 0.167082 0.71332 0.225108C0.574041 0.283134 0.44763 0.368162 0.341378 0.475289C0.128503 0.689434 0.00901731 0.979117 0.00901731 1.28107C0.00901731 1.58302 0.128503 1.8727 0.341378 2.08685L5.23319 7.00152L0.341378 11.9162C0.234251 12.0224 0.149223 12.1489 0.0911968 12.2881C0.0331708 12.4274 0.0032959 12.5768 0.0032959 12.7277C0.0032959 12.8786 0.0331708 13.028 0.0911968 13.1672C0.149223 13.3065 0.234251 13.4329 0.341378 13.5392C0.5561 13.7462 0.843214 13.861 1.14144 13.8592C1.29186 13.8601 1.44097 13.8312 1.58023 13.7744C1.71948 13.7175 1.84614 13.6337 1.95293 13.5278L7.66767 7.75587C7.88055 7.54172 8.00003 7.25204 8.00003 6.95009C8.00003 6.64814 7.88055 6.35846 7.66767 6.14431L1.96436 0.475289Z" fill="#56BCB4"/>
</svg>
