<svg width="4" height="8" viewBox="0 0 4 8" fill="none" xmlns="http://www.w3.org/2000/svg">
<path d="M0.980991 1.16717C0.92784 1.11358 0.864605 1.07104 0.794933 1.04202C0.725261 1.01299 0.650532 0.998047 0.575055 0.998047C0.499579 0.998047 0.424849 1.01299 0.355177 1.04202C0.285505 1.07104 0.22227 1.11358 0.16912 1.16717C0.0626326 1.27429 0.00286204 1.4192 0.00286204 1.57024C0.00286204 1.72129 0.0626326 1.8662 0.16912 1.97332L2.61617 4.4318L0.16912 6.89028C0.115531 6.94344 0.0729974 7.00667 0.0439709 7.07634C0.0149444 7.14601 0 7.22074 0 7.29622C0 7.3717 0.0149444 7.44643 0.0439709 7.5161C0.0729974 7.58577 0.115531 7.649 0.16912 7.70216C0.276531 7.80569 0.420155 7.86314 0.569338 7.86224C0.644583 7.86268 0.719173 7.84826 0.788832 7.8198C0.858492 7.79135 0.92185 7.74943 0.975273 7.69644L3.83397 4.80915C3.94046 4.70203 4.00023 4.55712 4.00023 4.40607C4.00023 4.25503 3.94046 4.11012 3.83397 4.003L0.980991 1.16717Z" fill="#B7B7B7"/>
</svg>
