<svg width="17" height="19" viewBox="0 0 17 19" fill="none" xmlns="http://www.w3.org/2000/svg">
<path d="M16.7778 7.49961C16.4827 7.20607 16.0055 7.20737 15.712 7.50247L6.65208 16.6114C5.47667 17.7868 3.56763 17.7868 2.39003 16.6098C1.21332 15.4325 1.21332 13.5234 2.39018 12.3466L11.7182 2.96949C12.4521 2.23569 13.6452 2.23569 14.3811 2.97108C15.1169 3.70683 15.1169 4.89976 14.3809 5.63572L6.65349 13.3631C6.653 13.3636 6.65258 13.3642 6.65208 13.3646C6.35769 13.6574 5.88192 13.657 5.58813 13.3632C5.29385 13.0689 5.29385 12.592 5.58813 12.2977L9.3181 8.56695C9.61238 8.27259 9.61235 7.79538 9.31799 7.50109C9.02364 7.20681 8.54642 7.20684 8.25214 7.5012L4.52221 11.2319C3.63931 12.1148 3.63931 13.5461 4.52228 14.4291C5.4052 15.312 6.83657 15.312 7.71953 14.4291C7.72055 14.428 7.72136 14.4269 7.72235 14.4259L15.4468 6.70151C16.7714 5.37691 16.7714 3.22958 15.4468 1.90498C14.122 0.581153 11.9748 0.581153 10.651 1.90498L1.32291 11.2821C-0.44118 13.0462 -0.44118 15.9094 1.32418 17.6756C3.0907 19.4412 5.95392 19.4412 7.71939 17.6758L16.7807 8.56547C17.0742 8.27033 17.0729 7.79315 16.7778 7.49961Z" fill="black"/>
</svg>
