<svg width="26" height="26" viewBox="0 0 26 26" fill="none" xmlns="http://www.w3.org/2000/svg">
<path d="M11.2963 1C13.1642 0.999433 14.997 1.50746 16.5984 2.46962C18.1997 3.43179 19.5092 4.81182 20.3865 6.4618C21.2637 8.11178 21.6756 9.9695 21.5781 11.8359C21.4806 13.7022 20.8773 15.5068 19.8329 17.0563L24.1908 20.7827C24.4364 21.0012 24.6347 21.2676 24.7737 21.5656C24.9127 21.8636 24.9893 22.1868 24.999 22.5155C25.0086 22.8442 24.951 23.1713 24.8297 23.477C24.7085 23.7826 24.5261 24.0602 24.2937 24.2927C24.0614 24.5253 23.784 24.7079 23.4786 24.8293C23.1732 24.9508 22.8462 25.0085 22.5177 24.999C22.1892 24.9895 21.8661 24.9129 21.5682 24.774C21.2704 24.635 21.004 24.4367 20.7855 24.191L17.0633 19.833C15.7296 20.7356 14.203 21.3126 12.6059 21.5177C11.0089 21.7228 9.38608 21.5502 7.8678 21.0139C6.34952 20.4776 4.97814 19.5924 3.86382 18.4296C2.74951 17.2667 1.92333 15.8586 1.45165 14.3183C0.97998 12.778 0.875966 11.1484 1.14797 9.56062C1.41997 7.9728 2.06041 6.47094 3.01782 5.1757C3.97523 3.88046 5.22294 2.82796 6.66069 2.10275C8.09844 1.37754 9.68615 0.999845 11.2963 1ZM11.2963 2.05672C9.85306 2.05734 8.43005 2.39618 7.14128 3.04609C5.85251 3.69601 4.73381 4.63893 3.87482 5.79929C3.01582 6.95965 2.44043 8.3052 2.19474 9.7281C1.94904 11.151 2.03988 12.6117 2.45998 13.9932C2.88007 15.3746 3.61774 16.6384 4.61388 17.6833C5.61001 18.7282 6.83691 19.5251 8.19627 20.0101C9.55562 20.4952 11.0096 20.6549 12.4418 20.4765C13.874 20.2981 15.2444 19.7866 16.4434 18.9828L16.8208 18.6978C17.5342 18.1635 18.167 17.5292 18.6998 16.8146L18.9781 16.4453C19.9086 15.053 20.4438 13.4341 20.5265 11.7613C20.6091 10.0885 20.2362 8.42463 19.4475 6.94734C18.6588 5.47004 17.4839 4.23478 16.0483 3.37343C14.6127 2.51208 12.9702 2.05698 11.2963 2.05672ZM10.0692 5.2069C10.2475 5.2069 10.4269 5.21546 10.6074 5.23256C12.1798 5.39725 13.6473 6.09951 14.7623 7.22087C15.9029 8.3049 16.6157 9.76325 16.7705 11.3296C16.8255 12.1027 16.71 12.8786 16.4322 13.6021C16.1544 14.3257 15.721 14.9794 15.1628 15.5168C13.4624 17.2096 11.5353 17.6708 9.97862 17.2017C9.19637 16.9549 8.50431 16.4827 7.98916 15.8441C7.47402 15.2055 7.15871 14.429 7.08274 13.6118C6.89279 11.9143 6.32672 10.8009 6.00633 9.7331C5.82057 9.20621 5.76878 8.64135 5.85563 8.08943C6.0072 7.4482 6.34937 6.86796 6.83707 6.42517C7.26928 6.01944 7.77723 5.703 8.33184 5.49395C8.88645 5.28491 9.47683 5.18736 10.0692 5.2069ZM10.0929 6.30258C9.17371 6.25303 8.27176 6.56613 7.58075 7.17462C7.24044 7.46639 6.99925 7.85683 6.89057 8.29184C6.83798 8.67498 6.88083 9.06518 7.01531 9.42775C7.29201 10.3464 7.92267 11.6162 8.13225 13.4943C8.181 14.1074 8.4119 14.6918 8.79525 15.1725C9.17861 15.6532 9.6969 16.0082 10.2835 16.1919C11.434 16.5403 12.9261 16.2552 14.4179 14.769C14.8717 14.3416 15.224 13.818 15.4488 13.2365C15.6737 12.655 15.7654 12.0304 15.7172 11.4088C15.5806 10.0962 14.9779 8.87629 14.0187 7.97064C13.082 7.03718 11.8518 6.45619 10.5361 6.32602C10.387 6.31208 10.2392 6.30448 10.0929 6.30321V6.30258ZM11.5603 7.86801C12.0489 7.868 12.5224 8.0375 12.9002 8.34763C13.2779 8.65776 13.5364 9.08933 13.6318 9.56882C13.7271 10.0483 13.6533 10.546 13.423 10.9772C13.1927 11.4083 12.8201 11.7463 12.3687 11.9334C11.9172 12.1205 11.4149 12.1452 10.9474 12.0033C10.4798 11.8614 10.0758 11.5616 9.80436 11.1552C9.53289 10.7487 9.41068 10.2606 9.45856 9.77406C9.50644 9.28753 9.72145 8.83266 10.0669 8.48697C10.2628 8.29039 10.4956 8.13449 10.7519 8.02821C11.0081 7.92194 11.2829 7.86739 11.5603 7.8677V7.86801ZM12.0884 8.92473C11.9662 8.92466 11.8478 8.96699 11.7533 9.04449C11.6588 9.12199 11.5941 9.22987 11.5702 9.34975C11.5463 9.46963 11.5647 9.59409 11.6223 9.70193C11.6798 9.80976 11.7729 9.8943 11.8858 9.94113C11.9986 9.98796 12.1242 9.99419 12.2412 9.95876C12.3581 9.92333 12.4591 9.84842 12.5271 9.74681C12.595 9.6452 12.6256 9.52317 12.6137 9.40151C12.6017 9.27985 12.548 9.1661 12.4617 9.07963C12.4127 9.03044 12.3546 8.99143 12.2905 8.96485C12.2264 8.93826 12.1577 8.92463 12.0884 8.92473ZM19.1937 17.9024C18.803 18.3696 18.3719 18.8016 17.9055 19.1932L21.5741 23.4891C21.6969 23.6276 21.8466 23.7395 22.0142 23.818C22.1818 23.8964 22.3636 23.9398 22.5485 23.9453C22.7334 23.9509 22.9175 23.9185 23.0895 23.8503C23.2615 23.782 23.4176 23.6793 23.5485 23.5484C23.6793 23.4175 23.782 23.2612 23.8502 23.0892C23.9184 22.9171 23.9507 22.7329 23.9452 22.5479C23.9396 22.3629 23.8963 22.1809 23.8179 22.0133C23.7395 21.8456 23.6276 21.6958 23.4892 21.573L19.1937 17.9024ZM22.3615 21.8445C22.466 21.8445 22.5681 21.8755 22.6549 21.9335C22.7417 21.9916 22.8094 22.0741 22.8494 22.1706C22.8894 22.2672 22.8998 22.3734 22.8794 22.4759C22.8591 22.5784 22.8088 22.6725 22.7349 22.7464C22.6611 22.8203 22.567 22.8706 22.4645 22.891C22.3621 22.9114 22.2559 22.901 22.1594 22.861C22.0629 22.821 21.9805 22.7533 21.9224 22.6664C21.8644 22.5795 21.8334 22.4773 21.8334 22.3728C21.8334 22.2327 21.8891 22.0983 21.9881 21.9992C22.0871 21.9001 22.2215 21.8445 22.3615 21.8445Z" fill="#56BBB3" stroke="#56BCB4" stroke-width="0.5"/>
</svg>
