<svg width="15" height="16" viewBox="0 0 15 16" fill="none" xmlns="http://www.w3.org/2000/svg">
<path d="M14 12.2667V5.33333C13.9994 4.71935 13.7815 4.1254 13.3849 3.65667C12.9884 3.18793 12.4387 2.87466 11.8333 2.77233V1H10.1V2.73333H8.36667V1H6.63333V2.73333H4.9V1H3.16667V2.77233C2.56127 2.87466 2.01163 3.18793 1.61507 3.65667C1.21851 4.1254 1.00062 4.71935 1 5.33333V12.2667C1 12.9562 1.27393 13.6176 1.76152 14.1051C2.24912 14.5927 2.91044 14.8667 3.6 14.8667H11.4C12.0896 14.8667 12.7509 14.5927 13.2385 14.1051C13.7261 13.6176 14 12.9562 14 12.2667ZM3.6 4.46667H11.4C11.6299 4.46667 11.8503 4.55798 12.0128 4.72051C12.1754 4.88304 12.2667 5.10348 12.2667 5.33333V6.2H2.73333V5.33333C2.73333 5.10348 2.82464 4.88304 2.98717 4.72051C3.14971 4.55798 3.37015 4.46667 3.6 4.46667ZM11.4 13.1333H3.6C3.37015 13.1333 3.14971 13.042 2.98717 12.8795C2.82464 12.717 2.73333 12.4965 2.73333 12.2667V7.93333H12.2667V12.2667C12.2667 12.4965 12.1754 12.717 12.0128 12.8795C11.8503 13.042 11.6299 13.1333 11.4 13.1333Z" fill="white" stroke="#56BCB4" stroke-width="0.5"/>
</svg>
