<svg width="18" height="20" viewBox="0 0 18 20" fill="none" xmlns="http://www.w3.org/2000/svg">
<path d="M15.5852 2.16643H14.9827V1.50904C14.9827 0.676599 14.3259 0 13.5176 0C12.7087 0 12.0524 0.676599 12.0524 1.50904V2.16588H10.5489V1.50904C10.5489 0.676599 9.89202 0 9.08372 0C8.27542 0 7.61858 0.676599 7.61858 1.50904V2.16588H6.11502V1.50904C6.11502 0.676599 5.45818 0 4.64988 0C3.84159 0 3.18474 0.676599 3.18474 1.50904V2.16588H2.41541C1.1297 2.16588 0.083252 3.21234 0.083252 4.49804V17.6678C0.083252 18.9536 1.1297 20 2.41541 20H15.5852C16.8715 20 17.9174 18.9536 17.9174 17.6678V4.49804C17.9174 3.21288 16.8709 2.16643 15.5852 2.16643ZM12.8755 1.50904C12.8755 1.13096 13.1636 0.823113 13.5176 0.823113C13.872 0.823113 14.1596 1.13096 14.1596 1.50904V4.19568C14.1596 4.57376 13.872 4.88161 13.5176 4.88161C13.1636 4.88161 12.8755 4.57376 12.8755 4.19568V1.50904ZM8.44169 1.50904C8.44169 1.13096 8.72978 0.823113 9.08372 0.823113C9.43766 0.823113 9.72575 1.13096 9.72575 1.50904V4.19568C9.72575 4.57376 9.43766 4.88161 9.08372 4.88161C8.72978 4.88161 8.44169 4.57376 8.44169 4.19568V1.50904ZM4.00731 1.50904C4.00731 1.13096 4.2954 0.823113 4.64933 0.823113C5.00327 0.823113 5.29136 1.13096 5.29136 1.50904V4.19568C5.29136 4.57376 5.00327 4.88161 4.64933 4.88161C4.2954 4.88161 4.00731 4.57376 4.00731 4.19568V1.50904ZM16.5455 17.6684C16.5455 18.1979 16.1148 18.6287 15.5852 18.6287H2.41541C1.88587 18.6287 1.45511 18.1979 1.45511 17.6684V5.59607H16.5455V17.6684Z" fill="#56BCB4"/>
<path d="M5.21117 8.02637H2.6897V10.2702H5.21117V8.02637Z" fill="#56BCB4"/>
<path d="M8.57719 8.02637H6.05518V10.2702H8.57719V8.02637Z" fill="#56BCB4"/>
<path d="M11.9448 8.02637H9.42334V10.2702H11.9448V8.02637Z" fill="#56BCB4"/>
<path d="M15.3108 8.02637H12.7888V10.2702H15.3108V8.02637Z" fill="#56BCB4"/>
<path d="M5.21117 11.0205H2.6897V13.2627H5.21117V11.0205Z" fill="#56BCB4"/>
<path d="M8.57719 11.0205H6.05518V13.2627H8.57719V11.0205Z" fill="#56BCB4"/>
<path d="M11.9448 11.0205H9.42334V13.2627H11.9448V11.0205Z" fill="#56BCB4"/>
<path d="M15.3108 11.0205H12.7888V13.2627H15.3108V11.0205Z" fill="#56BCB4"/>
<path d="M5.21117 14.0146H2.6897V16.2568H5.21117V14.0146Z" fill="#56BCB4"/>
<path d="M8.57719 14.0146H6.05518V16.2568H8.57719V14.0146Z" fill="#56BCB4"/>
<path d="M11.9448 14.0146H9.42334V16.2568H11.9448V14.0146Z" fill="#56BCB4"/>
<path d="M15.3108 14.0146H12.7888V16.2568H15.3108V14.0146Z" fill="#56BCB4"/>
</svg>
