<svg width="225" height="250" viewBox="0 0 225 250" fill="none" xmlns="http://www.w3.org/2000/svg">
<path d="M224 60.241C224 41.5739 207.562 26.3535 187.127 25.8503V47.1338C187.127 52.9587 184.815 58.545 180.7 62.6638C176.584 66.7826 171.003 69.0966 165.184 69.0966C159.364 69.0966 153.783 66.7826 149.667 62.6638C145.552 58.545 143.24 52.9587 143.24 47.1338V25.8H81.0558V47.159C81.0558 52.9839 78.7439 58.5702 74.6288 62.689C70.5137 66.8078 64.9324 69.1217 59.1127 69.1217C53.293 69.1217 47.7117 66.8078 43.5966 62.689C39.4815 58.5702 37.1696 52.9839 37.1696 47.159V25.9006C16.986 26.7308 1 41.8004 1 60.2159V211.012C1.0133 221.083 5.01631 230.737 12.1312 237.859C19.2461 244.98 28.8922 248.987 38.9542 249H186.046C196.106 248.98 205.748 244.971 212.861 237.851C219.975 230.732 223.98 221.081 224 211.012V60.241ZM207.486 211.012C207.479 216.701 205.218 222.156 201.199 226.179C197.18 230.202 191.73 232.465 186.046 232.471H38.9542C33.2699 232.465 27.8204 230.202 23.801 226.179C19.7815 222.156 17.5205 216.701 17.5139 211.012V96.3425H207.486V211.012Z" fill="#56BCB4"/>
<path d="M56.75 6.7V51.1C56.75 52.6117 57.4026 54.0615 58.5643 55.1305C59.726 56.1995 61.3016 56.8 62.9444 56.8C64.5873 56.8 66.1629 56.1995 67.3246 55.1305C68.4863 54.0615 69.1389 52.6117 69.1389 51.1V6.7C69.1389 5.18827 68.4863 3.73845 67.3246 2.66949C66.1629 1.60053 64.5873 1 62.9444 1C61.3016 1 59.726 1.60053 58.5643 2.66949C57.4026 3.73845 56.75 5.18827 56.75 6.7Z" fill="#56BCB4"/>
<path d="M162.056 1C160.413 1 158.837 1.60053 157.675 2.66949C156.514 3.73845 155.861 5.18826 155.861 6.69999V51.1C155.861 52.6117 156.514 54.0616 157.675 55.1305C158.837 56.1995 160.413 56.8 162.056 56.8C163.698 56.8 165.274 56.1995 166.436 55.1305C167.597 54.0616 168.25 52.6117 168.25 51.1V6.69999C168.25 5.18826 167.597 3.73845 166.436 2.66949C165.274 1.60053 163.698 1 162.056 1Z" fill="#56BCB4"/>
<path d="M224 60.241C224 41.5739 207.562 26.3535 187.127 25.8503V47.1338C187.127 52.9587 184.815 58.545 180.7 62.6638C176.584 66.7826 171.003 69.0966 165.184 69.0966C159.364 69.0966 153.783 66.7826 149.667 62.6638C145.552 58.545 143.24 52.9587 143.24 47.1338V25.8H81.0558V47.159C81.0558 52.9839 78.7439 58.5702 74.6288 62.689C70.5137 66.8078 64.9324 69.1217 59.1127 69.1217C53.293 69.1217 47.7117 66.8078 43.5966 62.689C39.4815 58.5702 37.1696 52.9839 37.1696 47.159V25.9006C16.986 26.7308 1 41.8004 1 60.2159V211.012C1.0133 221.083 5.01631 230.737 12.1312 237.859C19.2461 244.98 28.8922 248.987 38.9542 249H186.046C196.106 248.98 205.748 244.971 212.861 237.851C219.975 230.732 223.98 221.081 224 211.012V60.241ZM207.486 211.012C207.479 216.701 205.218 222.156 201.199 226.179C197.18 230.202 191.73 232.465 186.046 232.471H38.9542C33.2699 232.465 27.8204 230.202 23.801 226.179C19.7815 222.156 17.5205 216.701 17.5139 211.012V96.3425H207.486V211.012Z" stroke="#56BCB4"/>
<path d="M56.75 6.7V51.1C56.75 52.6117 57.4026 54.0615 58.5643 55.1305C59.726 56.1995 61.3016 56.8 62.9444 56.8C64.5873 56.8 66.1629 56.1995 67.3246 55.1305C68.4863 54.0615 69.1389 52.6117 69.1389 51.1V6.7C69.1389 5.18827 68.4863 3.73845 67.3246 2.66949C66.1629 1.60053 64.5873 1 62.9444 1C61.3016 1 59.726 1.60053 58.5643 2.66949C57.4026 3.73845 56.75 5.18827 56.75 6.7Z" stroke="#56BCB4"/>
<path d="M162.056 1C160.413 1 158.837 1.60053 157.675 2.66949C156.514 3.73845 155.861 5.18826 155.861 6.69999V51.1C155.861 52.6117 156.514 54.0616 157.675 55.1305C158.837 56.1995 160.413 56.8 162.056 56.8C163.698 56.8 165.274 56.1995 166.436 55.1305C167.597 54.0616 168.25 52.6117 168.25 51.1V6.69999C168.25 5.18826 167.597 3.73845 166.436 2.66949C165.274 1.60053 163.698 1 162.056 1Z" stroke="#56BCB4"/>
</svg>
