<svg width="15" height="20" viewBox="0 0 15 20" fill="none" xmlns="http://www.w3.org/2000/svg">
<path d="M12.6577 8.06641C12.4324 9.50983 11.2162 10.6375 11.2162 10.6375C11.3964 7.48002 9.77477 2.29272 6.93694 0.0824765C6.62162 -0.143058 6.17117 0.127582 6.21622 0.488438C6.62162 3.82635 0 7.16427 0 12.7575C0 15.4188 1.35135 17.8546 2.92793 19.7942C3.24324 20.2002 3.91892 19.8844 3.82883 19.3883C3.73874 18.9372 3.69369 18.5312 3.69369 18.0351C3.69369 14.5167 7.20721 12.4869 6.84685 10.3669C6.8018 10.1864 7.02703 10.0511 7.16216 10.1864C8.64865 11.4945 9.5045 14.7422 9.41441 16.727C9.41441 16.727 10.0901 16.0052 10.1802 15.058C10.1802 14.8776 10.4504 14.8325 10.5405 14.9678C11.3063 16.1406 11.3063 17.584 11.3063 18.0351C11.3063 18.4861 11.2613 18.9372 11.1712 19.3883C11.036 19.8844 11.7117 20.2453 12.0721 19.7942C13.6486 17.8546 15 15.4188 15 12.7575C15 11.9907 15 9.73537 13.5135 7.84088C13.1982 7.52513 12.7027 7.66045 12.6577 8.06641Z" fill="#54B8B0"/>
</svg>
