<svg width="31" height="27" viewBox="0 0 31 27" fill="none" xmlns="http://www.w3.org/2000/svg">
<path d="M5.68907 26.6149H24.7069C27.8439 26.6149 30.396 24.0628 30.396 20.9259V9.29811C30.396 6.16112 27.8439 3.60903 24.7069 3.60903H22.7012C21.9888 1.71244 20.1707 0.414062 18.0771 0.414062H12.3192C10.2256 0.414062 8.4072 1.71244 7.6948 3.60903H5.68907C2.55209 3.60903 0 6.16112 0 9.29811V20.9259C0 24.0628 2.55209 26.6149 5.68907 26.6149ZM2.66842 9.29811C2.66842 7.63237 4.02334 6.27745 5.68907 6.27745H9.85396L10.078 4.97188C10.2656 3.87699 11.2082 3.08248 12.3189 3.08248H18.0764C19.1871 3.08248 20.1297 3.87699 20.3173 4.97224L20.5413 6.27781H24.7066C26.3723 6.27781 27.7272 7.63273 27.7272 9.29847V20.9262C27.7272 22.5919 26.3723 23.9469 24.7066 23.9469H5.68907C4.02334 23.9469 2.66842 22.5919 2.66842 20.9262V9.29811Z" fill="white"/>
<path d="M7.6043 15.2655H8.66424C8.77193 15.2655 8.86053 15.3466 8.8735 15.4539C9.05178 16.9176 9.70402 18.2797 10.7564 19.3325C12.0141 20.5844 13.6795 21.2806 15.4486 21.2806C17.1449 21.2928 18.7462 20.6614 19.9819 19.501C20.069 19.4193 20.069 19.2795 19.9844 19.1952L18.3212 17.532C17.5616 18.2934 16.5362 18.7184 15.4486 18.7184C14.3688 18.7184 13.355 18.2837 12.5792 17.5155C12.0278 16.964 11.6629 16.27 11.5091 15.5238C11.4825 15.3945 11.5869 15.2745 11.7188 15.2745H12.6181C12.8075 15.2745 12.9026 15.0458 12.7686 14.9115L10.2659 12.4005C10.183 12.3173 10.0483 12.3169 9.96514 12.4001L7.45411 14.9025C7.31977 15.0361 7.41449 15.2655 7.6043 15.2655Z" fill="white"/>
<path d="M12.4855 11.4387C12.5705 11.5154 12.6987 11.5089 12.7801 11.4282C13.4515 10.7652 14.323 10.3794 15.2829 10.329C17.1989 10.2433 18.8492 11.5921 19.1892 13.4285C19.2122 13.5528 19.115 13.6677 18.9886 13.6735L18.1505 13.712C17.961 13.7206 17.8767 13.9544 18.0172 14.0819L20.4458 16.2907C20.5329 16.37 20.6676 16.3635 20.7465 16.2763L22.9489 13.8453C23.076 13.7048 22.9701 13.4808 22.781 13.4898L21.6559 13.5434C21.34 10.2577 18.4919 7.7618 15.1579 7.91595C13.5754 7.99987 12.1012 8.6586 10.997 9.79706C10.9138 9.88278 10.9206 10.0225 11.0092 10.1028L12.4855 11.4387Z" fill="white"/>
</svg>
