<svg width="28" height="25" viewBox="0 0 28 25" fill="none" xmlns="http://www.w3.org/2000/svg">
<path fill-rule="evenodd" clip-rule="evenodd" d="M14.0002 19.7628C11.2291 19.7628 8.88688 17.9812 8.09787 15.5262H9.04773C9.38978 15.5262 9.66667 15.2555 9.66667 14.9207C9.66667 14.5863 9.38947 14.3156 9.04773 14.3156H6.57168C6.22963 14.3156 5.95243 14.5863 5.95243 14.9207V17.3419C5.95243 17.6763 6.22963 17.947 6.57168 17.947C6.91341 17.947 7.19061 17.6763 7.19061 17.3419V16.5857C8.32898 19.1651 10.944 20.9737 14.0002 20.9737C17.6963 20.9737 20.7541 18.3309 21.3247 14.8744L20.0808 14.8303C19.5429 17.6375 17.0268 19.7628 14.0002 19.7628ZM23.2861 4.02632H20.8097C20.8097 2.35481 19.4243 1 17.7147 1H10.2859C8.57662 1 7.19061 2.35481 7.19061 4.02632H4.71424C2.66289 4.02632 1 5.65246 1 7.65779V20.3682C1 22.3739 2.66289 24 4.71424 24H23.2858C25.3374 24 27 22.3742 27 20.3682V7.65779C27.0003 5.65246 25.3377 4.02632 23.2861 4.02632ZM25.7621 20.3679C25.7621 21.705 24.6536 22.7891 23.2861 22.7891H4.71456C3.34699 22.7891 2.23819 21.705 2.23819 20.3679V7.65779C2.23819 6.3207 3.34699 5.23692 4.71456 5.23692H8.4288V4.02632H8.50986C8.78515 2.98264 9.75154 2.21059 10.9049 2.21059H17.0955C18.2488 2.21059 19.2152 2.98264 19.4905 4.02632H19.5715V5.23692H23.2861C24.6536 5.23692 25.7621 6.3207 25.7621 7.65779V20.3679ZM21.4286 8.86838C21.0866 8.86838 20.8097 9.13909 20.8097 9.47352V10.833C19.6707 8.25485 17.056 6.44751 14.0002 6.44751C10.5212 6.44751 7.60896 8.78944 6.80151 11.9463L8.06704 11.9901C8.82553 9.48626 11.1929 7.6581 14.0002 7.6581C16.5369 7.6581 18.7113 9.1537 19.6669 11.2899H18.9526C18.6105 11.2899 18.3337 11.5606 18.3337 11.895C18.3337 12.2294 18.6105 12.5002 18.9526 12.5002H21.4286C21.771 12.5002 22.0476 12.2294 22.0476 11.895V9.47383C22.0476 9.13909 21.771 8.86838 21.4286 8.86838Z" fill="white" stroke="white" stroke-width="0.5"/>
</svg>
