<svg width="68" height="68" viewBox="0 0 68 68" fill="none" xmlns="http://www.w3.org/2000/svg">
<rect opacity="0.3" width="68" height="68" rx="34" fill="white"/>
<path fill-rule="evenodd" clip-rule="evenodd" d="M34.0002 40.7628C31.2291 40.7628 28.8869 38.9812 28.0979 36.5262H29.0477C29.3898 36.5262 29.6667 36.2555 29.6667 35.9207C29.6667 35.5863 29.3895 35.3156 29.0477 35.3156H26.5717C26.2296 35.3156 25.9524 35.5863 25.9524 35.9207V38.3419C25.9524 38.6763 26.2296 38.947 26.5717 38.947C26.9134 38.947 27.1906 38.6763 27.1906 38.3419V37.5857C28.329 40.1651 30.944 41.9737 34.0002 41.9737C37.6963 41.9737 40.7541 39.3309 41.3247 35.8744L40.0808 35.8303C39.5429 38.6375 37.0268 40.7628 34.0002 40.7628ZM43.2861 25.0263H40.8097C40.8097 23.3548 39.4243 22 37.7147 22H30.2859C28.5766 22 27.1906 23.3548 27.1906 25.0263H24.7142C22.6629 25.0263 21 26.6525 21 28.6578V41.3682C21 43.3739 22.6629 45 24.7142 45H43.2858C45.3374 45 47 43.3742 47 41.3682V28.6578C47.0003 26.6525 45.3377 25.0263 43.2861 25.0263ZM45.7621 41.3679C45.7621 42.705 44.6536 43.7891 43.2861 43.7891H24.7146C23.347 43.7891 22.2382 42.705 22.2382 41.3679V28.6578C22.2382 27.3207 23.347 26.2369 24.7146 26.2369H28.4288V25.0263H28.5099C28.7852 23.9826 29.7515 23.2106 30.9049 23.2106H37.0955C38.2488 23.2106 39.2152 23.9826 39.4905 25.0263H39.5715V26.2369H43.2861C44.6536 26.2369 45.7621 27.3207 45.7621 28.6578V41.3679ZM41.4286 29.8684C41.0866 29.8684 40.8097 30.1391 40.8097 30.4735V31.833C39.6707 29.2548 37.056 27.4475 34.0002 27.4475C30.5212 27.4475 27.609 29.7894 26.8015 32.9463L28.067 32.9901C28.8255 30.4863 31.1929 28.6581 34.0002 28.6581C36.5369 28.6581 38.7113 30.1537 39.6669 32.2899H38.9526C38.6105 32.2899 38.3337 32.5606 38.3337 32.895C38.3337 33.2294 38.6105 33.5002 38.9526 33.5002H41.4286C41.771 33.5002 42.0476 33.2294 42.0476 32.895V30.4738C42.0476 30.1391 41.771 29.8684 41.4286 29.8684Z" fill="white" stroke="white" stroke-width="0.5"/>
</svg>
