<svg width="19" height="22" viewBox="0 0 19 22" fill="none" xmlns="http://www.w3.org/2000/svg">
<path d="M15.3333 4.99154V12.6582C15.3333 15.0482 13.39 16.9915 11 16.9915H4.33333C1.94333 16.9915 0 15.0482 0 12.6582V7.6582C0 5.2682 1.94333 3.32487 4.33333 3.32487H11.5567C11.9233 3.32487 12.2233 3.62487 12.2233 3.99154C12.2233 4.3582 11.9233 4.6582 11.5567 4.6582H4.33333C2.68 4.6582 1.33333 6.00487 1.33333 7.6582V12.6582C1.33333 14.3115 2.68 15.6582 4.33333 15.6582H11C12.6533 15.6582 14 14.3115 14 12.6582V4.99154C14 2.60154 15.9433 0.658203 18.3333 0.658203C18.7 0.658203 19 0.958203 19 1.32487C19 1.69154 18.7 1.99154 18.3333 1.99154C16.68 1.99154 15.3333 3.3382 15.3333 4.99154Z" fill="white"/>
<path d="M5.3335 19.8245C5.3335 20.8345 4.51016 21.6579 3.50016 21.6579C2.49016 21.6579 1.66683 20.8345 1.66683 19.8245C1.66683 18.8145 2.49016 17.9912 3.50016 17.9912C4.51016 17.9912 5.3335 18.8145 5.3335 19.8245ZM3.00016 19.8245C3.00016 20.1012 3.2235 20.3245 3.50016 20.3245C3.77683 20.3245 4.00016 20.1012 4.00016 19.8245C4.00016 19.5479 3.77683 19.3245 3.50016 19.3245C3.2235 19.3245 3.00016 19.5479 3.00016 19.8245Z" fill="white"/>
<path d="M14 19.8245C14 20.8345 13.1767 21.6579 12.1667 21.6579C11.1567 21.6579 10.3333 20.8345 10.3333 19.8245C10.3333 18.8145 11.1567 17.9912 12.1667 17.9912C13.1767 17.9912 14 18.8145 14 19.8245ZM11.6667 19.8245C11.6667 20.1012 11.89 20.3245 12.1667 20.3245C12.4433 20.3245 12.6667 20.1012 12.6667 19.8245C12.6667 19.5479 12.4433 19.3245 12.1667 19.3245C11.89 19.3245 11.6667 19.5479 11.6667 19.8245Z" fill="white"/>
</svg>
