<svg width="22" height="22" viewBox="0 0 22 22" fill="none" xmlns="http://www.w3.org/2000/svg">
<path d="M11.0021 0C8.08533 0 5.28798 1.15885 3.22548 3.22161C1.16298 5.28437 0.0042843 8.08208 0.0042843 10.9993C-0.0260822 12.7561 0.396891 14.4912 1.23238 16.0369L0.132593 19.0471C-0.0105707 19.4405 -0.0384752 19.8667 0.0521574 20.2755C0.14279 20.6843 0.348195 21.0587 0.64424 21.3548C0.940285 21.6509 1.31467 21.8563 1.72341 21.947C2.13216 22.0376 2.55828 22.0097 2.95171 21.8665L5.96146 20.7666C7.50775 21.6041 9.24393 22.0284 11.0021 21.9985C13.919 21.9985 16.7163 20.8397 18.7788 18.7769C20.8413 16.7142 22 13.9164 22 10.9993C22 8.08208 20.8413 5.28437 18.7788 3.22161C16.7163 1.15885 13.919 0 11.0021 0ZM11.0021 19.7987C9.29517 19.8499 7.61932 19.3342 6.2364 18.3321L2.20386 19.7987L3.67024 15.7656C2.66829 14.3825 2.15264 12.7064 2.20386 10.9993C2.20386 9.2589 2.71987 7.55763 3.68663 6.11057C4.6534 4.66352 6.02751 3.53567 7.63518 2.86967C9.24286 2.20366 11.0119 2.0294 12.7186 2.36893C14.4253 2.70846 15.993 3.54652 17.2235 4.77714C18.4539 6.00776 19.2919 7.57566 19.6314 9.28258C19.9709 10.9895 19.7966 12.7588 19.1307 14.3667C18.4648 15.9745 17.3371 17.3488 15.8902 18.3157C14.4433 19.2826 12.7423 19.7987 11.0021 19.7987Z" fill="#56BCB4"/>
</svg>
