<svg width="15" height="15" viewBox="0 0 15 15" fill="none" xmlns="http://www.w3.org/2000/svg">
<path d="M7.5 0C6.01664 0 4.56659 0.439867 3.33323 1.26398C2.09986 2.08809 1.13856 3.25943 0.570907 4.62987C0.00324963 6.00032 -0.145275 7.50832 0.144114 8.96317C0.433503 10.418 1.14781 11.7544 2.1967 12.8033C3.2456 13.8522 4.58197 14.5665 6.03683 14.8559C7.49168 15.1453 8.99968 14.9968 10.3701 14.4291C11.7406 13.8614 12.9119 12.9001 13.736 11.6668C14.5601 10.4334 15 8.98336 15 7.5C15 6.51508 14.806 5.53981 14.4291 4.62987C14.0522 3.71993 13.4997 2.89314 12.8033 2.1967C12.1069 1.50026 11.2801 0.947814 10.3701 0.570903C9.46019 0.193993 8.48492 0 7.5 0ZM6.8175 6.975C6.21221 7.21404 5.56227 7.31895 4.9125 7.2825C4.96896 6.32406 5.21398 5.38619 5.63354 4.52262C6.0531 3.65905 6.63895 2.88676 7.3575 2.25L8.1975 1.5C8.99025 1.59641 9.75546 1.85148 10.4475 2.25C9.48334 2.65323 8.64122 3.30131 8.00453 4.13006C7.36784 4.95881 6.95866 5.93949 6.8175 6.975ZM3.0675 10.23L2.0025 9.8775C1.68152 9.1438 1.51066 8.35327 1.5 7.5525C2.32413 8.19195 3.30195 8.60341 4.33533 8.74558C5.36871 8.88775 6.42131 8.75564 7.3875 8.3625C7.89624 8.76872 8.31077 9.2805 8.6025 9.8625C6.87335 10.7121 4.87858 10.8442 3.0525 10.23H3.0675ZM5.7525 1.7625C4.42359 3.18913 3.60811 5.01801 3.435 6.96C3.04439 6.79958 2.6783 6.58497 2.3475 6.3225L1.74 5.835C2.01723 4.87596 2.52936 4.00124 3.23001 3.29012C3.93066 2.57899 4.79768 2.05392 5.7525 1.7625ZM3.4125 11.88C5.30795 12.325 7.29819 12.1162 9.06 11.2875C9.11909 11.7054 9.11909 12.1296 9.06 12.5475L8.94 13.2975C7.97307 13.5414 6.96021 13.5373 5.99529 13.2856C5.03036 13.0339 4.14458 12.5427 3.42 11.8575L3.4125 11.88ZM10.545 12.63C10.678 11.5984 10.5405 10.5499 10.1461 9.58742C9.75163 8.62495 9.11374 7.78156 8.295 7.14C8.39995 6.50383 8.64038 5.89765 9 5.3625C10.6048 6.43176 11.7211 8.09274 12.105 9.9825L12.33 11.07C11.8477 11.7144 11.2406 12.2551 10.545 12.66V12.63ZM13.3425 8.82C12.7711 6.95954 11.5969 5.34209 10.005 4.2225C10.339 3.96469 10.7076 3.75514 11.1 3.6L11.85 3.315C12.542 4.03294 13.0421 4.91354 13.3043 5.8756C13.5664 6.83767 13.5821 7.85025 13.35 8.82H13.3425Z" fill="#56BCB4"/>
</svg>
