<svg width="19" height="16" viewBox="0 0 19 16" fill="none" xmlns="http://www.w3.org/2000/svg">
<path d="M13.4804 11H0.519607C0.232633 11 0 11.2316 0 11.5173C0 11.8029 0.232633 12.0345 0.519607 12.0345H3.72452L2.35954 15.2838C2.35954 15.2838 2.35899 15.2888 2.35806 15.2912H1.42885V16H12.5712V15.2912H11.6326L10.3926 12.0345H13.4804C13.7674 12.0345 14 11.8029 14 11.5173C14 11.2316 13.7674 11 13.4804 11ZM10.6448 15.2912H3.35746L4.72552 12.0345H9.40476L10.6448 15.2912Z" fill="#56BCB4"/>
<path d="M18.7585 13.957L16.5931 8.80823C16.4582 8.48869 16.1464 8.25884 15.7765 8.24675L15.7366 8.24543L12.5226 8.14025L12.526 8.1306L11.2026 5.18762L13.2642 2.92274C13.7143 2.43423 13.4978 1.63975 12.8733 1.43511L10.4451 0.63623C10.6888 1.01272 10.8313 1.46268 10.8313 1.94019C10.8313 2.18816 10.7946 2.43146 10.721 2.65649L10.9509 2.73451C10.8054 2.89403 9.85055 3.94279 9.70212 4.10573L7.99296 4.46253C6.69881 3.68198 7.30693 4.04197 6.20508 3.38188L6.39821 3.23038C6.15911 2.85844 6.0211 2.4131 6.0211 1.94015C6.0211 1.62792 6.08088 1.32491 6.19586 1.04944L4.02527 2.76205C3.52517 3.14609 3.56282 3.93197 4.11726 4.26805L7.05701 6.04476C7.33206 6.88958 8.02556 7.85851 8.44705 8.39876C8.61956 8.61985 8.79141 8.84017 8.94622 9.07394C10.0794 10.785 11.0792 10.321 15.1468 10.113L17.0815 14.7133C17.2978 15.2275 17.9281 15.4422 18.4232 15.1332C18.8116 14.8907 18.9359 14.3787 18.7585 13.957Z" fill="#56BCB4"/>
<path d="M8.42534 3.8836C9.49946 3.8836 10.3702 3.01423 10.3702 1.9418C10.3702 0.869373 9.49946 0 8.42534 0C7.35122 0 6.48047 0.869373 6.48047 1.9418C6.48047 3.01423 7.35122 3.8836 8.42534 3.8836Z" fill="#56BCB4"/>
</svg>
