<svg width="17" height="14" viewBox="0 0 17 14" fill="none" xmlns="http://www.w3.org/2000/svg">
<path d="M1.74462 1.74897C1.83202 1.74897 1.91948 1.7577 2.00698 1.77519L4.36806 2.24743C4.37241 2.22555 4.37241 2.20806 4.37241 2.18622C4.37241 0.979391 3.39298 8.69877e-10 2.18622 8.69877e-10C0.979459 -3.37038e-05 0 0.979391 0 2.18622C0 2.76773 0.227372 3.29683 0.603415 3.69036C0.450362 3.42362 0.402232 3.10882 0.463541 2.80275C0.585956 2.1906 1.12378 1.74897 1.74462 1.74897Z" fill="#56BCB4"/>
<path d="M15.9943 12.5805L12.9335 8.64524C12.617 8.23832 12.0145 8.1906 11.638 8.55086L9.2237 10.8646L5.88515 6.1154C5.82994 6.03781 5.76739 5.96049 5.70122 5.8855L6.80906 4.47553C7.21194 3.96318 6.93097 3.2054 6.29321 3.07773L1.92077 2.20326C1.44553 2.10656 0.986071 2.4157 0.891698 2.88925C0.796886 3.3628 1.1039 3.82354 1.57749 3.91812L4.55496 4.51378L4.14953 5.02977C3.27833 4.88814 2.35634 5.18316 1.733 5.89689C0.77299 6.99613 0.885867 8.66546 1.98511 9.62547L6.44802 13.5231C7.10654 14.0982 8.17822 14.2901 9.19812 13.3115L12.1483 10.4845L14.6134 13.6544C14.9116 14.0374 15.4624 14.1028 15.8405 13.8077C16.2219 13.5112 16.2907 12.9618 15.9943 12.5805Z" fill="#56BCB4"/>
</svg>
