<svg width="11" height="18" viewBox="0 0 11 18" fill="none" xmlns="http://www.w3.org/2000/svg">
<path d="M1.76328 0.876953L0.322155 3.93076C-0.123906 4.85719 -0.10675 5.95519 0.373624 6.86447C0.751061 7.58503 1.35153 8.52862 2.32943 9.7124L8.28264 17.1582L10.9933 14.8936L4.81708 7.15613C2.41521 4.22241 1.88337 1.85486 1.76328 0.876953Z" fill="#56BCB4"/>
<path d="M8.21391 10.2957L8.67712 9.7124C9.65503 8.52862 10.2555 7.58503 10.6329 6.86447C11.1133 5.95519 11.1133 4.85719 10.6844 3.93076L9.24328 0.876953C9.12318 1.85486 8.57419 4.20526 6.17232 7.15613L5.93213 7.44778L8.21391 10.2957Z" fill="#56BCB4"/>
<path d="M2.79249 11.4111L0.0131836 14.8938L2.72386 17.1585L5.05711 14.2419L2.79249 11.4111Z" fill="#56BCB4"/>
<path d="M2.44935 0.807993C2.50082 1.25405 2.67238 2.14618 3.20422 3.3128C4.26791 3.02114 5.84628 2.83243 7.78493 3.36427C8.33393 2.16333 8.50549 1.25405 8.55696 0.790837L8.57412 0.602118C5.69188 -0.461566 3.47872 0.121745 2.41504 0.55065L2.44935 0.807993Z" fill="#56BCB4"/>
</svg>
