<svg width="19" height="19" viewBox="0 0 19 19" fill="none" xmlns="http://www.w3.org/2000/svg">
<path d="M9.5 0C4.26 0 0 4.26 0 9.5C0 14.74 4.26 19 9.5 19C14.74 19 19 14.74 19 9.5C19 4.26 14.74 0 9.5 0ZM15.64 14.58L14.34 13.28C14.18 13.8 13.72 14.18 13.16 14.24L14.56 15.64C13.12 16.82 11.32 17.48 9.48 17.48C5.1 17.48 1.52 13.9 1.52 9.5C1.52 7.66 2.18 5.86 3.36 4.42L5.66 6.72C5.8 6.7 5.92 6.68 6.06 6.68H7.76L4.42 3.36C5.86 2.18 7.66 1.52 9.5 1.52C13.9 1.52 17.48 5.1 17.48 9.5C17.48 11.34 16.84 13.14 15.64 14.58Z" fill="#56BCB4"/>
<path d="M9.70014 7.54023C10.4601 8.02023 10.9201 8.84023 10.9201 9.74023V10.1202C11.1801 10.2802 11.3601 10.5802 11.3601 10.9002V11.0602C11.3601 11.3802 11.2001 11.6602 10.9201 11.8202V12.2802C10.9201 12.6202 10.8001 12.9402 10.6001 13.2002H12.9801C13.1801 13.2002 13.3401 13.0602 13.3601 12.8602L13.9001 6.74023H9.64014L9.70014 7.54023Z" fill="#56BCB4"/>
<path d="M14.1201 5.4602H12.0001V4.4402C12.0001 4.3202 11.9001 4.2002 11.7601 4.2002C11.6401 4.2002 11.5201 4.3002 11.5201 4.4402V5.4602H9.4201C9.2401 5.4602 9.1001 5.6002 9.1001 5.7802V5.8002C9.1001 5.9802 9.2401 6.1202 9.4201 6.1202H14.1201C14.3001 6.1202 14.4401 5.9802 14.4401 5.8002V5.7802C14.4401 5.6002 14.3001 5.4602 14.1201 5.4602Z" fill="#56BCB4"/>
<path d="M4.06006 12.2799C4.06006 12.7999 4.48006 13.1999 5.00006 13.1999H9.40006C9.66006 13.1999 9.90006 13.0999 10.0801 12.8999C10.2401 12.7199 10.3401 12.4999 10.3401 12.2599V11.9399H4.06006V12.2799Z" fill="#56BCB4"/>
<path d="M10.7601 11.0601V10.9001C10.7601 10.7401 10.6201 10.6001 10.4601 10.6001H3.94014C3.78014 10.6001 3.64014 10.7401 3.64014 10.9001V11.0601C3.64014 11.2201 3.78014 11.3601 3.94014 11.3601H10.4601C10.6201 11.3401 10.7601 11.2201 10.7601 11.0601Z" fill="#56BCB4"/>
<path d="M10.3201 9.74023C10.3201 9.16023 10.0601 8.62023 9.64008 8.24023C9.28008 7.92023 8.82008 7.74023 8.34008 7.74023H6.06008C4.96008 7.74023 4.08008 8.64023 4.08008 9.72023V9.98023H10.3401V9.74023H10.3201ZM5.84008 9.48023C5.68008 9.48023 5.54008 9.34023 5.54008 9.18023C5.54008 9.02023 5.68008 8.88023 5.84008 8.88023C6.00008 8.88023 6.14008 9.02023 6.14008 9.18023C6.14008 9.36023 6.00008 9.48023 5.84008 9.48023ZM6.52008 8.84023C6.36008 8.84023 6.22008 8.70023 6.22008 8.54023C6.22008 8.38023 6.36008 8.24023 6.52008 8.24023C6.68008 8.24023 6.82008 8.38023 6.82008 8.54023C6.82008 8.70023 6.68008 8.84023 6.52008 8.84023ZM7.20008 9.48023C7.04008 9.48023 6.90008 9.34023 6.90008 9.18023C6.90008 9.02023 7.04008 8.88023 7.20008 8.88023C7.36008 8.88023 7.50008 9.02023 7.50008 9.18023C7.48008 9.36023 7.36008 9.48023 7.20008 9.48023ZM7.88008 8.84023C7.72008 8.84023 7.58008 8.70023 7.58008 8.54023C7.58008 8.38023 7.72008 8.24023 7.88008 8.24023C8.04008 8.24023 8.18008 8.38023 8.18008 8.54023C8.16008 8.70023 8.04008 8.84023 7.88008 8.84023ZM8.54008 9.48023C8.38008 9.48023 8.24008 9.34023 8.24008 9.18023C8.24008 9.02023 8.38008 8.88023 8.54008 8.88023C8.70008 8.88023 8.84008 9.02023 8.84008 9.18023C8.84008 9.36023 8.72008 9.48023 8.54008 9.48023Z" fill="#56BCB4"/>
</svg>
