<svg width="17" height="11" viewBox="0 0 17 11" fill="none" xmlns="http://www.w3.org/2000/svg">
<path d="M14.4109 5.32432C15.4439 4.23536 16.1635 2.91495 16.5011 1.48919L16.7276 0.42973L14.4768 0.00540553L14.2532 1.06487C14.213 1.24324 13.2353 5.59459 8.4957 5.59459C3.80486 5.59459 2.78411 1.27027 2.73824 1.05676L2.51459 0L0.263788 0.424325L0.490302 1.48378C0.826932 2.91147 1.54663 4.23383 2.58054 5.32432L0 7.75676L1.61427 9.28649L4.34677 6.71081C5.26413 7.22922 6.28697 7.55981 7.34879 7.68108V11H9.6426V7.68108C10.7044 7.55981 11.7273 7.22922 12.6446 6.71081L15.3771 9.28649L17 7.75676L14.4109 5.32432Z" fill="#56BCB4"/>
</svg>
