<svg width="36" height="36" viewBox="0 0 36 36" fill="none" xmlns="http://www.w3.org/2000/svg">
<rect opacity="0.07" width="36" height="36" rx="18" fill="#019B81"/>
<path fill-rule="evenodd" clip-rule="evenodd" d="M22.7803 22.7908C22.4874 23.0697 22.0126 23.0697 21.7197 22.7908L17.2197 18.5051C16.9268 18.2261 16.9268 17.7739 17.2197 17.4949L21.7197 13.2092C22.0126 12.9303 22.4874 12.9303 22.7803 13.2092C23.0732 13.4882 23.0732 13.9404 22.7803 14.2194L18.8107 18L22.7803 21.7806C23.0732 22.0596 23.0732 22.5118 22.7803 22.7908Z" fill="#56BCB4"/>
<path fill-rule="evenodd" clip-rule="evenodd" d="M13.2197 22.7908C13.5126 23.0697 13.9874 23.0697 14.2803 22.7908L18.7803 18.5051C19.0732 18.2261 19.0732 17.7739 18.7803 17.4949L14.2803 13.2092C13.9874 12.9303 13.5126 12.9303 13.2197 13.2092C12.9268 13.4882 12.9268 13.9404 13.2197 14.2194L17.1893 18L13.2197 21.7806C12.9268 22.0596 12.9268 22.5118 13.2197 22.7908Z" fill="#56BCB4"/>
</svg>
