<svg width="68" height="68" viewBox="0 0 68 68" fill="none" xmlns="http://www.w3.org/2000/svg">
<rect width="68" height="68" rx="34" fill="#FF3A2F"/>
<path fill-rule="evenodd" clip-rule="evenodd" d="M43.5973 42.6234C43.0603 43.1255 42.1897 43.1255 41.6527 42.6234L33.4027 34.9091C32.8658 34.407 32.8658 33.593 33.4027 33.0909L41.6527 25.3766C42.1897 24.8745 43.0603 24.8745 43.5973 25.3766C44.1342 25.8787 44.1342 26.6927 43.5973 27.1949L36.3195 34L43.5973 40.8051C44.1342 41.3073 44.1342 42.1213 43.5973 42.6234Z" fill="white"/>
<path fill-rule="evenodd" clip-rule="evenodd" d="M25.4027 42.6234C25.9397 43.1255 26.8103 43.1255 27.3473 42.6234L35.5973 34.9091C36.1342 34.407 36.1342 33.593 35.5973 33.0909L27.3473 25.3766C26.8103 24.8745 25.9397 24.8745 25.4027 25.3766C24.8658 25.8787 24.8658 26.6927 25.4027 27.1949L32.6805 34L25.4027 40.8051C24.8658 41.3073 24.8658 42.1213 25.4027 42.6234Z" fill="white"/>
</svg>
