<svg width="34" height="34" viewBox="0 0 34 34" fill="none" xmlns="http://www.w3.org/2000/svg">
<rect width="34" height="34" rx="17" fill="white" fill-opacity="0.2"/>
<path fill-rule="evenodd" clip-rule="evenodd" d="M12.2441 12.2441C12.5695 11.9186 13.0972 11.9186 13.4226 12.2441L17 15.8215L20.5774 12.2441C20.9028 11.9186 21.4305 11.9186 21.7559 12.2441C22.0814 12.5695 22.0814 13.0972 21.7559 13.4226L18.1785 17L21.7559 20.5774C22.0814 20.9028 22.0814 21.4305 21.7559 21.7559C21.4305 22.0814 20.9028 22.0814 20.5774 21.7559L17 18.1785L13.4226 21.7559C13.0972 22.0814 12.5695 22.0814 12.2441 21.7559C11.9186 21.4305 11.9186 20.9028 12.2441 20.5774L15.8215 17L12.2441 13.4226C11.9186 13.0972 11.9186 12.5695 12.2441 12.2441Z" fill="white"/>
</svg>
