<svg width="12" height="12" viewBox="0 0 12 12" fill="none" xmlns="http://www.w3.org/2000/svg">
<path opacity="0.5" d="M0.187593 1.11026L0.204988 1.12766C0.344145 1.26898 0.483302 1.40595 0.622459 1.5451L5.07767 6L0.187593 10.8897C-0.0711527 11.1485 -0.0515833 11.5507 0.187593 11.8116C0.426769 12.0725 0.868157 12.0529 1.10951 11.8116L1.1269 11.7942C1.26824 11.655 1.40522 11.5159 1.54438 11.3768L5.99958 6.92185L10.8897 11.8116C11.1484 12.0703 11.5507 12.0507 11.8116 11.8116C12.0725 11.5724 12.0529 11.1311 11.8116 10.8897L11.7942 10.8723C11.655 10.731 11.5159 10.594 11.3767 10.4549L6.9215 6L11.8116 1.11026C12.0703 0.851536 12.0508 0.449312 11.8116 0.18841C11.5724 -0.0724919 11.131 -0.0529243 10.8897 0.18841L10.8723 0.205804C10.7309 0.344951 10.594 0.484099 10.4548 0.623247L5.99958 5.07815L1.10951 0.18841C0.850763 -0.0703177 0.448513 -0.0507501 0.187593 0.18841C-0.0711527 0.42757 -0.0537577 0.868929 0.187593 1.11026Z" fill="black"/>
</svg>
