<svg width="18" height="17" viewBox="0 0 18 17" fill="none" xmlns="http://www.w3.org/2000/svg">
<path fill-rule="evenodd" clip-rule="evenodd" d="M3.4531 0H13.692C16.2103 0 17.4031 2.06612 17.0984 4.39642L15.8625 13.8089C15.6159 15.6913 14.0489 17 12.1682 17H4.97683C3.09618 17 1.52914 15.6913 1.28253 13.8089L0.04668 4.39642C-0.258015 2.06637 0.93478 0 3.4531 0ZM8.57254 1.71276C11.793 1.71276 13.6041 4.21452 13.6041 7.25383C12.4194 7.25383 11.2348 7.25383 10.0502 7.25383C10.0502 6.24676 9.79973 5.26669 8.57254 5.26669C7.37439 5.26669 7.09492 6.25109 7.09492 7.25383C5.91028 7.25383 4.72564 7.25383 3.54099 7.25383C3.54099 4.21427 5.35209 1.71276 8.57254 1.71276ZM10.1487 4.80786L10.6466 4.31006L11.0068 4.67029L10.5087 5.16835C10.7564 5.47254 10.9344 5.83634 11.0172 6.23479H12.5529C12.3117 4.33121 10.7439 2.85996 8.8273 2.73971V4.26064C9.32561 4.31108 9.78113 4.50827 10.1487 4.80786ZM6.63711 5.16912L6.13829 4.67029L6.49852 4.31006L6.99735 4.80888C7.36522 4.50877 7.82023 4.31133 8.31778 4.26064V2.73971C6.4012 2.85996 4.8334 4.33121 4.59214 6.23479H6.1281C6.21115 5.83685 6.38897 5.4733 6.63711 5.16912ZM15.4435 9.19716H10.6448L9.75005 15.981H7.41617L6.52145 9.19716H1.70161L1.05401 4.26497C0.831347 2.56061 1.55538 1.01905 3.4531 1.01905H13.692C15.5897 1.01905 16.3137 2.56061 16.0911 4.26497L15.4435 9.19716Z" fill="#56BCB4"/>
</svg>
