<svg width="85" height="85" viewBox="0 0 85 85" fill="none" xmlns="http://www.w3.org/2000/svg">
<rect width="85" height="85" rx="42.5" fill="#F8C100"/>
<path d="M28.4946 60.3413C32.77 60.3413 36.2393 57.0527 36.2393 52.9951C36.2393 48.9473 32.7705 45.6592 28.4946 45.6592C24.23 45.6592 20.7607 48.9477 20.7607 52.9951C20.7607 57.0532 24.23 60.3413 28.4946 60.3413ZM19 52.9951C19 48.0229 23.2595 44 28.4946 44C33.7457 44 38 48.0229 38 52.9951C38 57.9727 33.7457 62 28.4946 62C23.2595 62.0004 19 57.9727 19 52.9951Z" fill="white"/>
<path d="M55.5049 60.3369C59.77 60.3369 63.2393 57.0546 63.2393 52.9982C63.2393 48.9467 59.77 45.6645 55.5049 45.6645C51.23 45.6645 47.7607 48.9467 47.7607 52.9982C47.7607 57.0546 51.23 60.3369 55.5049 60.3369ZM46 52.9978C46 48.0217 50.2595 44 55.5049 44C60.7401 44 65 48.0217 65 52.9978C65 57.9739 60.7405 62 55.5049 62C50.2595 62.0004 46 57.9739 46 52.9978Z" fill="white"/>
<path d="M46.5 31C48.4312 31 50 29.4387 50 27.5053C50 25.5715 48.4312 24 46.5 24C44.5693 24 43 25.5719 43 27.5053C43 29.4387 44.5693 31 46.5 31Z" fill="white"/>
<path d="M45.9976 38.7707C45.5117 38.7805 44.9868 38.5361 44.5997 37.9223L42.4196 34.4887L37.9195 38.9752L42.0925 41.1864C43.8074 42.0149 43.5496 43.5319 43.5496 43.5319V53.0439C43.5496 54.1217 42.6871 55 41.6167 55C40.5463 55 39.6838 54.1213 39.6838 53.0439V45.4284L32.4474 41.3811C31.5849 40.8971 31 39.9686 31 38.9107C31 38.1818 31.2675 37.5129 31.7235 37.0142L38.8208 29.8525C39.7032 28.8494 40.9321 29.0094 40.9321 29.0094C42.4192 29.0094 43.2022 30.317 43.2022 30.317L46.8897 36.1359L52.4907 36.1262C54.5031 36.1262 54.5031 38.7712 52.4907 38.7712H45.9976V38.7707Z" fill="white"/>
</svg>
