<svg width="18" height="18" viewBox="0 0 18 18" fill="none" xmlns="http://www.w3.org/2000/svg">
<path d="M15.75 1.46667H13.5V0.733333C13.5 0.538841 13.421 0.352315 13.2803 0.214788C13.1397 0.0772617 12.9489 0 12.75 0C12.5511 0 12.3603 0.0772617 12.2197 0.214788C12.079 0.352315 12 0.538841 12 0.733333V1.46667H6V0.733333C6 0.538841 5.92098 0.352315 5.78033 0.214788C5.63968 0.0772617 5.44891 0 5.25 0C5.05109 0 4.86032 0.0772617 4.71967 0.214788C4.57902 0.352315 4.5 0.538841 4.5 0.733333V1.46667H2.25C1.65326 1.46667 1.08097 1.69845 0.65901 2.11103C0.237053 2.52361 0 3.08319 0 3.66667L0 15.4C0 15.9835 0.237053 16.5431 0.65901 16.9556C1.08097 17.3682 1.65326 17.6 2.25 17.6H15.75C16.3467 17.6 16.919 17.3682 17.341 16.9556C17.7629 16.5431 18 15.9835 18 15.4V3.66667C18 3.08319 17.7629 2.52361 17.341 2.11103C16.919 1.69845 16.3467 1.46667 15.75 1.46667ZM2.25 2.93333H4.5V3.66667C4.5 3.86116 4.57902 4.04769 4.71967 4.18521C4.86032 4.32274 5.05109 4.4 5.25 4.4C5.44891 4.4 5.63968 4.32274 5.78033 4.18521C5.92098 4.04769 6 3.86116 6 3.66667V2.93333H12V3.66667C12 3.86116 12.079 4.04769 12.2197 4.18521C12.3603 4.32274 12.5511 4.4 12.75 4.4C12.9489 4.4 13.1397 4.32274 13.2803 4.18521C13.421 4.04769 13.5 3.86116 13.5 3.66667V2.93333H15.75C15.9489 2.93333 16.1397 3.0106 16.2803 3.14812C16.421 3.28565 16.5 3.47217 16.5 3.66667V5.86667H1.5V3.66667C1.5 3.47217 1.57902 3.28565 1.71967 3.14812C1.86032 3.0106 2.05109 2.93333 2.25 2.93333ZM15.75 16.1333H2.25C2.05109 16.1333 1.86032 16.0561 1.71967 15.9185C1.57902 15.781 1.5 15.5945 1.5 15.4V7.33333H16.5V15.4C16.5 15.5945 16.421 15.781 16.2803 15.9185C16.1397 16.0561 15.9489 16.1333 15.75 16.1333Z" fill="#56BCB4"/>
</svg>
