<svg width="22" height="18" viewBox="0 0 22 18" fill="none" xmlns="http://www.w3.org/2000/svg">
<path d="M20.1688 13.7559V12.6568C20.1688 8.18419 17.1121 4.43733 13.0323 3.48459C13.2056 3.15174 13.3131 2.77767 13.3131 2.37461C13.3131 1.06527 12.2754 0 11 0C9.72453 0 8.68684 1.06527 8.68684 2.37461C8.68684 2.77767 8.79435 3.15174 8.96765 3.48459C4.88786 4.43733 1.83117 8.18419 1.83117 12.6568V13.7559C0.802758 13.8838 0 14.7754 0 15.8651C0 17.0421 0.933137 18 2.07969 18H19.9203C21.0669 18 22 17.0421 22 15.8651C22 14.7754 21.1972 13.8838 20.1688 13.7559ZM10.1535 2.37462C10.1535 1.89529 10.5331 1.50564 11 1.50564C11.4669 1.50564 11.8465 1.89529 11.8465 2.37462C11.8465 2.85395 11.4669 3.2436 11 3.2436C10.5331 3.2436 10.1535 2.85395 10.1535 2.37462ZM3.29785 12.6568C3.29785 8.29644 6.75325 4.74923 11 4.74923C15.2467 4.74923 18.7021 8.29644 18.7021 12.6568V13.7301H3.29785V12.6568ZM19.9203 16.4944H2.07969C1.74167 16.4944 1.46667 16.2121 1.46667 15.8651C1.46667 15.5181 1.74167 15.2357 2.07969 15.2357H19.9203C20.2583 15.2357 20.5333 15.5181 20.5333 15.8651C20.5333 16.2121 20.2583 16.4944 19.9203 16.4944Z" fill="#56BCB4"/>
</svg>
