<svg width="94" height="148" viewBox="0 0 94 148" fill="none" xmlns="http://www.w3.org/2000/svg">
<path d="M15.0673 8.125L2.75284 34.2199C-1.05878 42.1364 -0.912182 51.5188 3.19264 59.2887C6.41786 65.4459 11.5489 73.509 19.9051 83.6244L70.7756 147.249L93.9386 127.898L41.1623 61.7809C20.6381 36.7122 16.0935 16.4812 15.0673 8.125Z" fill="#56BCB4"/>
<path d="M70.1927 88.6089L74.151 83.6244C82.5072 73.509 87.6382 65.4459 90.8635 59.2887C94.9683 51.5188 94.9683 42.1364 91.3032 34.2199L78.9888 8.125C77.9626 16.4812 73.2714 36.5656 52.7472 61.7809L50.6948 64.2731L70.1927 88.6089Z" fill="#56BCB4"/>
<path d="M23.867 98.1445L0.117676 127.905L23.2806 147.256L43.2183 122.334L23.867 98.1445Z" fill="#56BCB4"/>
<path d="M20.9304 7.54497C21.3702 11.3566 22.8362 18.9798 27.3808 28.9487C36.4701 26.4565 49.9574 24.8439 66.5233 29.3885C71.2145 19.1264 72.6805 11.3566 73.1203 7.39837L73.2669 5.78576C48.638 -3.30349 29.7265 1.68094 20.6372 5.34596L20.9304 7.54497Z" fill="#56BCB4"/>
</svg>
