<svg width="17" height="20" viewBox="0 0 17 20" fill="none" xmlns="http://www.w3.org/2000/svg">
<path d="M17 8.37286V5.6232C17 4.20142 15.7468 3.04216 14.189 3.00383V3.63233V4.26465V4.62489C14.189 5.06854 14.0128 5.49402 13.6991 5.80773C13.3854 6.12144 12.9599 6.29768 12.5162 6.29768C12.0726 6.29768 11.6471 6.12144 11.3334 5.80773C11.0197 5.49402 10.8434 5.06854 10.8434 4.62489V3H6.10291V4.6268C6.10291 5.07046 5.92667 5.49594 5.61296 5.80965C5.29925 6.12335 4.87377 6.29959 4.43012 6.29959C3.98647 6.29959 3.56098 6.12335 3.24728 5.80965C2.93357 5.49594 2.75733 5.07046 2.75733 4.6268V4.27232V3.63616V3.00766C1.21867 3.0709 0 4.21867 0 5.62128V17.1066C0.00101396 17.8737 0.306176 18.609 0.848569 19.1514C1.39096 19.6938 2.12631 19.999 2.89337 20H14.1066C14.8735 19.9985 15.6086 19.6932 16.1509 19.1509C16.6932 18.6086 16.9985 17.8735 17 17.1066V8.37286ZM15.7411 17.1066C15.7406 17.54 15.5682 17.9554 15.2618 18.2618C14.9554 18.5682 14.54 18.7406 14.1066 18.7411H2.89337C2.46004 18.7406 2.0446 18.5682 1.73819 18.2618C1.43178 17.9554 1.25941 17.54 1.2589 17.1066V8.37286H15.7411V17.1066Z" fill="#56BCB4"/>
<path d="M4 1.4086V4.5914C4 4.69977 4.05268 4.8037 4.14645 4.88032C4.24021 4.95695 4.36739 5 4.5 5C4.63261 5 4.75979 4.95695 4.85355 4.88032C4.94732 4.8037 5 4.69977 5 4.5914V1.4086C5 1.30023 4.94732 1.1963 4.85355 1.11968C4.75979 1.04305 4.63261 1 4.5 1C4.36739 1 4.24021 1.04305 4.14645 1.11968C4.05268 1.1963 4 1.30023 4 1.4086Z" fill="#56BCB4" stroke="#56BCB4"/>
<path d="M12.5 1C12.3674 1 12.2402 1.04305 12.1464 1.11968C12.0527 1.1963 12 1.30023 12 1.4086V4.5914C12 4.69977 12.0527 4.8037 12.1464 4.88032C12.2402 4.95695 12.3674 5 12.5 5C12.6326 5 12.7598 4.95695 12.8536 4.88032C12.9473 4.8037 13 4.69977 13 4.5914V1.4086C13 1.30023 12.9473 1.1963 12.8536 1.11968C12.7598 1.04305 12.6326 1 12.5 1Z" fill="#56BCB4" stroke="#56BCB4"/>
</svg>
