<svg width="53" height="53" viewBox="0 0 53 53" fill="none" xmlns="http://www.w3.org/2000/svg">
<path d="M0 0H38C46.2843 0 53 6.71573 53 15V53H15C6.71573 53 0 46.2843 0 38V0Z" fill="#56BCB4"/>
<path d="M26.5 16C20.7112 16 16 20.7112 16 26.5C16 32.2888 20.7112 37 26.5 37C32.2888 37 37 32.2888 37 26.5C37 20.7112 32.2888 16 26.5 16ZM26.5 35.3421C21.623 35.3421 17.6579 31.3742 17.6579 26.5C17.6579 21.6258 21.623 17.6579 26.5 17.6579C31.377 17.6579 35.3421 21.6258 35.3421 26.5C35.3421 31.3742 31.377 35.3421 26.5 35.3421Z" fill="white"/>
<path d="M29.9156 23.1234L24.4529 28.0888L22.5242 25.9446C22.2175 25.6047 21.6925 25.5771 21.3526 25.8838C21.0127 26.1905 20.9851 26.7128 21.2918 27.0554L23.7787 29.8186C23.9251 29.9816 24.1323 30.0811 24.3534 30.0921C24.3672 30.0921 24.381 30.0921 24.3948 30.0921C24.5993 30.0921 24.7983 30.0147 24.953 29.8766L31.0319 24.3503C31.3718 24.0436 31.3967 23.5186 31.0872 23.1787C30.7805 22.8416 30.2555 22.8167 29.9156 23.1234Z" fill="white"/>
</svg>
