<svg width="11" height="13" viewBox="0 0 11 13" fill="none" xmlns="http://www.w3.org/2000/svg">
<path d="M0.740845 13C0.809906 12.9998 0.878599 12.9902 0.944898 12.9714L4.47816 11.9838C4.63132 11.9413 4.76615 11.8515 4.86237 11.7279L10.4049 4.58943C10.6379 4.28952 10.8079 3.94788 10.9052 3.58404C11.0025 3.22019 11.0252 2.84126 10.972 2.46887C10.9188 2.09648 10.7908 1.73793 10.5953 1.41369C10.3997 1.08946 10.1404 0.805879 9.83227 0.579154C9.52411 0.352428 9.17308 0.186995 8.79923 0.0922998C8.42537 -0.00239576 8.03601 -0.0244993 7.65338 0.0272513C6.88061 0.131766 6.18216 0.53076 5.71167 1.13646L0.163611 8.27319C0.0674924 8.39684 0.0152365 8.54753 0.0147066 8.70257L0 12.2808C0 12.4706 0.0774721 12.6526 0.215373 12.7868C0.353274 12.921 0.540308 12.9964 0.73533 12.9964L0.740845 13ZM7.85516 1.44597C8.13289 1.4085 8.41583 1.44908 8.67065 1.56293C8.92547 1.67677 9.14154 1.85913 9.2934 2.08853C9.44525 2.31792 9.52656 2.58478 9.52775 2.85765C9.52893 3.13053 9.44994 3.39805 9.30008 3.62868L6.96541 1.90935C7.19595 1.65685 7.5114 1.49257 7.85516 1.44597ZM6.07198 3.05617L8.41768 4.77371L4.13255 10.2931L1.78501 8.5666L6.07198 3.05617ZM1.48537 10.1392L2.65822 11.0016L1.47985 11.3308L1.48537 10.1392Z" fill="white"/>
</svg>
