<svg width="178" height="148" viewBox="0 0 178 148" fill="none" xmlns="http://www.w3.org/2000/svg">
<path d="M129.027 105H4.97338C2.22663 105 0 106.992 0 109.448C0 111.905 2.22663 113.897 4.97338 113.897H35.649L22.5842 141.841C22.5842 141.841 22.5789 141.884 22.57 141.904H13.6761V148H120.324V141.904H111.341L99.4716 113.897H129.027C131.773 113.897 134 111.905 134 109.448C134 106.992 131.774 105 129.027 105ZM101.886 141.904H32.1357L45.23 113.897H90.017L101.886 141.904Z" fill="#56BCB4"/>
<path d="M176.859 130.409L156.628 82.3032C155.367 79.3176 152.454 77.1702 148.998 77.0571L118.596 76.0621L118.628 75.9719L106.263 48.4751L125.525 27.3138C129.731 22.7495 127.708 15.3265 121.873 13.4145L99.1853 5.95046C101.463 9.46807 102.795 13.6722 102.795 18.1336C102.795 20.4505 102.451 22.7237 101.763 24.8261L103.912 25.5552C102.552 27.0456 93.6307 36.8443 92.2439 38.3667L76.2749 41.7004C64.1833 34.4075 69.8651 37.771 59.5703 31.6037L61.3747 30.1881C59.1407 26.713 57.8513 22.5522 57.8513 18.1333C57.8513 15.216 58.4099 12.3849 59.4842 9.81114L39.2039 25.8125C34.5313 29.4006 34.8831 36.7433 40.0634 39.8833L67.5301 56.4835C70.0999 64.3768 76.5794 73.4298 80.5175 78.4774C82.1293 80.5431 83.7349 82.6016 85.1814 84.7858C95.7687 100.773 105.111 96.4369 143.115 94.4936L161.191 137.475C163.212 142.28 169.101 144.285 173.726 141.398C177.356 139.133 178.517 134.35 176.859 130.409Z" fill="#56BCB4"/>
<path d="M80.311 36.2853C90.3468 36.2853 98.4823 28.1625 98.4823 18.1426C98.4823 8.12274 90.3468 0 80.311 0C70.2752 0 62.1396 8.12274 62.1396 18.1426C62.1396 28.1625 70.2752 36.2853 80.311 36.2853Z" fill="#56BCB4"/>
</svg>
