<svg width="47" height="39" viewBox="0 0 47 39" fill="none" xmlns="http://www.w3.org/2000/svg">
<path d="M33.7177 19.5188L45.5177 16.4188C46.0177 16.3188 46.3177 15.7188 46.2177 15.2188L44.6177 7.81885C44.6177 7.71885 44.6177 7.51885 44.5177 7.41885C44.3177 7.01885 44.0177 6.81885 43.6177 6.81885C43.4177 6.81885 43.2177 6.91885 43.1177 7.01885L16.2177 12.6188C10.7177 14.0188 6.91769 18.8188 6.61769 24.3188C6.01769 23.9188 5.21769 23.7188 4.41769 23.7188C4.11769 23.7188 3.81769 23.7188 3.51769 23.8188C2.31769 24.0188 1.41769 24.7188 0.717691 25.7188C0.117691 26.7188 -0.182309 27.9188 0.117691 29.0188C0.517691 31.0188 2.31769 32.5188 4.41769 32.5188C4.71769 32.5188 5.01769 32.5189 5.31769 32.4188C6.31769 32.2188 7.21769 31.6188 7.81769 30.8188C9.91769 35.1188 14.4177 38.1188 19.4177 38.1188C20.5177 38.1188 21.6177 38.0188 22.6177 37.7188C29.4177 36.0188 33.6177 29.0188 32.0177 22.2188C32.0177 22.1188 32.0177 22.0188 31.9177 22.0188C31.8177 21.4188 31.9177 20.9188 32.2177 20.4188C32.7177 19.9188 33.2177 19.6188 33.7177 19.5188ZM6.51769 29.4188C6.11769 29.9188 5.61769 30.3188 5.01769 30.4188C3.71769 30.7188 2.41769 29.8188 2.11769 28.5188C2.01769 27.9188 2.11769 27.2188 2.41769 26.7188C2.81769 26.2188 3.31769 25.8188 3.91769 25.7188C4.11769 25.7188 4.21769 25.6188 4.41769 25.6188C5.51769 25.6188 6.51769 26.4188 6.81769 27.5188C7.01769 28.2188 6.91769 28.9188 6.51769 29.4188ZM30.7177 19.3188C30.1177 20.2188 29.9177 21.4188 30.2177 22.5188V22.6188C31.5177 28.4188 28.0177 34.2188 22.2177 35.7188C21.3177 35.9188 20.4177 36.0188 19.5177 36.0188C14.3177 36.0188 9.81769 32.3188 8.81769 27.3188C7.61769 21.6188 11.1177 15.9188 16.7177 14.5188L43.0177 9.01885L44.2177 14.6188L33.3177 17.5188C32.2177 17.7188 31.3177 18.4188 30.7177 19.3188Z" fill="white"/>
<path d="M19.8177 17.519C19.3177 17.519 18.8177 17.619 18.2177 17.719C14.1177 18.619 11.5177 22.519 12.4177 26.619C13.1177 30.119 16.2177 32.619 19.7177 32.619C20.2177 32.619 20.7177 32.519 21.3177 32.419C25.4177 31.519 28.0177 27.619 27.1177 23.519C26.4177 20.019 23.3177 17.519 19.8177 17.519ZM24.4177 28.119C23.6177 29.319 22.4177 30.219 20.9177 30.519C20.5177 30.619 20.1177 30.619 19.8177 30.619C17.2177 30.619 14.9177 28.819 14.4177 26.219C13.8177 23.219 15.7177 20.319 18.7177 19.719C19.1177 19.619 19.5177 19.619 19.8177 19.619C22.4177 19.619 24.7177 21.419 25.2177 24.019C25.5177 25.419 25.2177 26.819 24.4177 28.119Z" fill="white"/>
<path d="M18.3177 9.61885C18.5177 9.61885 18.7178 9.51885 18.9178 9.41885C19.4178 9.11885 19.5177 8.51885 19.2177 8.01885L16.2177 3.81885C15.9177 3.31885 15.3177 3.21885 14.8177 3.51885C14.3177 3.81885 14.2177 4.41885 14.5177 4.91885L17.4178 9.11885C17.6178 9.41885 18.0177 9.61885 18.3177 9.61885Z" fill="white"/>
<path d="M25.3177 8.11894C25.8177 8.11894 26.2177 7.81894 26.3177 7.31894L27.2177 2.31894C27.3177 1.81894 26.9177 1.21894 26.4177 1.11894C25.9177 1.01894 25.3177 1.41894 25.2177 1.91894L24.3177 6.91894C24.2177 7.51894 24.6177 8.01894 25.2177 8.11894H25.3177Z" fill="white"/>
<path d="M21.4177 7.01895C21.5177 7.01895 21.5177 7.01895 21.6177 7.01895C22.1177 6.91895 22.5177 6.41895 22.4177 5.81895L21.3177 0.81895C21.2177 0.21895 20.7177 -0.08105 20.1177 0.01895C19.6177 0.11895 19.2177 0.61895 19.3177 1.21895L20.4177 6.21895C20.5177 6.61895 20.9177 7.01895 21.4177 7.01895Z" fill="white"/>
</svg>
