<svg width="36" height="36" viewBox="0 0 36 36" fill="none" xmlns="http://www.w3.org/2000/svg">
<path d="M24.4286 2.57143C22.5746 2.59704 20.7755 3.20466 19.2857 4.30843V1.28571C19.2857 0.944722 19.1503 0.617695 18.9091 0.376577C18.668 0.135459 18.341 0 18 0C17.659 0 17.332 0.135459 17.0909 0.376577C16.8497 0.617695 16.7143 0.944722 16.7143 1.28571V4.30843C15.2245 3.20466 13.4254 2.59704 11.5714 2.57143C5.19043 2.57143 0 10.0697 0 19.2857C0 28.5017 5.19043 36 11.5714 36C13.9967 35.9418 16.3034 34.9389 18 33.2049C19.6966 34.9389 22.0033 35.9418 24.4286 36C30.8096 36 36 28.5017 36 19.2857C36 10.0697 30.8096 2.57143 24.4286 2.57143ZM24.4286 33.4286C23.3623 33.369 22.3222 33.0754 21.3821 32.5688C20.442 32.0622 19.6249 31.3549 18.9887 30.4971C18.8681 30.352 18.7169 30.2352 18.5461 30.155C18.3752 30.0749 18.1887 30.0333 18 30.0333C17.8113 30.0333 17.6248 30.0749 17.4539 30.155C17.2831 30.2352 17.1319 30.352 17.0113 30.4971C16.3751 31.3549 15.558 32.0622 14.6179 32.5688C13.6778 33.0754 12.6377 33.369 11.5714 33.4286C6.60986 33.4286 2.57143 27.0836 2.57143 19.2857C2.57143 11.4879 6.60986 5.14286 11.5714 5.14286C12.6377 5.20247 13.6778 5.496 14.6179 6.00261C15.558 6.50922 16.3751 7.2165 17.0113 8.07429C17.136 8.21299 17.2884 8.3239 17.4588 8.39983C17.6291 8.47575 17.8135 8.51499 18 8.51499C18.1865 8.51499 18.3709 8.47575 18.5412 8.39983C18.7116 8.3239 18.864 8.21299 18.9887 8.07429C19.6249 7.2165 20.442 6.50922 21.3821 6.00261C22.3222 5.496 23.3623 5.20247 24.4286 5.14286C29.3901 5.14286 33.4286 11.4879 33.4286 19.2857C33.4286 27.0836 29.3901 33.4286 24.4286 33.4286Z" fill="white"/>
</svg>
