<svg width="40" height="36" viewBox="0 0 40 36" fill="none" xmlns="http://www.w3.org/2000/svg">
<path d="M36.9408 12.7033C38.5835 9.10479 36.1408 4.96993 32.1975 4.67393C31.6681 1.77306 29.0133 -0.244185 26.0779 0.0238723C23.1424 0.29193 20.8966 2.75668 20.901 5.70549V29.7893C20.8966 32.7381 23.1424 35.2028 26.0779 35.4709C29.0133 35.7389 31.6681 33.7217 32.1975 30.8208C35.1627 30.5882 37.4523 28.1164 37.4585 25.1409C37.4567 24.3297 37.2801 23.5283 36.9408 22.7915C41.0197 20.6589 41.0197 14.819 36.9408 12.6864V12.7033ZM35.7118 21.0484C35.0513 20.4047 34.2437 19.9321 33.3591 19.6715C32.0123 19.2758 31.4188 21.2968 32.7657 21.6926C36.5195 22.7852 36.0709 28.2427 32.1891 28.7072C31.9529 27.4831 31.3233 26.3697 30.3961 25.5367C29.3495 24.602 27.948 26.1725 28.9946 27.1072C30.9371 28.8435 30.4459 32.0057 28.0683 33.0704C25.6908 34.1351 23.0059 32.3952 23.0054 29.7893V12.3117C23.6436 11.8256 24.4214 11.5584 25.2235 11.5496C25.9325 11.6047 26.5867 11.9525 27.0291 12.5096C27.2266 12.7322 27.5101 12.8594 27.8077 12.859C28.7171 12.854 29.1956 11.7783 28.5905 11.0991C27.7724 10.1189 26.586 9.5202 25.3119 9.44436C24.5174 9.42156 23.7284 9.58145 23.0054 9.91172V5.70127C23.0065 3.24259 25.4187 1.51016 27.7477 2.2954C30.0767 3.08064 30.9486 5.92034 29.4617 7.87808C28.62 9.00086 30.3035 10.264 31.1453 9.14121C31.6734 8.44396 32.0334 7.63419 32.1975 6.77494C34.0834 6.99989 35.4679 8.65536 35.3564 10.5521C35.2448 12.4488 33.6759 13.9305 31.7766 13.9327C30.3737 13.9327 30.3737 16.0379 31.7766 16.0379C33.2535 16.0371 34.6722 15.4618 35.7329 14.4337C38.6251 15.6834 38.6041 19.7987 35.7118 21.0484Z" fill="white"/>
<path d="M28.439 18.5938C28.1599 18.5938 27.8923 18.7047 27.6949 18.9021C27.4976 19.0995 27.3868 19.3672 27.3868 19.6464C27.3673 19.9286 27.2899 20.2038 27.1595 20.4548C26.9869 20.779 26.6376 21.2084 25.6317 21.2084C25.3526 21.2084 25.085 21.3193 24.8877 21.5167C24.6903 21.7141 24.5795 21.9819 24.5795 22.2611C24.5795 22.5402 24.6903 22.808 24.8877 23.0054C25.085 23.2028 25.3526 23.3137 25.6317 23.3137C27.1679 23.3137 28.3716 22.6526 28.9987 21.4526C29.2997 20.895 29.4682 20.2755 29.4912 19.6422C29.49 19.3637 29.3787 19.0971 29.1815 18.9006C28.9843 18.7041 28.7173 18.5937 28.439 18.5938Z" fill="white"/>
<path d="M13.4003 0.00439453C10.6539 0.00942854 8.30113 1.97198 7.80253 4.67378C4.83728 4.90637 2.54775 7.37819 2.5415 10.3537C2.54281 11.165 2.7194 11.9664 3.05918 12.7031C-1.01973 14.8357 -1.01973 20.6756 3.05918 22.8082C1.4323 26.402 3.87031 30.5203 7.80253 30.8207C8.33191 33.7215 10.9867 35.7388 13.9221 35.4707C16.8576 35.2027 19.1034 32.7379 19.099 29.7891V5.70534C19.0944 2.55872 16.5457 0.00903217 13.4003 0.00439453ZM13.4003 33.3848C10.4349 33.3762 8.75208 29.9845 10.5383 27.6165C11.38 26.4937 9.69649 25.2306 8.85473 26.3534C8.32665 27.0506 7.96657 27.8604 7.80253 28.7197C5.91661 28.4947 4.53212 26.8392 4.64365 24.9425C4.75518 23.0458 6.32413 21.5641 8.22341 21.5619C9.62635 21.5619 9.62635 19.4567 8.22341 19.4567C6.74652 19.4575 5.32781 20.0328 4.26712 21.0608C1.3749 19.8112 1.3749 15.7085 4.26712 14.4589C4.92766 15.1025 5.73528 15.5751 6.61985 15.8357C7.96667 16.2315 8.56011 14.2104 7.21329 13.8147C3.45945 12.722 3.90806 7.26453 7.7899 6.80006C8.03432 8.02234 8.67132 9.13123 9.6039 9.95789C10.6505 10.8927 12.052 9.32219 11.0054 8.3874C9.06293 6.65112 9.55415 3.48888 11.9317 2.42417C14.3093 1.35946 16.9941 3.0994 16.9946 5.70534V23.1787C16.3578 23.6624 15.5843 23.9321 14.785 23.9492C14.0729 23.8929 13.4161 23.5438 12.971 22.985C12.0289 21.9888 10.5146 23.3567 11.4095 24.3955C12.2276 25.3757 13.414 25.9744 14.6882 26.0502C15.4147 26.0406 16.3334 25.88 16.9946 25.5787V29.7891C16.9923 31.774 15.3844 33.3825 13.4003 33.3848Z" fill="white"/>
<path d="M12.597 15.8528C12.6164 15.5706 12.6938 15.2954 12.8242 15.0444C12.9968 14.7202 13.3461 14.2908 14.352 14.2908C14.6311 14.2908 14.8987 14.1799 15.0961 13.9825C15.2934 13.7851 15.4042 13.5173 15.4042 13.2382C15.4042 12.959 15.2934 12.6913 15.0961 12.4938C14.8987 12.2964 14.6311 12.1855 14.352 12.1855C12.8158 12.1855 11.6121 12.8466 10.985 14.0466C10.6847 14.603 10.5162 15.221 10.4926 15.8528C10.4926 16.132 10.6034 16.3998 10.8007 16.5972C10.9981 16.7946 11.2657 16.9055 11.5448 16.9055C11.8238 16.9055 12.0915 16.7946 12.2888 16.5972C12.4861 16.3998 12.597 16.132 12.597 15.8528Z" fill="white"/>
</svg>
