<svg width="152" height="152" viewBox="0 0 152 152" fill="none" xmlns="http://www.w3.org/2000/svg">
<path d="M76 0C60.9686 0 46.2748 4.45732 33.7767 12.8083C21.2786 21.1593 11.5374 33.0289 5.78519 46.916C0.0329296 60.8032 -1.47212 76.0843 1.46035 90.8268C4.39283 105.569 11.6311 119.111 22.2599 129.74C32.8887 140.369 46.4306 147.607 61.1732 150.54C75.9157 153.472 91.1968 151.967 105.084 146.215C118.971 140.463 130.841 130.721 139.192 118.223C147.543 105.725 152 91.0314 152 76C152 66.0195 150.034 56.1368 146.215 46.916C142.395 37.6953 136.797 29.3171 129.74 22.2599C122.683 15.2026 114.305 9.60451 105.084 5.78515C95.8632 1.9658 85.9805 0 76 0V0ZM69.084 70.68C62.9504 73.1023 56.3643 74.1654 49.78 73.796C50.3521 64.0838 52.835 54.5801 57.0866 45.8292C61.3381 37.0784 67.2747 29.2525 74.556 22.8L83.068 15.2C91.1012 16.1769 98.8553 18.7616 105.868 22.8C96.0978 26.8861 87.5644 33.4532 81.1126 41.8513C74.6608 50.2493 70.5144 60.1868 69.084 70.68V70.68ZM31.084 103.664L20.292 100.092C17.0394 92.6572 15.308 84.6464 15.2 76.532C23.5512 83.0118 33.4597 87.1812 43.9313 88.6219C54.4029 90.0625 65.0693 88.7238 74.86 84.74C80.0152 88.8564 84.2158 94.0424 87.172 99.94C69.6499 108.549 49.4363 109.887 30.932 103.664H31.084ZM58.292 17.86C44.8257 32.3165 36.5622 50.8492 34.808 70.528C30.8498 68.9024 27.1401 66.7277 23.788 64.068L17.632 59.128C20.4412 49.4097 25.6309 40.5459 32.7308 33.3398C39.8307 26.1338 48.6165 20.8131 58.292 17.86V17.86ZM34.58 120.384C53.7873 124.894 73.9549 122.778 91.808 114.38C92.4068 118.615 92.4068 122.913 91.808 127.148L90.592 134.748C80.7937 137.219 70.5302 137.178 60.7522 134.627C50.9743 132.076 41.9984 127.099 34.656 120.156L34.58 120.384ZM106.856 127.984C108.204 117.53 106.811 106.906 102.814 97.1525C98.8166 87.3995 92.3526 78.8532 84.056 72.352C85.1195 65.9055 87.5558 59.7629 91.2 54.34C107.462 65.1752 118.774 82.0064 122.664 101.156L124.944 112.176C120.056 118.706 113.905 124.185 106.856 128.288V127.984ZM135.204 89.376C129.414 70.5234 117.516 54.1332 101.384 42.788C104.769 40.1755 108.504 38.0521 112.48 36.48L120.08 33.592C127.092 40.8672 132.16 49.7905 134.816 59.5395C137.473 69.2884 137.632 79.5492 135.28 89.376H135.204Z" fill="#56BCB4"/>
</svg>
