<svg width="12" height="18" viewBox="0 0 12 18" fill="none" xmlns="http://www.w3.org/2000/svg">
<path d="M9.125 12.853H6.625V10.4832C6.625 10.4832 6.625 10.4832 6.625 10.4418C7.8869 10.2911 9.04078 9.69018 9.85176 8.76144C10.6627 7.8327 11.0698 6.64591 10.9902 5.44267C10.9105 4.23943 10.3501 3.11019 9.42304 2.28482C8.49595 1.45945 7.27188 1 6 1C4.72812 1 3.50405 1.45945 2.57696 2.28482C1.64988 3.11019 1.08947 4.23943 1.00982 5.44267C0.930172 6.64591 1.33727 7.8327 2.14824 8.76144C2.95921 9.69018 4.1131 10.2911 5.375 10.4418C5.375 10.4418 5.375 10.4714 5.375 10.4832V12.853H2.875C2.70924 12.853 2.55027 12.9154 2.43306 13.0265C2.31585 13.1376 2.25001 13.2883 2.25001 13.4454C2.25001 13.6025 2.31585 13.7532 2.43306 13.8643C2.55027 13.9754 2.70924 14.0378 2.875 14.0378H5.375V16.4076C5.375 16.5647 5.44085 16.7154 5.55806 16.8265C5.67527 16.9376 5.83424 17 6 17C6.16576 17 6.32473 16.9376 6.44194 16.8265C6.55915 16.7154 6.625 16.5647 6.625 16.4076V14.0378H9.125C9.29076 14.0378 9.44973 13.9754 9.56694 13.8643C9.68415 13.7532 9.74999 13.6025 9.74999 13.4454C9.74999 13.2883 9.68415 13.1376 9.56694 13.0265C9.44973 12.9154 9.29076 12.853 9.125 12.853ZM2.25001 5.74376C2.25001 5.04073 2.46994 4.35349 2.88199 3.76893C3.29405 3.18438 3.87972 2.72878 4.56494 2.45974C5.25016 2.1907 6.00416 2.12031 6.73159 2.25747C7.45902 2.39462 8.1272 2.73316 8.65165 3.23028C9.17609 3.7274 9.53325 4.36077 9.67794 5.0503C9.82263 5.73982 9.74837 6.45453 9.46454 7.10405C9.18072 7.75357 8.70007 8.30872 8.08339 8.69931C7.4667 9.08989 6.74168 9.29837 6 9.29837C5.00544 9.29837 4.05161 8.92386 3.34835 8.25725C2.64509 7.59063 2.25001 6.6865 2.25001 5.74376Z" fill="#56BCB4" stroke="#56BCB4" stroke-width="0.5"/>
</svg>
