<svg width="16" height="17" viewBox="0 0 16 17" fill="none" xmlns="http://www.w3.org/2000/svg">
<path d="M15.2 8.16243H7.056C6.88628 7.7018 6.57938 7.30428 6.1767 7.02351C5.77401 6.74273 5.29491 6.59219 4.804 6.59219C4.31309 6.59219 3.83399 6.74273 3.4313 7.02351C3.02862 7.30428 2.72172 7.7018 2.552 8.16243H0.8C0.587827 8.16243 0.384344 8.24672 0.234315 8.39674C0.0842856 8.54677 0 8.75026 0 8.96243C0 9.1746 0.0842856 9.37809 0.234315 9.52812C0.384344 9.67815 0.587827 9.76243 0.8 9.76243H2.544C2.71372 10.2231 3.02062 10.6206 3.4233 10.9014C3.82599 11.1821 4.30509 11.3327 4.796 11.3327C5.28691 11.3327 5.76601 11.1821 6.16869 10.9014C6.57138 10.6206 6.87828 10.2231 7.048 9.76243H15.2C15.4122 9.76243 15.6157 9.67815 15.7657 9.52812C15.9157 9.37809 16 9.1746 16 8.96243C16 8.75026 15.9157 8.54677 15.7657 8.39674C15.6157 8.24672 15.4122 8.16243 15.2 8.16243ZM4.8 9.76243C4.64178 9.76243 4.4871 9.71551 4.35554 9.62761C4.22398 9.5397 4.12145 9.41476 4.0609 9.26858C4.00035 9.1224 3.9845 8.96154 4.01537 8.80636C4.04624 8.65117 4.12243 8.50863 4.23431 8.39674C4.3462 8.28486 4.48874 8.20867 4.64393 8.1778C4.79911 8.14693 4.95997 8.16278 5.10615 8.22333C5.25233 8.28388 5.37727 8.38642 5.46518 8.51797C5.55308 8.64953 5.6 8.80421 5.6 8.96243C5.6 9.1746 5.51571 9.37809 5.36569 9.52812C5.21566 9.67815 5.01217 9.76243 4.8 9.76243ZM15.2 13.7624H11.856C11.6863 13.3018 11.3794 12.9043 10.9767 12.6235C10.574 12.3427 10.0949 12.1922 9.604 12.1922C9.11309 12.1922 8.63399 12.3427 8.23131 12.6235C7.82862 12.9043 7.52172 13.3018 7.352 13.7624H0.8C0.587827 13.7624 0.384344 13.8467 0.234315 13.9967C0.0842856 14.1468 0 14.3503 0 14.5624C0 14.7746 0.0842856 14.9781 0.234315 15.1281C0.384344 15.2781 0.587827 15.3624 0.8 15.3624H7.344C7.51372 15.8231 7.82062 16.2206 8.2233 16.5014C8.62599 16.7821 9.10509 16.9327 9.596 16.9327C10.0869 16.9327 10.566 16.7821 10.9687 16.5014C11.3714 16.2206 11.6783 15.8231 11.848 15.3624H15.2C15.4122 15.3624 15.6157 15.2781 15.7657 15.1281C15.9157 14.9781 16 14.7746 16 14.5624C16 14.3503 15.9157 14.1468 15.7657 13.9967C15.6157 13.8467 15.4122 13.7624 15.2 13.7624ZM9.6 15.3624C9.38783 15.3624 9.18434 15.2781 9.03431 15.1281C8.88428 14.9781 8.8 14.7746 8.8 14.5624C8.8 14.4042 8.84692 14.2495 8.93482 14.118C9.02273 13.9864 9.14767 13.8839 9.29385 13.8233C9.44003 13.7628 9.60089 13.7469 9.75607 13.7778C9.91126 13.8087 10.0538 13.8849 10.1657 13.9967C10.2776 14.1086 10.3538 14.2512 10.3846 14.4064C10.4155 14.5615 10.3997 14.7224 10.3391 14.8686C10.2786 15.0148 10.176 15.1397 10.0445 15.2276C9.9129 15.3155 9.75823 15.3624 9.6 15.3624ZM0.8 4.16243H9.744C9.91372 4.62307 10.2206 5.02058 10.6233 5.30136C11.026 5.58213 11.5051 5.73267 11.996 5.73267C12.4869 5.73267 12.966 5.58213 13.3687 5.30136C13.7714 5.02058 14.0783 4.62307 14.248 4.16243H15.2C15.4122 4.16243 15.6157 4.07815 15.7657 3.92812C15.9157 3.77809 16 3.5746 16 3.36243C16 3.15026 15.9157 2.94677 15.7657 2.79675C15.6157 2.64672 15.4122 2.56243 15.2 2.56243H14.256C14.0863 2.10179 13.7794 1.70428 13.3767 1.42351C12.974 1.14273 12.4949 0.992188 12.004 0.992188C11.5131 0.992188 11.034 1.14273 10.6313 1.42351C10.2286 1.70428 9.92172 2.10179 9.752 2.56243H0.8C0.587827 2.56243 0.384344 2.64672 0.234315 2.79675C0.0842856 2.94677 0 3.15026 0 3.36243C0 3.5746 0.0842856 3.77809 0.234315 3.92812C0.384344 4.07815 0.587827 4.16243 0.8 4.16243ZM12 2.56243C12.1582 2.56243 12.3129 2.60935 12.4445 2.69726C12.576 2.78516 12.6786 2.9101 12.7391 3.05628C12.7997 3.20246 12.8155 3.36332 12.7846 3.5185C12.7538 3.67369 12.6776 3.81623 12.5657 3.92812C12.4538 4.04 12.3113 4.11619 12.1561 4.14706C12.0009 4.17793 11.84 4.16208 11.6939 4.10153C11.5477 4.04098 11.4227 3.93845 11.3348 3.80689C11.2469 3.67533 11.2 3.52066 11.2 3.36243C11.2 3.15026 11.2843 2.94677 11.4343 2.79675C11.5843 2.64672 11.7878 2.56243 12 2.56243Z" fill="white"/>
</svg>
