<svg width="41" height="74" viewBox="0 0 41 74" fill="none" xmlns="http://www.w3.org/2000/svg">
<path d="M9.31781 11.8987V2.15254C19.6167 -1.74592 32.9193 0.528183 38.2833 2.15254V11.8987L36.2718 29.3606L34.6626 45.1981V49.6651L36.2718 54.5381L38.2833 58.599V61.4417L36.2718 66.7208L26.2144 69.9696L14.95 72L8.11091 69.9696C6.90401 68.8867 4.49022 66.396 4.49022 65.0965C4.49022 63.797 3.68562 62.1185 3.28333 61.4417L4.49022 57.3808V54.5381L9.31781 49.6651L10.927 45.1981L12.9385 41.5433V33.0154L10.927 26.5179L9.31781 11.8987Z" fill="#FED3A4"/>
<path d="M2.58503 53.206L2.58588 53.2051L10.8944 44.6196L11.0017 44.5088L10.9922 44.3548C10.4767 35.9348 9.39152 29.9896 8.39744 24.5436C8.30705 24.0484 8.21741 23.5573 8.12903 23.0689C7.06954 17.2141 6.18909 11.7368 6.32995 4.04289C6.33944 3.52493 6.5543 3.03196 6.92726 2.67242C7.30022 2.31288 7.80073 2.11621 8.31868 2.1257C8.83664 2.13518 9.32962 2.35004 9.68916 2.72299C10.0487 3.09596 10.2454 3.59647 10.2359 4.11442C10.0884 12.1384 11.1815 18.1084 12.3399 24.4353C12.8647 27.3017 13.403 30.2413 13.8453 33.4784L13.8453 33.4785C14.1743 35.8781 14.4743 38.7348 14.6769 41.0846C14.7782 42.2594 14.8549 43.3053 14.8987 44.1024C14.9206 44.5012 14.9342 44.8353 14.9385 45.0911C14.9431 45.3581 14.9368 45.5117 14.9276 45.5684C14.925 45.5838 14.9226 45.5987 14.9203 45.613C14.8858 45.8252 14.8706 45.9185 14.763 46.0948C14.63 46.3126 14.3628 46.6375 13.771 47.2721C13.1022 47.9891 12.0493 49.0702 10.3731 50.7913C9.1039 52.0944 7.47739 53.7645 5.38971 55.9212C4.89502 56.4288 4.55308 57.0654 4.40297 57.7581C4.25282 58.451 4.30064 59.1721 4.54096 59.8391C4.541 59.8392 4.54105 59.8393 4.5411 59.8395L6.719 65.9586L6.93074 66.5535L7.32301 66.0586C7.37322 65.9953 7.42525 65.9303 7.47875 65.8635C7.96439 65.2568 8.57099 64.499 9.03217 63.4626C9.54761 62.3043 9.87736 60.812 9.71024 58.7836C9.68929 58.5279 9.7189 58.2707 9.79738 58.0265C9.87585 57.7823 10.0017 57.556 10.1676 57.3604C10.3336 57.1648 10.5364 57.0038 10.7646 56.8866C10.9927 56.7695 11.2417 56.6984 11.4974 56.6774C12.0136 56.6351 12.5256 56.7996 12.9206 57.1348C13.1161 57.3007 13.2771 57.5036 13.3943 57.7317C13.5115 57.9599 13.5826 58.2089 13.6035 58.4645L13.6035 58.4646C13.9522 62.7057 12.76 65.4996 10.5156 68.3194L10.0029 68.9635L10.8225 68.8858C11.0567 68.8636 31.5586 66.5759 31.8392 66.5442C32.5829 66.4625 33.2858 66.1627 33.8595 65.6826C34.4334 65.2024 34.8525 64.5632 35.064 63.8454L35.0641 63.8453C35.184 63.438 35.2951 63.0738 35.3954 62.7448C35.6146 62.0263 35.7824 61.4763 35.8782 61.0138C36.0249 60.3059 36.014 59.7616 35.7957 59.068L35.7955 59.0676C34.853 56.0872 34.1514 53.8725 33.6287 52.2226C33.0756 50.4768 32.7228 49.3633 32.497 48.6441C32.2766 47.9422 32.1794 47.623 32.1347 47.4591C32.1126 47.3781 32.1064 47.3458 32.1039 47.3295C32.1017 47.3153 32.1015 47.3114 32.1009 47.3029C32.1002 47.2941 32.0993 47.2801 32.0954 47.2438L32.0952 47.2428C32.083 47.1326 32.0939 46.7935 32.1344 46.2303C32.1736 45.6841 32.2375 44.9629 32.3194 44.1181C32.4832 42.429 32.7182 40.2543 32.9703 38.016C33.4744 33.5395 34.0456 28.8151 34.248 27.2265L33.9008 27.1823L34.248 27.2265C34.2763 27.0046 34.3057 26.7757 34.336 26.5397C34.9263 21.9442 35.8632 14.6494 35.4567 4.12881C35.4468 3.87237 35.4875 3.61646 35.5766 3.37572C35.6656 3.13499 35.8011 2.91414 35.9755 2.72578C36.1499 2.53743 36.3596 2.38527 36.5928 2.27799C36.8259 2.1707 37.078 2.11038 37.3344 2.1005C37.5909 2.09061 37.8468 2.13134 38.0875 2.22035C38.3283 2.30936 38.5491 2.44492 38.7375 2.61928C38.9258 2.79363 39.078 3.00339 39.1853 3.23656C39.2926 3.46972 39.3529 3.72174 39.3628 3.97821L39.3628 3.97829C39.766 14.3775 39.0616 20.0998 37.9708 28.9601C37.3955 33.6327 36.7128 39.1781 36.0284 46.7426L36.0221 46.8126L36.0433 46.8796L39.5235 57.883C39.5235 57.8831 39.5235 57.8832 39.5235 57.8832C40.2557 60.2127 39.7628 61.8215 39.0829 64.0403C38.9943 64.3296 38.9025 64.6292 38.8098 64.9421L38.8095 64.9431C38.3829 66.4006 37.5342 67.6991 36.3705 68.6749C35.2069 69.6507 33.7804 70.2601 32.2708 70.4263L32.2703 70.4264L11.3039 72.7644L11.3028 72.7645C9.57527 72.9624 7.83172 72.568 6.35758 71.6458C4.88343 70.7236 3.76603 69.3283 3.18829 67.6882L3.18795 67.6873L0.862324 61.1467L0.861918 61.1456C0.376006 59.7937 0.279906 58.3325 0.584581 56.9286C0.889256 55.5248 1.58244 54.2348 2.58503 53.206ZM32.3091 70.7742L11.3426 73.1123L32.3091 70.7742Z" fill="black" stroke="white" stroke-width="0.7"/>
</svg>
