<svg width="18" height="25" viewBox="0 0 18 25" fill="none" xmlns="http://www.w3.org/2000/svg">
<path d="M7.82483 7.3496C7.31791 7.69809 6.99998 8.27601 6.99998 8.91987C6.99998 9.97935 7.86211 10.8414 8.91636 10.8414C9.04911 10.8414 9.17964 10.8248 9.30884 10.798L9.89209 12.157C9.69404 12.3303 9.53314 12.5436 9.43281 12.7952C9.26595 13.2134 9.27204 13.6716 9.4498 14.0855C9.5345 14.282 9.72596 14.3999 9.9273 14.3999C9.99577 14.3999 10.0653 14.3862 10.1322 14.3576C10.3957 14.2442 10.5174 13.9389 10.4043 13.6752C10.3358 13.5164 10.3335 13.3404 10.3977 13.1799C10.4616 13.0194 10.5843 12.8934 10.7433 12.8251C10.9021 12.7572 11.0783 12.7546 11.2386 12.8186C11.3991 12.8825 11.5251 13.0052 11.5934 13.1642C11.7067 13.4274 12.012 13.5491 12.2758 13.4363C12.5392 13.3229 12.661 13.0176 12.5479 12.7539C12.2533 12.0681 11.5539 11.6857 10.8472 11.7487L10.2331 10.3177C10.6125 9.95732 10.8379 9.45468 10.8379 8.91987C10.8379 7.86042 9.97584 7.00352 8.91636 7.00352C8.88012 7.00352 8.84614 7.00977 8.81042 7.01167L7.31487 3.53175C7.20101 3.26827 6.89544 3.1463 6.63247 3.25965C6.36899 3.373 6.24727 3.67832 6.36037 3.94205L7.82483 7.3496Z" fill="#56BCB4"/>
<path d="M11.6278 17.4127C12.9903 16.977 14.2118 16.2239 15.203 15.2381C15.2095 15.2322 15.218 15.2303 15.2243 15.224C15.2305 15.2177 15.2325 15.2092 15.2384 15.2027C16.8428 13.5893 17.8364 11.3678 17.8364 8.91809C17.8364 6.46852 16.8429 4.2473 15.2387 2.63393C15.2327 2.62727 15.2307 2.61862 15.2243 2.61218C15.2178 2.60575 15.2092 2.60375 15.2025 2.59773C13.5891 0.993516 11.3679 0 8.91834 0C6.46944 0 4.24876 0.99304 2.63545 2.59649C2.62832 2.6029 2.61906 2.60505 2.61218 2.61193C2.60534 2.61878 2.60318 2.628 2.59678 2.63513C0.993199 4.24841 0 6.46912 0 8.91809C0 11.3672 0.993326 13.5882 2.59709 15.2015C2.60337 15.2085 2.60546 15.2175 2.61218 15.2243C2.6189 15.231 2.62794 15.2331 2.63491 15.2393C3.62618 16.2247 4.84751 16.9776 6.2097 17.413C6.25525 18.6923 7.18052 19.7449 8.399 19.981V21.5918C8.399 21.8786 8.63154 22.1111 8.91834 22.1111C9.40878 22.1111 9.80767 22.51 9.80767 23.0004C9.80767 23.4909 9.40878 23.8898 8.91834 23.8898C8.42791 23.8898 8.02902 23.4909 8.02902 23.0004C8.02902 22.7136 7.79648 22.4811 7.50968 22.4811C7.22287 22.4811 6.99033 22.7136 6.99033 23.0004C6.99033 24.0635 7.85531 24.9285 8.91834 24.9285C9.98137 24.9285 10.8464 24.0635 10.8464 23.0004C10.8464 22.1172 10.2494 21.3707 9.43769 21.1434V19.9808C10.6584 19.7436 11.5824 18.6911 11.6278 17.4127ZM4.06041 13.776C3.85754 13.5732 3.52889 13.5732 3.32603 13.776L2.99947 14.1026C1.89019 12.8378 1.18202 11.2189 1.065 9.43743H1.52887C1.81567 9.43743 2.04821 9.2049 2.04821 8.91809C2.04821 8.63129 1.81567 8.39875 1.52887 8.39875H1.065C1.18202 6.61731 1.89026 4.99848 2.99957 3.7337L3.32603 4.06016C3.42746 4.16159 3.56034 4.21231 3.69322 4.21231C3.8261 4.21231 3.95898 4.16159 4.06041 4.06016C4.26328 3.85729 4.26328 3.52864 4.06041 3.32577L3.73398 2.99934C4.99877 1.89016 6.6176 1.18199 8.399 1.065V1.52887C8.399 1.81567 8.63154 2.04821 8.91834 2.04821C9.20515 2.04821 9.43769 1.81567 9.43769 1.52887V1.065C11.2191 1.18202 12.8379 1.89019 14.1026 2.99944L13.776 3.32603C13.5732 3.52889 13.5732 3.85754 13.776 4.06041C13.8775 4.16184 14.0103 4.21256 14.1432 4.21256C14.2761 4.21256 14.409 4.16184 14.5104 4.06041L14.837 3.73382C15.9462 4.99855 16.6544 6.61737 16.7714 8.39875H16.3076C16.0208 8.39875 15.7882 8.63129 15.7882 8.91809C15.7882 9.2049 16.0208 9.43743 16.3076 9.43743H16.7714C16.6544 11.2189 15.9462 12.8377 14.837 14.1025L14.5104 13.776C14.3075 13.5732 13.9784 13.5732 13.776 13.776C13.5732 13.9789 13.5732 14.3078 13.776 14.5104L14.1027 14.8369C12.8379 15.9462 11.2191 16.6544 9.43769 16.7714V16.3076C9.43769 16.0208 9.20515 15.7882 8.91834 15.7882C8.63154 15.7882 8.399 16.0208 8.399 16.3076V16.7714C6.61753 16.6544 4.99864 15.9462 3.73385 14.837L4.06041 14.5104C4.26328 14.3075 4.26328 13.9789 4.06041 13.776Z" fill="#56BCB4"/>
</svg>
