<svg width="48" height="48" viewBox="0 0 48 48" fill="none" xmlns="http://www.w3.org/2000/svg">
<circle cx="24" cy="24" r="24" fill="#56BCB4"/>
<path d="M29.5615 26.8673V22.4747C29.5615 19.7928 27.6962 17.548 25.1926 16.9628C25.1983 16.9129 25.2077 16.8641 25.2077 16.8127C25.2077 16.0901 24.622 15.5044 23.8995 15.5044C23.1769 15.5044 22.5912 16.0901 22.5912 16.8127C22.5912 16.8641 22.6006 16.9129 22.6063 16.9628C20.1027 17.548 18.2374 19.7928 18.2374 22.4747V26.8673L16.5561 29.4596C16.4072 29.6893 16.572 29.9927 16.8458 29.9927H30.9531C31.2269 29.9927 31.3917 29.6893 31.2428 29.4596L29.5615 26.8673Z" fill="white"/>
<path d="M19.6059 16.0077L18.9252 15C16.4674 16.6607 15 19.4206 15 22.3829H16.2162C16.2162 19.8252 17.4835 17.4418 19.6059 16.0077Z" fill="white"/>
<path d="M28.8082 15L28.1274 16.0077C30.2499 17.4418 31.5172 19.8252 31.5172 22.3829H32.7334C32.7334 19.4206 31.266 16.6607 28.8082 15Z" fill="white"/>
<path d="M23.8996 33.8601C25.3333 33.8601 26.4955 32.6978 26.4955 31.2642H21.3037C21.3037 32.6978 22.466 33.8601 23.8996 33.8601Z" fill="white"/>
</svg>
