<svg width="27" height="28" viewBox="0 0 27 28" fill="none" xmlns="http://www.w3.org/2000/svg">
<path d="M23.7002 16.9135C23.1538 16.5967 22.5743 16.4532 21.9748 16.4699L21.8806 16.4724C22.0341 16.0545 22.2896 15.5885 22.7128 15.2438C23.2188 14.8321 23.315 14.0622 22.9275 13.5242C22.5401 12.9862 21.8148 12.8848 21.3092 13.2961C20.1202 14.2634 19.652 15.6322 19.4669 16.5129C18.5257 16.3546 17.5984 16.6057 16.8223 17.2418C15.7022 18.1609 15.0035 19.7959 15 21.5093C14.9958 23.7519 16.2228 25.8284 18.1271 26.7994C18.665 27.0725 19.276 27.1081 19.8478 26.9004C20.0529 26.8255 20.268 26.7883 20.4865 26.7883H20.4892C20.7051 26.7892 20.9136 26.8255 21.1083 26.8975C21.3757 26.9956 21.6235 27.0435 21.8598 27.0435C21.9098 27.0435 21.9591 27.0414 22.0083 27.0369L22.058 27.0328C22.113 27.0287 22.1695 27.023 22.223 27.0132C22.4354 26.9797 22.6451 26.9122 22.8475 26.8112C24.7591 25.8529 25.9965 23.7841 26 21.5412C26.005 19.5755 25.0811 17.7157 23.7002 16.9135ZM21.9129 24.6971L21.8871 24.6987C21.8756 24.6987 21.8652 24.6975 21.8617 24.6975C21.8606 24.6975 21.8602 24.6979 21.8613 24.6983C21.3327 24.5 20.7767 24.4125 20.1787 24.4587C19.8278 24.4853 19.4757 24.5622 19.1275 24.6881C19.1094 24.6955 19.0917 24.6951 19.0806 24.6889C17.9366 24.1063 17.199 22.861 17.2021 21.5175C17.2063 20.5392 17.5949 19.5661 18.1706 19.0943C18.5076 18.8171 18.8593 18.7419 19.2549 18.8482L19.3207 18.869C19.4434 18.9099 19.5665 18.9647 19.6943 19.0371C19.7616 19.0739 19.8313 19.1172 19.9067 19.1691C20.2718 19.4206 20.7424 19.421 21.106 19.1707C21.2315 19.0845 21.3519 19.015 21.4692 18.9618C21.9048 18.7582 22.2888 18.7607 22.6451 18.9696C23.315 19.3572 23.7998 20.4361 23.7979 21.5343C23.7948 22.879 23.053 24.119 21.9129 24.6971Z" fill="#B4B4B4" stroke="white" stroke-width="0.5"/>
<path d="M10.1439 8.77478C9.9257 8.55023 9.63322 8.42676 9.31955 8.42676C8.86085 8.42676 8.09847 9.17116 8.09847 9.17116L7.09914 10.1573L6.62725 9.693C6.40868 9.46244 6.1126 9.33538 5.79334 9.33498C5.47449 9.33498 5.18 9.46045 4.97862 9.67382C4.74767 9.89278 4.62061 10.1893 4.62061 10.5077C4.62061 10.8262 4.74687 11.1219 4.96903 11.332L6.25884 12.621C6.46942 12.8548 6.77669 12.9887 7.10194 12.9887C7.42719 12.9887 7.73326 12.856 7.92625 12.6402L10.1339 10.4322C10.3648 10.2132 10.4919 9.91676 10.4919 9.5983C10.4919 9.28543 10.3684 8.99295 10.1439 8.77478Z" fill="#B4B4B4" stroke="white" stroke-width="0.5"/>
<path d="M17.107 11.9072H13.1885C12.5264 11.9072 11.9897 11.3706 11.9897 10.7085C11.9897 10.0464 12.5264 9.50977 13.1885 9.50977H17.107C17.7691 9.50977 18.3058 10.0464 18.3058 10.7085C18.3058 11.3706 17.7691 11.9072 17.107 11.9072Z" fill="#B4B4B4" stroke="white" stroke-width="0.5"/>
<path d="M10.1541 14.4442C9.93596 14.2197 9.64347 14.0962 9.32981 14.0962C8.8711 14.0962 8.10872 14.8406 8.10872 14.8406L7.10939 15.8267L6.6375 15.3624C6.41894 15.1319 6.12286 15.0048 5.8036 15.0044C5.48474 15.0044 5.19026 15.1299 4.98887 15.3433C4.75792 15.5622 4.63086 15.8587 4.63086 16.1772C4.63086 16.4956 4.75712 16.7913 4.97928 17.0015L6.2691 18.2905C6.47967 18.5242 6.78694 18.6581 7.11219 18.6581C7.43744 18.6581 7.74351 18.5254 7.93651 18.3097L10.1441 16.1016C10.3751 15.8827 10.5021 15.5862 10.5021 15.2677C10.5025 14.9549 10.3787 14.6624 10.1541 14.4442Z" fill="#B4B4B4" stroke="white" stroke-width="0.5"/>
<path d="M15.8152 15.8155C16.158 15.5506 16.5264 15.34 16.9092 15.1782H13.1992C12.5371 15.1782 12.0005 15.7148 12.0005 16.3769C12.0005 17.039 12.5371 17.5756 13.1992 17.5756H14.3348C14.7216 16.8836 15.2186 16.2758 15.8152 15.8155Z" fill="#B4B4B4" stroke="white" stroke-width="0.5"/>
<path d="M14.7817 3.6947C14.3853 3.58043 14.0761 3.27236 13.9622 2.87598C13.6509 1.79275 12.6524 1 11.4689 1C10.2949 1 9.3036 1.77956 8.98354 2.84921C8.86048 3.26117 8.54042 3.57923 8.12886 3.70309C7.06641 4.02155 6.29044 5.00329 6.28125 6.16724V6.16924H16.6557C16.6473 4.9941 15.8586 4.00477 14.7817 3.6947ZM11.4801 4.45828C11.0026 4.45828 10.6154 4.0711 10.6154 3.59361C10.6154 3.11612 11.0026 2.72894 11.4801 2.72894C11.9575 2.72894 12.3447 3.11612 12.3447 3.59361C12.3443 4.0711 11.9575 4.45828 11.4801 4.45828Z" fill="#B4B4B4" stroke="white" stroke-width="0.5"/>
<path d="M14.1966 24.0372H4.5378C3.90927 24.0372 3.39742 23.5257 3.39742 22.8968V7.31035C3.39742 6.68182 3.90887 6.17037 4.5378 6.17037H5.08241V6.16877C5.0892 5.26335 5.40806 4.42824 5.94788 3.77295H4.5378C2.58709 3.77295 1 5.36004 1 7.31035V22.8968C1 24.8475 2.58709 26.4346 4.5378 26.4346H16.1677C15.3342 25.7917 14.6633 24.9678 14.1966 24.0372Z" fill="#B4B4B4" stroke="white" stroke-width="0.5"/>
<path d="M17.8545 6.17037H18.3987C19.0272 6.17037 19.5391 6.68182 19.5391 7.31035V12.8592C19.806 12.5415 20.1141 12.2355 20.4789 11.9562C20.9136 11.6233 21.4271 11.4651 21.9365 11.4659V7.31035C21.9365 5.36004 20.3494 3.77295 18.3987 3.77295H16.9771C17.5217 4.43184 17.8481 5.26934 17.8545 6.15998V6.17037Z" fill="#B4B4B4" stroke="white" stroke-width="0.5"/>
</svg>
