<svg width="18" height="18" viewBox="0 0 18 18" fill="none" xmlns="http://www.w3.org/2000/svg">
<g opacity="0.5">
<path d="M12.1499 8.10039C12.8969 8.10039 13.4999 7.4974 13.4999 6.75039C13.4999 6.00338 12.8969 5.40039 12.1499 5.40039C11.4029 5.40039 10.7999 6.00338 10.7999 6.75039C10.7999 7.4974 11.4029 8.10039 12.1499 8.10039Z" fill="#fff"/>
<path d="M8.99551 0C4.023 0 0 4.02751 0 8.99998C0 13.9724 4.023 18 8.99551 18C13.968 18 18 13.9724 18 8.99998C18 4.02751 13.968 0 8.99551 0ZM8.99998 16.2C5.022 16.2 1.79997 12.978 1.79997 8.99998C1.79997 5.02195 5.022 1.80001 8.99998 1.80001C12.978 1.80001 16.2 5.022 16.2 8.99998C16.2 12.978 12.978 16.2 8.99998 16.2Z" fill="#fff"/>
<path d="M5.85 8.10039C6.59701 8.10039 7.19999 7.4974 7.19999 6.75039C7.19999 6.00338 6.59701 5.40039 5.85 5.40039C5.10298 5.40039 4.5 6.00338 4.5 6.75039C4.5 7.4974 5.10298 8.10039 5.85 8.10039Z" fill="#fff"/>
<path d="M8.99999 13.9498C11.097 13.9498 12.8745 12.6403 13.5945 10.7998H4.40552C5.12549 12.6403 6.90302 13.9498 8.99999 13.9498Z" fill="#fff"/>
</g>
</svg>
