<svg width="36" height="36" viewBox="0 0 36 36" fill="none" xmlns="http://www.w3.org/2000/svg">
<rect opacity="0.07" width="36" height="36" rx="18" fill="#019B81"/>
<path d="M27.3605 14.8323C27.2176 13.9304 26.8615 13.0756 26.3219 12.339C25.7823 11.6024 25.0747 11.0052 24.2579 10.5971C23.2929 10.1086 22.2061 9.91337 21.1315 10.0353C20.0569 10.1573 19.0415 10.5912 18.2105 11.2835C17.3728 10.6045 16.3585 10.1792 15.2871 10.0575C14.2156 9.93593 13.1318 10.1231 12.1632 10.5971C11.3544 10.9987 10.6527 11.5868 10.1159 12.313C9.57914 13.0391 9.22263 13.8824 9.07581 14.7734C8.92899 15.6644 8.99606 16.5775 9.27149 17.4375C9.54692 18.2974 10.0228 19.0796 10.6599 19.7195L17.7094 26.7759C17.808 26.8785 17.9389 26.944 18.0801 26.9612C18.1279 26.9679 18.1764 26.9679 18.2243 26.9612C18.3151 26.9609 18.4049 26.9425 18.4886 26.9071C18.5722 26.8718 18.648 26.8202 18.7116 26.7553L25.7611 19.7195C26.3931 19.088 26.8672 18.3163 27.1451 17.4671C27.423 16.618 27.4968 15.7153 27.3605 14.8323ZM24.8001 18.7517L18.2105 25.355L11.6209 18.7654C11.1425 18.2859 10.7838 17.7005 10.5739 17.0565C10.364 16.4125 10.3088 15.7281 10.4128 15.0588C10.5242 14.3702 10.7985 13.7182 11.2128 13.157C11.6271 12.5959 12.1694 12.1418 12.7947 11.8326C13.3592 11.5417 13.9855 11.391 14.6206 11.3933C15.1965 11.3953 15.7664 11.511 16.2977 11.7336C16.8289 11.9562 17.311 12.2814 17.7163 12.6906C17.8512 12.8171 18.0291 12.8874 18.214 12.8874C18.3988 12.8874 18.5768 12.8171 18.7116 12.6906C19.339 12.0526 20.151 11.6279 21.0329 11.4764C21.9148 11.3249 22.822 11.4543 23.6264 11.8463C24.2499 12.1542 24.7912 12.6062 25.2054 13.1648C25.6196 13.7234 25.8948 14.3727 26.0082 15.0588C26.11 15.7259 26.0537 16.4076 25.8438 17.0491C25.634 17.6905 25.2765 18.2737 24.8001 18.7517Z" fill="#55BAB2"/>
</svg>
