<svg width="23" height="22" viewBox="0 0 23 22" fill="none" xmlns="http://www.w3.org/2000/svg">
<path d="M22.919 6.54693C22.7452 5.44971 22.312 4.40982 21.6555 3.51366C20.999 2.6175 20.1381 1.89094 19.1444 1.39436C17.9704 0.800138 16.6482 0.562574 15.3408 0.710972C14.0334 0.859371 12.7981 1.38724 11.7871 2.22946C10.768 1.40343 9.53393 0.885939 8.23043 0.737981C6.92692 0.590024 5.60828 0.817762 4.42991 1.39436C3.44597 1.883 2.59227 2.59852 1.9392 3.48194C1.28613 4.36535 0.852401 5.39135 0.673777 6.47533C0.495153 7.55931 0.576749 8.67022 0.911837 9.71647C1.24693 10.7627 1.82591 11.7143 2.60104 12.4928L11.1775 21.0777C11.2974 21.2025 11.4567 21.2822 11.6285 21.3032C11.6867 21.3113 11.7457 21.3113 11.8039 21.3032C11.9143 21.3027 12.0236 21.2803 12.1254 21.2373C12.2272 21.1943 12.3194 21.1315 12.3968 21.0526L20.9733 12.4928C21.7421 11.7245 22.319 10.7856 22.6571 9.75253C22.9951 8.71944 23.0849 7.6212 22.919 6.54693ZM19.8041 11.3153L11.7871 19.349L3.77018 11.3321C3.18813 10.7487 2.75173 10.0364 2.49637 9.25293C2.24101 8.46944 2.17388 7.63679 2.30041 6.82251C2.43594 5.98479 2.76961 5.19156 3.27365 4.50885C3.77769 3.82614 4.43752 3.27371 5.19821 2.89754C5.88499 2.54356 6.64694 2.36024 7.41957 2.36307C8.1203 2.36556 8.81366 2.50625 9.45994 2.77708C10.1062 3.04792 10.6927 3.44358 11.1859 3.94141C11.3499 4.09524 11.5664 4.18085 11.7913 4.18085C12.0162 4.18085 12.2327 4.09524 12.3968 3.94141C13.1601 3.16522 14.148 2.64847 15.2209 2.46415C16.2938 2.27984 17.3975 2.43728 18.3761 2.91424C19.1347 3.28881 19.7932 3.83866 20.2972 4.51829C20.8011 5.19791 21.1359 5.98778 21.2739 6.82251C21.3977 7.63417 21.3292 8.46356 21.0739 9.24392C20.8186 10.0243 20.3837 10.7338 19.8041 11.3153Z" fill="white"/>
</svg>
