<svg width="12" height="17" viewBox="0 0 12 17" fill="none" xmlns="http://www.w3.org/2000/svg">
<path d="M12 1C12 0.734784 11.9097 0.48043 11.7489 0.292893C11.5882 0.105357 11.3702 0 11.1429 0H0.857143C0.629814 0 0.411797 0.105357 0.251051 0.292893C0.090306 0.48043 0 0.734784 0 1C0 1.26522 0.090306 1.51957 0.251051 1.70711C0.411797 1.89464 0.629814 2 0.857143 2H11.1429C11.3702 2 11.5882 1.89464 11.7489 1.70711C11.9097 1.51957 12 1.26522 12 1Z" fill="#56BCB4"/>
<path d="M11.1429 15H0.857143C0.629814 15 0.411797 15.1054 0.251051 15.2929C0.090306 15.4804 0 15.7348 0 16C0 16.2652 0.090306 16.5196 0.251051 16.7071C0.411797 16.8946 0.629814 17 0.857143 17H11.1429C11.3702 17 11.5882 16.8946 11.7489 16.7071C11.9097 16.5196 12 16.2652 12 16C12 15.7348 11.9097 15.4804 11.7489 15.2929C11.5882 15.1054 11.3702 15 11.1429 15Z" fill="#56BCB4"/>
<path d="M8.78882 12.3245C8.92586 12.1713 9.00169 11.9661 8.99997 11.753C8.99826 11.54 8.91914 11.3362 8.77965 11.1855C8.64017 11.0349 8.45148 10.9494 8.25423 10.9476C8.05697 10.9457 7.86694 11.0276 7.72505 11.1756L6.75231 12.2262V4.77378L7.72505 5.82437C7.86694 5.97237 8.05697 6.05427 8.25423 6.05242C8.45148 6.05057 8.64017 5.96512 8.77965 5.81447C8.91914 5.66382 8.99826 5.46003 8.99997 5.24699C9.00169 5.03395 8.92586 4.8287 8.78882 4.67546L6.53188 2.2379C6.3908 2.08557 6.19949 2 6 2C5.80051 2 5.6092 2.08557 5.46812 2.2379L3.21118 4.67546C3.07414 4.8287 2.99831 5.03395 3.00003 5.24699C3.00174 5.46003 3.08086 5.66382 3.22035 5.81447C3.35983 5.96512 3.54852 6.05057 3.74577 6.05242C3.94303 6.05427 4.13306 5.97237 4.27495 5.82437L5.24769 4.77378V12.2262L4.27495 11.1756C4.13306 11.0276 3.94303 10.9457 3.74577 10.9476C3.54852 10.9494 3.35983 11.0349 3.22035 11.1855C3.08086 11.3362 3.00174 11.54 3.00003 11.753C2.99831 11.9661 3.07414 12.1713 3.21118 12.3245L5.46812 14.7621C5.6092 14.9144 5.80051 15 6 15C6.19949 15 6.3908 14.9144 6.53188 14.7621L8.78882 12.3245Z" fill="#56BCB4"/>
</svg>
