<svg width="70" height="70" viewBox="0 0 70 70" fill="none" xmlns="http://www.w3.org/2000/svg">
<rect width="70" height="70" rx="35" fill="#56BCB4"/>
<path d="M47.8901 34.1245C47.667 34.1245 47.4438 34.0364 47.2206 33.9043L34.5 24.4778L21.7794 33.9043C21.2884 34.2567 20.5743 34.1686 20.2172 33.684C19.8601 33.1995 19.9494 32.4947 20.4404 32.1423L33.8305 22.2313C34.2322 21.9229 34.7678 21.9229 35.1695 22.2313L48.5596 32.1423C49.0506 32.4947 49.1399 33.1995 48.7828 33.684C48.5596 33.9483 48.2026 34.1245 47.8901 34.1245ZM45.346 44.6523V35.8865C45.346 35.2698 44.855 34.7853 44.2302 34.7853C43.6053 34.7853 43.1143 35.2698 43.1143 35.8865V44.6523C43.1143 45.269 42.5787 45.7975 41.9538 45.7975H27.0462C26.4213 45.7975 25.8857 45.269 25.8857 44.6523V35.8865C25.8857 35.2698 25.3947 34.7853 24.7698 34.7853C24.145 34.7853 23.654 35.2698 23.654 35.8865V44.6523C23.654 46.5023 25.1715 48 27.0462 48H41.9092C43.8285 48 45.346 46.5023 45.346 44.6523Z" fill="white"/>
</svg>
