<svg width="64" height="75" viewBox="0 0 64 75" fill="none" xmlns="http://www.w3.org/2000/svg">
<g clip-path="url(#clip0)">
<path opacity="0.6" d="M61.7993 2.80176H23.4021H21.2014V13.8928V58.765C18.2649 56.0936 13.0235 55.9906 8.60136 58.7719C3.53356 61.9516 1.45785 67.7134 3.97092 71.6279C6.48399 75.5492 12.6348 76.1398 17.7026 72.9602C21.2917 70.7076 23.3674 67.1709 23.3952 63.9088H23.409V13.8928H61.8063V58.765C58.8697 56.0936 53.6284 55.9906 49.2062 58.7719C44.1315 61.9516 42.0627 67.7134 44.5758 71.6279C47.0888 75.5492 53.2396 76.1398 58.3074 72.9602C61.8965 70.7076 63.9722 67.1709 64 63.9088H64.0139V13.8928V2.80176H61.7993Z" fill="#218C84"/>
<path d="M58.8982 0H20.501H18.3003V11.091V55.9633C15.3638 53.2918 10.1224 53.1888 5.70023 55.9701C0.632439 59.1498 -1.44327 64.9116 1.0698 68.8261C3.58287 72.7475 9.73364 73.3381 14.8014 70.1584C18.3905 67.9059 20.4663 64.3691 20.494 61.107H20.5079V11.091H58.9051V55.9633C55.9686 53.2918 50.7272 53.1888 46.3051 55.9701C41.2303 59.1498 39.1616 64.9116 41.6746 68.8261C44.1877 72.7475 50.3385 73.3381 55.4063 70.1584C58.9954 67.9059 61.0711 64.3691 61.0989 61.107H61.1127V11.091V0H58.8982Z" fill="white"/>
</g>
<defs>
<clipPath id="clip0">
<rect width="64" height="75" fill="white"/>
</clipPath>
</defs>
</svg>
