<svg id="Group_87" data-name="Group 87" xmlns="http://www.w3.org/2000/svg" width="170" height="171.277" viewBox="0 0 170 171.277">
  <path id="Path_97" data-name="Path 97" d="M267.849-56.838c-8.469,11.222-13.349,24.627-12.772,38.762a67.758,67.758,0,0,0,11.9,34.943c17.1,25.271,49.094,37.168,78.606,30.366,26.631-6.14,47.151-26.23,52.284-53.2,4.427-23.249-2.185-48.973-16.654-67.559-17.8-22.862-48.311-33.013-76.508-27.278a67.1,67.1,0,0,0-53.021,58.167C248.3-11.279,266.976,18.1,293.85,33.092c26.606,14.845,58.858,9.578,81.917-9.338,20.8-17.063,31.59-43.8,25.643-70.31-3.223-14.368-11.976-26.389-22.338-36.554a78.086,78.086,0,0,0-32.288-19.514c-43.907-12.952-89.249,24.88-95.12,67.843a73.906,73.906,0,0,0,6.6,41.676,65.613,65.613,0,0,0,14.508,19.34,90.082,90.082,0,0,0,11.009,8.6c4.333,2.887,8.972,4.782,13.585,7.1-.253-.127.2-2.244-.366-2.53-6.856-3.451-13.51-8.427-19.415-13.309A83.549,83.549,0,0,1,263.538,11.26C256.715,1.986,252.245-9.1,252.019-20.677c-.439-22.411,11.329-44.129,27.473-59.046,16.219-14.989,38.411-23.579,60.542-20.2,12.269,1.872,23.554,7.575,33.184,15.265,11.878,9.486,22.52,22.334,27.189,36.953,9.075,28.419-10.976,58.568-34.227,73.229a74.894,74.894,0,0,1-40.523,11.621c-16-.165-31.129-6.476-43.636-16.213-13.815-10.754-25-25.77-28.793-43.074-3.25-14.826.8-31.032,8.538-43.828,16.489-27.276,49.38-36.779,79.326-29.752,26.363,6.186,46.562,27.134,54.369,52.7,7.729,25.315.255,54.262-19.963,71.595-23.418,20.076-58.509,22.091-84.933,7.071A73.394,73.394,0,0,1,261.133,4.435a56.806,56.806,0,0,1-.971-47.475,65.371,65.371,0,0,1,7.779-13.165c.1-.144-.157-.547-.092-.633" transform="translate(-242.081 113.424)" fill="#040405"/>
  <rect id="Rectangle_26" data-name="Rectangle 26" width="152.756" height="154.217" transform="translate(0 18.153) rotate(-6.825)" fill="none"/>
</svg>
