<svg width="48" height="48" viewBox="0 0 48 48" fill="none" xmlns="http://www.w3.org/2000/svg">
<circle cx="24" cy="24" r="24" fill="#F7C000"/>
<path fill-rule="evenodd" clip-rule="evenodd" d="M36.7028 15.2259C35.0355 15.9807 34.833 18.4137 36.3552 19.4039C37.3998 20.0834 38.6258 19.9538 39.465 19.0752C40.4052 18.0908 40.3856 16.5735 39.4212 15.6746C38.6754 14.9793 37.6289 14.8066 36.7028 15.2259ZM22.6585 15.602C22.3621 15.9359 19.366 20.6722 19.366 20.8067C19.366 20.8687 19.5007 20.9608 19.6652 21.0113C19.8296 21.062 20.215 21.2702 20.5215 21.4743C20.9322 21.7479 21.1113 21.8045 21.2033 21.6896C21.7123 21.0548 24.4188 16.6179 24.4188 16.4182C24.4188 16.138 23.445 15.37 23.0897 15.37C22.9658 15.37 22.7717 15.4744 22.6585 15.602ZM9.40791 16.6097C8.58577 17.7192 8.60731 17.8387 9.75908 18.5576C10.2527 18.8656 10.6692 19.1272 10.6848 19.1388C10.7004 19.1504 10.2172 21.7817 9.61122 24.9863L8.50945 30.8128L7.92093 30.8522C7.1585 30.9032 7 31.1288 7 32.1637V33H22.1639H37.3278L37.2889 31.9727L37.2501 30.9454L36.3526 30.9061C35.859 30.8847 35.4551 30.8389 35.4551 30.8046C35.4551 30.7703 36.6713 28.8493 38.1578 26.5356C39.6442 24.2221 40.9009 22.26 40.9505 22.1754C41.0989 21.9223 40.9164 21.6418 40.3677 21.2798C39.7599 20.8788 39.4289 20.8487 39.152 21.1693C39.0419 21.297 38.0344 22.8329 36.9132 24.5827C35.792 26.3324 34.4984 28.3443 34.0384 29.0538L33.2022 30.3436L31.5697 29.3015C30.2022 28.4287 29.8873 28.2785 29.6292 28.3763C28.6374 28.7522 27.7475 28.2644 27.7375 27.3392L27.732 26.8361L25.1986 25.2454C23.8051 24.3706 22.4798 23.5373 22.2534 23.3938C21.8437 23.1341 21.8421 23.1341 21.9519 23.3938C22.1638 23.8948 22.1865 25.1024 21.9944 25.654L21.8058 26.1952L25.4523 28.5039L29.0987 30.8128L19.8231 30.8469C14.7216 30.8656 10.5162 30.8495 10.4776 30.8112C10.4392 30.7728 10.8188 28.5803 11.3214 25.9388C11.8239 23.2974 12.2605 20.9423 12.2914 20.7054C12.3224 20.4685 12.3738 20.2746 12.4054 20.2746C12.437 20.2746 13.1266 20.6961 13.9376 21.2114L15.4123 22.1483L15.8268 21.7564C16.4059 21.2092 16.9909 20.9424 17.8528 20.8328L18.5932 20.7385L19.7211 18.9198C20.9212 16.9848 21.0063 16.6457 20.3339 16.4775C20.1445 16.4302 19.8943 16.4511 19.7775 16.524C19.6609 16.5971 19.0725 17.4558 18.4702 18.4324C17.8678 19.4092 17.3205 20.1954 17.2542 20.1798C17.1877 20.1642 15.6227 19.1948 13.7763 18.0258C11.9299 16.8567 10.31 15.9002 10.1765 15.9002C10.0371 15.9002 9.70961 16.2026 9.40791 16.6097ZM24.7129 17.7731C23.4966 18.1228 23.4538 19.9485 24.6495 20.4734C24.9248 20.5943 26.0177 21.0613 27.0781 21.5112L29.0061 22.3292L29.1209 24.0856C29.2165 25.5493 29.2706 25.8419 29.4456 25.8419C29.851 25.8419 31.5158 24.7368 32.3184 23.9349C32.8126 23.4408 33.3328 22.7364 33.6506 22.1304C34.2529 20.9818 34.4276 20.8147 35.0332 20.809C35.5737 20.8039 36.2529 21.4147 36.2529 21.9059C36.2529 22.0854 36.0149 22.7062 35.7241 23.2856C34.8544 25.0176 33.1892 26.6198 31.144 27.6923L30.3744 28.0959L30.9534 28.3579C31.2719 28.502 31.6821 28.6198 31.8649 28.6198C32.537 28.6198 33.3861 28.08 34.5235 26.9298C35.4547 25.9883 35.7937 25.5253 36.3642 24.4159C37.1871 22.8158 37.3367 22.038 36.994 21.1432C36.6593 20.2699 35.998 19.7443 35.2334 19.7443C34.2768 19.7443 33.8455 20.1007 32.9013 21.6703C32.4463 22.4268 32.0615 23.0333 32.0462 23.018C32.0309 23.0027 31.9601 22.4614 31.8889 21.8147C31.7834 20.8591 31.7007 20.5816 31.4465 20.3312C31.1696 20.0585 25.5391 17.605 25.26 17.6354C25.1995 17.642 24.9533 17.7039 24.7129 17.7731ZM34.6573 21.109C34.4535 21.2107 34.1471 21.633 33.8657 22.1997C33.1583 23.6247 31.7337 24.9753 30.1306 25.7409C29.4391 26.0713 28.7074 26.4073 28.5048 26.4878C27.4277 26.9154 27.9635 28.5339 29.1075 28.308C29.9009 28.1513 32.1882 26.931 33.0958 26.1801C34.5751 24.9563 35.9869 22.9109 35.9869 21.9913C35.9869 21.2827 35.2668 20.8048 34.6573 21.109ZM16.8804 21.4778C14.6588 22.5742 14.2286 25.4509 16.0431 27.0772C17.12 28.0424 18.5989 28.252 19.8719 27.6195C22.379 26.374 22.379 22.7913 19.8719 21.5458C18.9717 21.0985 17.7071 21.0698 16.8804 21.4778ZM18.9697 23.391C19.4524 23.6399 19.6319 23.9628 19.6319 24.5827C19.6319 25.2397 19.4298 25.5638 18.8761 25.7944C18.2635 26.0495 17.7299 25.9236 17.3086 25.4244C16.8897 24.9281 16.8694 24.2853 17.2569 23.7942C17.7318 23.1923 18.317 23.0546 18.9697 23.391ZM17.9355 23.7256C17.2437 24.0027 17.2198 25.0255 17.8968 25.3747C18.8958 25.8897 19.7658 24.5558 18.8826 23.8633C18.4994 23.5626 18.384 23.5459 17.9355 23.7256Z" fill="white"/>
</svg>
