<svg width="11" height="15" viewBox="0 0 11 15" fill="none" xmlns="http://www.w3.org/2000/svg">
<path d="M5.37292 0.460938C2.67767 0.460938 0.484863 2.65374 0.484863 5.34899C0.484863 8.73665 5.37773 14.5234 5.37773 14.5234C5.37773 14.5234 10.261 8.57005 10.261 5.34899C10.261 2.65374 8.06826 0.460938 5.37292 0.460938ZM6.84775 6.78022C6.44108 7.1868 5.90705 7.39013 5.37292 7.39013C4.83888 7.39013 4.30467 7.1868 3.89818 6.78022C3.08493 5.96706 3.08493 4.6439 3.89818 3.83065C4.29197 3.43669 4.81579 3.21971 5.37292 3.21971C5.93005 3.21971 6.45379 3.43677 6.84775 3.83065C7.661 4.6439 7.661 5.96706 6.84775 6.78022Z" fill="#999999"/>
</svg>
