<svg width="22" height="18" viewBox="0 0 22 18" fill="none" xmlns="http://www.w3.org/2000/svg">
<path d="M0.757162 15.4485L0.0741633 14.2656C0.0254351 14.1805 0.00214191 14.0876 0.00240964 13.996L0 5.00027C0 4.89987 0.0273092 4.80562 0.0749665 4.72477L2.25087 0.337885C2.33173 0.139759 2.52664 0 2.75395 0L13.1606 0.00080318C13.3521 0.00107092 13.5373 0.102544 13.6359 0.282196L16.0718 4.71031C16.125 4.79438 16.1558 4.89371 16.1558 5.00027V8.08059L16.7226 7.52423C16.8222 7.41125 16.9681 7.33976 17.1307 7.33976H21.4568C21.7566 7.33976 22 7.58313 22 7.883V17.0289C22 17.3288 21.7566 17.5722 21.4568 17.5722C16.9079 17.5722 12.3593 17.5722 7.81071 17.5722C7.33547 17.5722 7.05783 16.9807 7.45944 16.6142L8.32396 15.766H1.25141C1.03213 15.766 0.842838 15.6359 0.757162 15.4485ZM18.7044 14.2078C19.1347 14.2078 19.1347 15.3759 18.7044 15.3759C18.2739 15.3759 18.2739 14.2078 18.7044 14.2078ZM17.4589 13.6238C17.8892 13.6238 17.8892 14.792 17.4589 14.792C17.0284 14.792 17.0284 13.6238 17.4589 13.6238ZM15.9406 14.792C16.3711 14.792 16.3711 15.9598 15.9406 15.9598C15.5103 15.9598 15.5103 14.792 15.9406 14.792ZM19.9834 14.2078C20.4139 14.2078 20.4139 15.3759 19.9834 15.3759C19.5531 15.3759 19.5531 14.2078 19.9834 14.2078ZM18.7044 12.1071C19.1347 12.1071 19.1347 13.275 18.7044 13.275C18.2739 13.275 18.2739 12.1071 18.7044 12.1071ZM19.9834 12.456C20.4139 12.456 20.4139 13.6238 19.9834 13.6238C19.5531 13.6238 19.5531 12.456 19.9834 12.456ZM7.21446 6.18661C6.49933 6.18661 6.49933 5.10013 7.21446 5.10013H13.3127C14.0281 5.10013 14.0281 6.18661 13.3127 6.18661H7.21446ZM7.21446 9.2656C6.49933 9.2656 6.49933 8.17885 7.21446 8.17885H13.3127C14.0281 8.17885 14.0281 9.2656 13.3127 9.2656H7.21446ZM7.21446 7.72611C6.49933 7.72611 6.49933 6.63936 7.21446 6.63936H13.3127C14.0281 6.63936 14.0281 7.72611 13.3127 7.72611H7.21446ZM12.1165 1.08648L12.6704 2.22838H13.4685L12.8404 1.08648H12.1165ZM11.4656 2.22838L10.9116 1.08648H9.99411L10.5483 2.22838H11.4656ZM9.34351 2.22838L8.78929 1.08648H7.87175L8.42597 2.22838H9.34351ZM7.22115 2.22838L6.66693 1.08648H5.74967L6.30361 2.22838H7.22115ZM5.0988 2.22838L4.54485 1.08648H3.62838L4.19465 2.22838H5.0988ZM9.13789 16.4854H11.917L20.1296 8.42651H17.3505L9.13789 16.4854ZM15.0691 9.14699V5.13789L14.0664 3.31513H4.7336L5.4506 4.76064C5.48862 4.83775 5.50656 4.91968 5.50656 5.00027L5.5079 13.996C5.5079 14.0859 5.47443 14.1826 5.42651 14.2809C5.36091 14.415 5.26801 14.5523 5.19465 14.6795H9.43132L15.0691 9.14699ZM13.464 16.4854H20.9135V9.17537L13.464 16.4854ZM2.75395 1.76305L1.08648 5.1245V13.8552L1.56252 14.6795H3.94538L4.42115 13.8552V5.1245L2.75395 1.76305Z" fill="#56BBB3"/>
</svg>
