<svg width="163" height="213" viewBox="0 0 163 213" fill="none" xmlns="http://www.w3.org/2000/svg">
<path d="M128.688 152.479L163 185.5C163 185 163 183.5 163 183C163 177 163 181 163 174L163 142.5L146.101 127.378L128.688 152.479Z" fill="#EFB086"/>
<path d="M137.622 174.303C137.622 174.303 146.276 173.129 163 139.5L134.502 110.234C125.803 102.028 111.935 103.037 104.539 112.428C98.403 120.21 98.7838 131.269 105.418 138.612L137.622 174.303Z" fill="#FFBF85"/>
<path d="M91.1538 99.1175C91.1538 99.1175 72.555 101.473 48.7572 113.687C44.6713 115.778 48.7718 120.181 49.0208 124.76L45.4999 198C116.5 198 137 198 137 198L133.873 115.062C134.048 110.922 131.427 107.163 127.473 105.934C118.364 103.125 102.006 98.6494 91.1538 99.1175Z" fill="#E88122"/>
<path d="M76.2601 102.569L84.8858 100.302L99.472 97.7422L107.878 100.873L112.769 101.955C112.769 101.955 120.253 113.423 104.319 115.222C85.208 117.373 77.5488 107.982 76.2601 102.569Z" fill="#EFB086"/>
<path d="M135.601 172.065L134.502 135.92" stroke="black" stroke-width="0.4291" stroke-miterlimit="10" stroke-linecap="round" stroke-linejoin="round"/>
<path d="M41.0722 150.388L37 198C43 198 42.534 197.952 51 198C58.7415 198.051 55.5 198 66 198L71.5341 148.089L41.0722 150.388Z" fill="#EFB086"/>
<path d="M50.975 171.978C50.975 171.978 62.5 183 69 178.5L73.4999 130.5C74.4687 118.584 71.4154 110.304 59.4622 110.426C49.5581 110.519 41.155 117.736 39.5693 127.512L34.931 156.047L50.975 171.978Z" fill="#FFBF85"/>
<path d="M69.0418 177.932L71.0098 157.182L71.9938 146.807L72.9778 136.433" stroke="black" stroke-width="0.4291" stroke-miterlimit="10" stroke-linecap="round" stroke-linejoin="round"/>
<path d="M82.0303 69.4958C82.0303 69.4958 76.187 71.7484 73.258 68.7644C70.3291 65.7657 74.7225 60.6899 74.7225 60.6899L81.3713 63.8788L82.0303 69.4958Z" fill="#242424"/>
<path d="M70.2266 17.8161C70.2266 17.8161 60.9418 14.8321 56.7387 27.0462C52.5503 39.2603 68.9671 54.1659 68.9671 54.1659L70.2266 17.8161Z" fill="#242424"/>
<path d="M130.314 48.7536C131.339 52.8201 128.571 57.3693 124.134 58.9052C119.697 60.4411 115.259 58.3786 114.234 54.3121C113.209 50.2456 115.977 45.6964 120.414 44.1605C124.866 42.6246 129.289 44.6725 130.314 48.7536Z" fill="#CE926A"/>
<path d="M128.908 32.6198C127.868 48.7834 113.546 67.4921 96.0892 68.0626C78.6472 68.6331 66.8728 55.3365 62.2451 39.8166C57.0462 22.3951 76.7141 9.78602 94.1707 9.46421C105.154 9.25943 130.036 15.0373 128.908 32.6198Z" fill="#242424"/>
<path d="M88.8254 60.9385L83.7291 108.859L107.395 108.171L104.583 65.4292L88.8254 60.9385Z" fill="#EFB086"/>
<path d="M106.839 99.4389L87.6392 72.3924L104.73 68.4575L106.839 99.4389Z" fill="#CE926A"/>
<path d="M89.4112 16.2364C94.7126 14.5981 100.38 14.0862 105.843 15.0516C113.238 16.3535 122.816 20.6686 124.441 34.0529C127.136 56.3601 124.969 72.5383 114.088 78.8575C106.004 83.5529 95.1959 82.763 87.5367 75.9904C84.3734 73.2112 81.4884 68.5011 79.3063 61.1141L74.2538 50.4944C74.2392 50.4944 64.0757 24.0476 89.4112 16.2364Z" fill="#EFB086"/>
<path d="M111.481 48.71L115.333 56.4334L112.726 58.6275" stroke="black" stroke-width="0.4432" stroke-miterlimit="10" stroke-linecap="round" stroke-linejoin="round"/>
<path d="M104.818 47.8322C104.818 47.8322 102.24 39.0556 90.7733 45.8721C90.7879 45.8721 95.7818 54.9267 104.818 47.8322Z" fill="white"/>
<path d="M102.445 46.4425C102.797 48.7244 101.274 50.8308 99.0768 51.1673C96.8655 51.5037 94.8006 49.9239 94.4491 47.6566C94.0976 45.3893 95.606 43.2683 97.8174 42.9319C100.029 42.5955 102.108 44.1752 102.445 46.4425Z" fill="#242424"/>
<path d="M90.9343 46.0766C93.0285 44.5114 95.7232 43.7069 98.3007 43.6777C99.5894 43.7362 100.878 44.0287 101.933 44.7016C102.972 45.3452 103.778 46.4569 104.027 47.554L104.041 47.6125C104.1 47.905 104.393 48.0806 104.671 48.0221C104.964 47.9636 105.14 47.671 105.081 47.3931V47.3784C104.686 45.8572 103.675 44.687 102.43 43.941C101.156 43.2096 99.7212 42.9463 98.3299 42.9316C95.5328 43.0487 92.8235 43.9702 90.6414 45.6816C90.5243 45.7694 90.5096 45.9303 90.5975 46.0473C90.6707 46.1497 90.8318 46.1644 90.9343 46.0766Z" fill="#242424"/>
<path d="M114.659 47.4665C114.659 47.4665 117.851 38.5729 124.442 44.4386C124.442 44.4386 122.216 53.1274 114.659 47.4665Z" fill="white"/>
<path d="M116.855 45.5065C116.577 47.6129 117.705 49.4999 119.374 49.7193C121.044 49.9387 122.625 48.4174 122.904 46.311C123.182 44.2047 122.054 42.3177 120.385 42.0983C118.715 41.8642 117.134 43.4001 116.855 45.5065Z" fill="#242424"/>
<path d="M124.617 44.3058C123.621 42.7845 121.674 41.8045 119.77 42.3018L119.814 42.2872C117.31 42.6821 115.362 44.6422 114.439 46.9242C114.351 47.1582 114.454 47.4069 114.688 47.5093C114.922 47.597 115.171 47.4946 115.274 47.2606V47.246L115.289 47.2167C116.021 45.1835 117.72 43.3258 119.916 42.9162L119.96 42.9016C121.513 42.4481 123.299 43.1795 124.266 44.5545C124.339 44.6569 124.471 44.6715 124.573 44.613C124.661 44.5398 124.676 44.4082 124.617 44.3058Z" fill="#242424"/>
<path d="M113.722 33.1315C113.722 33.1315 112.902 36.3349 116.314 36.8469C118.906 37.2418 120.547 37.432 122.011 38.1049C122.846 38.4852 123.783 38.1195 124.252 37.2272C124.633 36.5105 124.618 35.6182 124.193 34.9307C123.358 33.541 121.586 31.42 118.438 30.8934C114.41 30.2206 113.722 33.1315 113.722 33.1315Z" fill="#242424"/>
<path d="M104.159 33.0729C104.159 33.0729 105.403 36.2764 100.556 37.0517C96.8801 37.6368 92.516 39.3043 90.451 40.0942C89.2795 40.5477 87.9321 40.2259 87.2438 39.3628C86.6873 38.6607 86.6873 37.7392 87.2585 37.0224C88.4154 35.545 92.9114 31.9027 97.378 31.1421C103.104 30.162 104.159 33.0729 104.159 33.0729Z" fill="#242424"/>
<path d="M114.571 63.6156C114.571 63.6156 107.498 66.3948 103.324 62.811" stroke="black" stroke-width="0.4432" stroke-miterlimit="10" stroke-linecap="round" stroke-linejoin="round"/>
<path d="M81.0344 56.7993C81.0344 56.7993 90.7146 22.4536 74.825 22.0732L66.6532 39.29L71.7496 53.3033L81.0344 56.7993Z" fill="#242424"/>
<path d="M66.58 53.3615C65.6281 57.7937 68.806 62.6062 73.6534 64.0836C78.5008 65.561 83.2018 63.162 84.1537 58.7299C85.1056 54.2977 81.9277 49.4852 77.0803 48.0078C72.2329 46.5304 67.5319 48.9293 66.58 53.3615Z" fill="#EFB086"/>
<path d="M71.2809 53.683C71.2809 53.683 76.5091 52.3519 79.3795 57.9543" stroke="black" stroke-width="0.5596" stroke-miterlimit="10" stroke-linecap="round" stroke-linejoin="round"/>
<path d="M76.0405 23.8575C76.0405 23.8575 126.536 36.0716 132.379 17.6554C138.237 -0.760801 104.949 -5.38314 94.8151 6.71393L86.3504 12.8283L76.0405 23.8575Z" fill="#242424"/>
<path d="M96.924 6.66996C96.924 6.66996 84.3002 -0.8194 74.6492 7.07954C64.5297 15.3588 74.5467 28.0556 74.5467 28.0556L92.7941 17.9918L96.924 6.66996Z" fill="#242424"/>
</svg>
