<svg width="16" height="17" viewBox="0 0 16 17" fill="none" xmlns="http://www.w3.org/2000/svg">
<path d="M15.4024 1.68261C15.4024 1.50157 15.3303 1.32795 15.202 1.19993C15.0737 1.07192 14.8997 1 14.7182 1H9.24442C9.06295 1 8.88892 1.07192 8.7606 1.19993C8.63228 1.32795 8.5602 1.50157 8.5602 1.68261C8.5602 1.86365 8.63228 2.03728 8.7606 2.16529C8.88892 2.29331 9.06295 2.36522 9.24442 2.36522H13.0555L9.44968 5.95576C8.28142 5.20079 6.86875 4.91821 5.49906 5.16549C4.12937 5.41277 2.90555 6.17135 2.07659 7.28689C1.24763 8.40244 0.875789 9.79115 1.03673 11.1705C1.19766 12.5498 1.87929 13.8162 2.94292 14.712C4.00655 15.6077 5.3723 16.0656 6.7623 15.9924C8.15231 15.9192 9.46215 15.3205 10.4254 14.318C11.3886 13.3155 11.9328 11.9846 11.9473 10.596C11.9618 9.20738 11.4455 7.86544 10.5034 6.84316L14.0203 3.32771V7.18446C14.0203 7.3655 14.0924 7.53913 14.2207 7.66714C14.349 7.79516 14.523 7.86707 14.7045 7.86707C14.886 7.86707 15.06 7.79516 15.1883 7.66714C15.3166 7.53913 15.3887 7.3655 15.3887 7.18446V1.7577L15.4024 1.68261ZM3.59275 13.4508C3.0181 12.8782 2.62659 12.1485 2.46777 11.3539C2.30896 10.5592 2.38996 9.73547 2.70053 8.98679C3.0111 8.23811 3.53729 7.59815 4.21252 7.14789C4.88775 6.69762 5.68167 6.45729 6.49385 6.45729C7.30602 6.45729 8.09995 6.69762 8.77518 7.14789C9.45041 7.59815 9.97659 8.23811 10.2872 8.98679C10.5977 9.73547 10.6787 10.5592 10.5199 11.3539C10.3611 12.1485 9.9696 12.8782 9.39495 13.4508C8.62519 14.2178 7.58176 14.6486 6.49385 14.6486C5.40593 14.6486 4.3625 14.2178 3.59275 13.4508Z" fill="#56BCB4" stroke="#56BCB4" stroke-width="0.5"/>
</svg>
