<svg width="32" height="25" viewBox="0 0 32 25" fill="none" xmlns="http://www.w3.org/2000/svg">
<path d="M6.07454 24.909V23.3122C6.07454 22.7001 5.70381 22.3009 5.06828 22.3009C4.75051 22.3009 4.40626 22.4073 4.16794 22.7533C3.98257 22.4605 3.71777 22.3009 3.32056 22.3009C3.05575 22.3009 2.79095 22.3807 2.5791 22.6735V22.3541H2.02301V24.909H2.5791V23.4985C2.5791 23.046 2.81743 22.8331 3.18816 22.8331C3.55888 22.8331 3.74425 23.0727 3.74425 23.4985V24.909H4.30034V23.4985C4.30034 23.046 4.56515 22.8331 4.90939 22.8331C5.28012 22.8331 5.46548 23.0727 5.46548 23.4985V24.909H6.07454ZM14.31 22.3541H13.4097V21.5823H12.8536V22.3541H12.3504V22.8598H12.8536V24.0308C12.8536 24.6163 13.0919 24.9622 13.7274 24.9622C13.9657 24.9622 14.2306 24.8824 14.4159 24.7759L14.257 24.2969C14.0982 24.4033 13.9128 24.43 13.7804 24.43C13.5156 24.43 13.4097 24.2703 13.4097 24.0041V22.8598H14.31V22.3541ZM19.0235 22.3009C18.7058 22.3009 18.4939 22.4605 18.3615 22.6735V22.3541H17.8054V24.909H18.3615V23.4719C18.3615 23.046 18.5469 22.8065 18.8911 22.8065C18.9971 22.8065 19.1295 22.8331 19.2354 22.8598L19.3943 22.3275C19.2883 22.3009 19.1295 22.3009 19.0235 22.3009ZM11.9003 22.567C11.6355 22.3807 11.2647 22.3009 10.8675 22.3009C10.232 22.3009 9.8083 22.6202 9.8083 23.1259C9.8083 23.5517 10.1261 23.7912 10.6822 23.8711L10.947 23.8977C11.2382 23.9509 11.3971 24.0308 11.3971 24.1638C11.3971 24.3501 11.1853 24.4832 10.8146 24.4832C10.4438 24.4832 10.1525 24.3501 9.96718 24.217L9.70238 24.6429C9.99366 24.8558 10.3909 24.9622 10.7881 24.9622C11.5295 24.9622 11.9532 24.6163 11.9532 24.1372C11.9532 23.6848 11.609 23.4453 11.0794 23.3654L10.8146 23.3388C10.5762 23.3122 10.3909 23.259 10.3909 23.0993C10.3909 22.913 10.5762 22.8065 10.8675 22.8065C11.1853 22.8065 11.5031 22.9396 11.6619 23.0194L11.9003 22.567ZM26.6764 22.3009C26.3587 22.3009 26.1468 22.4605 26.0144 22.6735V22.3541H25.4583V24.909H26.0144V23.4719C26.0144 23.046 26.1998 22.8065 26.544 22.8065C26.6499 22.8065 26.7823 22.8331 26.8883 22.8598L27.0472 22.3275C26.9412 22.3009 26.7823 22.3009 26.6764 22.3009ZM19.5796 23.6315C19.5796 24.4033 20.1092 24.9622 20.9301 24.9622C21.3009 24.9622 21.5657 24.8824 21.8305 24.6695L21.5657 24.217C21.3538 24.3767 21.142 24.4566 20.9037 24.4566C20.4535 24.4566 20.1357 24.1372 20.1357 23.6315C20.1357 23.1525 20.4535 22.8331 20.9037 22.8065C21.142 22.8065 21.3538 22.8864 21.5657 23.046L21.8305 22.5936C21.5657 22.3807 21.3009 22.3009 20.9301 22.3009C20.1092 22.3009 19.5796 22.8598 19.5796 23.6315ZM24.7169 23.6315V22.3541H24.1608V22.6735C23.9754 22.4339 23.7106 22.3009 23.3664 22.3009C22.6514 22.3009 22.0953 22.8598 22.0953 23.6315C22.0953 24.4033 22.6514 24.9622 23.3664 24.9622C23.7371 24.9622 24.0019 24.8292 24.1608 24.5896V24.909H24.7169V23.6315ZM22.6779 23.6315C22.6779 23.1791 22.9691 22.8065 23.4458 22.8065C23.896 22.8065 24.2137 23.1525 24.2137 23.6315C24.2137 24.084 23.896 24.4566 23.4458 24.4566C22.9691 24.43 22.6779 24.084 22.6779 23.6315ZM16.0312 22.3009C15.2898 22.3009 14.7602 22.8331 14.7602 23.6315C14.7602 24.43 15.2898 24.9622 16.0577 24.9622C16.4284 24.9622 16.7992 24.8558 17.0905 24.6163L16.8257 24.217C16.6138 24.3767 16.349 24.4832 16.0842 24.4832C15.7399 24.4832 15.3957 24.3235 15.3163 23.8711H17.1964V23.6582C17.2229 22.8331 16.7462 22.3009 16.0312 22.3009ZM16.0312 22.7799C16.3755 22.7799 16.6138 22.9928 16.6668 23.392H15.3427C15.3957 23.046 15.634 22.7799 16.0312 22.7799ZM29.8276 23.6315V21.3428H29.2715V22.6735C29.0862 22.4339 28.8214 22.3009 28.4771 22.3009C27.7621 22.3009 27.206 22.8598 27.206 23.6315C27.206 24.4033 27.7621 24.9622 28.4771 24.9622C28.8478 24.9622 29.1126 24.8292 29.2715 24.5896V24.909H29.8276V23.6315ZM27.7886 23.6315C27.7886 23.1791 28.0799 22.8065 28.5565 22.8065C29.0067 22.8065 29.3245 23.1525 29.3245 23.6315C29.3245 24.084 29.0067 24.4566 28.5565 24.4566C28.0799 24.43 27.7886 24.084 27.7886 23.6315ZM9.19925 23.6315V22.3541H8.64315V22.6735C8.45779 22.4339 8.19298 22.3009 7.84874 22.3009C7.13376 22.3009 6.57767 22.8598 6.57767 23.6315C6.57767 24.4033 7.13376 24.9622 7.84874 24.9622C8.21946 24.9622 8.48427 24.8292 8.64315 24.5896V24.909H9.19925V23.6315ZM7.13376 23.6315C7.13376 23.1791 7.42505 22.8065 7.9017 22.8065C8.35187 22.8065 8.66963 23.1525 8.66963 23.6315C8.66963 24.084 8.35187 24.4566 7.9017 24.4566C7.42505 24.43 7.13376 24.084 7.13376 23.6315Z" fill="black"/>
<path d="M20.0562 2.95264H11.7148V18.016H20.0562V2.95264Z" fill="#FF5F00"/>
<path d="M12.2445 10.4842C12.2445 7.42366 13.6744 4.70907 15.8723 2.95257C14.257 1.67512 12.218 0.90332 9.99364 0.90332C4.724 0.90332 0.460632 5.18812 0.460632 10.4842C0.460632 15.7803 4.724 20.0651 9.99364 20.0651C12.218 20.0651 14.257 19.2933 15.8723 18.0159C13.6744 16.286 12.2445 13.5448 12.2445 10.4842Z" fill="#EB001B"/>
<path d="M31.3106 10.4842C31.3106 15.7803 27.0472 20.0651 21.7776 20.0651C19.5532 20.0651 17.5142 19.2933 15.8989 18.0159C18.1232 16.2594 19.5267 13.5448 19.5267 10.4842C19.5267 7.42366 18.0968 4.70907 15.8989 2.95257C17.5142 1.67512 19.5532 0.90332 21.7776 0.90332C27.0472 0.90332 31.3106 5.21473 31.3106 10.4842Z" fill="#F79E1B"/>
</svg>
