<svg width="20" height="24" viewBox="0 0 20 24" fill="none" xmlns="http://www.w3.org/2000/svg">
<path d="M7.83988 3.81823C7.83158 3.55631 7.88449 3.29579 7.99504 3.05419C8.10559 2.81258 8.27123 2.59549 8.48082 2.4175C8.88682 2.04791 9.43556 1.84053 10.0075 1.84053C10.5794 1.84053 11.1281 2.04791 11.5341 2.4175C11.7414 2.59653 11.9047 2.81409 12.0131 3.05564C12.1214 3.29719 12.1723 3.55718 12.1625 3.81823V4.2674L13.9288 2.64671C13.7404 2.06314 13.393 1.53325 12.9195 1.10705C12.5391 0.7562 12.087 0.477778 11.5889 0.287791C11.0909 0.0978043 10.5569 0 10.0176 0C9.47823 0 8.9442 0.0978043 8.44619 0.287791C7.94818 0.477778 7.49601 0.7562 7.11566 1.10705C6.73016 1.45342 6.42606 1.86856 6.22208 2.32688C6.01811 2.78519 5.91859 3.27698 5.92967 3.77193V10L7.86763 8.22187L7.83988 3.81823Z" fill="white"/>
<path d="M9.32872 16C10.5497 15.9911 11.7171 15.5993 12.5781 14.9094C13.4391 14.2195 13.9244 13.2871 13.9288 12.3141V12L8.92883 15.9842C9.05929 15.9932 9.19259 16 9.32872 16Z" fill="white"/>
<path d="M3.92879 11.9627V9.93272C3.93069 9.74828 3.87342 9.56753 3.76435 9.41374C3.65528 9.25996 3.49941 9.14018 3.3168 9.06983C3.13419 8.99948 2.93322 8.98178 2.73975 9.01902C2.54627 9.05625 2.36917 9.14671 2.23124 9.27875C2.135 9.36218 2.05844 9.46343 2.00644 9.57602C1.95444 9.68862 1.92814 9.8101 1.92922 9.93272V11.9627C1.92227 12.6494 2.00977 13.3341 2.18958 14L3.92879 12.3784C3.92879 12.2374 3.92879 12.1013 3.92879 11.9627Z" fill="white"/>
<path d="M17.0008 9C16.7533 9.00555 16.5175 9.10537 16.3425 9.27869C16.1675 9.45201 16.0667 9.68548 16.0611 9.93053V11.954C16.0673 12.7699 15.9006 13.5781 15.5716 14.3263C15.2777 15.0576 14.8297 15.7185 14.2576 16.2649C13.6829 16.8113 13.0151 17.2527 12.2852 17.5687C10.8542 18.1568 9.25112 18.1854 7.79966 17.6486L6.34608 19.088C7.16092 19.5168 8.05162 19.7858 8.96937 19.8805H9.01587V22.1147H5.86889C5.74563 22.1132 5.62341 22.1373 5.51006 22.1853C5.39672 22.2332 5.29473 22.3041 5.21062 22.3934C5.11844 22.4797 5.04572 22.5843 4.99722 22.7004C4.94872 22.8165 4.92555 22.9415 4.92921 23.067C4.93419 23.3125 5.03472 23.5466 5.20981 23.7204C5.3849 23.8943 5.62102 23.9944 5.86889 24H13.9933C14.2407 23.9944 14.4765 23.8946 14.6515 23.7213C14.8265 23.548 14.9274 23.3145 14.933 23.0695C14.9366 22.9439 14.9134 22.819 14.8649 22.7029C14.8164 22.5868 14.7437 22.4821 14.6515 22.3958C14.5674 22.3066 14.4654 22.2357 14.3521 22.1877C14.2387 22.1397 14.1165 22.1157 13.9933 22.1171H10.8463V19.8805H10.8928C11.8683 19.7781 12.8121 19.4778 13.6654 18.9984C14.5126 18.5498 15.2751 17.9595 15.9191 17.2536C16.5543 16.5418 17.052 15.7204 17.3874 14.8304C17.7573 13.9137 17.941 12.9338 17.9282 11.9467V9.93053C17.9214 9.68586 17.8202 9.45307 17.6455 9.27999C17.4707 9.10692 17.2356 9.00672 16.9885 9H17.0008Z" fill="white"/>
<path d="M17.2791 2.09592L0.711192 18.6638C0.318412 19.0566 0.318411 19.6934 0.711192 20.0862L0.71289 20.0879C1.10567 20.4807 1.74249 20.4807 2.13527 20.0879L18.7032 3.52C19.0959 3.12722 19.0959 2.4904 18.7032 2.09762L18.7015 2.09592C18.3087 1.70314 17.6719 1.70314 17.2791 2.09592Z" fill="white"/>
</svg>
