<svg width="68" height="68" viewBox="0 0 68 68" fill="none" xmlns="http://www.w3.org/2000/svg">
<rect opacity="0.3" width="68" height="68" rx="34" fill="white"/>
<path d="M31.911 25.8182C31.9027 25.5563 31.9557 25.2958 32.0662 25.0542C32.1768 24.8126 32.3424 24.5955 32.552 24.4175C32.958 24.0479 33.5067 23.8405 34.0786 23.8405C34.6506 23.8405 35.1993 24.0479 35.6053 24.4175C35.8126 24.5965 35.9759 24.8141 36.0842 25.0556C36.1926 25.2972 36.2435 25.5572 36.2336 25.8182V26.2674L38 24.6467C37.8116 24.0631 37.4642 23.5333 36.9906 23.1071C36.6103 22.7562 36.1581 22.4778 35.6601 22.2878C35.1621 22.0978 34.6281 22 34.0887 22C33.5494 22 33.0154 22.0978 32.5174 22.2878C32.0194 22.4778 31.5672 22.7562 31.1868 23.1071C30.8013 23.4534 30.4972 23.8686 30.2933 24.3269C30.0893 24.7852 29.9898 25.277 30.0008 25.7719V32L31.9388 30.2219L31.911 25.8182Z" fill="white"/>
<path d="M33.3999 38C34.6209 37.9911 35.7883 37.5993 36.6493 36.9094C37.5103 36.2195 37.9956 35.2871 38 34.3141V34L33 37.9842C33.1305 37.9932 33.2638 38 33.3999 38Z" fill="white"/>
<path d="M28 33.9627V31.9327C28.0019 31.7483 27.9446 31.5675 27.8355 31.4137C27.7264 31.26 27.5706 31.1402 27.388 31.0698C27.2054 30.9995 27.0044 30.9818 26.8109 31.019C26.6174 31.0563 26.4403 31.1467 26.3024 31.2787C26.2062 31.3622 26.1296 31.4634 26.0776 31.576C26.0256 31.6886 25.9993 31.8101 26.0004 31.9327V33.9627C25.9934 34.6494 26.0809 35.3341 26.2607 36L28 34.3784C28 34.2374 28 34.1013 28 33.9627Z" fill="white"/>
<path d="M41.0719 31C40.8245 31.0056 40.5887 31.1054 40.4137 31.2787C40.2386 31.452 40.1378 31.6855 40.1322 31.9305V33.954C40.1385 34.7699 39.9717 35.5781 39.6428 36.3263C39.3488 37.0576 38.9009 37.7185 38.3287 38.2649C37.7541 38.8113 37.0863 39.2527 36.3564 39.5687C34.9254 40.1568 33.3223 40.1854 31.8708 39.6486L30.4172 41.088C31.2321 41.5168 32.1228 41.7858 33.0405 41.8805H33.087V44.1147H29.9401C29.8168 44.1132 29.6946 44.1373 29.5812 44.1853C29.4679 44.2332 29.3659 44.3041 29.2818 44.3934C29.1896 44.4797 29.1169 44.5843 29.0684 44.7004C29.0199 44.8165 28.9967 44.9415 29.0004 45.067C29.0054 45.3125 29.1059 45.5466 29.281 45.7204C29.4561 45.8943 29.6922 45.9944 29.9401 46H38.0644C38.3119 45.9944 38.5477 45.8946 38.7227 45.7213C38.8977 45.548 38.9985 45.3145 39.0041 45.0695C39.0078 44.9439 38.9846 44.819 38.9361 44.7029C38.8876 44.5868 38.8149 44.4821 38.7227 44.3958C38.6386 44.3066 38.5366 44.2357 38.4233 44.1877C38.3099 44.1397 38.1877 44.1157 38.0644 44.1171H34.9175V41.8805H34.964C35.9395 41.7781 36.8833 41.4778 37.7365 40.9984C38.5837 40.5498 39.3462 39.9595 39.9903 39.2536C40.6255 38.5418 41.1232 37.7204 41.4586 36.8304C41.8284 35.9137 42.0122 34.9338 41.9994 33.9467V31.9305C41.9926 31.6859 41.8914 31.4531 41.7166 31.28C41.5419 31.1069 41.3068 31.0067 41.0597 31H41.0719Z" fill="white"/>
<path d="M41.3502 24.0959L24.7824 40.6638C24.3896 41.0566 24.3896 41.6934 24.7824 42.0862L24.7841 42.0879C25.1768 42.4807 25.8137 42.4807 26.2064 42.0879L42.7743 25.52C43.1671 25.1272 43.1671 24.4904 42.7743 24.0976L42.7726 24.0959C42.3799 23.7031 41.743 23.7031 41.3502 24.0959Z" fill="white"/>
</svg>
