<svg width="24" height="21" viewBox="0 0 24 21" fill="none" xmlns="http://www.w3.org/2000/svg">
<path d="M7.83205 5.39064C7.64658 5.66884 7.33435 5.83594 7 5.83594H3C2.44772 5.83594 2 6.28365 2 6.83594V17.8359C2 18.3882 2.44772 18.8359 3 18.8359H21C21.5523 18.8359 22 18.3882 22 17.8359V6.83594C22 6.28365 21.5523 5.83594 21 5.83594H17C16.6656 5.83594 16.3534 5.66884 16.168 5.39064L14.4648 2.83594H9.53518L7.83205 5.39064ZM21 3.83594C22.6569 3.83594 24 5.17908 24 6.83594V17.8359C24 19.4928 22.6569 20.8359 21 20.8359H3C1.34315 20.8359 0 19.4928 0 17.8359V6.83594C0 5.17908 1.34315 3.83594 3 3.83594H6.46482L8.16795 1.28124C8.35342 1.00304 8.66565 0.835938 9 0.835938H15C15.3344 0.835938 15.6466 1.00304 15.8321 1.28124L17.5352 3.83594H21ZM12 16.8359C9.23858 16.8359 7 14.5974 7 11.8359C7 9.07451 9.23858 6.83594 12 6.83594C14.7614 6.83594 17 9.07451 17 11.8359C17 14.5974 14.7614 16.8359 12 16.8359ZM12 14.8359C13.6569 14.8359 15 13.4928 15 11.8359C15 10.1791 13.6569 8.83594 12 8.83594C10.3431 8.83594 9 10.1791 9 11.8359C9 13.4928 10.3431 14.8359 12 14.8359Z" fill="#56BCB4"/>
</svg>
