<svg width="23" height="24" viewBox="0 0 23 24" fill="none" xmlns="http://www.w3.org/2000/svg">
<path d="M22.3158 16.2105C22.3158 17.7212 21.0875 18.9474 19.5748 18.9474H2.74101C1.22738 18.9474 0 17.7228 0 16.2105C0 14.7714 1.1136 13.5898 2.52632 13.4817V8.63126C2.52632 3.86313 6.39024 0 11.1579 0C15.9256 0 19.7895 3.86404 19.7895 8.63126V13.4818C21.2004 13.5899 22.3158 14.771 22.3158 16.2105ZM19.5781 15.5789C18.5312 15.5789 17.6842 14.7323 17.6842 13.6835V8.63126C17.6842 5.02672 14.7629 2.10526 11.1579 2.10526C7.55284 2.10526 4.63158 5.02593 4.63158 8.63126V13.6835C4.63158 14.7296 3.78278 15.5789 2.73772 15.5789C2.38914 15.5789 2.10526 15.8629 2.10526 16.2105C2.10526 16.559 2.38902 16.8421 2.74101 16.8421H19.5748C19.9256 16.8421 20.2105 16.5577 20.2105 16.2105C20.2105 15.8634 19.9255 15.5789 19.5781 15.5789ZM7.15789 20H9.26316C9.26316 21.0464 10.1115 21.8947 11.1579 21.8947C12.2043 21.8947 13.0526 21.0464 13.0526 20H15.1579C15.1579 22.2091 13.367 24 11.1579 24C8.94876 24 7.15789 22.2091 7.15789 20Z" fill="white"/>
</svg>
