<svg width="243" height="243" viewBox="0 0 243 243" fill="none" xmlns="http://www.w3.org/2000/svg">
<circle cx="121.5" cy="121.5" r="121.5" fill="#C5D9E4"/>
<mask id="mask0" mask-type="alpha" maskUnits="userSpaceOnUse" x="0" y="0" width="243" height="243">
<circle cx="121.5" cy="121.5" r="121.5" fill="white"/>
</mask>
<g mask="url(#mask0)">
<rect x="-11.5715" y="170.486" width="257.657" height="96.4286" fill="#527C92"/>
<circle cx="217.929" cy="92.1859" r="49.7571" fill="#D5E5EE" fill-opacity="0.7"/>
<circle cx="42.4286" cy="16.9713" r="102.6" fill="#D5E5EE"/>
<ellipse cx="92.1856" cy="197.486" rx="52.8429" ry="4.62857" fill="#38647A"/>
<ellipse cx="168.172" cy="183.986" rx="38.5714" ry="2.7" fill="#38647A"/>
</g>
<path fill-rule="evenodd" clip-rule="evenodd" d="M66.8335 109.854C66.8335 109.854 73.8793 108.718 73.9816 110.326C74.6276 120.476 83.233 127.864 86.1372 127.95C91.5651 128.111 94.6165 113.877 98.3002 120.886C100.197 124.495 105.601 137.81 108.8 142.668C124.515 166.526 139.096 179.296 140.847 182.243C144.477 188.353 132.576 196.475 113.896 189.065C95.2164 181.656 42.6643 142.807 42.6643 142.807C42.6643 142.807 42.9994 140.483 45.9046 137.817C48.8099 135.152 52.9412 133.379 52.9412 133.379C52.9412 133.379 53.309 130.68 55.6332 127.101C57.9574 123.522 66.8335 109.854 66.8335 109.854Z" fill="#EA589F"/>
<path fill-rule="evenodd" clip-rule="evenodd" d="M108.8 142.668C113.539 149.862 118.174 156.047 122.386 161.26C130.969 171.883 100.659 182.639 90.7212 176.345C82.3448 171.04 72.3963 164.276 60.8759 156.053C59.6654 155.189 49.6788 146.741 52.1557 144.83C55.8603 141.973 73.7529 145.229 81.9075 143.507C89.0129 142.007 95.7782 140.389 100.277 139.275C103.552 138.465 106.945 139.85 108.8 142.668Z" fill="#C14280"/>
<path fill-rule="evenodd" clip-rule="evenodd" d="M86.1372 127.95C91.5651 128.11 94.6165 113.877 98.3002 120.885C99.4722 123.115 101.983 129.05 104.485 134.406C106.033 137.719 97.9526 129.966 95.5211 129.969C84.9747 129.986 83.2331 127.864 86.1372 127.95Z" fill="#A0336D"/>
<path fill-rule="evenodd" clip-rule="evenodd" d="M62.7517 116.139C65.3517 112.136 73.6785 105.562 73.9817 110.326C74.2376 114.346 75.7425 117.934 77.6472 120.805C80.5508 125.183 73.1699 120.39 67.1864 120.79C59.651 121.294 53.3091 130.68 55.6333 127.101C56.8964 125.156 60.0947 120.231 62.7517 116.139Z" fill="#9F386F"/>
<path fill-rule="evenodd" clip-rule="evenodd" d="M115.958 154.799C116.822 154.294 117.931 154.62 118.385 155.511C118.803 156.332 118.508 157.337 117.713 157.802L114.324 159.781C113.461 160.286 112.351 159.96 111.897 159.069C111.479 158.248 111.774 157.243 112.57 156.778L115.958 154.799Z" fill="white"/>
<path fill-rule="evenodd" clip-rule="evenodd" d="M111.862 147.477C112.725 146.985 113.823 147.314 114.273 148.199C114.695 149.027 114.392 150.041 113.584 150.501L108.638 153.317C107.776 153.808 106.678 153.479 106.227 152.595C105.805 151.766 106.109 150.752 106.916 150.292L111.862 147.477Z" fill="white"/>
<path fill-rule="evenodd" clip-rule="evenodd" d="M107.114 140.685C107.977 140.193 109.075 140.522 109.526 141.407C109.948 142.235 109.644 143.249 108.836 143.709L103.891 146.525C103.028 147.016 101.93 146.687 101.479 145.803C101.057 144.974 101.361 143.96 102.169 143.5L107.114 140.685Z" fill="white"/>
<path fill-rule="evenodd" clip-rule="evenodd" d="M136.223 190.528C131.399 192.575 123.553 192.896 113.896 189.065C95.2165 181.656 42.6644 142.807 42.6644 142.807C42.6644 142.807 42.9994 140.483 45.9047 137.817C48.81 135.152 52.9413 133.379 52.9413 133.379C52.9413 133.379 64.9735 144.258 79.7697 157.3C87.8821 164.451 97.8098 177.574 122.344 187.457C128.757 190.041 140.731 188.615 136.223 190.528Z" fill="#651B50"/>
<path fill-rule="evenodd" clip-rule="evenodd" d="M121.663 54.6973C121.663 54.6973 128.445 52.473 128.797 54.0455C131.023 63.9687 140.678 69.9199 143.56 69.5506C148.947 68.8602 149.734 54.3245 154.468 60.6706C156.907 63.9385 164.327 76.2442 168.247 80.5417C187.5 101.648 203.899 111.98 206.09 114.617C210.631 120.084 200.147 129.967 180.538 125.571C160.929 121.175 102.947 91.0253 102.947 91.0253C102.947 91.0253 102.914 88.6773 105.367 85.5902C107.819 82.5032 111.622 80.1054 111.622 80.1054C111.622 80.1054 111.563 77.3825 113.299 73.4841C115.035 69.5856 121.663 54.6973 121.663 54.6973Z" fill="#EA589F"/>
<path fill-rule="evenodd" clip-rule="evenodd" d="M168.246 80.5413C174.052 86.9055 179.598 92.29 184.573 96.7794C194.712 105.929 166.458 121.294 155.658 116.632C146.555 112.703 135.671 107.578 123.006 101.259C121.675 100.595 110.49 93.8128 112.637 91.5384C115.849 88.1368 134.031 88.5537 141.816 85.5777C148.599 82.9846 155.028 80.3276 159.298 78.5242C162.405 77.2117 165.973 78.0491 168.246 80.5413Z" fill="#C14280"/>
<path fill-rule="evenodd" clip-rule="evenodd" d="M143.56 69.5504C148.946 68.8601 149.733 54.3243 154.468 60.6704C155.974 62.6895 159.383 68.1586 162.692 73.0574C164.739 76.0875 155.545 69.6931 153.144 70.0773C142.73 71.744 140.678 69.9198 143.56 69.5504Z" fill="#A0336D"/>
<path fill-rule="evenodd" clip-rule="evenodd" d="M118.615 61.5436C120.556 57.1825 127.752 49.387 128.797 54.045C129.679 57.9759 131.726 61.2835 134.057 63.8219C137.609 67.6913 129.57 64.1118 123.722 65.443C116.359 67.1196 111.563 77.382 113.299 73.4836C114.242 71.3649 116.63 66.0003 118.615 61.5436Z" fill="#9F386F"/>
<path fill-rule="evenodd" clip-rule="evenodd" d="M177.214 91.4033C177.988 90.7703 179.134 90.9183 179.722 91.7271C180.264 92.4727 180.13 93.5116 179.416 94.0952L176.379 96.5804C175.605 97.2134 174.458 97.0653 173.871 96.2566C173.329 95.5109 173.463 94.4721 174.176 93.8884L177.214 91.4033Z" fill="white"/>
<path fill-rule="evenodd" clip-rule="evenodd" d="M172.023 84.812C172.798 84.1919 173.934 84.3449 174.517 85.148C175.064 85.9001 174.923 86.949 174.197 87.5297L169.752 91.0845C168.977 91.7046 167.841 91.5515 167.258 90.7484C166.711 89.9963 166.852 88.9475 167.578 88.3668L172.023 84.812Z" fill="white"/>
<path fill-rule="evenodd" clip-rule="evenodd" d="M166.271 78.8461C167.046 78.2261 168.182 78.3791 168.766 79.1822C169.312 79.9343 169.171 80.9831 168.445 81.5638L164.001 85.1187C163.225 85.7387 162.089 85.5857 161.506 84.7826C160.959 84.0305 161.101 82.9817 161.827 82.401L166.271 78.8461Z" fill="white"/>
<path fill-rule="evenodd" clip-rule="evenodd" d="M202.819 123.523C198.374 126.3 190.675 127.843 180.537 125.571C160.929 121.175 102.946 91.025 102.946 91.025C102.946 91.025 102.914 88.677 105.366 85.5899C107.819 82.5028 111.622 80.1051 111.622 80.1051C111.622 80.1051 125.208 88.968 141.862 99.5354C150.993 105.329 162.852 116.738 188.63 122.661C195.368 124.21 206.971 120.928 202.819 123.523Z" fill="#651B50"/>
</svg>
