<svg width="244" height="244" viewBox="0 0 244 244" fill="none" xmlns="http://www.w3.org/2000/svg">
<circle cx="122" cy="122" r="122" fill="#44CD8E"/>
<mask id="mask0" mask-type="alpha" maskUnits="userSpaceOnUse" x="0" y="0" width="244" height="244">
<circle cx="122" cy="122" r="122" fill="white"/>
</mask>
<g mask="url(#mask0)">
<circle cx="61.5809" cy="29.0475" r="92.5651" fill="#8CFFC5" fill-opacity="0.3"/>
<circle cx="157.632" cy="102.247" r="19.7524" fill="#8CFFC5" fill-opacity="0.2"/>
<rect x="-11.6191" y="171.188" width="258.717" height="96.8254" fill="#56BCB4"/>
<ellipse cx="148.724" cy="196.749" rx="51.8984" ry="5.42222" fill="#56BCB4"/>
<path d="M89.854 96.9238H86.4459L86.8782 100.304L98.5677 191.708L98.855 193.954L101.094 194.293L101.543 191.327C101.094 194.293 101.094 194.293 101.095 194.293L101.096 194.293L101.098 194.294L101.105 194.295L101.131 194.299L101.226 194.313C101.308 194.325 101.428 194.342 101.583 194.364C101.893 194.408 102.344 194.47 102.915 194.544C104.058 194.692 105.684 194.889 107.635 195.086C111.526 195.479 116.749 195.876 122 195.876C127.252 195.876 132.474 195.479 136.365 195.086C138.316 194.889 139.943 194.692 141.085 194.544C141.656 194.47 142.107 194.408 142.417 194.364C142.572 194.342 142.692 194.325 142.774 194.313L142.869 194.299L142.895 194.295L142.902 194.294L142.905 194.293L142.905 194.293C142.906 194.293 142.906 194.293 142.457 191.327L142.906 194.293L145.145 193.954L145.432 191.708L157.122 100.304L157.554 96.9238H154.146H89.854Z" fill="#F1F5FA" stroke="#DFE7F3" stroke-width="6"/>
<path fill-rule="evenodd" clip-rule="evenodd" d="M149.897 133.149L142.457 191.327C142.457 191.327 132.228 192.876 122 192.876C111.772 192.876 101.543 191.327 101.543 191.327L94.0891 133.04L149.897 133.149Z" fill="#6BD1F1"/>
<path fill-rule="evenodd" clip-rule="evenodd" d="M122 99.5366L154.146 99.9239L142.457 191.327C142.457 191.327 137.342 191.714 132.228 192.102C127.114 192.489 122 192.876 122 192.876V99.5366Z" fill="#DFE7F3" fill-opacity="0.5"/>
<path fill-rule="evenodd" clip-rule="evenodd" d="M149.897 133.149L142.456 191.327C142.456 191.327 137.342 191.714 132.228 192.101C127.114 192.488 122 192.876 122 192.876L121.993 133.094L149.897 133.149Z" fill="#2AC1F0"/>
<ellipse cx="122" cy="133.232" rx="27.4984" ry="2.32381" fill="#9AE7FF"/>
<circle cx="103.797" cy="148.724" r="2.32381" fill="white" fill-opacity="0.33"/>
<circle cx="135.555" cy="168.863" r="2.32381" fill="white" fill-opacity="0.33"/>
<circle cx="113.092" cy="157.245" r="1.54921" fill="white" fill-opacity="0.33"/>
<circle cx="132.457" cy="149.498" r="1.54921" fill="white" fill-opacity="0.33"/>
<circle cx="125.486" cy="187.454" r="1.54921" fill="white" fill-opacity="0.33"/>
<circle cx="110.381" cy="176.222" r="1.1619" fill="white" fill-opacity="0.33"/>
</g>
</svg>
