<svg width="107" height="92" viewBox="0 0 107 92" fill="none" xmlns="http://www.w3.org/2000/svg">
<path d="M11.7341 11.4963C12.3084 11.4963 12.8831 11.5537 13.458 11.6686L28.9726 14.7717C29.0012 14.6279 29.0012 14.513 29.0012 14.3695C29.0012 6.43944 22.5654 0.00390626 14.6358 0.00390626C6.70624 0.00368478 0.270264 6.43944 0.270264 14.3695C0.270264 18.1905 1.76431 21.6672 4.23528 24.2531C3.22957 22.5004 2.91331 20.4318 3.31617 18.4206C4.12055 14.3983 7.65458 11.4963 11.7341 11.4963Z" fill="#56BCB4"/>
<path d="M105.365 82.6719L85.253 56.8135C83.1727 54.1397 79.2141 53.8261 76.7401 56.1934L60.8758 71.3968L38.9383 40.19C38.5756 39.6802 38.1645 39.1722 37.7298 38.6794L45.0093 29.4145C47.6566 26.048 45.8104 21.0686 41.6197 20.2297L12.8886 14.4836C9.76583 13.8482 6.74672 15.8795 6.1266 18.9912C5.5036 22.1029 7.52099 25.1304 10.6329 25.7518L30.1977 29.6659L27.5336 33.0564C21.809 32.1258 15.7507 34.0644 11.6548 38.7542C5.34658 45.9773 6.08828 56.9464 13.3114 63.2546L42.6369 88.8656C46.964 92.6448 54.006 93.9059 60.7077 87.4754L80.0929 68.8995L96.291 89.7282C98.2505 92.2455 101.87 92.6747 104.355 90.7355C106.861 88.7872 107.313 85.1774 105.365 82.6719Z" fill="#56BCB4"/>
</svg>
