<svg width="27" height="27" viewBox="0 0 27 27" fill="none" xmlns="http://www.w3.org/2000/svg">
<path d="M13.5 0C10.83 0 8.21987 0.791761 5.99981 2.27516C3.77974 3.75856 2.04942 5.86697 1.02763 8.33377C0.00584936 10.8006 -0.261496 13.515 0.259405 16.1337C0.780305 18.7525 2.06606 21.1579 3.95406 23.0459C5.84207 24.934 8.24754 26.2197 10.8663 26.7406C13.485 27.2615 16.1994 26.9942 18.6662 25.9724C21.133 24.9506 23.2414 23.2203 24.7248 21.0002C26.2082 18.7801 27 16.17 27 13.5C26.9947 9.9212 25.5707 6.4905 23.0401 3.9599C20.5095 1.42931 17.0788 0.00529018 13.5 0ZM13.5 25C11.2255 25 9.00211 24.3255 7.11095 23.0619C5.21978 21.7983 3.7458 20.0022 2.87539 17.9009C2.00498 15.7995 1.77725 13.4872 2.22098 11.2565C2.66471 9.02568 3.75997 6.97658 5.36828 5.36827C6.97658 3.75997 9.02569 2.6647 11.2565 2.22097C13.4872 1.77724 15.7995 2.00498 17.9009 2.87539C20.0022 3.74579 21.7983 5.21978 23.0619 7.11094C24.3255 9.00211 25 11.2255 25 13.5C24.9974 16.5492 23.7849 19.4727 21.6288 21.6288C19.4727 23.7849 16.5492 24.9974 13.5 25Z" fill="white"/>
<path d="M11.7199 7.78994C11.627 7.69621 11.5164 7.62182 11.3945 7.57105C11.2727 7.52028 11.142 7.49414 11.0099 7.49414C10.8779 7.49414 10.7472 7.52028 10.6254 7.57105C10.5035 7.62182 10.3929 7.69621 10.2999 7.78994C10.1137 7.9773 10.0092 8.23075 10.0092 8.49494C10.0092 8.75912 10.1137 9.01258 10.2999 9.19994L14.5799 13.4999L10.2999 17.7999C10.2062 17.8929 10.1318 18.0035 10.0811 18.1254C10.0303 18.2472 10.0042 18.3779 10.0042 18.5099C10.0042 18.642 10.0303 18.7727 10.0811 18.8945C10.1318 19.0164 10.2062 19.127 10.2999 19.2199C10.4878 19.401 10.739 19.5015 10.9999 19.4999C11.1316 19.5007 11.262 19.4755 11.3839 19.4257C11.5057 19.3759 11.6165 19.3026 11.7099 19.2099L16.7099 14.1599C16.8962 13.9726 17.0007 13.7191 17.0007 13.4549C17.0007 13.1908 16.8962 12.9373 16.7099 12.7499L11.7199 7.78994Z" fill="white"/>
</svg>
