<svg width="41" height="41" viewBox="0 0 41 41" fill="none" xmlns="http://www.w3.org/2000/svg">
<path d="M20.5 0C9.19263 0 0 9.19263 0 20.5C0 31.8074 9.19263 41 20.5 41C31.8074 41 41 31.8074 41 20.5C41 9.19263 31.8074 0 20.5 0ZM33.7495 31.4621L30.9442 28.6568C30.5989 29.7789 29.6063 30.5989 28.3979 30.7284L31.4189 33.7495C28.3116 36.2958 24.4274 37.72 20.4568 37.72C11.0053 37.72 3.28 29.9947 3.28 20.5C3.28 16.5295 4.70421 12.6453 7.25053 9.53789L12.2137 14.5011C12.5158 14.4579 12.7747 14.4147 13.0768 14.4147H16.7453L9.53789 7.25053C12.6453 4.70421 16.5295 3.28 20.5 3.28C29.9947 3.28 37.72 11.0053 37.72 20.5C37.72 24.4705 36.3389 28.3547 33.7495 31.4621Z" fill="#56BCB4"/>
<path d="M20.9307 16.2712C22.5707 17.307 23.5634 19.0765 23.5634 21.0186V21.8386C24.1244 22.1839 24.5128 22.8312 24.5128 23.5218V23.867C24.5128 24.5576 24.1676 25.1618 23.5634 25.507V26.4997C23.5634 27.2333 23.3044 27.9239 22.8728 28.4849H28.0086C28.4402 28.4849 28.7855 28.1828 28.8286 27.7512L29.9939 14.5449H20.8013L20.9307 16.2712Z" fill="#56BCB4"/>
<path d="M30.4686 11.7834H25.8939V9.58235C25.8939 9.3234 25.6781 9.06445 25.376 9.06445C25.117 9.06445 24.8581 9.28024 24.8581 9.58235V11.7834H20.3265C19.9381 11.7834 19.636 12.0855 19.636 12.4739V12.5171C19.636 12.9055 19.9381 13.2076 20.3265 13.2076H30.4686C30.857 13.2076 31.1591 12.9055 31.1591 12.5171V12.4739C31.1591 12.0855 30.857 11.7834 30.4686 11.7834Z" fill="#56BCB4"/>
<path d="M8.76001 26.4993C8.76001 27.6214 9.66633 28.4846 10.7884 28.4846H20.2832C20.8442 28.4846 21.3621 28.2688 21.7505 27.8372C22.0958 27.4488 22.3116 26.974 22.3116 26.4562V25.7656H8.76001V26.4993Z" fill="#56BCB4"/>
<path d="M23.2182 23.8657V23.5204C23.2182 23.1752 22.9161 22.873 22.5708 22.873H8.50137C8.15611 22.873 7.854 23.1752 7.854 23.5204V23.8657C7.854 24.2109 8.15611 24.513 8.50137 24.513H22.5708C22.9161 24.4699 23.2182 24.2109 23.2182 23.8657Z" fill="#56BCB4"/>
<path d="M22.2697 21.0189C22.2697 19.7673 21.7087 18.6021 20.8023 17.7821C20.0255 17.0915 19.0329 16.7031 17.9971 16.7031H13.0771C10.7034 16.7031 8.80444 18.6452 8.80444 20.9758V21.5368H22.3129V21.0189H22.2697ZM12.6023 20.4579C12.2571 20.4579 11.955 20.1558 11.955 19.8105C11.955 19.4652 12.2571 19.1631 12.6023 19.1631C12.9476 19.1631 13.2497 19.4652 13.2497 19.8105C13.2497 20.1989 12.9476 20.4579 12.6023 20.4579ZM14.0697 19.0768C13.7244 19.0768 13.4223 18.7747 13.4223 18.4294C13.4223 18.0842 13.7244 17.7821 14.0697 17.7821C14.415 17.7821 14.7171 18.0842 14.7171 18.4294C14.7171 18.7747 14.415 19.0768 14.0697 19.0768ZM15.5371 20.4579C15.1918 20.4579 14.8897 20.1558 14.8897 19.8105C14.8897 19.4652 15.1918 19.1631 15.5371 19.1631C15.8823 19.1631 16.1844 19.4652 16.1844 19.8105C16.1413 20.1989 15.8823 20.4579 15.5371 20.4579ZM17.0044 19.0768C16.6592 19.0768 16.3571 18.7747 16.3571 18.4294C16.3571 18.0842 16.6592 17.7821 17.0044 17.7821C17.3497 17.7821 17.6518 18.0842 17.6518 18.4294C17.6087 18.7747 17.3497 19.0768 17.0044 19.0768ZM18.4287 20.4579C18.0834 20.4579 17.7813 20.1558 17.7813 19.8105C17.7813 19.4652 18.0834 19.1631 18.4287 19.1631C18.7739 19.1631 19.076 19.4652 19.076 19.8105C19.076 20.1989 18.8171 20.4579 18.4287 20.4579Z" fill="#56BCB4"/>
</svg>
