<svg width="41" height="41" viewBox="0 0 41 41" fill="none" xmlns="http://www.w3.org/2000/svg">
<path d="M40.4397 34.0623C40.4233 34.0564 39.2912 33.6487 37.2758 32.2793C39.6206 28.9465 41 24.8852 41 20.5C41 9.17808 31.8215 0 20.4991 0C16.4815 0 12.7373 1.15984 9.57487 3.15746C8.55898 2.12016 7.27158 0.998578 6.10946 0.568078C5.07307 0.183133 2.14111 0.1271 1.83042 0.123C1.3694 0.0965778 0.4346 0.357156 0.187689 1.47099C-0.0318888 2.46228 0.342122 3.24948 1.14071 3.47726C1.558 3.59616 2.03269 3.64809 2.49234 3.6982C3.16611 3.772 3.8622 3.84808 4.24031 4.11549C4.49861 4.29862 5.07443 5.26349 5.51769 6.15592C5.40016 6.40056 5.289 6.64337 5.18286 6.88481C1.96162 10.506 0 15.272 0 20.5C0 31.8224 9.17762 41 20.4991 41C24.349 41 27.9479 39.9335 31.0247 38.0876C32.4925 37.7628 34.0295 37.2016 35.6987 36.4135C35.7137 36.4053 37.2713 35.624 40.2688 35.3889C40.5914 35.3639 40.8519 35.1156 40.8929 34.7949C40.9344 34.4746 40.7449 34.1685 40.4397 34.0623ZM11.89 8.55898C12.2271 9.1348 12.597 9.74524 13.0398 10.3807C12.8435 10.424 12.6508 10.4755 12.464 10.5466C12.2376 9.83453 12.0481 9.16806 11.89 8.55898ZM14.0147 11.6522C14.0525 11.6973 14.0871 11.7415 14.1259 11.7866L14.2675 11.665C14.4798 11.6864 14.6958 11.7269 14.914 11.7907C15.8802 12.0736 16.7562 12.7369 17.3808 13.6589C18.0045 14.5796 18.296 15.6392 18.2013 16.6419C18.1111 17.5958 17.6778 18.3808 16.9799 18.8536C16.8155 18.9652 16.6346 19.0504 16.4469 19.1219C14.8352 16.6219 13.699 14.0789 12.9032 11.8467C13.2476 11.7091 13.6225 11.6445 14.0147 11.6522ZM17.7316 20.9574C17.8646 20.6909 18.0327 20.4513 18.2391 20.2485C18.5999 19.895 19.0454 19.6682 19.5315 19.5547L17.9029 21.1833C17.845 21.1082 17.7881 21.033 17.7316 20.9574ZM22.6794 20.2718C22.9349 20.4485 23.1814 20.6508 23.4101 20.8845C24.1891 21.6781 24.6661 22.6675 24.7526 23.6711C24.8351 24.6255 24.5499 25.4756 23.9495 26.0646C23.7586 26.2514 23.5399 26.4031 23.303 26.5243C22.1919 25.6774 21.1041 24.7376 20.075 23.6893C19.9397 23.5513 19.8112 23.411 19.68 23.2711L22.6794 20.2718ZM25.2036 27.4418C26.1803 25.9421 28.5059 25.7193 30.3906 26.9447C32.1199 28.0713 32.8793 30.032 32.2342 31.509C30.0453 30.6361 27.5228 29.4166 25.0319 27.7561C25.0829 27.6477 25.1385 27.5424 25.2036 27.4418ZM33.7284 31.3158C34.3302 31.811 34.8933 32.2483 35.4167 32.6351C34.8363 32.4551 34.1967 32.2438 33.5098 31.995C33.6018 31.7736 33.6779 31.5477 33.7284 31.3158ZM35.0705 30.6461C34.65 30.3099 34.2068 29.9418 33.7435 29.541C33.476 28.1219 32.5649 26.7302 31.1359 25.7995C29.4713 24.7162 27.5197 24.5312 25.9863 25.1444C26.1147 24.6451 26.1621 24.1107 26.1138 23.5527C25.9999 22.2334 25.3858 20.9455 24.385 19.9265C24.1549 19.6914 23.9098 19.4832 23.6565 19.2932L33.9908 8.9585C36.6531 12.0668 38.2667 16.0975 38.2667 20.5C38.2667 24.2706 37.0818 27.7675 35.0705 30.6461ZM32.0602 7.02558L20.9287 18.1571C20.3337 18.0787 19.7442 18.1038 19.188 18.2363C19.3839 17.789 19.5114 17.297 19.5611 16.7704C19.6859 15.452 19.3133 14.0748 18.5115 12.8918C17.7093 11.7078 16.5676 10.8513 15.2971 10.4791C15.1021 10.4222 14.9081 10.3812 14.7154 10.3484C13.9313 9.34891 13.3765 8.39817 12.8394 7.4743C12.3806 6.68573 11.9433 5.9409 11.4071 5.24527C14.0694 3.65356 17.1781 2.73333 20.4991 2.73333C24.9116 2.73333 28.9501 4.35374 32.0602 7.02558ZM5.03024 3.00029C4.3624 2.52833 3.44764 2.42811 2.64086 2.33973C2.21901 2.29327 1.82086 2.24999 1.51654 2.17209C1.50333 2.15113 1.46598 2.0213 1.52247 1.76619C1.53887 1.69193 1.5826 1.49422 1.78897 1.48876C2.94881 1.50698 5.01794 1.62087 5.63431 1.85001C6.8183 2.2878 8.52891 3.91732 9.84866 5.48899C10.1197 7.39002 11.5278 15.2689 16.9248 22.1614L12.4253 26.6609C4.79245 18.4559 3.47908 13.3478 6.88937 6.46069C6.98184 6.27391 6.98412 6.05479 6.89574 5.86619C6.63927 5.32271 5.74866 3.51006 5.03024 3.00029ZM3.81573 14.4183C4.25944 18.4331 6.70441 22.5104 11.459 27.6267L7.02558 32.0602C4.35374 28.951 2.73333 24.9125 2.73333 20.5C2.73333 18.3634 3.1201 16.3171 3.81573 14.4183ZM8.95941 33.9922L13.3542 29.5974C17.7494 34.0455 21.2029 36.695 24.5303 37.8011C23.2347 38.1036 21.8858 38.2667 20.4991 38.2667C16.0971 38.2667 12.0663 36.6535 8.95941 33.9922ZM35.0933 35.1885C27.4705 38.7869 22.9614 37.3811 14.3199 28.6308L15.3495 27.6012C15.5349 27.8303 15.7413 28.054 15.9718 28.2663C16.8897 29.1127 17.9512 29.6097 18.8122 29.6097C18.9028 29.6097 18.9917 29.6038 19.0773 29.5929C19.4513 29.5441 19.7151 29.2011 19.6663 28.8266C19.6176 28.4522 19.2777 28.1875 18.9001 28.2376C18.4937 28.2918 17.6696 27.9729 16.8975 27.2609C16.6711 27.0523 16.482 26.8377 16.3226 26.6268L18.7124 24.2369C18.8413 24.3731 18.9671 24.5112 19.0996 24.6456C25.487 31.15 33.7726 33.7161 37.0485 34.5206C35.7875 34.8386 35.1229 35.173 35.0933 35.1885Z" fill="#56BCB4"/>
<path d="M27.6726 34.4021C27.4936 34.4832 26.9651 34.4686 26.3437 34.1762C25.7224 33.8837 25.3725 33.486 25.3228 33.2969C25.2272 32.9325 24.8536 32.7125 24.4883 32.8104C24.1234 32.9061 23.9056 33.2801 24.0017 33.645C24.1757 34.3065 24.8504 34.9839 25.7624 35.413C26.3187 35.6745 26.8899 35.8093 27.3915 35.8093C27.7118 35.8093 28.0042 35.7547 28.2457 35.6426C28.5883 35.4845 28.7377 35.0786 28.5791 34.736C28.4211 34.3921 28.0129 34.2422 27.6726 34.4021Z" fill="#56BCB4"/>
<path d="M10.0972 20.3784C10.1396 20.3866 10.1815 20.3898 10.2225 20.3898C10.5455 20.3898 10.8325 20.1602 10.8936 19.8309C10.9623 19.46 10.7173 19.1029 10.3464 19.0345C10.1487 18.9976 9.6918 18.6847 9.3064 17.9995C8.92054 17.3171 8.88957 16.7636 8.96063 16.575C9.0932 16.2219 8.91462 15.8274 8.56157 15.6944C8.20942 15.5614 7.814 15.74 7.68098 16.0935C7.42905 16.7631 7.59579 17.7512 8.11558 18.6706C8.63491 19.5944 9.39432 20.2481 10.0972 20.3784Z" fill="#56BCB4"/>
</svg>
