<svg width="41" height="40" viewBox="0 0 41 40" fill="none" xmlns="http://www.w3.org/2000/svg">
<path fill-rule="evenodd" clip-rule="evenodd" d="M8.12494 0H32.2164C38.1419 0 40.9484 4.86145 40.2315 10.3445L37.3236 32.4914C36.7434 36.9207 33.0562 40 28.6312 40H11.7102C7.28513 40 3.59797 36.9207 3.01772 32.4914L0.109835 10.3445C-0.607094 4.86205 2.19948 0 8.12494 0ZM20.1707 4.03003C27.7482 4.03003 32.0096 9.91653 32.0096 17.0678C29.2222 17.0678 26.4348 17.0678 23.6474 17.0678C23.6474 14.6983 23.0582 12.3922 20.1707 12.3922C17.3515 12.3922 16.6939 14.7084 16.6939 17.0678C13.9065 17.0678 11.1191 17.0678 8.33175 17.0678C8.33175 9.91593 12.5932 4.03003 20.1707 4.03003ZM23.8794 11.3126L25.0507 10.1413L25.8983 10.9889L24.7264 12.1608C25.3091 12.8766 25.7281 13.7326 25.9229 14.6701H29.5363C28.9687 10.1911 25.2797 6.72931 20.7701 6.44637V10.025C21.9426 10.1437 23.0144 10.6077 23.8794 11.3126ZM15.6167 12.1626L14.443 10.9889L15.2906 10.1413L16.4643 11.315C17.3299 10.6089 18.4005 10.1443 19.5712 10.025V6.44637C15.0617 6.72931 11.3727 10.1911 10.805 14.6701H14.4191C14.6145 13.7338 15.0329 12.8784 15.6167 12.1626ZM36.3376 21.6404H25.0465L22.9413 37.6022H17.4498L15.3446 21.6404H4.00379L2.48002 10.0352C1.95611 6.02497 3.65972 2.39776 8.12494 2.39776H32.2164C36.6816 2.39776 38.3852 6.02497 37.8613 10.0352L36.3376 21.6404Z" fill="#56BCB4"/>
</svg>
