<svg width="50" height="69" viewBox="0 0 50 69" fill="none" xmlns="http://www.w3.org/2000/svg">
<path d="M21.9382 20.1445C20.556 21.0947 19.6891 22.6706 19.6891 24.4261C19.6891 27.315 22.0398 29.6657 24.9144 29.6657C25.2764 29.6657 25.6323 29.6203 25.9846 29.5471L27.575 33.2529C27.0349 33.7255 26.5962 34.3071 26.3227 34.9931C25.8677 36.1333 25.8843 37.3827 26.369 38.5112C26.5999 39.047 27.122 39.3686 27.671 39.3686C27.8577 39.3686 28.0471 39.3312 28.2297 39.2531C28.9481 38.944 29.28 38.1115 28.9716 37.3924C28.7849 36.9595 28.7787 36.4797 28.9536 36.042C29.1279 35.6043 29.4625 35.2606 29.8961 35.0746C30.3289 34.8893 30.8095 34.8824 31.2465 35.0567C31.6842 35.2309 32.0278 35.5656 32.2138 35.9991C32.5229 36.7168 33.3554 37.0487 34.0745 36.741C34.7929 36.432 35.1248 35.5995 34.8164 34.8804C34.0131 33.0104 32.1062 31.9677 30.1793 32.1395L28.5047 28.2375C29.5393 27.255 30.154 25.8844 30.154 24.4261C30.154 21.5374 27.8033 19.2009 24.9144 19.2009C24.8156 19.2009 24.723 19.2179 24.6256 19.2231L20.5477 9.7344C20.2372 9.01598 19.404 8.68339 18.687 8.99247C17.9686 9.30155 17.6367 10.1341 17.9451 10.8532L21.9382 20.1445Z" fill="#56BCB4"/>
<path d="M32.3071 47.5825C36.0221 46.3946 39.3527 44.3412 42.0555 41.6532C42.0732 41.6372 42.0963 41.6318 42.1134 41.6147C42.1306 41.5976 42.1359 41.5744 42.152 41.5567C46.5267 37.1573 49.2361 31.1001 49.2361 24.4204C49.2361 17.7412 46.5271 11.6846 42.1529 7.28543C42.1364 7.26728 42.131 7.24368 42.1134 7.22614C42.0959 7.20859 42.0723 7.20315 42.0542 7.18673C37.655 2.81253 31.5984 0.103516 24.9192 0.103516C18.2417 0.103516 12.1866 2.81123 7.78763 7.18336C7.76818 7.20082 7.74294 7.20669 7.72419 7.22545C7.70552 7.24412 7.69964 7.26927 7.68218 7.28872C3.30971 11.6876 0.601562 17.7428 0.601562 24.4204C0.601562 31.0985 3.31006 37.1542 7.68305 41.5534C7.70016 41.5724 7.70586 41.5971 7.72419 41.6154C7.74251 41.6337 7.76714 41.6394 7.78616 41.6565C10.489 44.3432 13.8192 46.3962 17.5335 47.5834C17.6577 51.0717 20.1807 53.9418 23.5031 54.5856V58.9777C23.5031 59.7597 24.1371 60.3938 24.9192 60.3938C26.2564 60.3938 27.3441 61.4814 27.3441 62.8187C27.3441 64.156 26.2564 65.2436 24.9192 65.2436C23.5819 65.2436 22.4942 64.156 22.4942 62.8187C22.4942 62.0367 21.8602 61.4026 21.0782 61.4026C20.2961 61.4026 19.6621 62.0367 19.6621 62.8187C19.6621 65.7173 22.0206 68.0758 24.9192 68.0758C27.8177 68.0758 30.1763 65.7173 30.1763 62.8187C30.1763 60.4104 28.5486 58.3748 26.3353 57.7552V54.5849C29.6639 53.9382 32.1834 51.0685 32.3071 47.5825ZM11.6731 37.6665C11.1199 37.1134 10.2238 37.1134 9.67062 37.6665L8.7802 38.5569C5.75554 35.1082 3.82458 30.694 3.50548 25.8365H4.77031C5.55234 25.8365 6.1864 25.2024 6.1864 24.4204C6.1864 23.6384 5.55234 23.0043 4.77031 23.0043H3.50548C3.82458 18.1469 5.75572 13.7329 8.78046 10.2842L9.67062 11.1743C9.9472 11.4509 10.3095 11.5892 10.6718 11.5892C11.0342 11.5892 11.3965 11.4509 11.6731 11.1743C12.2262 10.6212 12.2262 9.72504 11.6731 9.17188L10.783 8.28181C14.2317 5.25741 18.6457 3.32645 23.5031 3.00743V4.27227C23.5031 5.0543 24.1371 5.68835 24.9192 5.68835C25.7012 5.68835 26.3353 5.0543 26.3353 4.27227V3.00743C31.1925 3.32654 35.6066 5.2575 39.0551 8.28207L38.1646 9.17257C37.6114 9.72573 37.6114 10.6218 38.1646 11.175C38.4412 11.4516 38.8035 11.5899 39.1658 11.5899C39.5281 11.5899 39.8904 11.4516 40.167 11.175L41.0575 10.2845C44.0821 13.733 46.0131 18.1471 46.3322 23.0043H45.0673C44.2853 23.0043 43.6512 23.6384 43.6512 24.4204C43.6512 25.2024 44.2853 25.8365 45.0673 25.8365H46.3322C46.0131 30.6939 44.0821 35.1081 41.0576 38.5568L40.167 37.6665C39.6139 37.1134 38.7164 37.1134 38.1646 37.6665C37.6114 38.2197 37.6114 39.1165 38.1646 39.669L39.0552 40.5593C35.6066 43.584 31.1926 45.515 26.3353 45.8341V44.5693C26.3353 43.7872 25.7012 43.1532 24.9192 43.1532C24.1371 43.1532 23.5031 43.7872 23.5031 44.5693V45.8341C18.6456 45.515 14.2313 43.584 10.7826 40.5594L11.6731 39.669C12.2262 39.1158 12.2262 38.2197 11.6731 37.6665Z" fill="#56BCB4"/>
<path d="M38.5168 44.9948C34.0194 49.2624 21.6517 48.5511 16.0301 47.6621C16.0301 49.8848 15.749 54.3303 14.6246 54.3303C13.2192 54.3303 14.6246 59.6647 14.6246 60.9983C14.6246 62.0652 15.5616 65.8882 16.0301 67.6664C17.9039 68.1109 21.9328 69 23.0572 69C24.1815 69 30.0843 68.1109 32.8951 67.6664L38.5168 56.9973C40.3907 51.2184 43.0141 40.7273 38.5168 44.9948Z" fill="#DDF2F0"/>
</svg>
