<svg width="44" height="44" viewBox="0 0 44 44" fill="none" xmlns="http://www.w3.org/2000/svg">
<path d="M18.4304 1C13.8139 1 9.63797 1.66229 6.52765 2.79977C4.97249 3.36852 3.67258 4.05765 2.69889 4.89954C1.76745 5.70491 1.07607 6.76144 1.0168 8.03041C1.00806 8.08614 1.00271 8.14254 1.00078 8.19916V16.5044C0.99974 16.5356 0.99974 16.5669 1.00078 16.5982V24.9034C0.999739 24.9346 0.999739 24.9659 1.00078 24.9972V33.3962C1.00078 34.7432 1.72521 35.8539 2.69889 36.6958C3.67258 37.5376 4.97249 38.2079 6.52765 38.7767C9.63797 39.9142 13.8139 40.5952 18.4304 40.5952C21.5077 40.5952 24.253 40.5371 26.8249 39.9767C27.0914 39.9156 27.3264 39.7335 27.4785 39.4702C27.6307 39.2069 27.6876 38.8839 27.6367 38.5717C27.5859 38.2594 27.4315 37.9835 27.2074 37.8041C26.9832 37.6248 26.7074 37.5565 26.4404 37.6144C24.1036 38.1238 21.483 38.1956 18.4304 38.1956C13.9871 38.1956 9.96331 37.5234 7.13641 36.4895C5.72296 35.9726 4.61895 35.3584 3.93243 34.7648C3.2459 34.1712 3.05133 33.7057 3.05133 33.3962V28.5967C3.97832 29.3071 5.15228 29.8747 6.52765 30.3778C9.63797 31.5152 13.8139 32.1963 18.4304 32.1963C23.047 32.1963 27.2229 31.5152 30.3332 30.3778C31.8884 29.809 33.1883 29.1386 34.162 28.2968C35.086 27.4978 35.7752 26.4588 35.8441 25.2034C35.8442 25.191 35.8442 25.1786 35.8441 25.1662C35.8452 25.1416 35.8595 25.1164 35.8601 25.0912C35.8612 25.0599 35.8612 25.0287 35.8601 24.9975C35.8616 24.96 35.8616 24.9224 35.8601 24.885V8.19945C35.8601 8.16081 35.8613 8.12519 35.8601 8.08695C35.8563 8.04918 35.8509 8.01166 35.8441 7.97449C35.7668 6.73097 35.0795 5.69313 34.162 4.89983C33.1883 4.05794 31.8884 3.36885 30.3332 2.8001C27.2229 1.66232 23.047 1 18.4304 1ZM18.4304 3.39973C22.8738 3.39973 26.8976 4.05317 29.7245 5.087C31.1379 5.60392 32.258 6.23696 32.9445 6.83056C33.631 7.42416 33.8096 7.88959 33.8096 8.19916C33.8096 8.50873 33.631 8.97415 32.9445 9.56775C32.258 10.1613 31.1379 10.7756 29.7245 11.2925C26.8976 12.3264 22.8738 12.9986 18.4304 12.9986C13.9871 12.9986 9.96331 12.3264 7.13641 11.2925C5.72296 10.7756 4.61895 10.1613 3.93243 9.56775C3.2459 8.97415 3.05133 8.50873 3.05133 8.19916C3.05133 7.88959 3.2459 7.42416 3.93243 6.83056C4.61895 6.23696 5.72296 5.60392 7.13641 5.087C9.96331 4.05317 13.9871 3.39973 18.4304 3.39973ZM3.05133 11.7987C3.97832 12.509 5.15228 13.0768 6.52765 13.5798C9.63797 14.7172 13.8139 15.3983 18.4304 15.3983C23.047 15.3983 27.2229 14.7172 30.3332 13.5798C31.7086 13.0768 32.8826 12.509 33.8096 11.7987V16.5982C33.8096 16.9077 33.631 17.3731 32.9445 17.9667C32.258 18.5603 31.1379 19.1746 29.7245 19.6915C26.8976 20.7254 22.8738 21.3976 18.4304 21.3976C13.9871 21.3976 9.96331 20.7254 7.13641 19.6915C5.72296 19.1746 4.61895 18.5603 3.93243 17.9667C3.2459 17.3731 3.05133 16.9077 3.05133 16.5982C3.05283 16.5607 3.05283 16.5231 3.05133 16.4857V11.7987ZM3.05133 20.1977C3.97832 20.908 5.15228 21.4757 6.52765 21.9788C9.63797 23.1162 13.8139 23.7973 18.4304 23.7973C23.047 23.7973 27.2229 23.1162 30.3332 21.9788C31.7086 21.4757 32.8826 20.908 33.8096 20.1977V24.9222V24.9972C33.8096 25.3067 33.631 25.7722 32.9445 26.3658C32.258 26.9594 31.1379 27.5736 29.7245 28.0905C26.8976 29.1244 22.8738 29.7966 18.4304 29.7966C13.9871 29.7966 9.96331 29.1244 7.13641 28.0905C5.72296 27.5736 4.61895 26.9594 3.93243 26.3658C3.2459 25.7722 3.05133 25.3067 3.05133 24.9972C3.05283 24.9597 3.05283 24.9221 3.05133 24.8847V20.1977ZM33.7295 29.7966C32.8841 29.8697 31.8227 30.0897 30.958 31.0339C29.3564 32.7829 29.3383 35.7573 30.958 37.502C30.958 37.502 32.1105 38.7707 33.2809 40.0516C33.8661 40.6921 34.4515 41.3446 34.8989 41.8327C35.1226 42.0767 35.3072 42.2848 35.4436 42.4326C35.5118 42.5065 35.5785 42.5571 35.6198 42.6013C35.6405 42.6235 35.6522 42.6409 35.6679 42.6577C35.6836 42.6739 35.638 42.6517 35.748 42.7515C35.9271 42.9126 36.1468 43 36.3727 43C36.5987 43 36.8184 42.9126 36.9975 42.7515C37.1075 42.6539 37.0619 42.6742 37.0776 42.6577C37.0933 42.6415 37.105 42.6235 37.1257 42.6013C37.167 42.5569 37.2337 42.5065 37.3019 42.4326C37.4383 42.2848 37.6229 42.0767 37.8466 41.8327C38.294 41.3446 38.8794 40.6921 39.4646 40.0516C40.6267 38.7798 41.7712 37.5385 41.7875 37.5206C41.7932 37.5146 41.7978 37.508 41.8035 37.502C43.4161 35.7563 43.3868 32.7805 41.7875 31.034C40.9228 30.0899 39.8614 29.8698 39.016 29.7967C38.3078 29.7355 37.6516 29.9248 37.0776 30.0967C36.6887 30.2131 36.5488 30.2742 36.3727 30.3404C36.1967 30.2742 36.0568 30.2131 35.6679 30.0967C35.0939 29.9248 34.4377 29.7354 33.7295 29.7966ZM33.8897 32.1963C34.0504 32.1825 34.6649 32.2745 35.1552 32.4213C35.6456 32.5681 36.0363 32.7212 36.0363 32.7212C36.2542 32.8098 36.4913 32.8098 36.7092 32.7212C36.7092 32.7212 37.0999 32.5681 37.5903 32.4213C38.0806 32.2745 38.6951 32.1824 38.8558 32.1963C39.5355 32.2551 40.0419 32.3932 40.3937 32.7775C41.2218 33.6817 41.2379 34.854 40.4098 35.7396C40.4044 35.7457 40.399 35.7519 40.3937 35.7582C40.3937 35.7582 39.2404 37.028 38.0709 38.308C37.4861 38.9479 36.8986 39.584 36.4528 40.0703C36.4191 40.1069 36.4048 40.129 36.3727 40.164C36.3407 40.1292 36.3264 40.107 36.2926 40.0703C35.8469 39.584 35.2594 38.9479 34.6746 38.308C33.5051 37.028 32.3517 35.7582 32.3517 35.7582C32.3465 35.7519 32.3411 35.7457 32.3357 35.7396C31.5076 34.854 31.5237 33.6817 32.3517 32.7775C32.7036 32.3932 33.21 32.2551 33.8897 32.1963Z" fill="#56BCB4" stroke="#56BCB4"/>
</svg>
