<svg width="47" height="31" viewBox="0 0 47 31" fill="none" xmlns="http://www.w3.org/2000/svg">
<path d="M39.8418 15.0049C42.6978 11.936 44.6875 8.21487 45.6207 4.19681L46.2469 1.21106L40.0241 0.0152338L39.4058 3.00098C39.2948 3.50369 36.5917 15.7666 23.4881 15.7666C10.5193 15.7666 7.69725 3.57985 7.57042 2.97813L6.9521 0L0.729297 1.19582L1.35554 4.18157C2.28622 8.20504 4.27599 11.9317 7.13442 15.0049L0 21.86L4.46298 26.171L12.0175 18.9123C14.5538 20.3733 17.3816 21.3049 20.3173 21.6467V31H26.659V21.6467C29.5946 21.3049 32.4225 20.3733 34.9587 18.9123L42.5132 26.171L47 21.86L39.8418 15.0049Z" fill="#56BCB4"/>
</svg>
