<svg width="47" height="40" viewBox="0 0 47 40" fill="none" xmlns="http://www.w3.org/2000/svg">
<path d="M5.29609 4.99699C5.54579 4.99699 5.79568 5.02193 6.04567 5.07191L12.7915 6.42113C12.8039 6.35864 12.8039 6.30866 12.8039 6.24626C12.8039 2.79822 10.0056 2.48533e-09 6.55778 2.48533e-09C3.10994 -9.62953e-05 0.311523 2.79822 0.311523 6.24626C0.311523 7.90768 0.961148 9.41937 2.03554 10.5437C1.59825 9.78164 1.46074 8.88222 1.63591 8.00774C1.98566 6.25878 3.52228 4.99699 5.29609 4.99699Z" fill="#56BCB4"/>
<path d="M46.0076 35.9436L37.2627 24.7001C36.3582 23.5375 34.637 23.4012 33.5612 24.4305L26.6633 31.0411L17.1247 17.4721C16.967 17.2504 16.7883 17.0295 16.5992 16.8153L19.7645 12.7869C20.9155 11.323 20.1128 9.15797 18.2906 8.79319L5.7981 6.29475C4.4403 6.01847 3.12757 6.90171 2.85794 8.25469C2.58705 9.60768 3.46423 10.9241 4.81731 11.1943L13.3243 12.8961L12.1659 14.3704C9.67678 13.9657 7.04256 14.8086 5.26163 16.8478C2.51878 19.9885 2.84128 24.7579 5.98194 27.5008L18.7329 38.6366C20.6144 40.2799 23.6763 40.8282 26.5902 38.0322L35.0191 29.9552L42.0621 39.0117C42.9142 40.1062 44.4878 40.2929 45.5683 39.4497C46.6579 38.6026 46.8545 37.033 46.0076 35.9436Z" fill="#56BCB4"/>
</svg>
