<svg width="12" height="18" viewBox="0 0 12 18" fill="none" xmlns="http://www.w3.org/2000/svg">
<path d="M4.98013 0C3.66112 0 2.46799 0.283839 1.57933 0.77133C1.135 1.01508 0.763595 1.31042 0.485398 1.67123C0.21927 2.01639 0.0217353 2.46919 0.00480043 3.01303C0.00230415 3.03692 0.000775051 3.06109 0.000223749 3.08535V6.64475C-7.43539e-05 6.65813 -7.43539e-05 6.67154 0.000223749 6.68493V10.2443C-7.4583e-05 10.2577 -7.4583e-05 10.2711 0.000223749 10.2845V13.8841C0.000223749 14.4614 0.207202 14.9374 0.485398 15.2982C0.763594 15.659 1.135 15.9463 1.57933 16.19C2.46799 16.6775 3.66112 16.9694 4.98013 16.9694C5.85934 16.9694 6.64371 16.9445 7.37854 16.7043C7.45468 16.6781 7.52183 16.6001 7.5653 16.4872C7.60876 16.3744 7.62501 16.2359 7.6105 16.1021C7.59598 15.9683 7.55187 15.8501 7.48782 15.7732C7.42377 15.6963 7.34498 15.6671 7.26869 15.6919C6.60104 15.9102 5.85227 15.941 4.98013 15.941C3.71059 15.941 2.56094 15.6529 1.75326 15.2098C1.34942 14.9883 1.03399 14.725 0.837836 14.4706C0.641685 14.2162 0.586094 14.0167 0.586094 13.8841V11.8272C0.850949 12.1316 1.18636 12.3749 1.57933 12.5905C2.46799 13.078 3.66112 13.3698 4.98013 13.3698C6.29913 13.3698 7.49226 13.078 8.38092 12.5905C8.82526 12.3467 9.19666 12.0594 9.47486 11.6986C9.73887 11.3562 9.93576 10.9109 9.95545 10.3729C9.9555 10.3676 9.9555 10.3622 9.95545 10.3569C9.95577 10.3464 9.95985 10.3356 9.96003 10.3248C9.96033 10.3114 9.96033 10.298 9.96003 10.2846C9.96046 10.2686 9.96046 10.2525 9.96003 10.2364V3.08548C9.96003 3.06892 9.96037 3.05365 9.96003 3.03726C9.95894 3.02108 9.95741 3.005 9.95545 2.98907C9.93336 2.45613 9.73699 2.01134 9.47486 1.67136C9.19666 1.31055 8.82526 1.01522 8.38092 0.771472C7.49226 0.283852 6.29913 0 4.98013 0ZM4.98013 1.02846C6.24966 1.02846 7.39931 1.3085 8.207 1.75157C8.61084 1.97311 8.93084 2.24441 9.127 2.49881C9.32315 2.75321 9.37416 2.95268 9.37416 3.08535C9.37416 3.21803 9.32315 3.41749 9.127 3.67189C8.93084 3.92629 8.61084 4.18955 8.207 4.41108C7.39931 4.85415 6.24966 5.14225 4.98013 5.14225C3.71059 5.14225 2.56094 4.85415 1.75326 4.41108C1.34942 4.18955 1.03399 3.92629 0.837836 3.67189C0.641686 3.41749 0.586094 3.21803 0.586094 3.08535C0.586094 2.95268 0.641686 2.75321 0.837836 2.49881C1.03399 2.24441 1.34942 1.97311 1.75326 1.75157C2.56094 1.3085 3.71059 1.02846 4.98013 1.02846ZM0.586094 4.62801C0.850949 4.93244 1.18636 5.17575 1.57933 5.39132C2.46799 5.87882 3.66112 6.17069 4.98013 6.17069C6.29913 6.17069 7.49226 5.87882 8.38092 5.39132C8.77389 5.17575 9.1093 4.93244 9.37416 4.62801V6.68493C9.37416 6.81759 9.32315 7.01705 9.127 7.27145C8.93084 7.52585 8.61084 7.78912 8.207 8.01065C7.39931 8.45373 6.24966 8.74182 4.98013 8.74182C3.71059 8.74182 2.56094 8.45373 1.75326 8.01065C1.34942 7.78912 1.03399 7.52585 0.837836 7.27145C0.641685 7.01705 0.586094 6.81759 0.586094 6.68493C0.586524 6.66886 0.586524 6.65277 0.586094 6.63671V4.62801ZM0.586094 8.2276C0.850949 8.53201 1.18636 8.77531 1.57933 8.9909C2.46799 9.47838 3.66112 9.77026 4.98013 9.77026C6.29913 9.77026 7.49226 9.47838 8.38092 8.9909C8.77389 8.77531 9.1093 8.53201 9.37416 8.2276V10.2524V10.2845C9.37416 10.4172 9.32315 10.6167 9.127 10.871C8.93084 11.1255 8.61084 11.3887 8.207 11.6102C7.39931 12.0533 6.24966 12.3414 4.98013 12.3414C3.71059 12.3414 2.56094 12.0533 1.75326 11.6102C1.34942 11.3887 1.03399 11.1255 0.837836 10.871C0.641685 10.6167 0.586094 10.4172 0.586094 10.2845C0.586524 10.2684 0.586524 10.2523 0.586094 10.2363V8.2276ZM9.35127 12.3414C9.10974 12.3727 8.80648 12.467 8.55943 12.8717C8.10182 13.6212 8.09666 14.896 8.55943 15.6437C8.55943 15.6437 8.88871 16.1875 9.22311 16.7364C9.39032 17.0109 9.55757 17.2906 9.6854 17.4997C9.74932 17.6043 9.80206 17.6935 9.84103 17.7568C9.86051 17.7885 9.87956 17.8102 9.89137 17.8291C9.89728 17.8387 9.90062 17.8461 9.90511 17.8533C9.90959 17.8603 9.89656 17.8507 9.92799 17.8935C9.97918 17.9626 10.0419 18 10.1065 18C10.1711 18 10.2338 17.9626 10.285 17.8935C10.3164 17.8517 10.3034 17.8604 10.3079 17.8533C10.3124 17.8464 10.3157 17.8387 10.3216 17.8291C10.3334 17.8101 10.3525 17.7885 10.372 17.7568C10.4109 17.6935 10.4637 17.6043 10.5276 17.4997C10.6554 17.2906 10.8227 17.0109 10.9899 16.7364C11.3219 16.1913 11.6489 15.6593 11.6536 15.6517C11.6552 15.6491 11.6565 15.6463 11.6581 15.6437C12.1189 14.8955 12.1105 13.6202 11.6536 12.8717C11.4065 12.4671 11.1033 12.3728 10.8617 12.3415C10.6594 12.3152 10.4719 12.3964 10.3079 12.47C10.1968 12.5199 10.1568 12.5461 10.1065 12.5744C10.0562 12.5461 10.0162 12.5199 9.90511 12.47C9.74111 12.3964 9.55362 12.3152 9.35127 12.3414ZM9.39705 13.3698C9.44297 13.3639 9.61853 13.4033 9.75864 13.4663C9.89874 13.5292 10.0104 13.5948 10.0104 13.5948C10.0726 13.6328 10.1404 13.6328 10.2026 13.5948C10.2026 13.5948 10.3143 13.5292 10.4544 13.4663C10.5945 13.4033 10.77 13.3639 10.816 13.3698C11.0101 13.395 11.1548 13.4542 11.2554 13.6189C11.4919 14.0064 11.4965 14.5089 11.2599 14.8884C11.2584 14.891 11.2569 14.8937 11.2554 14.8964C11.2554 14.8964 10.9258 15.4406 10.5917 15.9891C10.4246 16.2634 10.2567 16.536 10.1294 16.7444C10.1197 16.7601 10.1157 16.7696 10.1065 16.7846C10.0973 16.7697 10.0933 16.7602 10.0836 16.7444C9.95625 16.536 9.7884 16.2634 9.62132 15.9891C9.28716 15.4406 8.95764 14.8964 8.95764 14.8964C8.95613 14.8937 8.95461 14.891 8.95306 14.8884C8.71646 14.5089 8.72105 14.0064 8.95764 13.6189C9.05817 13.4542 9.20285 13.395 9.39705 13.3698Z" fill="#56BCB4"/>
</svg>
