<svg width="20" height="22" viewBox="0 0 20 22" fill="none" xmlns="http://www.w3.org/2000/svg">
<path d="M17.0016 0C15.5326 0 14.3403 1.19225 14.3403 2.66129C14.3403 4.13033 15.5326 5.32969 17.0016 5.32969C18.4778 5.32969 19.67 4.13032 19.67 2.66129C19.67 1.19225 18.4778 0 17.0016 0Z" fill="#56BCB4"/>
<path d="M18.3671 7.95417C18.0061 7.83637 17.6235 7.86684 17.2867 8.03733L15.9914 8.69225L15.2145 5.62554C15.0239 4.87636 14.4778 4.26509 13.7542 3.99134L10.0672 2.59902C9.39151 2.34332 8.63889 2.44724 8.05604 2.87349L5.3594 4.85209C4.72874 5.31508 4.59218 6.20494 5.05584 6.83769C5.51879 7.4649 6.40658 7.6007 7.03934 7.14125L9.42549 5.39058L11.5511 6.19383L8.78163 10.3729C8.46214 10.8525 8.46563 11.4866 8.77957 11.9364L11.5809 16.1889L10.0866 20.07C9.80733 20.797 10.1698 21.6182 10.8767 21.8941C11.043 21.9647 11.2218 22.0001 11.409 22.0001C11.9967 22.0001 12.5289 21.6321 12.7306 21.0922L14.3634 16.8681C14.6102 16.225 14.5304 15.5001 14.152 14.931L11.6633 11.1567L13.127 8.94522L13.4569 10.2474C13.617 10.8774 14.0474 11.393 14.6365 11.6612C15.2179 11.9274 15.9048 11.9156 16.4807 11.6252L18.5674 10.5711C19.2653 10.2176 19.5467 9.36243 19.1939 8.66387C19.0221 8.32428 18.7282 8.07269 18.3671 7.95417Z" fill="#56BCB4"/>
<path d="M8.83933 12.7537C8.54482 12.5139 8.17332 12.4058 7.79842 12.4426C7.42137 12.4814 7.08178 12.665 6.84268 12.9589L5.20848 14.9659H2.27483C1.49239 14.9659 0.855469 15.6029 0.855469 16.3853C0.855469 17.1677 1.49239 17.8047 2.27483 17.8047H5.546C6.18914 17.8047 6.79142 17.5184 7.19752 17.0194L9.04451 14.7504C9.28361 14.4565 9.39448 14.0871 9.35568 13.7095C9.31687 13.3324 9.13389 12.9928 8.83933 12.7537Z" fill="#56BCB4"/>
</svg>
