<svg width="85" height="85" viewBox="0 0 85 85" fill="none" xmlns="http://www.w3.org/2000/svg">
<rect width="85" height="85" rx="42.5" fill="#56BBB3"/>
<path d="M45.6102 24.69C46.0858 22.2236 48.4886 20.6081 50.9719 21.0827C53.4571 21.5578 55.0836 23.9389 54.6055 26.4067C54.1288 28.8711 51.729 30.487 49.2443 30.0129C46.759 29.5378 45.132 27.1553 45.6102 24.69ZM34.4409 53.6829L26.2772 54.3721C24.8971 54.4994 23.8814 55.7151 24.0112 57.086C24.1399 58.4584 25.3647 59.4655 26.7463 59.3368L35.7778 58.5762C35.9165 58.5632 36.0498 58.5313 36.179 58.4988C37.0191 58.4469 37.8145 57.9873 38.2429 57.1958L41.5648 51.0743L37.3077 48.4023L34.4409 53.6829ZM59.8661 36.1299C59.4508 35.0055 58.1943 34.4291 57.0626 34.8424L52.0262 36.6589L49.8949 33.9925C49.9205 32.4953 49.0889 31.045 47.6389 30.3528C46.565 29.8413 45.3764 29.8527 44.3583 30.2804L38.3892 29.2214C38.1962 29.188 38.0066 29.189 37.8211 29.205C37.3062 29.16 36.7753 29.2868 36.3283 29.6162L30.7942 33.6741C29.8263 34.3872 29.6257 35.7472 30.3442 36.7083C31.0642 37.669 32.4318 37.8682 33.4021 37.155L38.2474 33.6017L41.3516 34.1541L37.5808 41.7429C37.4254 42.0628 37.176 42.8139 37.1408 42.8658C36.357 44.0036 36.6521 45.5552 37.7985 46.3312L38.2605 46.6436L42.4311 49.4763L48.7807 53.7877L52.2715 63.3886C52.7628 64.6782 54.2123 65.3265 55.5105 64.8364C56.8071 64.3468 57.4603 62.908 56.9665 61.6185L53.3068 51.5449C53.1489 51.1352 52.8885 50.7983 52.5742 50.5358C52.4013 50.2833 52.1841 50.0552 51.9151 49.8731L44.8223 45.0591L48.0195 38.6247L49.3293 40.2627C49.4374 40.3964 49.56 40.5092 49.6898 40.6115C50.2659 41.2832 51.2172 41.5682 52.1021 41.2483L58.5664 38.9127C59.7002 38.499 60.2809 37.2543 59.8661 36.1299Z" fill="#F7F7F7"/>
</svg>
