<svg width="36" height="36" viewBox="0 0 36 36" fill="none" xmlns="http://www.w3.org/2000/svg">
<rect opacity="0.07" width="36" height="36" rx="18" fill="#019B81"/>
<path d="M27.3605 16.8323C27.2176 15.9304 26.8615 15.0756 26.3219 14.339C25.7823 13.6024 25.0747 13.0052 24.2579 12.5971C23.2929 12.1086 22.2061 11.9134 21.1315 12.0353C20.0569 12.1573 19.0415 12.5912 18.2105 13.2835C17.3728 12.6045 16.3585 12.1792 15.2871 12.0575C14.2156 11.9359 13.1318 12.1231 12.1632 12.5971C11.3544 12.9987 10.6527 13.5868 10.1159 14.313C9.57914 15.0391 9.22263 15.8824 9.07581 16.7734C8.92899 17.6644 8.99606 18.5775 9.27149 19.4375C9.54692 20.2974 10.0228 21.0796 10.6599 21.7195L17.7094 28.7759C17.808 28.8785 17.9389 28.944 18.0801 28.9612C18.1279 28.9679 18.1764 28.9679 18.2243 28.9612C18.3151 28.9609 18.4049 28.9425 18.4886 28.9071C18.5722 28.8718 18.648 28.8202 18.7116 28.7553L25.7611 21.7195C26.3931 21.088 26.8672 20.3163 27.1451 19.4671C27.423 18.618 27.4968 17.7153 27.3605 16.8323Z" fill="#EF0073"/>
</svg>
