<svg width="22" height="19" viewBox="0 0 22 19" fill="none" xmlns="http://www.w3.org/2000/svg">
<path d="M12.0507 18.4513L21.8778 1.34578C22.1288 0.920796 21.9854 0.354152 21.5191 0.106246C21.3756 0.0354153 21.2322 0 21.0529 0H1.14769C0.537978 0 0 0.495813 0 1.13329C0 1.34578 0.035865 1.52285 0.143461 1.69993C0.215191 1.80618 0.286921 1.91242 0.394517 1.98325L8.06967 8.39341L9.93466 18.0972C10.0423 18.6992 10.652 19.0888 11.2617 18.9826C11.5845 18.9471 11.8714 18.7347 12.0507 18.4513ZM9.03803 6.72889L3.12027 1.80618H17.6098L9.03803 6.72889ZM9.97052 8.32258L18.5782 3.36445L11.4051 15.8306L9.97052 8.32258Z" fill="#fff"/>
</svg>
