<svg width="309" height="235" viewBox="0 0 309 235" fill="none" xmlns="http://www.w3.org/2000/svg">
<g clip-path="url(#clip0)">
<path d="M205.857 78.6913C205.857 78.6913 204.998 77.866 203.597 77.8325C202.195 77.8056 201.725 76.7187 200.927 75.8464C199.083 73.8134 197.44 73.1558 197.031 74.2898C196.622 75.4237 199.425 78.8456 200.639 80.4761C201.853 82.1133 197.225 92.1778 197.225 92.1778C197.225 92.1778 204.972 95.432 205.515 95.0294C206.058 94.6268 211.497 85.0253 212.376 81.2074C213.254 77.3896 213.228 73.9878 212.738 73.6993C212.248 73.4108 205.347 71.4918 204.066 71.6394C202.785 71.787 201.712 76.7992 201.712 76.7992" fill="white"/>
<path d="M205.857 78.6913C205.857 78.6913 204.998 77.866 203.597 77.8325C202.195 77.8056 201.725 76.7187 200.927 75.8464C199.083 73.8134 197.44 73.1558 197.031 74.2898C196.622 75.4237 199.425 78.8456 200.639 80.4761C201.853 82.1133 197.225 92.1778 197.225 92.1778C197.225 92.1778 204.972 95.432 205.515 95.0294C206.058 94.6268 211.497 85.0253 212.376 81.2074C213.254 77.3896 213.228 73.9878 212.738 73.6993C212.248 73.4108 205.347 71.4918 204.066 71.6394C202.785 71.787 201.712 76.7992 201.712 76.7992" stroke="#263238" stroke-miterlimit="10"/>
<path d="M205.273 72.7601C205.273 72.7601 204.965 65.99 203.637 65.4868C202.309 64.9835 202.101 68.2377 202.021 70.1165C201.94 71.9952 202.128 74.6589 202.094 75.2695" fill="white"/>
<path d="M205.273 72.7601C205.273 72.7601 204.965 65.99 203.637 65.4868C202.309 64.9835 202.101 68.2377 202.021 70.1165C201.94 71.9952 202.128 74.6589 202.094 75.2695" stroke="#263238" stroke-miterlimit="10"/>
<path d="M193.101 53.3825L223.737 55.3954L228.573 14.8487L193.161 13.2451L193.101 53.3825Z" fill="#EAEAEA"/>
<path d="M219.8 49.947C218.989 55.6637 217.701 61.4407 215.199 66.6743C213.744 69.7138 211.43 74.1153 207.775 74.8534C203.57 75.6988 201.283 70.5256 200.243 67.3385C198.486 61.9574 198.184 56.1602 198.312 50.5375C198.325 49.8866 197.319 49.8866 197.306 50.5375C197.158 56.9788 197.514 63.9367 200.149 69.9218C201.37 72.6794 203.523 75.9806 206.93 75.9605C210.424 75.9336 212.999 72.5654 214.629 69.8748C218.204 63.9837 219.814 56.9654 220.773 50.2221C220.86 49.578 219.894 49.3029 219.8 49.947Z" fill="#E0E0E0"/>
<path d="M203.268 45.854L234.045 62.4068L258.183 22.6854L222.261 4.30762L203.268 45.854Z" fill="#006350"/>
<path d="M232.55 55.0127C229.277 60.1524 225.548 65.0639 221.007 69.1635C218.003 71.8742 213.59 75.4773 209.237 75.1955C204.194 74.8734 203.644 68.8951 203.892 64.9632C204.328 58.1328 206.963 51.4633 209.914 45.3709C210.196 44.7872 209.331 44.2773 209.042 44.861C205.843 51.47 202.926 58.8104 202.825 66.2649C202.778 69.9284 203.61 74.6923 207.641 75.9336C211.698 77.1883 216.178 74.283 219.217 71.9547C224.984 67.533 229.532 61.6084 233.415 55.516C233.77 54.9725 232.898 54.4693 232.55 55.0127Z" fill="#263238"/>
<path d="M209.928 52.094L229.391 71.8607L257.002 47.3972L234.059 25.0405L209.928 52.094Z" fill="#019B81"/>
<path d="M238.237 42.6133C238.237 42.6133 239.94 56.9653 234.796 57.3679C229.679 57.7705 231.738 49.6115 231.738 49.6115C231.738 49.6115 225.246 52.0203 223.824 48.1823C222.396 44.3511 238.237 42.6133 238.237 42.6133Z" fill="#F0F0F0"/>
<path d="M229.9 65.8422C226.205 68.9689 222.221 71.834 217.808 73.867C214.877 75.2156 210.028 77.2353 206.923 75.323C203.623 73.2967 205.24 68.5127 206.46 65.7281C208.499 61.0783 211.732 57.0391 215.166 53.3488C215.608 52.8724 214.897 52.1612 214.455 52.6375C210.565 56.8177 206.769 61.5547 204.857 67.0097C203.898 69.754 203.221 73.5718 205.743 75.7189C208.298 77.8928 212.382 76.94 215.226 75.9805C220.954 74.0414 226.031 70.4182 230.611 66.5467C231.108 66.1374 230.397 65.4262 229.9 65.8422Z" fill="#4D5A64"/>
<path d="M210.203 71.3571C210.203 71.3571 210.283 71.2364 210.437 71.1156C210.733 70.8875 211.303 70.6526 212.114 71.2498C213.348 72.1623 212.771 75.0206 211.906 76.5974C211.041 78.1809 209.458 77.8789 209.304 76.1076C209.157 74.3362 210.203 71.3571 210.203 71.3571Z" fill="white" stroke="#263238" stroke-miterlimit="10"/>
<path d="M208.258 70.3039C208.258 70.3039 207.433 70.4381 207.004 73.6386C206.574 76.8391 207.909 76.9331 208.372 76.8391C208.841 76.7452 209.398 76.4634 209.767 75.3563C210.129 74.2559 210.833 71.0554 209.901 70.4113C208.962 69.7671 208.258 70.3039 208.258 70.3039Z" fill="white" stroke="#263238" stroke-miterlimit="10"/>
<path d="M207.352 70.1362C207.352 70.1362 206.474 68.8949 205.146 69.7202C203.818 70.5455 203.831 75.2557 204.549 76.0944C205.267 76.9331 206.447 76.3225 206.722 75.7723C207.004 75.2288 208.016 71.3506 207.352 70.1362Z" fill="white" stroke="#263238" stroke-miterlimit="10"/>
<path d="M166.086 106.161L183.121 110.072L196.494 89.6348L207.795 94.0162L204.495 122.277C204.495 122.277 199.767 137.025 190.458 136.019C181.156 135.012 166.086 106.161 166.086 106.161Z" fill="#D880A6"/>
<g opacity="0.5">
<path opacity="0.5" d="M166.086 106.161L183.121 110.072L196.494 89.6348L207.795 94.0162L204.495 122.277C204.495 122.277 199.767 137.025 190.458 136.019C181.156 135.012 166.086 106.161 166.086 106.161Z" fill="white"/>
</g>
<path d="M166.086 106.161L183.121 110.079" stroke="#263238" stroke-miterlimit="10"/>
<path d="M194.254 93.1103L207.319 97.7735C207.668 94.8213 207.795 92.7949 207.795 92.7949L196.97 88.9033L194.254 93.1103Z" fill="#D880A6" stroke="#263238" stroke-miterlimit="10"/>
<path d="M198.184 89.2725L196.011 93.7411" stroke="#263238" stroke-miterlimit="10"/>
<path d="M200.243 90.0845L198.453 94.6068" stroke="#263238" stroke-miterlimit="10"/>
<path d="M202.497 90.8896L200.907 95.4858" stroke="#263238" stroke-miterlimit="10"/>
<path d="M204.583 91.688L203.335 96.3512" stroke="#263238" stroke-miterlimit="10"/>
<path d="M206.179 92.2178L205.22 97.0219" stroke="#263238" stroke-miterlimit="10"/>
<path d="M181.116 113.146L196.97 88.9102L207.795 92.7951" stroke="#263238" stroke-miterlimit="10"/>
<path d="M197.514 99.4241C198.343 99.4241 199.016 98.7362 199.016 97.8876C199.016 97.039 198.343 96.3511 197.514 96.3511C196.684 96.3511 196.011 97.039 196.011 97.8876C196.011 98.7362 196.684 99.4241 197.514 99.4241Z" fill="#263238"/>
<path d="M203.201 104.517C203.201 105.369 202.53 106.053 201.699 106.053C200.867 106.053 200.196 105.362 200.196 104.517C200.196 103.664 200.867 102.98 201.699 102.98C202.53 102.973 203.201 103.664 203.201 104.517Z" fill="#263238"/>
<path d="M202.007 120.352C202.837 120.352 203.51 119.664 203.51 118.815C203.51 117.967 202.837 117.279 202.007 117.279C201.178 117.279 200.505 117.967 200.505 118.815C200.505 119.664 201.178 120.352 202.007 120.352Z" fill="#263238"/>
<path d="M188.439 114.246C188.439 115.098 187.769 115.783 186.937 115.783C186.106 115.783 185.435 115.091 185.435 114.246C185.435 113.394 186.106 112.709 186.937 112.709C187.769 112.709 188.439 113.401 188.439 114.246Z" fill="#263238"/>
<path d="M193.979 123.224C193.979 124.076 193.309 124.76 192.477 124.76C191.645 124.76 190.975 124.069 190.975 123.224C190.975 122.371 191.645 121.687 192.477 121.687C193.309 121.68 193.979 122.371 193.979 123.224Z" fill="#263238"/>
<path d="M177.025 114.011C177.854 114.011 178.527 113.323 178.527 112.475C178.527 111.626 177.854 110.938 177.025 110.938C176.195 110.938 175.522 111.626 175.522 112.475C175.522 113.323 176.195 114.011 177.025 114.011Z" fill="#263238"/>
<path d="M191.451 106.308C192.28 106.308 192.953 105.62 192.953 104.772C192.953 103.923 192.28 103.235 191.451 103.235C190.621 103.235 189.948 103.923 189.948 104.772C189.948 105.62 190.621 106.308 191.451 106.308Z" fill="#263238"/>
<path d="M197.46 112.018C197.225 112.837 196.387 113.313 195.589 113.078C194.791 112.85 194.335 111.998 194.576 111.18C194.818 110.361 195.649 109.885 196.447 110.12C197.239 110.354 197.695 111.2 197.46 112.018Z" fill="#263238"/>
<path d="M273.374 104.202L286.224 100.538L290.087 109.428L276.788 114.011L273.374 104.202Z" fill="white" stroke="#D880A6" stroke-miterlimit="10"/>
<path d="M273.897 105.718L287.116 102.276" stroke="#D880A6" stroke-miterlimit="10"/>
<path d="M274.682 107.959L287.901 104.517" stroke="#D880A6" stroke-miterlimit="10"/>
<path d="M275.178 110.133L288.538 106.248" stroke="#D880A6" stroke-miterlimit="10"/>
<path d="M275.949 112.032L289.416 108.12" stroke="#D880A6" stroke-miterlimit="10"/>
<path d="M296.834 76.9736L306.29 108.455L287.465 113.347L284.017 98.2836L291.153 95.64L296.834 76.9736Z" fill="white" stroke="#263238" stroke-miterlimit="10"/>
<path d="M291.75 88.5679L296.646 89.212" stroke="#263238" stroke-miterlimit="10"/>
<path d="M291.039 91.9429L295.935 92.5803" stroke="#263238" stroke-miterlimit="10"/>
<path d="M291.053 94.3248C291.053 94.3248 285.325 87.2058 283.427 89.2321C280.376 92.4863 291.053 94.3248 291.053 94.3248Z" stroke="#263238" stroke-miterlimit="10"/>
<path d="M282.696 94.8614L291.261 94.499" stroke="#263238" stroke-miterlimit="10"/>
<path d="M292.924 98.8741C295.03 98.2703 297.223 99.4914 297.827 101.598C298.43 103.705 297.21 105.899 295.104 106.503C292.998 107.107 290.805 105.886 290.201 103.779C289.597 101.665 290.818 99.4713 292.924 98.8741Z" fill="#D880A6"/>
<path d="M272.321 94.3247L280.858 119.392L229.009 132.255L201.779 164.488L179.969 145.593C179.969 145.593 201.927 117.346 208.694 114.011C215.461 110.676 272.321 94.3247 272.321 94.3247Z" fill="#019B81"/>
<path d="M272.321 94.3247L280.865 119.392L229.015 132.261L201.786 164.488L179.969 145.593" stroke="#263238" stroke-miterlimit="10"/>
<path d="M265.882 96.1899L273.897 121.123" stroke="#263238" stroke-miterlimit="10"/>
<path d="M160.653 105.141C150.674 108.482 145.282 135.314 163.725 167.266L195.964 142.413C186.36 120.231 170.278 101.92 160.653 105.141Z" fill="#D880A6"/>
<g opacity="0.5">
<path opacity="0.5" d="M160.653 105.141C150.674 108.482 145.282 135.314 163.725 167.266L195.964 142.413C186.36 120.231 170.278 101.92 160.653 105.141Z" fill="white"/>
</g>
<path d="M195.917 142.171C186.307 119.989 170.278 101.927 160.653 105.147" stroke="#263238" stroke-miterlimit="10"/>
<path d="M170.955 113.648C171.785 113.648 172.457 112.96 172.457 112.112C172.457 111.263 171.785 110.575 170.955 110.575C170.125 110.575 169.453 111.263 169.453 112.112C169.453 112.96 170.125 113.648 170.955 113.648Z" fill="#263238"/>
<path d="M174.013 120.358C174.013 121.21 173.343 121.894 172.511 121.894C171.679 121.894 171.009 121.203 171.009 120.358C171.009 119.506 171.679 118.821 172.511 118.821C173.343 118.815 174.013 119.506 174.013 120.358Z" fill="#263238"/>
<path d="M182.652 123.304C182.652 124.156 181.981 124.84 181.149 124.84C180.318 124.84 179.647 124.149 179.647 123.304C179.647 122.452 180.318 121.767 181.149 121.767C181.981 121.76 182.652 122.452 182.652 123.304Z" fill="#263238"/>
<path d="M169.741 127.101C169.741 127.953 169.07 128.638 168.239 128.638C167.407 128.638 166.736 127.946 166.736 127.101C166.736 126.249 167.407 125.565 168.239 125.565C169.064 125.558 169.741 126.249 169.741 127.101Z" fill="#263238"/>
<path d="M181.417 131.791C181.417 132.644 180.747 133.328 179.915 133.328C179.084 133.328 178.413 132.637 178.413 131.791C178.413 130.939 179.084 130.255 179.915 130.255C180.747 130.255 181.417 130.946 181.417 131.791Z" fill="#263238"/>
<path d="M163.692 134.066C163.692 134.918 163.021 135.602 162.189 135.602C161.358 135.602 160.687 134.911 160.687 134.066C160.687 133.214 161.358 132.529 162.189 132.529C163.021 132.529 163.692 133.214 163.692 134.066Z" fill="#263238"/>
<path d="M170.499 141.467C170.499 142.319 169.828 143.003 168.997 143.003C168.165 143.003 167.494 142.312 167.494 141.467C167.494 140.615 168.165 139.93 168.997 139.93C169.828 139.93 170.499 140.615 170.499 141.467Z" fill="#263238"/>
<path d="M160.405 142.171C160.405 143.023 159.735 143.708 158.903 143.708C158.071 143.708 157.401 143.017 157.401 142.171C157.401 141.319 158.071 140.635 158.903 140.635C159.735 140.628 160.405 141.319 160.405 142.171Z" fill="#263238"/>
<path d="M166.763 149.27C166.763 150.122 166.093 150.806 165.261 150.806C164.429 150.806 163.759 150.115 163.759 149.27C163.759 148.418 164.429 147.733 165.261 147.733C166.093 147.733 166.763 148.418 166.763 149.27Z" fill="#263238"/>
<path d="M176.897 152.632C177.727 152.632 178.399 151.944 178.399 151.095C178.399 150.247 177.727 149.559 176.897 149.559C176.067 149.559 175.395 150.247 175.395 151.095C175.395 151.944 176.067 152.632 176.897 152.632Z" fill="#263238"/>
<path d="M180.841 143.708C180.841 144.56 180.17 145.244 179.338 145.244C178.507 145.244 177.836 144.553 177.836 143.708C177.836 142.856 178.507 142.171 179.338 142.171C180.17 142.171 180.841 142.856 180.841 143.708Z" fill="#263238"/>
<path d="M189.332 135.609C189.332 136.461 188.661 137.145 187.829 137.145C186.998 137.145 186.327 136.454 186.327 135.609C186.327 134.757 186.998 134.072 187.829 134.072C188.661 134.066 189.332 134.757 189.332 135.609Z" fill="#263238"/>
<path d="M190.458 144.519C190.458 145.372 189.788 146.056 188.956 146.056C188.124 146.056 187.454 145.365 187.454 144.519C187.454 143.667 188.124 142.983 188.956 142.983C189.788 142.983 190.458 143.667 190.458 144.519Z" fill="#263238"/>
<path d="M10.8448 200.694L19.5837 190.75L30.2475 198.728L20.5495 209.436L10.8448 200.694Z" fill="white" stroke="#263238" stroke-miterlimit="10"/>
<path d="M32.7692 235L0 209.108L9.75832 196.453L25.1168 207.692L23.42 211.986L32.7692 235Z" fill="#4D5A64"/>
<path d="M29.4895 219.004C27.6385 219.97 25.7807 220.937 23.9296 221.91C23.6412 222.057 23.8961 222.493 24.1845 222.346C26.0355 221.379 27.8933 220.413 29.7444 219.44C30.0261 219.286 29.7779 218.85 29.4895 219.004Z" fill="#263238"/>
<path d="M27.7726 214.972C25.9215 215.938 24.0638 216.904 22.2127 217.877C21.9243 218.025 22.1792 218.461 22.4676 218.313C24.3186 217.347 26.1764 216.381 28.0275 215.408C28.3158 215.254 28.061 214.824 27.7726 214.972Z" fill="#263238"/>
<path d="M26.0824 212.959C28.1213 213.55 39.3283 216.549 38.0339 211.423C36.9943 207.303 28.2018 211.476 26.0221 212.496C25.727 212.63 25.9818 213.066 26.2769 212.932C28.356 211.959 35.767 208.376 37.3967 211.121C39.3752 214.449 32.5477 213.764 31.1796 213.556C29.5096 213.301 27.8396 212.939 26.2166 212.469C25.9081 212.382 25.7739 212.865 26.0824 212.959Z" fill="#4D5A64"/>
<path d="M34.3385 205.854C31.4545 208.061 28.5639 210.269 25.68 212.469C25.4252 212.664 25.6733 213.1 25.9349 212.905C28.8188 210.698 31.7094 208.491 34.5933 206.29C34.8482 206.088 34.6 205.652 34.3385 205.854Z" fill="#4D5A64"/>
<path d="M13.5745 190.783L30.348 203.022C30.348 203.022 68.2881 168.514 83.7606 106.785L45.0358 106.583C45.0358 106.583 44.1706 132.201 13.5745 190.783Z" fill="#263238"/>
<path d="M83.7606 106.785C68.2881 168.52 30.348 203.022 30.348 203.022L13.5745 190.783" stroke="#4D5A64" stroke-miterlimit="10"/>
<path d="M97.8783 199.982C97.8783 199.982 102.808 211.1 105.906 223.05L118.937 218.716C118.937 218.716 112.445 194.729 112.016 193.635C111.587 192.541 97.8783 199.982 97.8783 199.982Z" fill="white" stroke="#263238" stroke-miterlimit="10"/>
<path d="M147.025 222.01L107.08 234.182L101.527 216.676L118.984 211.503L122.794 216.569L147.025 222.01Z" fill="#4D5A64"/>
<path d="M132.015 215.603C131.754 217.676 131.492 219.756 131.231 221.829C131.191 222.151 131.694 222.145 131.734 221.829C131.995 219.756 132.257 217.676 132.518 215.603C132.559 215.281 132.056 215.287 132.015 215.603Z" fill="#263238"/>
<path d="M127.723 214.717C127.462 216.79 127.2 218.87 126.939 220.944C126.898 221.266 127.401 221.259 127.442 220.944C127.703 218.87 127.965 216.79 128.226 214.717C128.266 214.395 127.763 214.402 127.723 214.717Z" fill="#263238"/>
<path d="M125.128 214.918C126.771 213.576 135.684 205.954 130.574 204.203C126.677 202.868 125.101 212.342 124.705 214.677C124.652 214.992 125.134 215.126 125.188 214.811C125.436 213.335 125.792 211.872 126.208 210.436C126.67 208.86 127.71 204.632 129.883 204.585C131.606 204.545 131.754 206.323 131.204 207.497C130.641 208.712 129.715 209.765 128.816 210.745C127.562 212.114 126.194 213.389 124.759 214.563C124.524 214.771 124.88 215.126 125.128 214.918Z" fill="#4D5A64"/>
<path d="M123.981 204.123C124.149 207.753 124.316 211.382 124.477 215.012C124.491 215.334 124.994 215.334 124.98 215.012C124.813 211.382 124.645 207.753 124.484 204.123C124.464 203.794 123.961 203.794 123.981 204.123Z" fill="#4D5A64"/>
<path d="M97.0667 206.92L118.294 201.445C118.294 201.445 103.398 137.556 85.2427 101.82L46.7594 110.911C46.7594 110.905 77.0404 152.854 97.0667 206.92Z" fill="#263238"/>
<path d="M46.7594 110.905C46.7594 110.905 77.0404 152.854 97.0667 206.92L118.294 201.445" stroke="#4D5A64" stroke-miterlimit="10"/>
<path d="M116.114 49.1285L110.366 63.3865L103.123 61.1052L105.692 51.6312L108.026 44.4854L115.068 44.9684L116.114 49.1285Z" fill="white" stroke="#263238" stroke-miterlimit="10"/>
<path d="M117.992 39.8292C117.992 39.8292 122.163 37.2594 123.069 37.8163C123.974 38.3665 123.411 39.4132 122.19 40.413C120.97 41.4127 119.078 42.4259 119.078 42.4259L117.992 39.8292Z" fill="white" stroke="#263238" stroke-miterlimit="10"/>
<path d="M115.799 50.4907L108.931 48.1087C108.106 47.8202 107.67 46.9211 107.952 46.0891L113.492 30.1268C113.78 29.3015 114.679 28.8653 115.51 29.1472L122.378 31.5358C123.203 31.8243 123.639 32.7234 123.357 33.5554L117.817 49.5178C117.529 50.3431 116.63 50.7792 115.799 50.4907Z" fill="#263238"/>
<path d="M122.339 34.125L113.944 31.209L108.933 45.6484L117.328 48.5644L122.339 34.125Z" fill="white"/>
<path d="M120.941 35.1716L114.453 32.918L113.217 36.4803L119.705 38.7339L120.941 35.1716Z" fill="#F0F0F0"/>
<path d="M118.547 41.9362L112.059 39.6826L110.823 43.2449L117.311 45.4985L118.547 41.9362Z" fill="#F0F0F0"/>
<path d="M119.559 39.0856L113.109 36.8452L112.9 37.4474L119.35 39.6878L119.559 39.0856Z" fill="#E0E0E0"/>
<path d="M117.113 45.9927L112.653 44.4434L112.444 45.0455L116.904 46.5949L117.113 45.9927Z" fill="#E0E0E0"/>
<path d="M119.161 40.2131L115.632 38.9873L115.423 39.5895L118.952 40.8153L119.161 40.2131Z" fill="#E0E0E0"/>
<path d="M120.037 32.1198C119.997 32.2406 119.863 32.3077 119.736 32.2674C119.615 32.2271 119.548 32.093 119.588 31.9655C119.628 31.8447 119.762 31.7776 119.89 31.8179C120.017 31.8581 120.078 31.9923 120.037 32.1198Z" fill="#4D5A64"/>
<path d="M119.078 31.9856L117.824 31.5495C117.723 31.5159 117.677 31.4086 117.71 31.3079C117.744 31.2073 117.851 31.1603 117.952 31.1938L119.206 31.63C119.306 31.6635 119.353 31.7709 119.32 31.8715C119.286 31.9655 119.179 32.0191 119.078 31.9856Z" fill="#4D5A64"/>
<path d="M107.067 62.494L101.225 60.2798L105.786 47.4375C105.786 47.4375 107.643 40.8955 108.569 40.3185C109.494 39.7415 114.055 39.1846 114.558 39.9964C115.282 41.1639 113.84 41.9221 113.056 42.4186C112.264 42.9151 111.057 43.3647 111.057 43.3647C111.057 43.3647 112.264 46.2767 110.856 50.6984L107.067 62.494Z" fill="white"/>
<path d="M110.849 50.6981C112.258 46.2765 111.05 43.3645 111.05 43.3645C111.05 43.3645 112.258 42.9149 113.049 42.4184C113.84 41.9219 115.269 41.2039 114.659 40.1975C114.169 39.3856 109.488 39.7345 108.569 40.3183C107.643 40.8953 105.786 47.4372 105.786 47.4372L101.225 60.2796L107.067 62.4938" stroke="#263238" stroke-miterlimit="10"/>
<path d="M118.428 44.9215C118.428 44.9215 116.624 46.136 116.785 47.0753C116.946 48.0147 119.219 47.1827 120.091 46.505C120.956 45.8273 120.896 44.841 120.44 44.5458C119.991 44.2573 118.428 44.9215 118.428 44.9215Z" fill="white" stroke="#263238" stroke-miterlimit="10"/>
<path d="M119.877 42.3249C119.877 42.3249 117.174 44.4183 117.509 45.5254C117.851 46.6325 119.856 45.4919 120.889 44.6129C121.922 43.7272 122.056 42.9087 121.808 42.4591C121.56 42.0096 120.547 41.7613 119.877 42.3249Z" fill="white" stroke="#263238" stroke-miterlimit="10"/>
<path d="M101.225 55.9055L92.627 66.7484L70.4746 45.5122C70.4746 45.5122 67.2755 61.7832 72.9896 78.2823C78.7038 94.7814 95.7188 94.9559 102.426 89.1251C109.132 83.2944 112.66 61.3135 112.66 61.3135L101.225 55.9055Z" fill="#019B81"/>
<path d="M97.8046 60.2196L111.6 66.7079C112.298 63.5141 112.647 61.3133 112.647 61.3133L101.218 55.9053L97.8046 60.2196Z" fill="#4D5A64"/>
<path d="M98.6697 64.5677C98.2069 64.2792 97.5966 64.4201 97.3082 64.8831L95.6785 67.4864C95.3901 67.9494 95.5309 68.56 95.9937 68.8485C96.4565 69.137 97.0668 68.9961 97.3552 68.5331L98.9849 65.9298C99.2733 65.4668 99.1325 64.8562 98.6697 64.5677Z" stroke="#EAEAEA" stroke-width="0.25" stroke-miterlimit="10"/>
<path d="M106.604 66.5003C106.141 66.2118 105.531 66.3527 105.242 66.8157L103.613 69.419C103.324 69.882 103.465 70.4926 103.928 70.7811C104.391 71.0696 105.001 70.9287 105.289 70.4657L106.919 67.8624C107.207 67.4061 107.067 66.7888 106.604 66.5003Z" stroke="#EAEAEA" stroke-width="0.25" stroke-miterlimit="10"/>
<path d="M104.464 78.054C104.002 77.7655 103.391 77.9064 103.103 78.3694L101.473 80.9727C101.185 81.4357 101.326 82.0463 101.788 82.3348C102.251 82.6233 102.861 82.4824 103.15 82.0195L104.78 79.4161C105.068 78.9598 104.927 78.3493 104.464 78.054Z" stroke="#EAEAEA" stroke-width="0.25" stroke-miterlimit="10"/>
<path d="M97.3418 80.0135C96.879 79.725 96.2687 79.8659 95.9803 80.3289L94.3506 82.9322C94.0622 83.3952 94.203 84.0058 94.6658 84.2943C95.1286 84.5828 95.7389 84.4419 96.0273 83.9789L97.657 81.3756C97.9454 80.9126 97.8046 80.302 97.3418 80.0135Z" stroke="#EAEAEA" stroke-width="0.25" stroke-miterlimit="10"/>
<path d="M100.038 86.0858C99.5751 85.7973 98.9648 85.9382 98.6764 86.4011L97.0466 89.0045C96.7583 89.4675 96.8991 90.078 97.3619 90.3666C97.8246 90.6551 98.4349 90.5142 98.7233 90.0512L100.353 87.4478C100.641 86.9849 100.501 86.3743 100.038 86.0858Z" stroke="#EAEAEA" stroke-width="0.25" stroke-miterlimit="10"/>
<path d="M92.4592 72.6263C91.9965 72.3378 91.3862 72.4787 91.0978 72.9417L89.468 75.545C89.1796 76.008 89.3205 76.6186 89.7832 76.9071C90.246 77.1956 90.8563 77.0547 91.1447 76.5917L92.7744 73.9884C93.0628 73.5254 92.922 72.9148 92.4592 72.6263Z" stroke="#EAEAEA" stroke-width="0.25" stroke-miterlimit="10"/>
<path d="M89.1595 80.765C88.6968 80.4765 88.0865 80.6174 87.7981 81.0803L86.1683 83.6837C85.88 84.1466 86.0208 84.7572 86.4836 85.0457C86.9463 85.3343 87.5566 85.1934 87.845 84.7304L89.4748 82.127C89.7632 81.6641 89.6223 81.0535 89.1595 80.765Z" stroke="#EAEAEA" stroke-width="0.25" stroke-miterlimit="10"/>
<path d="M86.5439 64.6279C86.108 64.9567 86.0275 65.5807 86.3561 66.0168L88.2139 68.4591C88.5426 68.8953 89.1663 68.9758 89.6022 68.647C90.0382 68.3182 90.1186 67.6942 89.79 67.2581L87.9322 64.8158C87.5969 64.3796 86.9799 64.2924 86.5439 64.6279Z" stroke="#EAEAEA" stroke-width="0.25" stroke-miterlimit="10"/>
<path d="M92.7678 87.2196C92.3051 86.931 91.6947 87.0719 91.4064 87.5349L89.7766 90.1383C89.4882 90.6012 89.6291 91.2118 90.0918 91.5003C90.5546 91.7889 91.1649 91.648 91.4533 91.185L93.083 88.5816C93.3714 88.1187 93.2306 87.5081 92.7678 87.2196Z" stroke="#EAEAEA" stroke-width="0.25" stroke-miterlimit="10"/>
<path d="M100.038 71.3377C99.5751 71.0492 98.9648 71.1901 98.6764 71.6531L97.0466 74.2564C96.7583 74.7194 96.8991 75.33 97.3619 75.6185C97.8246 75.907 98.4349 75.7661 98.7233 75.3032L100.353 72.6998C100.641 72.2368 100.501 71.6262 100.038 71.3377Z" stroke="#EAEAEA" stroke-width="0.25" stroke-miterlimit="10"/>
<path d="M70.4746 45.5122L92.8617 66.9698" stroke="#263238" stroke-miterlimit="10"/>
<path d="M89.6223 70.5324L101.225 55.9053L112.653 61.3133" stroke="#263238" stroke-miterlimit="10"/>
<path d="M66.5712 42.4258C53.8418 42.4258 43.5134 69.5061 43.5134 102.907V109.368H89.6223V102.907C89.6223 69.4994 79.3006 42.4258 66.5712 42.4258Z" fill="#019B81"/>
<path d="M74.4718 51.9266C73.9285 51.987 73.5395 52.4768 73.5932 53.0203L73.9285 56.0732C73.9889 56.6167 74.4785 57.0125 75.0217 56.9521C75.565 56.8918 75.954 56.4019 75.9003 55.8585L75.565 52.8056C75.5046 52.2554 75.015 51.8662 74.4718 51.9266Z" stroke="#EAEAEA" stroke-width="0.25" stroke-miterlimit="10"/>
<path d="M70.9708 59.7366C70.4276 59.797 70.0319 60.2868 70.0923 60.8303L70.4276 63.8832C70.488 64.4267 70.9776 64.8159 71.5208 64.7622C72.064 64.7018 72.453 64.212 72.3994 63.6685L72.064 60.6156C72.0037 60.0654 71.5141 59.6763 70.9708 59.7366Z" stroke="#EAEAEA" stroke-width="0.25" stroke-miterlimit="10"/>
<path d="M79.0458 63.1521C78.5026 63.2125 78.1069 63.7023 78.1672 64.2458L78.5026 67.2987C78.5629 67.8422 79.0525 68.2313 79.5958 68.1776C80.139 68.1172 80.5347 67.6274 80.4743 67.084L80.139 64.031C80.0786 63.4876 79.589 63.0917 79.0458 63.1521Z" stroke="#EAEAEA" stroke-width="0.25" stroke-miterlimit="10"/>
<path d="M62.1045 64.1115C61.5613 64.1317 61.132 64.5946 61.1522 65.1381L61.2662 68.2044C61.2863 68.7479 61.7491 69.1773 62.2923 69.1572C62.8356 69.1371 63.2648 68.6741 63.2447 68.1306L63.1307 65.0643C63.1105 64.5141 62.6478 64.0914 62.1045 64.1115Z" stroke="#EAEAEA" stroke-width="0.25" stroke-miterlimit="10"/>
<path d="M55.1093 69.0026C54.566 69.0228 54.1368 69.4857 54.1569 70.0292L54.2709 73.0956C54.2911 73.639 54.7538 74.0685 55.2971 74.0483C55.8403 74.0282 56.2696 73.5652 56.2494 73.0218L56.1354 69.9554C56.1153 69.4052 55.6525 68.9825 55.1093 69.0026Z" stroke="#EAEAEA" stroke-width="0.25" stroke-miterlimit="10"/>
<path d="M61.4406 75.7727C60.8973 75.7928 60.4681 76.2558 60.4882 76.7992L60.6022 79.8656C60.6224 80.4091 61.0851 80.8385 61.6284 80.8184C62.1716 80.7982 62.6008 80.3353 62.5807 79.7918L62.4667 76.7254C62.4466 76.1752 61.9905 75.7525 61.4406 75.7727Z" stroke="#EAEAEA" stroke-width="0.25" stroke-miterlimit="10"/>
<path d="M70.3807 73.0285C69.8374 73.0486 69.4082 73.5116 69.4283 74.0551L69.5423 77.1214C69.5624 77.6649 70.0252 78.0943 70.5684 78.0742C71.1117 78.0541 71.5409 77.5911 71.5208 77.0476L71.4068 73.9813C71.3867 73.4378 70.9239 73.0084 70.3807 73.0285Z" stroke="#EAEAEA" stroke-width="0.25" stroke-miterlimit="10"/>
<path d="M79.2336 76.2561C78.6903 76.2762 78.2611 76.7391 78.2812 77.2826L78.3952 80.349C78.4153 80.8924 78.8781 81.3219 79.4213 81.3017C79.9646 81.2816 80.3938 80.8186 80.3737 80.2752L80.2597 77.2088C80.2396 76.6653 79.7768 76.2359 79.2336 76.2561Z" stroke="#EAEAEA" stroke-width="0.25" stroke-miterlimit="10"/>
<path d="M50.4817 76.2561C49.9385 76.2762 49.5092 76.7391 49.5294 77.2826L49.6434 80.349C49.6635 80.8924 50.1263 81.3219 50.6695 81.3017C51.2128 81.2816 51.642 80.8186 51.6219 80.2752L51.5079 77.2088C51.4877 76.6653 51.025 76.2359 50.4817 76.2561Z" stroke="#EAEAEA" stroke-width="0.25" stroke-miterlimit="10"/>
<path d="M55.8806 83.4084C55.3374 83.4285 54.9082 83.8915 54.9283 84.435L55.0423 87.5013C55.0624 88.0448 55.5252 88.4742 56.0684 88.4541C56.6117 88.434 57.0409 87.971 57.0208 87.4275L56.9068 84.3612C56.8867 83.811 56.4239 83.3883 55.8806 83.4084Z" stroke="#EAEAEA" stroke-width="0.25" stroke-miterlimit="10"/>
<path d="M67.1413 82.5764C66.598 82.5965 66.1688 83.0595 66.1889 83.6029L66.3029 86.6693C66.323 87.2128 66.7858 87.6422 67.3291 87.6221C67.8723 87.6019 68.3015 87.139 68.2814 86.5955L68.1674 83.5291C68.1473 82.9857 67.6912 82.5562 67.1413 82.5764Z" stroke="#EAEAEA" stroke-width="0.25" stroke-miterlimit="10"/>
<path d="M74.5389 88.3801C73.9956 88.4002 73.5664 88.8632 73.5865 89.4067L73.7005 92.473C73.7206 93.0165 74.1834 93.4459 74.7266 93.4258C75.2699 93.4056 75.6991 92.9427 75.679 92.3992L75.565 89.3329C75.5449 88.7827 75.0888 88.36 74.5389 88.3801Z" stroke="#EAEAEA" stroke-width="0.25" stroke-miterlimit="10"/>
<path d="M82.6204 93.8757C82.0772 93.8958 81.6479 94.3588 81.668 94.9023L81.7821 97.9686C81.8022 98.5121 82.2649 98.9415 82.8082 98.9214C83.3514 98.9012 83.7807 98.4383 83.7605 97.8948L83.6465 94.8285C83.6264 94.285 83.1636 93.8556 82.6204 93.8757Z" stroke="#EAEAEA" stroke-width="0.25" stroke-miterlimit="10"/>
<path d="M68.1943 96.3986C67.651 96.4188 67.2218 96.8817 67.2419 97.4252L67.3559 100.492C67.376 101.035 67.8388 101.464 68.382 101.444C68.9253 101.424 69.3545 100.961 69.3344 100.418L69.2204 97.3514C69.2003 96.8079 68.7375 96.3785 68.1943 96.3986Z" stroke="#EAEAEA" stroke-width="0.25" stroke-miterlimit="10"/>
<path d="M60.6223 93.01C60.0791 93.0301 59.6499 93.4931 59.67 94.0365L59.784 97.1029C59.8041 97.6464 60.2669 98.0758 60.8101 98.0556C61.3534 98.0355 61.7826 97.5725 61.7625 97.0291L61.6485 93.9627C61.6284 93.4192 61.1656 92.9898 60.6223 93.01Z" stroke="#EAEAEA" stroke-width="0.25" stroke-miterlimit="10"/>
<path d="M48.3825 96.3986C47.8392 96.4188 47.41 96.8817 47.4301 97.4252L47.5441 100.492C47.5643 101.035 48.027 101.464 48.5703 101.444C49.1135 101.424 49.5427 100.961 49.5226 100.418L49.4086 97.3514C49.3885 96.8079 48.9257 96.3785 48.3825 96.3986Z" stroke="#EAEAEA" stroke-width="0.25" stroke-miterlimit="10"/>
<path d="M85.6183 101.095C85.0751 101.116 84.6458 101.579 84.666 102.122L84.78 105.188C84.8001 105.732 85.2629 106.161 85.8061 106.141C86.3494 106.121 86.7786 105.658 86.7585 105.115L86.6445 102.048C86.6243 101.498 86.1616 101.075 85.6183 101.095Z" stroke="#EAEAEA" stroke-width="0.25" stroke-miterlimit="10"/>
<path d="M55.8806 100.451C55.3374 100.471 54.9082 100.934 54.9283 101.477L55.0423 104.544C55.0624 105.087 55.5252 105.517 56.0684 105.497C56.6117 105.476 57.0409 105.013 57.0208 104.47L56.9068 101.404C56.8867 100.853 56.4239 100.424 55.8806 100.451Z" stroke="#EAEAEA" stroke-width="0.25" stroke-miterlimit="10"/>
<path d="M84.988 81.8923C84.4447 81.9124 84.0155 82.3754 84.0356 82.9189L84.1496 85.9852C84.1697 86.5287 84.6325 86.9581 85.1757 86.938C85.719 86.9178 86.1482 86.4549 86.1281 85.9114L86.0141 82.8451C85.994 82.3016 85.5379 81.8722 84.988 81.8923Z" stroke="#EAEAEA" stroke-width="0.25" stroke-miterlimit="10"/>
<path d="M89.6223 103.618H43.5134V109.368H89.6223V103.618Z" fill="#4D5A64"/>
<path d="M43.5134 109.368H89.6223V102.907C89.6223 69.5061 79.3006 42.4258 66.5645 42.4258" stroke="#263238" stroke-miterlimit="10"/>
<path d="M91.4264 82.1537L62.5807 79.0136L73.1707 46.4112L68.0601 42.0835C68.0601 42.0835 57.9329 43.0094 44.8212 56.6502C31.7095 70.2977 29.0604 89.8833 38.2151 97.841C53.2516 110.918 78.2946 104.692 93.5256 96.4051L91.4264 82.1537Z" fill="#019B81"/>
<path d="M68.7844 60.3271L62.5874 79.0136C62.5874 79.0136 66.1889 68.1775 68.7844 60.3271Z" fill="#263238"/>
<path d="M67.5974 50.6048C67.1011 50.3834 66.5109 50.6048 66.2896 51.108L65.0421 53.9127C64.8208 54.4092 65.0421 54.9996 65.5451 55.2211C66.0414 55.4425 66.6316 55.2211 66.8529 54.7178L68.1004 51.9132C68.3217 51.4167 68.1004 50.8262 67.5974 50.6048Z" stroke="#EAEAEA" stroke-width="0.25" stroke-miterlimit="10"/>
<path d="M59.9048 58.4485C59.4085 58.2271 58.8183 58.4485 58.597 58.9518L57.3495 61.7564C57.1282 62.2529 57.3495 62.8434 57.8525 63.0648C58.3488 63.2862 58.939 63.0648 59.1603 62.5616L60.4078 59.7569C60.6291 59.2537 60.4011 58.67 59.9048 58.4485Z" stroke="#EAEAEA" stroke-width="0.25" stroke-miterlimit="10"/>
<path d="M52.648 70.1634C52.1517 69.942 51.5616 70.1634 51.3402 70.6666L50.0928 73.4713C49.8715 73.9678 50.0928 74.5582 50.5958 74.7796C51.0921 75.0011 51.6823 74.7796 51.9036 74.2764L53.1511 71.4718C53.3724 70.9752 53.1511 70.3915 52.648 70.1634Z" stroke="#EAEAEA" stroke-width="0.25" stroke-miterlimit="10"/>
<path d="M40.3009 72.4583C39.8046 72.2369 39.2144 72.4583 38.9931 72.9615L37.7456 75.7662C37.5243 76.2627 37.7456 76.8531 38.2486 77.0746C38.7449 77.296 39.3351 77.0746 39.5564 76.5713L40.8039 73.7667C41.0252 73.2635 40.8039 72.6797 40.3009 72.4583Z" stroke="#EAEAEA" stroke-width="0.25" stroke-miterlimit="10"/>
<path d="M83.318 84.4554C83.3247 83.9052 82.8887 83.4556 82.3455 83.4489L79.2738 83.4019C78.7238 83.3952 78.2745 83.8314 78.2678 84.3748C78.2611 84.925 78.697 85.3746 79.2403 85.3813L82.312 85.4283C82.8552 85.4417 83.3113 85.0055 83.318 84.4554Z" stroke="#EAEAEA" stroke-width="0.25" stroke-miterlimit="10"/>
<path d="M76.1082 91.2252C76.0813 90.6818 75.6119 90.259 75.0686 90.2859L72.0036 90.4469C71.4604 90.4738 71.0379 90.9434 71.0647 91.4869C71.0915 92.0304 71.561 92.4531 72.1042 92.4263L75.1692 92.2652C75.7192 92.2384 76.1417 91.7687 76.1082 91.2252Z" stroke="#EAEAEA" stroke-width="0.25" stroke-miterlimit="10"/>
<path d="M59.5426 92.0104C59.5694 91.4669 59.1469 90.9972 58.597 90.9771L55.532 90.8362C54.9887 90.8093 54.5193 91.232 54.4991 91.7822C54.4723 92.3257 54.8948 92.7954 55.4448 92.8155L58.5098 92.9564C59.053 92.9765 59.5158 92.5538 59.5426 92.0104Z" stroke="#EAEAEA" stroke-width="0.25" stroke-miterlimit="10"/>
<path d="M49.1605 98.8472C49.3282 98.3306 49.0465 97.767 48.5301 97.5992L45.6126 96.6397C45.0962 96.472 44.5329 96.7538 44.3652 97.2705C44.1975 97.7871 44.4792 98.3507 44.9956 98.5185L47.9131 99.4779C48.4295 99.6524 48.9861 99.3706 49.1605 98.8472Z" stroke="#EAEAEA" stroke-width="0.25" stroke-miterlimit="10"/>
<path d="M45.076 87.7296C45.2437 87.2129 44.962 86.6493 44.4456 86.4816L41.5282 85.5221C41.0118 85.3543 40.4484 85.6361 40.2807 86.1528C40.113 86.6694 40.3947 87.233 40.9112 87.4008L43.8286 88.3603C44.3517 88.5347 44.9084 88.2529 45.076 87.7296Z" stroke="#EAEAEA" stroke-width="0.25" stroke-miterlimit="10"/>
<path d="M54.9216 83.7171C55.096 83.2005 54.821 82.6369 54.3046 82.4624L51.4005 81.4694C50.8841 81.2949 50.3208 81.57 50.1464 82.0867C49.972 82.6033 50.247 83.1669 50.7634 83.3414L53.6674 84.3344C54.1771 84.5156 54.7405 84.2338 54.9216 83.7171Z" stroke="#EAEAEA" stroke-width="0.25" stroke-miterlimit="10"/>
<path d="M68.704 99.6391C68.657 99.0957 68.1741 98.6931 67.6309 98.7401L64.5726 99.0017C64.0293 99.0487 63.6269 99.5318 63.6739 100.075C63.7208 100.619 64.2037 101.021 64.747 100.974L67.8052 100.713C68.3485 100.666 68.7509 100.189 68.704 99.6391Z" stroke="#EAEAEA" stroke-width="0.25" stroke-miterlimit="10"/>
<path d="M83.2576 96.9216C83.1369 96.3848 82.6071 96.0493 82.0773 96.1701L79.0793 96.8411C78.5428 96.9619 78.2075 97.4919 78.3282 98.022C78.4489 98.5588 78.9787 98.8943 79.5086 98.7735L82.5065 98.1025C83.043 97.9817 83.3784 97.4517 83.2576 96.9216Z" stroke="#EAEAEA" stroke-width="0.25" stroke-miterlimit="10"/>
<path d="M89.6491 90.051C89.6022 89.5075 89.1193 89.1049 88.5693 89.1586L85.5111 89.4404C84.9678 89.4941 84.5654 89.9705 84.6191 90.5207C84.666 91.0642 85.1489 91.4667 85.6988 91.4131L88.7571 91.1313C89.3004 91.0776 89.7028 90.5945 89.6491 90.051Z" stroke="#EAEAEA" stroke-width="0.25" stroke-miterlimit="10"/>
<path d="M66.2224 83.0799C66.2627 82.5364 65.8469 82.06 65.3036 82.0265L62.2386 81.8118C61.6954 81.7715 61.2192 82.1875 61.1857 82.731C61.1454 83.2745 61.5612 83.7509 62.1045 83.7844L65.1695 83.9991C65.7127 84.0327 66.1822 83.6234 66.2224 83.0799Z" stroke="#EAEAEA" stroke-width="0.25" stroke-miterlimit="10"/>
<path d="M48.074 59.502C47.5979 59.2403 46.9943 59.4148 46.726 59.8912L45.2438 62.5818C44.9822 63.0582 45.1566 63.662 45.6328 63.9304C46.109 64.1921 46.7126 64.0176 46.9808 63.5413L48.463 60.8507C48.7313 60.3676 48.5569 59.7704 48.074 59.502Z" stroke="#EAEAEA" stroke-width="0.25" stroke-miterlimit="10"/>
<path d="M63.3184 67.2515C62.7953 67.0905 62.2453 67.3857 62.0844 67.909L61.1924 70.8479C61.0314 71.3712 61.3265 71.9214 61.8497 72.0825C62.3728 72.2435 62.9227 71.9483 63.0837 71.4249L63.9757 68.4861C64.1366 67.9627 63.8416 67.4125 63.3184 67.2515Z" stroke="#EAEAEA" stroke-width="0.25" stroke-miterlimit="10"/>
<path d="M57.5908 49.7796C57.1281 49.4911 56.5177 49.632 56.2226 50.095L54.5929 52.6983C54.3045 53.1613 54.4454 53.7719 54.9081 54.0671C55.3709 54.3556 55.9812 54.2147 56.2763 53.7518L57.906 51.1484C58.1944 50.6787 58.0536 50.0681 57.5908 49.7796Z" stroke="#EAEAEA" stroke-width="0.25" stroke-miterlimit="10"/>
<path d="M86.7585 85.7368C86.7585 85.7368 107.818 78.9466 110.588 79.0137C113.357 79.0808 117.563 81.8921 117.563 81.8921C117.563 81.8921 120.963 87.6222 118.16 90.9703C116.657 92.7551 116.536 87.072 116.536 87.072L111.654 87.7698C111.654 87.7698 109.548 90.5812 104.833 91.8896C100.112 93.1979 88.0731 95.5329 88.0731 95.5329L86.7585 85.7368Z" fill="white" stroke="#263238" stroke-miterlimit="10"/>
<path d="M91.4264 82.1538L85.2361 81.4761C85.7257 84.5357 87.1945 94.8954 87.8048 99.1963C89.8302 98.3107 91.7551 97.3713 93.539 96.3984L91.4264 82.1538Z" fill="#4D5A64"/>
<path d="M68.0668 42.0767C68.0668 42.0767 57.9396 43.0026 44.8279 56.6434C31.7162 70.2909 29.0671 89.8765 38.2218 97.8341C53.2583 110.911 78.3013 104.685 93.5323 96.3983L91.4264 82.1536L60.4882 78.7853" stroke="#263238" stroke-miterlimit="10"/>
<path d="M62.5874 79.0136C62.5874 79.0136 66.1956 68.1842 68.7844 60.3271" stroke="#263238" stroke-miterlimit="10"/>
<path d="M74.9212 11.7759H69.5558C65.9878 11.7759 63.0704 15.1039 63.0704 19.1632V27.4833C63.0704 27.7181 63.0838 27.9462 63.1039 28.1811C63.0435 28.4293 63.01 28.6776 63.01 28.946V34.0118V34.2936V39.3594C63.01 41.1978 64.5123 42.7008 66.35 42.7008H68.476C70.3137 42.7008 71.816 41.1978 71.816 39.3594V34.8773H74.9212C78.4892 34.8773 81.4066 31.556 81.4066 27.49V19.17C81.4066 15.1039 78.4825 11.7759 74.9212 11.7759Z" fill="white" stroke="#263238" stroke-miterlimit="10"/>
<path d="M63.7007 23.3161C63.7007 23.3161 64.9146 16.3045 65.2432 17.3378C65.706 18.814 65.6523 26.9931 67.2418 27.711C69.3411 28.6638 70.1123 25.0674 74.3376 24.9265C78.5628 24.7789 80.9974 26.8589 81.4065 28.5564C81.8156 30.2473 79.6426 32.6627 78.3147 33.7698C76.6514 35.1587 71.8226 34.8702 71.8226 34.8702C71.8226 34.8702 67.6375 35.1252 65.8871 32.656C64.0628 30.0929 63.7007 23.3161 63.7007 23.3161Z" fill="#263238"/>
<path d="M70.6689 21.887C70.6689 22.558 71.2122 23.0947 71.8762 23.0947C72.5468 23.0947 73.0834 22.5513 73.0834 21.887C73.0834 21.216 72.5401 20.6793 71.8762 20.6793C71.2055 20.6726 70.6689 21.216 70.6689 21.887Z" fill="#263238"/>
<path d="M78.5829 21.7057C78.5829 22.276 79.0457 22.7389 79.6157 22.7389C80.1858 22.7389 80.6486 22.276 80.6486 21.7057C80.6486 21.1353 80.1858 20.6724 79.6157 20.6724C79.0457 20.6724 78.5829 21.1353 78.5829 21.7057Z" fill="#263238"/>
<path d="M77.4293 26.6571C77.4293 26.6571 76.819 28.4285 75.538 28.5493C74.2503 28.67 73.2443 27.2476 73.1772 26.1338L77.4293 26.6571Z" fill="#E7E6E6"/>
<path d="M77.0671 26.5568C76.8793 27.0868 76.5239 27.684 76.0343 27.9859C74.8137 28.7374 73.6668 27.2344 73.5461 26.1408C73.4187 26.2683 73.2979 26.389 73.1705 26.5165C74.5856 26.691 76.0075 26.8654 77.4226 27.0399C77.8988 27.1003 77.8988 26.3488 77.4226 26.2884C76.0075 26.1139 74.5856 25.9395 73.1705 25.765C72.9827 25.7449 72.7748 25.9529 72.7949 26.1408C72.9492 27.5364 74.0558 29.1199 75.6319 28.9186C76.7117 28.7777 77.4427 27.7243 77.7847 26.7648C77.9524 26.3018 77.2281 26.1072 77.0671 26.5568Z" fill="#263238"/>
<path d="M76.0746 20.6724L75.8264 24.7988L77.7915 23.5978L76.0746 20.6724Z" fill="#019B81"/>
<path d="M64.472 24.7992L65.4646 18.2841C65.4646 18.2841 83.4923 20.5453 89.3339 11.7824C95.1755 3.01956 89.0388 -0.44264 86.0677 0.0471668C83.0967 0.543683 79.6226 4.80433 79.6226 4.80433C79.6226 4.80433 82.3857 1.0402 79.6226 0.443038C76.8594 -0.154124 73.8011 2.72433 72.2116 5.69672C72.2116 5.69672 60.3273 4.58962 56.3099 11.7824C52.2926 18.9752 55.5453 24.0813 62.8959 31.5089L63.5666 27.3556L64.472 24.7992Z" fill="#263238"/>
<path d="M72.0439 46.619H62.4331C60.676 46.619 59.2542 45.1965 59.2542 43.4386V41.7478C59.2542 39.9898 60.676 38.5674 62.4331 38.5674H72.0439C73.8011 38.5674 75.2229 39.9898 75.2229 41.7478V43.4386C75.2229 45.1898 73.8011 46.619 72.0439 46.619Z" fill="#4D5A64"/>
<path d="M56.3032 24.9334C56.3032 27.2751 58.2146 29.1739 60.5754 29.1739C62.9362 29.1739 64.8476 27.2751 64.8476 24.9334C64.8476 22.5917 62.9362 20.6929 60.5754 20.6929C58.2146 20.6929 56.3032 22.5917 56.3032 24.9334Z" fill="white"/>
<path d="M63.1642 25.4902C63.1977 24.9467 63.0636 24.3562 62.8154 23.8798C62.2856 22.8667 61.1991 22.558 60.1193 22.6587C59.7706 22.6922 59.7639 23.2424 60.1193 23.2156C61.0784 23.1283 62.0106 23.3632 62.4063 24.316C62.5606 24.6783 62.6343 25.101 62.6075 25.4969C62.5941 25.8458 63.144 25.8458 63.1642 25.4902Z" fill="#263238"/>
<path d="M64.1635 27.2418C64.5995 26.5775 64.8543 25.7858 64.8543 24.9337C64.8543 23.746 64.358 22.6658 63.5667 21.9009" stroke="#263238" stroke-miterlimit="10"/>
<path d="M63.5599 21.9006C62.7886 21.1558 61.7357 20.6929 60.5754 20.6929C58.2146 20.6929 56.3032 22.5917 56.3032 24.9334C56.3032 27.2751 58.2146 29.1739 60.5754 29.1739C61.3065 29.1739 61.9905 28.9928 62.5874 28.6774C62.8088 28.5566 63.1843 28.3218 63.3587 28.1473" stroke="#263238" stroke-miterlimit="10"/>
<path d="M166.086 161.825C166.086 161.825 215.89 110.495 227.272 112.804C228.103 112.971 230.35 114.26 233.482 116.259L236.534 130.121L229.196 140.642C229.196 140.642 200.089 185.241 186.072 179.538C172.055 173.835 167.528 164.274 167.528 164.274" fill="#019B81"/>
<path d="M236.54 130.128L229.203 140.649C229.203 140.649 200.096 185.248 186.079 179.545C172.062 173.842 167.535 164.28 167.535 164.28" stroke="#263238" stroke-miterlimit="10"/>
<path d="M253.897 154.686H221.792V192.716H253.897V154.686Z" fill="#019B81"/>
<path d="M253.897 168.34H221.792V178.693H253.897V168.34Z" fill="#D880A6"/>
<path d="M237.841 182.537C242.716 182.537 246.667 178.584 246.667 173.707C246.667 168.831 242.716 164.877 237.841 164.877C232.967 164.877 229.015 168.831 229.015 173.707C229.015 178.584 232.967 182.537 237.841 182.537Z" fill="#D880A6"/>
<path d="M237.841 180.752C241.731 180.752 244.883 177.598 244.883 173.707C244.883 169.816 241.731 166.662 237.841 166.662C233.952 166.662 230.799 169.816 230.799 173.707C230.799 177.598 233.952 180.752 237.841 180.752Z" fill="#D880A6"/>
<g opacity="0.7">
<path opacity="0.7" d="M237.841 180.752C241.731 180.752 244.883 177.598 244.883 173.707C244.883 169.816 241.731 166.662 237.841 166.662C233.952 166.662 230.799 169.816 230.799 173.707C230.799 177.598 233.952 180.752 237.841 180.752Z" fill="white"/>
</g>
<path d="M235.843 172.017C235.843 172.017 234.287 169.453 233.569 169.608C232.852 169.762 232.623 174.097 232.999 173.862C233.381 173.634 235.843 172.017 235.843 172.017Z" fill="#D880A6"/>
<path d="M239.793 172.017C239.793 172.017 241.349 169.453 242.067 169.608C242.784 169.762 243.012 174.097 242.637 173.862C242.254 173.634 239.793 172.017 239.793 172.017Z" fill="#D880A6"/>
<path d="M237.841 179.048C240.808 179.048 243.213 177.09 243.213 174.674C243.213 172.257 240.808 170.299 237.841 170.299C234.874 170.299 232.469 172.257 232.469 174.674C232.469 177.09 234.874 179.048 237.841 179.048Z" fill="#D880A6"/>
<path d="M241.302 173.426C241.302 173.627 241.148 173.795 240.96 173.795C240.772 173.795 240.618 173.634 240.618 173.426C240.618 173.224 240.772 173.057 240.96 173.057C241.155 173.063 241.302 173.224 241.302 173.426Z" fill="#263238"/>
<path d="M239.538 174.358C239.609 174.358 239.666 174.298 239.666 174.224C239.666 174.15 239.609 174.09 239.538 174.09C239.468 174.09 239.411 174.15 239.411 174.224C239.411 174.298 239.468 174.358 239.538 174.358Z" fill="#263238"/>
<path d="M239.558 174.875C239.629 174.875 239.686 174.815 239.686 174.741C239.686 174.667 239.629 174.606 239.558 174.606C239.488 174.606 239.431 174.667 239.431 174.741C239.431 174.815 239.488 174.875 239.558 174.875Z" fill="#263238"/>
<path d="M240.061 174.439C240.061 174.513 240.008 174.573 239.934 174.573C239.867 174.573 239.807 174.513 239.807 174.439C239.807 174.365 239.86 174.305 239.934 174.305C240.008 174.305 240.061 174.365 240.061 174.439Z" fill="#263238"/>
<path d="M236.245 174.351C236.245 174.425 236.299 174.486 236.373 174.486C236.446 174.486 236.5 174.425 236.5 174.351C236.5 174.278 236.446 174.217 236.373 174.217C236.299 174.217 236.245 174.271 236.245 174.351Z" fill="#263238"/>
<path d="M236.353 175.002C236.423 175.002 236.48 174.942 236.48 174.868C236.48 174.794 236.423 174.734 236.353 174.734C236.282 174.734 236.225 174.794 236.225 174.868C236.225 174.942 236.282 175.002 236.353 175.002Z" fill="#263238"/>
<path d="M235.843 174.566C235.843 174.64 235.896 174.701 235.97 174.701C236.037 174.701 236.098 174.64 236.098 174.566C236.098 174.493 236.044 174.432 235.97 174.432C235.903 174.425 235.843 174.486 235.843 174.566Z" fill="#263238"/>
<path d="M234.964 173.506C234.964 173.708 234.81 173.875 234.622 173.875C234.434 173.875 234.28 173.714 234.28 173.506C234.28 173.298 234.434 173.144 234.622 173.144C234.81 173.144 234.964 173.305 234.964 173.506Z" fill="#263238"/>
<path d="M237.426 175.231C237.345 175.68 237.412 176.673 238.022 176.673C238.639 176.673 238.707 175.68 238.619 175.231C238.599 175.117 238.438 175.164 238.458 175.278C238.519 175.6 238.505 176.499 238.016 176.499C237.533 176.499 237.513 175.606 237.573 175.278C237.6 175.17 237.446 175.123 237.426 175.231Z" fill="#263238"/>
<path d="M238.519 173.983C238.519 173.775 238.298 173.607 238.023 173.607C237.748 173.607 237.526 173.775 237.526 173.983C237.526 174.171 237.707 174.318 237.935 174.345C237.935 174.566 237.935 174.795 237.935 175.016C237.935 175.13 238.103 175.13 238.103 175.016C238.103 174.795 238.103 174.566 238.103 174.345C238.344 174.318 238.519 174.171 238.519 173.983Z" fill="#263238"/>
<path d="M192.631 183.463C192.631 183.463 189.573 181.994 188.735 179.8C187.89 177.606 188.225 175.814 188.99 175.271C189.754 174.727 191.283 173.338 191.082 172.573C190.881 171.809 190.197 170.353 190.66 168.964C191.122 167.575 192.195 167.3 192.792 167.474C193.389 167.649 194.751 168.353 194.925 168.111C195.106 167.87 194.623 167.085 194.771 166.018C194.918 164.951 195.247 162.979 197.105 162.22C198.956 161.455 199.439 161.71 200.129 162.22C200.82 162.73 201.585 162.569 201.987 161.737C202.39 160.905 203.872 158.208 204.864 157.886C205.857 157.557 207.379 158.288 207.815 158.684C208.251 159.08 209.787 159.047 210.693 158.718C211.598 158.389 214.891 157.49 216.48 158.242C218.07 158.993 218.264 159.892 218.419 161.053C218.573 162.22 218.278 163.119 219.317 163.723C220.357 164.327 221.43 164.233 221.973 165.421C222.523 166.609 222.483 167.897 222.483 167.897L192.631 183.463Z" fill="#EAEAEA"/>
<path d="M219.224 162.596C219.19 162.066 219.136 161.261 218.66 160.06C217.701 157.631 215.246 156.953 211.578 158.087L210.867 158.309C209.184 158.846 209.184 158.846 207.44 158.121C207.198 158.02 206.93 157.913 206.622 157.785C204.046 156.739 202.886 159.154 202.121 160.751C201.907 161.194 201.705 161.617 201.518 161.885C201.216 162.301 201.068 162.247 200.471 161.945C199.921 161.664 199.17 161.281 198.077 161.556C195.918 162.106 193.946 164.24 194.442 166.555C194.637 167.474 194.556 167.655 194.576 167.662C194.455 167.689 194.02 167.508 193.671 167.36C193.483 167.28 193.282 167.192 193.06 167.112C192.417 166.864 191.712 167.038 191.122 167.588C190.304 168.353 189.714 169.896 190.224 171.252C190.767 172.701 190.767 172.701 189.808 173.775C189.653 173.949 189.479 174.144 189.285 174.372C187.682 176.23 187.192 177.874 189.224 181.202C190.25 182.88 191.437 183.39 192.397 183.477C192.484 183.309 192.591 183.114 192.718 182.913C191.894 182.906 190.76 182.531 189.754 180.887C187.883 177.821 188.265 176.458 189.747 174.741C189.942 174.513 190.116 174.325 190.264 174.157C191.344 172.949 191.444 172.755 190.8 171.037C190.398 169.957 190.854 168.648 191.538 168.011C191.826 167.743 192.276 167.468 192.806 167.676C193.02 167.756 193.221 167.843 193.403 167.917C194.107 168.219 194.576 168.414 194.932 168.132C195.233 167.89 195.26 167.427 195.046 166.414C194.623 164.441 196.34 162.616 198.205 162.14C199.07 161.919 199.653 162.221 200.163 162.482C200.706 162.757 201.384 163.106 202.021 162.214C202.242 161.905 202.443 161.476 202.678 160.986C203.617 159.02 204.489 157.584 206.36 158.342C206.668 158.47 206.937 158.577 207.171 158.678C209.083 159.47 209.157 159.476 211.028 158.879L211.732 158.658C215.099 157.618 217.238 158.168 218.083 160.302C218.526 161.422 218.573 162.14 218.606 162.663C218.653 163.442 218.727 163.858 219.794 164.14C220.686 164.374 221.47 164.972 221.853 165.689C221.953 165.884 222.014 166.079 222.054 166.28C222.228 166.26 222.396 166.253 222.563 166.26C222.604 166.26 222.637 166.253 222.677 166.253C222.631 165.965 222.55 165.676 222.402 165.401C221.946 164.535 221.041 163.851 219.988 163.569C219.27 163.375 219.264 163.274 219.224 162.596Z" fill="#4D5A64"/>
<path d="M218.425 167.702C217.158 165.669 215.106 162.838 212.269 162.516C209.163 162.167 204.757 162.885 201.786 164.488C201.055 164.884 200.404 165.334 199.888 165.83C195.388 170.185 193.577 173.768 194.502 176.478C195.093 178.196 195.354 179.458 195.28 180.417C195.475 180.303 195.683 180.202 195.904 180.122C195.918 179.035 195.596 177.753 195.086 176.27C194.234 173.795 195.991 170.42 200.311 166.239C202.752 163.878 208.52 162.69 212.168 163.106C214.743 163.395 216.688 166.092 217.902 168.038C217.976 167.984 218.05 167.93 218.124 167.883C218.224 167.823 218.325 167.763 218.425 167.702Z" fill="#717A27"/>
<path d="M216.769 163.307C213.992 160.852 208.929 159.838 202.463 163.321C195.998 166.81 193.637 170.956 193.57 175.808C193.537 178.163 194.294 179.625 195.079 180.524C195.783 180.182 196.769 179.833 197.695 179.988C199.378 180.269 200.478 180.893 201.605 180.001C202.732 179.109 205.059 177.029 206.601 176.485C208.144 175.942 209.438 175.499 210.78 176.069C212.121 176.64 213.026 177.25 213.187 176.881C213.355 176.512 214.18 172.882 214.864 171.359C215.541 169.836 217.017 168.105 218.144 167.716C218.72 167.514 219.304 167.246 219.747 167.025C219.022 165.777 218.023 164.421 216.769 163.307Z" fill="white"/>
<path d="M197.198 176.277C197.158 176.243 197.118 176.217 197.078 176.183C197.064 176.176 197.051 176.176 197.037 176.17C197.031 176.163 197.024 176.156 197.011 176.149C196.944 176.109 196.87 176.082 196.789 176.082C196.736 176.069 196.689 176.069 196.635 176.082C196.555 176.082 196.474 176.109 196.4 176.149C196.333 176.176 196.266 176.237 196.213 176.27C196.192 176.284 196.179 176.297 196.166 176.31C196.125 176.357 196.065 176.418 196.031 176.472C195.998 176.532 195.964 176.599 195.938 176.666C195.917 176.733 195.904 176.8 195.897 176.867C195.897 176.887 195.891 176.908 195.891 176.928C195.891 176.995 195.897 177.069 195.911 177.136C195.924 177.203 195.958 177.27 195.978 177.337C195.985 177.344 195.985 177.357 195.991 177.364C195.998 177.384 196.005 177.397 196.011 177.418C196.018 177.431 196.025 177.438 196.031 177.451C196.045 177.478 196.072 177.505 196.085 177.532C196.105 177.558 196.125 177.585 196.145 177.612C196.199 177.673 196.26 177.713 196.34 177.733C196.407 177.766 196.481 177.787 196.561 177.78C196.588 177.78 196.615 177.766 196.648 177.76C196.756 177.76 196.863 177.74 196.95 177.693C197.091 177.612 197.198 177.518 197.286 177.384C197.326 177.324 197.353 177.257 197.38 177.189C197.406 177.122 197.42 177.035 197.433 176.968C197.44 176.941 197.44 176.914 197.44 176.887C197.44 176.82 197.44 176.733 197.42 176.666C197.4 176.592 197.38 176.518 197.339 176.458C197.306 176.404 197.266 176.351 197.225 176.304C197.219 176.297 197.205 176.29 197.198 176.277Z" fill="#4D5A64"/>
<path d="M197.427 172.714C197.467 172.64 197.507 172.567 197.541 172.486C197.554 172.453 197.567 172.419 197.574 172.385C197.574 172.379 197.574 172.379 197.574 172.372C197.588 172.332 197.608 172.298 197.621 172.258C197.648 172.184 197.655 172.11 197.648 172.03C197.648 172.003 197.628 171.976 197.628 171.949C197.621 171.862 197.614 171.775 197.594 171.694C197.574 171.614 197.541 171.533 197.507 171.46C197.494 171.426 197.473 171.392 197.453 171.366C197.406 171.272 197.333 171.198 197.239 171.144C197.172 171.104 197.098 171.077 197.017 171.077C196.937 171.057 196.863 171.064 196.783 171.084C196.675 171.111 196.575 171.164 196.494 171.238C196.454 171.272 196.414 171.305 196.38 171.345C196.313 171.419 196.246 171.5 196.192 171.58C196.139 171.661 196.099 171.755 196.058 171.842C196.038 171.889 196.025 171.936 196.011 171.983C195.978 172.124 195.944 172.271 195.951 172.412C195.958 172.506 195.958 172.607 195.978 172.694C195.998 172.788 196.038 172.889 196.078 172.976C196.159 173.157 196.387 173.271 196.588 173.271C196.696 173.271 196.803 173.244 196.903 173.191C197.004 173.137 197.085 173.063 197.138 172.969C197.158 172.949 197.165 172.922 197.185 172.902C197.286 172.869 197.373 172.801 197.427 172.714Z" fill="#4D5A64"/>
<path d="M199.412 173.446C199.331 173.426 199.257 173.432 199.177 173.452C199.07 173.479 198.969 173.533 198.889 173.607C198.828 173.674 198.768 173.741 198.721 173.815C198.674 173.889 198.64 173.969 198.6 174.043C198.546 174.157 198.526 174.271 198.506 174.392C198.486 174.513 198.5 174.633 198.513 174.747C198.526 174.868 198.573 174.989 198.62 175.096C198.667 175.19 198.741 175.264 198.835 175.318C198.922 175.371 199.023 175.392 199.13 175.398C199.237 175.398 199.345 175.371 199.445 175.318C199.546 175.264 199.626 175.19 199.68 175.096C199.72 175.043 199.74 174.982 199.767 174.929C199.774 174.915 199.781 174.902 199.781 174.888C199.781 174.882 199.781 174.882 199.781 174.875C199.787 174.868 199.787 174.862 199.794 174.855C199.834 174.788 199.868 174.714 199.895 174.647C199.908 174.62 199.915 174.593 199.921 174.566C199.941 174.492 199.955 174.412 199.962 174.338C199.962 174.311 199.968 174.284 199.962 174.258C199.962 174.184 199.955 174.103 199.941 174.029C199.935 174.003 199.928 173.976 199.921 173.949C199.895 173.875 199.874 173.801 199.834 173.728C199.787 173.634 199.713 173.56 199.62 173.506C199.566 173.473 199.492 173.452 199.412 173.446Z" fill="#4D5A64"/>
<path d="M213.55 168.675C213.402 168.514 213.207 168.407 212.993 168.333C212.939 168.326 212.892 168.32 212.839 168.313C212.758 168.306 212.678 168.326 212.604 168.36C212.55 168.373 212.503 168.4 212.456 168.44C212.383 168.481 212.329 168.541 212.289 168.608C212.255 168.668 212.228 168.729 212.201 168.789C212.195 168.803 212.188 168.823 212.188 168.836C212.168 168.91 212.148 168.997 212.148 169.078C212.148 169.091 212.155 169.111 212.155 169.125C212.155 169.145 212.148 169.165 212.148 169.185C212.155 169.346 212.168 169.413 212.235 169.561C212.269 169.635 212.322 169.708 212.383 169.769C212.436 169.829 212.503 169.876 212.577 169.923C212.711 170.004 212.892 170.057 213.053 170.057C213.134 170.057 213.221 170.051 213.301 170.024C213.456 169.97 213.543 169.93 213.677 169.822C213.838 169.688 213.912 169.447 213.865 169.259C213.845 169.185 213.818 169.111 213.791 169.037C213.778 169.011 213.771 168.984 213.751 168.957C213.737 168.93 213.717 168.903 213.704 168.883C213.65 168.803 213.603 168.736 213.55 168.675Z" fill="#4D5A64"/>
<path d="M215.266 166.32C215.213 166.26 215.152 166.219 215.072 166.199C215.005 166.166 214.931 166.145 214.851 166.152C214.77 166.145 214.69 166.166 214.616 166.199C214.535 166.226 214.462 166.266 214.401 166.327C214.368 166.367 214.334 166.407 214.301 166.447C214.24 166.535 214.213 166.635 214.207 166.736C214.213 166.79 214.213 166.837 214.22 166.89C214.24 166.998 214.294 167.085 214.368 167.165C214.415 167.212 214.462 167.266 214.515 167.313C214.569 167.373 214.629 167.414 214.71 167.434C214.777 167.467 214.851 167.487 214.931 167.481C215.012 167.487 215.092 167.467 215.166 167.434C215.246 167.407 215.32 167.367 215.38 167.306C215.414 167.266 215.448 167.226 215.481 167.185C215.541 167.098 215.568 166.998 215.575 166.897C215.568 166.843 215.568 166.796 215.562 166.743C215.541 166.635 215.488 166.548 215.414 166.468C215.367 166.421 215.313 166.367 215.266 166.32Z" fill="#4D5A64"/>
<path d="M212.289 165.83C212.275 165.823 212.269 165.817 212.255 165.81C212.242 165.803 212.235 165.803 212.222 165.797C212.168 165.743 212.114 165.703 212.041 165.683C211.973 165.649 211.9 165.629 211.819 165.636C211.739 165.629 211.658 165.649 211.584 165.683C211.504 165.709 211.43 165.75 211.37 165.81C211.336 165.85 211.303 165.891 211.269 165.931C211.209 166.018 211.182 166.119 211.175 166.219C211.175 166.233 211.175 166.246 211.175 166.26C211.169 166.327 211.162 166.387 211.175 166.454C211.195 166.561 211.249 166.649 211.323 166.729C211.39 166.81 211.457 166.89 211.517 166.971C211.571 167.031 211.631 167.071 211.712 167.092C211.779 167.125 211.853 167.145 211.933 167.139C212.014 167.145 212.094 167.125 212.168 167.092C212.248 167.065 212.322 167.024 212.383 166.964C212.416 166.924 212.45 166.884 212.483 166.843C212.51 166.803 212.51 166.763 212.523 166.723C212.557 166.682 212.59 166.635 212.604 166.582C212.611 166.535 212.624 166.481 212.631 166.434C212.637 166.327 212.617 166.226 212.564 166.132C212.557 166.119 212.55 166.105 212.544 166.092C212.51 166.038 212.476 165.984 212.43 165.944C212.389 165.897 212.336 165.864 212.289 165.83Z" fill="#4D5A64"/>
<path d="M210.136 163.395C210.142 163.401 210.149 163.415 210.149 163.421C210.525 164.072 211.618 163.482 211.242 162.831C211.236 162.824 211.229 162.811 211.222 162.804C210.853 162.16 209.76 162.744 210.136 163.395Z" fill="#4D5A64"/>
<path d="M215.226 163.415C215.172 163.381 215.105 163.361 215.045 163.347C215.038 163.341 215.038 163.341 215.038 163.334C214.998 163.3 214.958 163.267 214.918 163.24C214.817 163.186 214.716 163.153 214.596 163.153C214.555 163.153 214.522 163.16 214.482 163.166C214.462 163.166 214.448 163.153 214.428 163.153C214.374 163.16 214.321 163.166 214.267 163.173C214.16 163.2 214.059 163.253 213.979 163.327C213.945 163.368 213.912 163.408 213.878 163.448C213.818 163.535 213.791 163.636 213.784 163.737C213.777 163.864 213.798 163.958 213.851 164.065C213.865 164.092 213.885 164.112 213.905 164.139C213.925 164.166 213.938 164.193 213.965 164.213C213.999 164.24 214.019 164.26 214.046 164.28C214.086 164.32 214.133 164.361 214.187 164.401C214.294 164.475 214.448 164.508 214.582 164.508C214.602 164.508 214.629 164.508 214.649 164.501C214.656 164.501 214.669 164.501 214.676 164.501C214.703 164.515 214.723 164.535 214.75 164.542C214.824 164.562 214.904 164.569 214.985 164.555C215.065 164.555 215.146 164.528 215.219 164.488C215.266 164.455 215.307 164.421 215.354 164.394C215.434 164.32 215.488 164.233 215.521 164.132C215.528 164.085 215.541 164.032 215.548 163.985C215.555 163.877 215.535 163.777 215.481 163.683C215.427 163.569 215.333 163.482 215.226 163.415ZM214.991 163.616C214.991 163.656 214.998 163.696 214.998 163.737C215.005 163.669 214.991 163.609 214.965 163.555C214.978 163.576 214.985 163.596 214.991 163.616ZM214.944 163.495C214.938 163.488 214.931 163.482 214.931 163.468C214.938 163.475 214.938 163.482 214.944 163.482C214.944 163.488 214.944 163.495 214.944 163.495ZM214.408 164.287C214.415 164.3 214.428 164.307 214.441 164.32H214.435C214.421 164.307 214.415 164.3 214.408 164.287Z" fill="#4D5A64"/>
<path d="M209.143 167.635C209.056 167.582 208.955 167.561 208.848 167.555C208.774 167.561 208.701 167.561 208.627 167.568C208.546 167.561 208.466 167.582 208.392 167.615C208.312 167.642 208.238 167.682 208.177 167.743C208.117 167.796 208.07 167.863 208.043 167.937C208.003 168.004 207.983 168.078 207.983 168.159C207.99 168.212 207.99 168.259 207.996 168.313C208.016 168.42 208.07 168.507 208.144 168.588C208.184 168.622 208.224 168.648 208.265 168.682C208.352 168.736 208.452 168.756 208.56 168.762C208.633 168.756 208.707 168.756 208.781 168.749C208.861 168.756 208.942 168.736 209.016 168.702C209.096 168.675 209.17 168.635 209.23 168.575C209.291 168.521 209.338 168.454 209.365 168.38C209.405 168.313 209.425 168.239 209.425 168.159C209.418 168.105 209.418 168.058 209.411 168.004C209.391 167.897 209.338 167.81 209.264 167.729C209.224 167.696 209.183 167.669 209.143 167.635Z" fill="#4D5A64"/>
<path d="M197.554 185.416C197.554 185.416 197.447 186.416 197.44 186.818C197.433 187.221 196.702 188.529 195.616 189.006C194.529 189.482 191.572 189.455 191.317 187.463C191.062 185.47 193.362 181.86 194.63 180.988C195.897 180.122 197.862 179.881 199.231 180.162C200.599 180.444 202.249 179.813 203.208 178.693C204.167 177.572 206.601 176.365 207.97 176.036C209.338 175.707 210.277 175.667 211.155 176.237C212.034 176.801 213.161 177.606 213.161 177.606C213.161 177.606 213.771 174.513 214.428 172.507C215.092 170.5 216.836 167.904 219.606 166.971C222.376 166.038 224.374 165.857 225.139 167.562C225.903 169.266 226.413 170.849 224.676 172.265C222.939 173.681 219.948 173.278 218.412 174.231C216.876 175.184 216.836 175.754 216.91 177.136C216.983 178.518 217.48 180.941 215.883 181.934C214.287 182.927 212.175 184.316 211.444 185.409C210.713 186.503 209.881 187.147 210.169 188.59C210.458 190.032 209.204 189.207 208.942 188.456C208.68 187.704 208.788 185.839 209.713 184.987C210.639 184.135 212.336 182.128 212.336 182.128L212.57 181.571C212.57 181.571 209.485 181.484 207.795 180.961C206.105 180.437 205.28 180.619 204.663 181.283C204.046 181.947 204.516 183.947 203.355 184.712C202.188 185.476 201.444 185.705 200.217 185.302C199.003 184.893 197.634 184.564 197.554 185.416Z" fill="#FAFAFA"/>
<path d="M194.911 189.119C194.911 189.119 196.454 192.763 202.101 193.44C207.748 194.118 210.867 193.514 213.335 191.488C215.803 189.455 211.564 189.69 210.806 189.347C210.049 189.005 209.116 188.891 208.929 187.254C208.741 185.61 209.733 185.107 210.961 183.637C212.188 182.168 213.093 181.584 212.59 181.578C212.087 181.571 210.438 181.591 208.855 181.175C207.272 180.759 206.078 179.82 205.186 181.014C204.301 182.208 204.542 183.476 203.557 184.369C202.571 185.261 202.188 185.993 200.23 185.301C198.265 184.61 197.648 184.168 197.554 185.422C197.46 186.677 196.333 189.066 194.911 189.119Z" fill="#E0E0E0"/>
<path d="M212.892 181.054C211.813 181.484 210.283 181.376 208.982 180.893C207.399 180.303 205.991 180.249 205.079 180.739C205.039 180.759 204.998 180.786 204.965 180.806C204.348 181.189 203.999 181.806 203.925 182.645C203.811 183.899 203.06 184.55 202.624 184.819C201.987 185.214 201.216 185.328 200.619 185.107C199.64 184.751 198.533 184.335 197.769 184.792C197.38 185.02 197.138 185.443 197.044 186.046L197.031 186.134L197.064 186.207C197.084 186.254 197.601 187.408 195.971 188.381C194.972 188.979 193.751 189.079 192.839 188.65C192.356 188.422 191.759 187.932 191.706 186.945C191.585 184.886 193.704 181.001 196.353 180.451C197.386 180.236 198.171 180.363 198.929 180.484C200.136 180.679 201.283 180.86 202.872 179.39C205.126 177.297 208.352 175.405 210.666 176.364C211.833 176.847 212.738 177.377 213.348 177.928C213.342 177.659 213.335 177.377 213.322 177.123C212.53 176.539 211.591 176.096 210.927 175.821C207.668 174.472 203.617 177.894 202.457 178.974C201.102 180.229 200.243 180.095 199.056 179.907C198.278 179.78 197.4 179.639 196.253 179.88C193.215 180.511 190.955 184.651 191.089 187.013C191.149 187.999 191.659 188.771 192.544 189.187C193.631 189.703 195.106 189.589 196.266 188.885C198.111 187.784 197.782 186.395 197.655 186.026C197.722 185.651 197.856 185.409 198.057 185.288C198.533 184.973 199.559 185.362 200.364 185.657C201.155 185.946 202.115 185.818 202.926 185.308C203.838 184.738 204.422 183.772 204.522 182.658C204.583 182.021 204.831 181.558 205.267 181.289C205.991 180.84 207.265 180.887 208.727 181.437C209.955 181.893 211.363 182.027 212.523 181.752C212.671 181.564 212.785 181.323 212.892 181.054Z" fill="#4D5A64"/>
<path d="M209.948 189.428C209.948 189.428 211.551 191.642 212.497 191.897C214.361 192.407 218.204 190.643 221.933 187.959C227.533 183.933 226.541 176.519 226.131 174.835C225.722 173.151 224.69 172.251 224.69 172.251C224.69 172.251 223.985 173.506 221.028 173.768C218.07 174.03 216.742 174.278 217.01 176.331C217.279 178.384 217.446 180.363 216.621 181.283C215.796 182.202 213.174 183.618 212.181 184.617C211.189 185.624 209.043 187.945 209.948 189.428Z" fill="#E0E0E0"/>
<path d="M211.558 191.294L210.236 190.173C210.203 190.146 207.084 187.449 209.572 184.711L210.055 184.181C212.094 181.954 213.322 180.612 212.973 178.485C212.55 175.895 214.167 170.359 217.272 168.031C219.277 166.521 221.497 165.797 223.201 166.085C224.287 166.273 225.139 166.857 225.662 167.783C226.266 168.843 226.306 170.057 225.776 171.198C225.226 172.379 224.093 173.372 222.959 173.667C222.449 173.801 221.819 173.842 221.148 173.882C219.022 174.016 217.507 174.238 217.352 175.895C217.285 176.646 217.312 177.371 217.332 178.069C217.399 179.921 217.46 181.672 215.521 182.719C213.925 183.577 211.142 185.335 210.471 187.415C210.21 188.221 210.297 189.019 210.726 189.791L211.558 191.294ZM219.049 167.582C218.573 167.836 218.097 168.145 217.634 168.494C214.757 170.655 213.194 175.969 213.583 178.364C213.979 180.773 212.597 182.282 210.511 184.564L210.029 185.094C208.841 186.402 209.183 187.697 209.713 188.583C209.686 188.153 209.74 187.711 209.888 187.268C210.632 184.98 213.563 183.114 215.246 182.209C216.836 181.35 216.789 179.927 216.722 178.122C216.695 177.404 216.668 176.66 216.742 175.875C216.95 173.553 219.277 173.406 221.142 173.291C221.779 173.251 222.382 173.218 222.832 173.097C223.784 172.849 224.75 171.996 225.226 170.977C225.548 170.292 225.789 169.239 225.132 168.085C224.683 167.3 223.992 166.823 223.073 166.669C221.906 166.481 220.478 166.81 219.049 167.582Z" fill="#4D5A64"/>
<path d="M174.268 191.643C171.974 190.609 168.815 188.637 167.823 183.094C166.83 177.552 171.25 172.466 177.132 173.097C183.014 173.728 183.329 177.13 189.305 177.566C195.274 178.002 197.795 178.881 199.271 182.719C200.746 186.557 198.828 189.348 191.746 192.153C184.663 194.957 177.917 193.28 174.268 191.643Z" fill="#019B81"/>
<path d="M177.534 178.894C177.239 180.263 175.616 181.075 173.913 180.706C172.209 180.337 171.062 178.928 171.357 177.566C171.652 176.197 173.275 175.385 174.979 175.754C176.682 176.123 177.829 177.525 177.534 178.894Z" fill="#FFE8E7"/>
<path d="M196.769 180.404C196.769 180.404 191.592 180.665 191.565 178.049C191.531 175.438 197.782 176.217 200.25 178.263C202.718 180.31 201.913 184.825 200.558 186.852C199.204 188.878 193.523 185.476 198.03 182.329C198.03 182.329 195.274 184.624 194.046 183.557C192.819 182.49 194.771 180.679 196.769 180.404Z" fill="#D880A6"/>
<path opacity="0.4" d="M196.769 180.404C196.769 180.404 191.592 180.665 191.565 178.049C191.531 175.438 197.782 176.217 200.25 178.263C202.718 180.31 201.913 184.825 200.558 186.852C199.204 188.878 193.523 185.476 198.03 182.329C198.03 182.329 195.274 184.624 194.046 183.557C192.819 182.49 194.771 180.679 196.769 180.404Z" fill="black"/>
<path d="M200.035 180.169C200.035 180.169 203.852 178.988 203.805 176.25C203.764 173.513 207.292 177.264 205.508 179.028C203.717 180.793 201.645 181.296 200.82 181.276C199.988 181.256 199.385 180.753 200.035 180.169Z" fill="#D880A6"/>
<path opacity="0.4" d="M200.035 180.169C200.035 180.169 203.852 178.988 203.805 176.25C203.764 173.513 207.292 177.264 205.508 179.028C203.717 180.793 201.645 181.296 200.82 181.276C199.988 181.256 199.385 180.753 200.035 180.169Z" fill="black"/>
<path d="M171.827 161.65C172.202 162.891 172.028 163.944 175.891 166.42C179.754 168.896 178.742 172.855 175.804 174.244C172.994 175.572 168.118 174.063 165.482 171.989C162.122 169.339 159.862 165.877 159.808 162.992C159.728 158.047 168.762 151.485 171.827 161.65Z" fill="#E0E0E0" stroke="#4D5A64" stroke-miterlimit="10"/>
<path d="M171.009 159.563L169.319 162.945" stroke="#4D5A64" stroke-miterlimit="10"/>
<path d="M166.314 160.932L164.604 164.36" stroke="#4D5A64" stroke-miterlimit="10"/>
<path d="M169.231 168.098L167.682 171.198" stroke="#4D5A64" stroke-miterlimit="10"/>
<path d="M175.375 168.708L173.819 171.822" stroke="#4D5A64" stroke-miterlimit="10"/>
<path d="M153.001 168.36C153.598 167.206 154.456 166.575 153.417 162.106C152.377 157.638 155.865 155.511 158.936 156.564C161.874 157.577 164.315 162.059 164.751 165.387C165.315 169.634 164.51 173.687 162.531 175.794C159.151 179.384 148.105 177.78 153.001 168.36Z" fill="#E0E0E0" stroke="#4D5A64" stroke-miterlimit="10"/>
<path d="M152.136 170.426L155.704 169.185" stroke="#4D5A64" stroke-miterlimit="10"/>
<path d="M156.448 172.721L160.063 171.459" stroke="#4D5A64" stroke-miterlimit="10"/>
<path d="M159.366 165.555L162.639 164.415" stroke="#4D5A64" stroke-miterlimit="10"/>
<path d="M155.389 160.825L158.675 159.684" stroke="#4D5A64" stroke-miterlimit="10"/>
<path d="M181.766 175.619C181.766 175.619 181.344 178.988 177.367 181.718C173.39 184.449 167.36 183.403 165.543 179.92C163.725 176.438 167.005 174.606 168.903 172.58C170.807 170.554 172.276 167.903 174.865 167.387C179.466 166.474 182.792 170.896 181.766 175.619Z" fill="#E0E0E0" stroke="#4D5A64" stroke-miterlimit="10"/>
<path d="M174.979 182.859L173.484 179.437" stroke="#4D5A64" stroke-miterlimit="10"/>
<path d="M176.964 178.813L174.811 174.646" stroke="#4D5A64" stroke-miterlimit="10"/>
<path d="M169.091 178.632L167.924 175.961" stroke="#4D5A64" stroke-miterlimit="10"/>
<path d="M170.566 173.66L169.714 171.708" stroke="#4D5A64" stroke-miterlimit="10"/>
<path d="M180.076 174.304L178.882 171.573" stroke="#4D5A64" stroke-miterlimit="10"/>
<path d="M175.878 171.09L174.832 169.292" stroke="#4D5A64" stroke-miterlimit="10"/>
<path d="M167.991 164.106C167.991 164.106 171.163 165.32 172.866 169.836C174.57 174.351 172.115 179.961 168.299 180.9C164.483 181.839 163.49 178.216 161.975 175.881C160.466 173.553 158.239 171.486 158.36 168.849C158.561 164.159 163.645 161.985 167.991 164.106Z" fill="#E0E0E0" stroke="#4D5A64" stroke-miterlimit="10"/>
<path d="M173.403 172.433L169.721 173.063" stroke="#4D5A64" stroke-miterlimit="10"/>
<path d="M167.897 177.143L165.02 177.639" stroke="#4D5A64" stroke-miterlimit="10"/>
<path d="M163.417 174.519L161.324 174.881" stroke="#4D5A64" stroke-miterlimit="10"/>
<path d="M166.307 165.434L163.376 165.944" stroke="#4D5A64" stroke-miterlimit="10"/>
<path d="M162.189 168.749L160.197 169.339" stroke="#4D5A64" stroke-miterlimit="10"/>
<path d="M150.6 178.988C151.197 177.833 152.055 177.203 151.016 172.734C149.976 168.265 153.464 166.138 156.535 167.192C159.473 168.205 161.914 172.687 162.35 176.015C162.914 180.262 162.109 184.315 160.13 186.422C156.75 190.018 145.704 188.408 150.6 178.988Z" fill="#E0E0E0" stroke="#4D5A64" stroke-miterlimit="10"/>
<path d="M149.735 181.054L153.303 179.813" stroke="#4D5A64" stroke-miterlimit="10"/>
<path d="M154.047 183.349L157.662 182.094" stroke="#4D5A64" stroke-miterlimit="10"/>
<path d="M156.965 176.183L160.231 175.049" stroke="#4D5A64" stroke-miterlimit="10"/>
<path d="M152.988 171.459L156.274 170.312" stroke="#4D5A64" stroke-miterlimit="10"/>
<path d="M166.649 187.643C166.649 187.643 163.323 186.965 160.908 182.785C158.487 178.605 159.996 172.674 163.611 171.124C167.226 169.574 168.795 172.989 170.667 175.042C172.538 177.095 175.066 178.766 175.381 181.39C175.938 186.053 171.284 189.025 166.649 187.643Z" fill="#E0E0E0" stroke="#4D5A64" stroke-miterlimit="10"/>
<path d="M159.956 180.316L163.484 179.088" stroke="#4D5A64" stroke-miterlimit="10"/>
<path d="M165.999 181.692L170.318 179.867" stroke="#4D5A64" stroke-miterlimit="10"/>
<path d="M164.617 174.767L167.374 173.808" stroke="#4D5A64" stroke-miterlimit="10"/>
<path d="M169.459 176.626L171.471 175.921" stroke="#4D5A64" stroke-miterlimit="10"/>
<path d="M168.091 186.06L170.908 185.08" stroke="#4D5A64" stroke-miterlimit="10"/>
<path d="M171.612 182.121L173.483 181.208" stroke="#4D5A64" stroke-miterlimit="10"/>
<path d="M155.221 154.135C155.221 154.135 148.139 158.014 148.058 164.737C147.984 171.46 147.743 175.21 146.073 179.297C144.403 183.383 146.2 189.65 152.84 191.361C159.486 193.072 162.075 190.884 167.675 189.965C173.269 189.046 180.613 187.127 183.188 183.47C185.763 179.813 189.486 172.017 182.122 166.756C174.758 161.496 172.451 156.121 170.197 153.813C167.944 151.512 159.688 151.425 155.221 154.135Z" stroke="#E6E6E6" stroke-miterlimit="10"/>
<path d="M159.721 156.242C159.721 156.242 158.963 153.417 157.951 152.934C157.951 152.934 155.697 155.906 155.979 158.188" stroke="#E6E6E6" stroke-miterlimit="10"/>
<path d="M163.209 153.901C163.209 153.901 161.324 152.626 157.951 152.928" stroke="#E6E6E6" stroke-miterlimit="10"/>
<path d="M160.278 150.452C160.566 151.27 159.647 152.337 158.226 152.834C156.804 153.33 155.422 153.062 155.14 152.243C154.852 151.425 155.771 150.358 157.193 149.861C158.608 149.365 159.989 149.633 160.278 150.452Z" fill="white" stroke="#E6E6E6" stroke-miterlimit="10"/>
<path d="M155.657 151.156C155.657 151.156 158.507 152.639 160.056 151.586" stroke="#E6E6E6" stroke-miterlimit="10"/>
<path d="M157.548 150.499C154.859 150.438 147.213 146.741 148.507 144.648C149.822 142.514 151.639 144.695 154.054 144.178C156.468 143.661 156.14 142.232 158.433 142.782C160.727 143.333 161.109 140.246 163.47 140.125C165.838 140.011 161.921 150.593 157.548 150.499Z" stroke="#E6E6E6" stroke-miterlimit="10"/>
<path d="M159.057 182.128C159.057 182.128 156.596 187.69 152.042 185.395C152.042 185.395 153.826 179.833 159.057 182.128Z" fill="#4D5A64"/>
<path d="M160.942 182.913C160.942 182.913 157.629 182.269 156.16 177.901" stroke="#263238" stroke-miterlimit="10"/>
<path d="M174.684 187.442C174.684 187.442 174.147 191.374 168.702 192.541C163.256 193.709 159.52 191.434 159.138 188.066C158.755 184.698 160.325 184.839 160.62 182.135C160.915 179.431 161.15 175.915 164.906 175.767C168.661 175.613 173.048 178.277 174.671 181.504C176.294 184.738 174.496 185.61 174.684 187.442Z" fill="#019B81"/>
<path d="M166.918 188.368C166.918 189.643 165.751 190.683 164.315 190.683C162.88 190.683 161.713 189.65 161.713 188.368C161.713 187.087 162.88 186.053 164.315 186.053C165.757 186.06 166.918 187.093 166.918 188.368Z" fill="#D880A6"/>
<g opacity="0.3">
<path opacity="0.3" d="M166.918 188.368C166.918 189.643 165.751 190.683 164.315 190.683C162.88 190.683 161.713 189.65 161.713 188.368C161.713 187.087 162.88 186.053 164.315 186.053C165.757 186.06 166.918 187.093 166.918 188.368Z" fill="white"/>
</g>
<path d="M165.918 234.182C171.667 234.182 176.327 229.52 176.327 223.768C176.327 218.017 171.667 213.355 165.918 213.355C160.169 213.355 155.509 218.017 155.509 223.768C155.509 229.52 160.169 234.182 165.918 234.182Z" fill="#263238"/>
<path d="M165.918 229.707C169.196 229.707 171.854 227.048 171.854 223.769C171.854 220.489 169.196 217.831 165.918 217.831C162.64 217.831 159.983 220.489 159.983 223.769C159.983 227.048 162.64 229.707 165.918 229.707Z" fill="#E0E0E0"/>
<path d="M233.214 234.182C238.962 234.182 243.623 229.52 243.623 223.768C243.623 218.017 238.962 213.355 233.214 213.355C227.465 213.355 222.805 218.017 222.805 223.768C222.805 229.52 227.465 234.182 233.214 234.182Z" fill="#263238"/>
<path d="M233.214 229.707C236.492 229.707 239.149 227.048 239.149 223.769C239.149 220.489 236.492 217.831 233.214 217.831C229.936 217.831 227.278 220.489 227.278 223.769C227.278 227.048 229.936 229.707 233.214 229.707Z" fill="#E0E0E0"/>
<path d="M137.166 128.021C139.239 151.652 141.714 175.291 143.39 198.949C143.967 207.048 149.138 213.435 157.662 213.69C160.533 213.777 163.41 213.69 166.28 213.69C181.585 213.69 196.883 213.69 212.188 213.69C223.932 213.69 235.675 213.69 247.425 213.69C248.72 213.69 248.72 211.677 247.425 211.677C222.563 211.677 197.701 211.677 172.84 211.677C168.286 211.677 163.739 211.677 159.185 211.677C151.505 211.677 146.147 207.182 145.443 199.358C144.437 188.153 143.477 176.941 142.492 165.736C141.385 153.162 140.285 140.588 139.178 128.021C139.064 126.739 137.052 126.726 137.166 128.021Z" fill="#263238"/>
<path d="M113.445 91.8894C115.719 91.8894 117.563 90.0449 117.563 87.7696C117.563 85.4944 115.719 83.6499 113.445 83.6499C111.17 83.6499 109.327 85.4944 109.327 87.7696C109.327 90.0449 111.17 91.8894 113.445 91.8894Z" fill="#263238"/>
<path d="M137.166 136.502C139.058 151.492 140.942 166.481 142.834 181.477C143.095 183.544 143.109 186.08 144.021 187.945C146.341 192.709 152.19 194.427 157.079 194.534C161.472 194.628 165.878 194.534 170.271 194.534C189.338 194.534 208.405 194.534 227.479 194.534C233.784 194.534 240.095 194.534 246.399 194.534C253.3 194.534 261.04 192.367 261.992 184.51C263.904 168.756 265.916 153.015 267.881 137.267C267.948 136.723 267.364 136.261 266.875 136.261C252.348 136.173 237.828 136.086 223.301 135.999C200.263 135.865 177.226 135.724 154.181 135.59C148.843 135.556 143.504 135.529 138.172 135.496C136.878 135.489 136.878 137.502 138.172 137.509C152.699 137.596 167.219 137.683 181.746 137.77C204.784 137.904 227.821 138.045 250.866 138.179C256.204 138.213 261.543 138.24 266.875 138.273C266.54 137.938 266.204 137.602 265.869 137.267C264.065 151.733 262.261 166.206 260.457 180.672C260.208 182.645 260.208 185.241 259.363 187.039C257.338 191.354 251.845 192.494 247.553 192.521C242.503 192.561 237.452 192.521 232.402 192.521C214.18 192.521 195.951 192.521 177.729 192.521C171.565 192.521 165.402 192.521 159.238 192.521C157.22 192.521 155.234 192.561 153.242 192.105C149.963 191.347 146.2 189.348 145.369 185.798C145.188 185.027 145.168 184.054 145.067 183.248C143.102 167.669 141.143 152.082 139.178 136.502C139.017 135.234 137.005 135.214 137.166 136.502Z" fill="#263238"/>
<path d="M138.991 145.943C153.323 145.943 167.655 145.943 181.994 145.943C204.717 145.943 227.432 145.943 250.155 145.943C255.4 145.943 260.644 145.943 265.889 145.943C266.861 145.943 266.861 144.433 265.889 144.433C251.557 144.433 237.224 144.433 222.885 144.433C200.163 144.433 177.447 144.433 154.725 144.433C149.48 144.433 144.235 144.433 138.991 144.433C138.018 144.433 138.018 145.943 138.991 145.943Z" fill="#263238"/>
<path d="M140.734 157.624C154.651 157.624 168.567 157.624 182.484 157.624C204.683 157.624 226.876 157.624 249.075 157.624C254.192 157.624 259.31 157.624 264.427 157.624C265.399 157.624 265.399 156.115 264.427 156.115C250.51 156.115 236.594 156.115 222.677 156.115C200.478 156.115 178.285 156.115 156.086 156.115C150.969 156.115 145.852 156.115 140.734 156.115C139.769 156.115 139.762 157.624 140.734 157.624Z" fill="#263238"/>
<path d="M142.21 169.312C155.764 169.312 169.312 169.312 182.866 169.312C204.596 169.312 226.333 169.312 248.062 169.312C253.032 169.312 258.002 169.312 262.972 169.312C263.944 169.312 263.944 167.803 262.972 167.803C249.417 167.803 235.87 167.803 222.315 167.803C200.585 167.803 178.849 167.803 157.119 167.803C152.149 167.803 147.18 167.803 142.21 167.803C141.237 167.803 141.237 169.312 142.21 169.312Z" fill="#263238"/>
<path d="M143.028 180.994C156.395 180.994 169.761 180.994 183.134 180.994C204.334 180.994 225.541 180.994 246.741 180.994C251.664 180.994 256.593 180.994 261.516 180.994C262.489 180.994 262.489 179.484 261.516 179.484C248.15 179.484 234.783 179.484 221.41 179.484C200.21 179.484 179.003 179.484 157.803 179.484C152.88 179.484 147.951 179.484 143.028 179.484C142.056 179.484 142.056 180.994 143.028 180.994Z" fill="#263238"/>
<path d="M154.014 136.59C154.014 155.457 154.014 174.325 154.014 193.192C154.014 194.165 155.523 194.165 155.523 193.192C155.523 174.325 155.523 155.457 155.523 136.59C155.523 135.617 154.014 135.617 154.014 136.59Z" fill="#263238"/>
<path d="M172.947 136.717C172.947 155.585 172.947 174.452 172.947 193.32C172.947 194.293 174.456 194.293 174.456 193.32C174.456 174.452 174.456 155.585 174.456 136.717C174.456 135.744 172.947 135.744 172.947 136.717Z" fill="#263238"/>
<path d="M191.88 136.925C191.88 155.793 191.88 174.66 191.88 193.528C191.88 194.501 193.389 194.501 193.389 193.528C193.389 174.66 193.389 155.793 193.389 136.925C193.389 135.959 191.88 135.952 191.88 136.925Z" fill="#263238"/>
<path d="M210.813 136.925C210.813 155.793 210.813 174.66 210.813 193.528C210.813 194.501 212.322 194.501 212.322 193.528C212.322 174.66 212.322 155.793 212.322 136.925C212.322 135.959 210.813 135.952 210.813 136.925Z" fill="#263238"/>
<path d="M229.746 137.69C229.746 156.303 229.746 174.915 229.746 193.528C229.746 194.501 231.255 194.501 231.255 193.528C231.255 174.915 231.255 156.303 231.255 137.69C231.255 136.717 229.746 136.717 229.746 137.69Z" fill="#263238"/>
<path d="M248.679 137.69C248.679 156.289 248.679 174.889 248.679 193.488C248.679 194.461 250.188 194.461 250.188 193.488C250.188 174.889 250.188 156.289 250.188 137.69C250.188 136.717 248.679 136.717 248.679 137.69Z" fill="#263238"/>
<path d="M139.038 127.511C130.795 114.092 122.552 100.679 114.31 87.2595C113.632 86.1591 111.889 87.1656 112.573 88.2727C120.815 101.692 129.058 115.105 137.301 128.524C137.978 129.631 139.722 128.618 139.038 127.511Z" fill="#263238"/>
<path d="M272.22 152.8L282.669 161.133L277.686 169.447L266.231 161.281L272.22 152.8Z" fill="white" stroke="#D880A6" stroke-miterlimit="10"/>
<path d="M271.295 154.115L281.777 162.871" stroke="#D880A6" stroke-miterlimit="10"/>
<path d="M269.933 156.054L280.416 164.817" stroke="#D880A6" stroke-miterlimit="10"/>
<path d="M268.451 157.725L279.376 166.34" stroke="#D880A6" stroke-miterlimit="10"/>
<path d="M267.351 159.449L278.363 168.138" stroke="#D880A6" stroke-miterlimit="10"/>
<path d="M308.021 157.624L286.566 182.524L272.321 169.279L283.165 158.268L289.228 162.871L308.021 157.624Z" fill="white" stroke="#263238" stroke-miterlimit="10"/>
<path d="M295.513 159.57L297.605 164.046" stroke="#263238" stroke-miterlimit="10"/>
<path d="M292.287 160.785L294.379 165.26" stroke="#263238" stroke-miterlimit="10"/>
<path d="M290.281 162.079C290.281 162.079 293.205 153.424 290.476 152.907C286.09 152.082 290.281 162.079 290.281 162.079Z" stroke="#263238" stroke-miterlimit="10"/>
<path d="M285.339 155.316L290.248 162.348" stroke="#263238" stroke-miterlimit="10"/>
<path d="M287.458 166.099C289.094 167.555 289.248 170.057 287.793 171.701C286.338 173.338 283.836 173.493 282.193 172.037C280.557 170.581 280.402 168.078 281.858 166.434C283.313 164.797 285.821 164.643 287.458 166.099Z" fill="#D880A6"/>
<path d="M229.015 139.213L263.884 168.319L282.877 146.687C282.877 146.687 236.896 114.018 227.271 112.81C224.622 112.475 220.008 114.582 214.408 118.44L216.004 126.639L229.015 139.213Z" fill="#019B81"/>
<path d="M222.684 133.335L230.497 140.595L263.877 168.319L282.87 146.687C282.87 146.687 236.091 114.018 227.265 112.81C224.622 112.448 220.001 114.582 214.401 118.44C214.401 118.44 200.317 128.652 188.667 139.87" stroke="#263238" stroke-miterlimit="10"/>
<path d="M258.069 163.911L276.975 142.608" stroke="#263238" stroke-miterlimit="10"/>
<path d="M156.656 156.322C156.656 156.322 176.334 161.496 180.311 160.113C183.644 158.953 173.872 157.691 173.872 157.691C173.872 157.691 180.74 159.261 181.391 157.899C182.041 156.537 174.127 155.591 174.127 155.591C174.127 155.591 182.135 156.92 182.323 155.658C182.511 154.404 174.308 153.545 174.308 153.545C174.308 153.545 182.444 154.981 182.692 153.511C182.94 152.042 174.57 151.216 174.57 151.216C174.57 151.216 179.828 151.109 179.54 149.962C179.251 148.814 168.587 149.546 160.238 147.11C151.894 144.688 156.656 156.322 156.656 156.322Z" fill="white"/>
<path d="M174.818 153.894C176.22 154.142 181.692 155.544 182.685 153.941C183.208 153.095 182.491 152.673 181.793 152.277C180.639 151.626 176.454 150.465 175.1 150.995C174.362 151.284 175.241 151.391 175.562 151.445C176.226 151.552 177.172 151.351 177.823 151.237C178.654 151.089 179.291 151.035 179.835 150.358C179.908 150.271 179.935 150.156 179.875 150.056C179.305 149.076 177.896 149.19 176.884 149.09C174.469 148.848 172.048 148.794 169.634 148.607C165.844 148.305 161.941 147.479 158.259 146.553C157.944 146.473 157.81 146.963 158.125 147.036C161.666 147.922 165.388 148.7 169.023 149.049C171.136 149.251 173.275 149.298 175.395 149.465C175.811 149.499 176.756 149.439 177.186 149.613C178.554 150.183 178.607 150.385 177.139 150.814C176.441 151.015 175.549 150.948 174.825 150.968C174.496 150.982 174.503 151.445 174.825 151.472C176.555 151.612 178.339 151.794 180.022 152.236C181.223 152.552 182.926 153.209 180.995 153.9C179.452 154.457 176.367 153.652 174.952 153.404C174.637 153.35 174.503 153.833 174.818 153.894Z" fill="#263238"/>
<path d="M174.496 155.893C175.462 156.061 176.428 156.209 177.4 156.343C178.728 156.524 180.351 156.886 181.686 156.605C182.289 156.477 182.92 156.081 182.685 155.377C182.283 154.169 180.076 154.028 179.097 153.934C178.775 153.901 178.775 154.404 179.097 154.437C179.593 154.484 183.523 155.33 181.639 156.108C180.975 156.383 179.801 156.115 179.117 156.048C177.615 155.9 176.119 155.679 174.637 155.41C174.315 155.35 174.174 155.84 174.496 155.893Z" fill="#263238"/>
<path d="M174.691 158.121C176.066 158.376 177.467 158.584 178.862 158.658C179.607 158.698 181.029 158.859 181.599 158.175C182.786 156.759 178.668 156.034 178.158 155.94C177.843 155.88 177.709 156.37 178.024 156.423C178.916 156.584 179.982 156.739 180.767 157.228C181.578 157.732 181.082 158.014 180.365 158.128C178.594 158.403 176.569 157.96 174.825 157.638C174.503 157.577 174.369 158.06 174.691 158.121Z" fill="#263238"/>
<path d="M177.883 158.571C178.359 158.638 180.774 158.852 180.894 159.409C181.082 160.282 178.788 160.315 178.339 160.335C175.938 160.443 173.591 160 171.257 159.51C166.488 158.51 161.27 157.859 156.723 156.075C156.421 155.954 156.294 156.444 156.589 156.558C159.735 157.792 163.276 158.302 166.569 159.02C169.479 159.651 172.41 160.436 175.381 160.704C176.334 160.792 181.028 161.53 181.391 159.691C181.672 158.255 178.815 158.188 178.024 158.081C177.702 158.041 177.561 158.53 177.883 158.571Z" fill="#263238"/>
<path d="M164.369 122.036L163.504 104.671C163.504 104.671 125.322 120.781 126.194 142.407C127.066 164.032 157.327 157.289 157.327 157.289L160.083 146.332L148.964 140.434C155.892 125.74 164.369 122.036 164.369 122.036Z" fill="#D880A6"/>
<path opacity="0.5" d="M164.369 122.036L163.504 104.671C163.504 104.671 125.322 120.781 126.194 142.407C127.066 164.032 157.327 157.289 157.327 157.289L160.083 146.332L148.964 140.434C155.892 125.74 164.369 122.036 164.369 122.036Z" fill="white"/>
<path d="M160.097 146.339L143.994 137.797" stroke="#263238" stroke-miterlimit="10"/>
<path d="M148.97 140.441C148.97 140.441 152.552 133.912 156.482 128.612C156.482 128.612 159.158 125.163 160.345 124.083" stroke="#263238" stroke-miterlimit="10"/>
<path d="M157.092 114.246C157.092 115.045 156.448 115.689 155.65 115.689C154.852 115.689 154.208 115.045 154.208 114.246C154.208 113.448 154.852 112.804 155.65 112.804C156.448 112.804 157.092 113.448 157.092 114.246Z" fill="#263238"/>
<path d="M167.528 117.95C167.528 118.748 166.884 119.392 166.086 119.392C165.288 119.392 164.644 118.748 164.644 117.95C164.644 117.151 165.288 116.507 166.086 116.507C166.884 116.507 167.528 117.151 167.528 117.95Z" fill="#263238"/>
<path d="M165.16 110.495C165.16 111.294 164.517 111.938 163.718 111.938C162.92 111.938 162.276 111.294 162.276 110.495C162.276 109.697 162.92 109.053 163.718 109.053C164.517 109.053 165.16 109.697 165.16 110.495Z" fill="#263238"/>
<path d="M153.303 125.049C153.303 125.847 152.659 126.491 151.861 126.491C151.063 126.491 150.419 125.847 150.419 125.049C150.419 124.25 151.063 123.606 151.861 123.606C152.659 123.606 153.303 124.25 153.303 125.049Z" fill="#263238"/>
<path d="M148.97 134.234C148.97 135.033 148.326 135.677 147.528 135.677C146.73 135.677 146.086 135.033 146.086 134.234C146.086 133.436 146.73 132.792 147.528 132.792C148.326 132.792 148.97 133.436 148.97 134.234Z" fill="#263238"/>
<path d="M147.528 118.903C147.528 119.701 146.884 120.345 146.086 120.345C145.288 120.345 144.644 119.701 144.644 118.903C144.644 118.104 145.288 117.46 146.086 117.46C146.884 117.46 147.528 118.104 147.528 118.903Z" fill="#263238"/>
<path d="M144.638 127.169C144.638 127.967 143.994 128.611 143.196 128.611C142.398 128.611 141.754 127.967 141.754 127.169C141.754 126.37 142.398 125.726 143.196 125.726C143.994 125.719 144.638 126.37 144.638 127.169Z" fill="#263238"/>
<path d="M135.121 130.128C135.121 130.926 134.477 131.57 133.679 131.57C132.881 131.57 132.237 130.926 132.237 130.128C132.237 129.329 132.881 128.685 133.679 128.685C134.477 128.678 135.121 129.329 135.121 130.128Z" fill="#263238"/>
<path d="M140.526 136.502C140.526 137.301 139.883 137.945 139.085 137.945C138.286 137.945 137.643 137.301 137.643 136.502C137.643 135.704 138.286 135.06 139.085 135.06C139.883 135.053 140.526 135.704 140.526 136.502Z" fill="#263238"/>
<path d="M131.794 140.783C131.794 141.581 131.15 142.226 130.352 142.226C129.554 142.226 128.91 141.581 128.91 140.783C128.91 139.985 129.554 139.34 130.352 139.34C131.15 139.334 131.794 139.985 131.794 140.783Z" fill="#263238"/>
<path d="M138.327 144.151C138.327 144.95 137.683 145.594 136.885 145.594C136.087 145.594 135.443 144.95 135.443 144.151C135.443 143.353 136.087 142.708 136.885 142.708C137.676 142.708 138.327 143.353 138.327 144.151Z" fill="#263238"/>
<path d="M138.011 152.806C138.011 153.605 137.368 154.249 136.57 154.249C135.771 154.249 135.128 153.605 135.128 152.806C135.128 152.008 135.771 151.364 136.57 151.364C137.361 151.364 138.011 152.008 138.011 152.806Z" fill="#263238"/>
<path d="M145.04 149.398C145.04 150.197 144.396 150.841 143.598 150.841C142.8 150.841 142.156 150.197 142.156 149.398C142.156 148.6 142.8 147.956 143.598 147.956C144.39 147.956 145.04 148.6 145.04 149.398Z" fill="#263238"/>
<path d="M150.862 143.977C150.862 144.775 150.218 145.419 149.42 145.419C148.622 145.419 147.978 144.775 147.978 143.977C147.978 143.178 148.622 142.534 149.42 142.534C150.218 142.534 150.862 143.178 150.862 143.977Z" fill="#263238"/>
<path d="M155.301 150.277C155.301 151.075 154.658 151.72 153.859 151.72C153.061 151.72 152.417 151.075 152.417 150.277C152.417 149.479 153.061 148.834 153.859 148.834C154.658 148.834 155.301 149.479 155.301 150.277Z" fill="#263238"/>
<path d="M150.419 154.927C150.419 155.725 149.775 156.37 148.977 156.37C148.179 156.37 147.535 155.725 147.535 154.927C147.535 154.128 148.179 153.484 148.977 153.484C149.768 153.484 150.419 154.128 150.419 154.927Z" fill="#263238"/>
<path d="M159.922 120.842C159.922 121.64 159.279 122.284 158.481 122.284C157.682 122.284 157.039 121.64 157.039 120.842C157.039 120.043 157.682 119.399 158.481 119.399C159.272 119.392 159.922 120.043 159.922 120.842Z" fill="#263238"/>
<path d="M152.015 158.067C155.187 157.772 157.334 157.296 157.334 157.296L160.09 146.339L155.315 143.809L152.015 158.067Z" fill="#D880A6" stroke="#263238" stroke-miterlimit="10"/>
<path d="M152.485 156.048L157.656 156.014" stroke="#263238" stroke-miterlimit="10"/>
<path d="M153.142 153.216L158.192 153.894" stroke="#263238" stroke-miterlimit="10"/>
<path d="M153.859 150.123L158.91 151.069" stroke="#263238" stroke-miterlimit="10"/>
<path d="M154.691 146.526L159.614 148.244" stroke="#263238" stroke-miterlimit="10"/>
<path d="M155.1 78.2689C155.1 78.2689 159.057 81.456 163.524 81.0668C167.991 80.6777 171.304 78.6044 171.015 73.6862C170.727 68.768 163.786 66.9094 160.211 68.1104C160.211 68.1104 159.634 61.7161 153.135 62.897C147.126 63.9907 147.911 69.6671 147.911 69.6671C147.911 69.6671 142.492 67.1308 137.381 72.6998C132.271 78.2756 134.685 85.2604 136.536 87.5618C136.536 87.5618 132.11 89.9236 132.76 95.0565C133.417 100.189 135.986 101.78 140.788 101.78C140.788 101.78 144.054 101.458 144.986 100.418C144.986 100.418 143.732 105.49 148.863 106.429C154.731 107.503 156.576 101.236 157.91 98.7267C159.245 96.2106 152.377 90.3463 151.277 88.7427C151.277 88.7293 157.179 84.7102 155.1 78.2689Z" fill="#263238"/>
<path d="M147.897 88.1723C148.769 87.8905 149.661 87.904 150.466 88.1589L149.681 85.7636C148.44 81.9659 150.157 77.9602 153.491 76.8732L158.507 75.2361C161.841 74.1491 165.59 76.3633 166.83 80.1677L169.372 87.9509C170.613 91.7486 168.896 95.7543 165.563 96.8413L162.659 97.7873L164.027 101.981C164.59 103.699 163.638 105.564 161.921 106.127L159.929 106.778C158.212 107.342 156.348 106.389 155.784 104.671L154.235 99.9344L154.148 99.6727L152.599 94.9357C152.565 94.8418 152.545 94.7411 152.525 94.6472C152.022 95.3114 151.324 95.8348 150.473 96.1099C148.266 96.8278 145.899 95.6402 145.181 93.4529C144.477 91.2521 145.691 88.897 147.897 88.1723Z" fill="white" stroke="#263238" stroke-miterlimit="10"/>
<path d="M151.861 91.8627C151.713 91.3125 151.391 90.7623 150.976 90.3732C150.11 89.5747 148.99 89.6754 147.978 90.1048C147.562 90.2792 147.917 90.8898 148.333 90.7154C149.614 90.1719 150.828 90.6953 151.184 92.0506C151.298 92.4867 151.975 92.3056 151.861 91.8627Z" fill="#263238"/>
<path d="M157.622 85.985C157.823 86.609 158.501 86.9512 159.124 86.7499C159.748 86.5486 160.09 85.8709 159.889 85.2469C159.688 84.6229 159.01 84.2807 158.387 84.482C157.756 84.6833 157.414 85.361 157.622 85.985Z" fill="#263238"/>
<path d="M164.973 83.4016C165.147 83.9384 165.717 84.2269 166.254 84.0524C166.79 83.878 167.078 83.3077 166.904 82.7709C166.73 82.2408 166.16 81.9456 165.623 82.12C165.087 82.2945 164.798 82.8648 164.973 83.4016Z" fill="#263238"/>
<path d="M155.047 91.4264C155.556 92.9831 157.226 93.8285 158.776 93.3186C160.332 92.8086 161.177 91.1379 160.667 89.588C160.157 88.0313 158.487 87.1859 156.938 87.6959C155.389 88.2058 154.537 89.8765 155.047 91.4264Z" fill="#D880A6"/>
<path d="M167.575 85.0591C167.749 85.0055 167.917 84.9719 168.091 84.9585L169.044 87.8772C169.184 88.3133 169.305 88.7428 169.352 89.1789C169.238 89.2393 169.097 89.2997 168.97 89.3399C167.789 89.7291 166.515 89.0782 166.133 87.8973C165.751 86.7164 166.394 85.4483 167.575 85.0591Z" fill="#D880A6"/>
<path d="M162.156 83.2471L163.276 87.5346L164.885 85.6558L162.156 83.2471Z" fill="#D880A6"/>
<path d="M166.099 89.7091C166.629 91.6683 163.833 92.621 163.101 90.7155C162.987 90.4136 162.498 90.5478 162.619 90.8497C163.021 91.9098 164.114 92.554 165.234 92.1983C166.348 91.8427 166.877 90.6685 166.582 89.5816C166.502 89.2595 166.012 89.3937 166.099 89.7091Z" fill="#263238"/>
<path d="M163.524 81.0668C167.991 80.6777 171.304 78.6044 171.015 73.6862C170.727 68.768 163.785 66.9094 160.211 68.1104C160.211 68.1104 159.634 61.7161 153.135 62.897C147.126 63.9907 147.911 69.6671 147.911 69.6671C147.911 69.6671 147.864 69.6469 147.77 69.6067L147.911 70.5326L147.904 88.1791L149.098 88.0046C150.473 88.1657 151.23 88.8903 151.21 88.8568C151.21 88.8568 157.193 84.7169 155.114 78.2689C155.1 78.2689 159.057 81.456 163.524 81.0668Z" fill="#263238"/>
<path d="M156.764 108.308L165.12 105.477C166.059 105.161 166.562 104.135 166.247 103.196L165.456 100.867C165.14 99.9279 164.114 99.4247 163.175 99.74L154.819 102.572C153.88 102.887 153.377 103.913 153.692 104.853L154.483 107.181C154.805 108.127 155.825 108.63 156.764 108.308Z" fill="#D880A6"/>
<path d="M156.764 108.308L165.12 105.477C166.059 105.161 166.562 104.135 166.247 103.196L165.456 100.867C165.14 99.9279 164.114 99.4247 163.175 99.74L154.819 102.572C153.88 102.887 153.377 103.913 153.692 104.853L154.483 107.181C154.805 108.127 155.825 108.63 156.764 108.308Z" stroke="#263238" stroke-miterlimit="10"/>
<path d="M163.236 99.7266L165.113 105.483" stroke="#263238" stroke-miterlimit="10"/>
<path d="M161.15 100.411L163.028 106.161" stroke="#263238" stroke-miterlimit="10"/>
<path d="M159.064 101.089L160.942 106.846" stroke="#263238" stroke-miterlimit="10"/>
<path d="M156.978 101.773L158.856 107.523" stroke="#263238" stroke-miterlimit="10"/>
<path d="M154.886 102.451L156.764 108.208" stroke="#263238" stroke-miterlimit="10"/>
</g>
<defs>
<clipPath id="clip0">
<rect width="309" height="235" fill="white"/>
</clipPath>
</defs>
</svg>
