<svg width="85" height="85" viewBox="0 0 85 85" fill="none" xmlns="http://www.w3.org/2000/svg">
<rect width="85" height="85" rx="42.5" fill="#D80034"/>
<path d="M60.7112 38.6133C61.4433 36.2594 60.1286 33.7576 57.7747 33.0255C55.4208 32.2934 52.9191 33.6081 52.187 35.962C51.4548 38.3159 52.7695 40.8176 55.1235 41.5498C57.4774 42.2819 59.9791 40.9672 60.7112 38.6133Z" fill="white"/>
<path d="M40.656 48.6183C38.716 49.7268 37.0385 50.6895 33.4795 50.6895C29.935 50.6895 28.2576 49.7268 26.303 48.6183C25.4716 48.1515 24.611 47.6556 23.5899 47.218L22 50.9813C22.8023 51.3168 23.517 51.7252 24.2755 52.1628C26.4197 53.388 28.841 54.7591 33.4649 54.7591C38.1033 54.7591 40.5247 53.3734 42.6543 52.1628C44.5943 51.0542 46.2717 50.0915 49.8308 50.0915C52.5584 50.0915 54.1775 50.6458 55.7528 51.4626L57.6491 47.8452C55.9133 46.9409 53.6232 46.0073 49.8308 46.0073C45.2069 46.0219 42.7856 47.393 40.656 48.6183Z" fill="white"/>
<path d="M38.9494 35.2426L44.2297 40.0707C39.7225 41.9669 34.1067 44.9863 28.8119 47.9619C28.7389 48.0057 28.7535 48.1078 28.8265 48.1223C29.935 48.5016 31.2478 48.7496 33.0419 48.7496C36.5864 48.7496 38.2638 47.7869 40.2184 46.6783C42.3626 45.453 44.784 44.0819 49.4078 44.0819C50.954 44.0819 52.2668 44.2424 53.3899 44.4903C53.4774 44.5049 53.5358 44.4174 53.4774 44.3445C52.1501 42.4774 50.4289 39.9686 48.6347 38.5537L40.9623 31.5376C40.4956 31.1146 39.8538 30.925 39.2265 31.0271L26.1426 33.6964L26.6385 36.4824L38.9494 35.2426Z" fill="white"/>
</svg>
