<svg width="18" height="18" viewBox="0 0 18 18" fill="none" xmlns="http://www.w3.org/2000/svg">
<path d="M8.9998 17.9996C4.0372 17.9996 0 13.963 0 9.0002C0 4.037 4.0372 0 8.9998 0C13.9632 0 18 4.037 18 9.0004C18.0002 13.963 13.9632 17.9996 8.9998 17.9996ZM8.9998 1.778C5.0174 1.778 1.7782 5.0178 1.7782 9.0002C1.7782 12.982 5.0174 16.2214 8.9998 16.2214C12.982 16.2214 16.2222 12.982 16.2222 9.0002C16.2222 5.0178 12.982 1.778 8.9998 1.778Z" fill="#56BCB4"/>
<path d="M7.99662 10.8921C7.50562 10.8921 7.10742 10.4935 7.10742 10.0027V5.12708C7.10742 4.63568 7.50562 4.23828 7.99662 4.23828C8.48742 4.23828 8.88522 4.63588 8.88522 5.12708V10.0027C8.88522 10.4935 8.48742 10.8921 7.99662 10.8921Z" fill="#56BCB4"/>
<path d="M11.9832 10.8915H7.99662C7.50562 10.8915 7.10742 10.4929 7.10742 10.0021C7.10742 9.51108 7.50562 9.11328 7.99662 9.11328H11.983C12.4738 9.11328 12.872 9.51108 12.872 10.0021C12.8722 10.4929 12.474 10.8915 11.9832 10.8915Z" fill="#56BCB4"/>
</svg>
