<svg width="25" height="25" viewBox="0 0 25 25" fill="none" xmlns="http://www.w3.org/2000/svg">
<path d="M20.7031 3.125H16.4062V2.34375C16.4062 1.05142 15.3548 0 14.0625 0H10.9375C9.64517 0 8.59375 1.05142 8.59375 2.34375V3.125H4.29688C3.21992 3.125 2.34375 4.00117 2.34375 5.07812V7.8125C2.34375 8.24395 2.69355 8.59375 3.125 8.59375H3.55195L4.2269 22.7677C4.28652 24.0195 5.31484 25 6.56797 25H18.432C19.6852 25 20.7135 24.0195 20.7731 22.7677L21.448 8.59375H21.875C22.3064 8.59375 22.6562 8.24395 22.6562 7.8125V5.07812C22.6562 4.00117 21.7801 3.125 20.7031 3.125ZM10.1562 2.34375C10.1562 1.91299 10.5067 1.5625 10.9375 1.5625H14.0625C14.4933 1.5625 14.8438 1.91299 14.8438 2.34375V3.125H10.1562V2.34375ZM3.90625 5.07812C3.90625 4.86274 4.08149 4.6875 4.29688 4.6875H20.7031C20.9185 4.6875 21.0938 4.86274 21.0938 5.07812V7.03125C20.853 7.03125 4.90396 7.03125 3.90625 7.03125V5.07812ZM19.2124 22.6934C19.1925 23.1106 18.8497 23.4375 18.432 23.4375H6.56797C6.15024 23.4375 5.80747 23.1106 5.78765 22.6934L5.11621 8.59375H19.8838L19.2124 22.6934Z" fill="white"/>
<path d="M12.5 21.875C12.9314 21.875 13.2812 21.5252 13.2812 21.0938V10.9375C13.2812 10.5061 12.9314 10.1562 12.5 10.1562C12.0686 10.1562 11.7188 10.5061 11.7188 10.9375V21.0938C11.7188 21.5252 12.0685 21.875 12.5 21.875Z" fill="white"/>
<path d="M16.4062 21.875C16.8377 21.875 17.1875 21.5252 17.1875 21.0938V10.9375C17.1875 10.5061 16.8377 10.1562 16.4062 10.1562C15.9748 10.1562 15.625 10.5061 15.625 10.9375V21.0938C15.625 21.5252 15.9748 21.875 16.4062 21.875Z" fill="white"/>
<path d="M8.59375 21.875C9.0252 21.875 9.375 21.5252 9.375 21.0938V10.9375C9.375 10.5061 9.0252 10.1562 8.59375 10.1562C8.1623 10.1562 7.8125 10.5061 7.8125 10.9375V21.0938C7.8125 21.5252 8.16226 21.875 8.59375 21.875Z" fill="white"/>
</svg>
