<svg width="218" height="218" viewBox="0 0 218 218" fill="none" xmlns="http://www.w3.org/2000/svg">
<g filter="url(#filter0_d)">
<circle cx="109" cy="105" r="85" fill="white"/>
</g>
<path d="M129.94 92.43H127.72V89.43C127.72 88.8996 127.509 88.3909 127.134 88.0158C126.759 87.6407 126.25 87.43 125.72 87.43C125.19 87.43 124.681 87.6407 124.306 88.0158C123.931 88.3909 123.72 88.8996 123.72 89.43V92.43H111.07L109.94 89.25C109.499 88.01 108.686 86.9363 107.613 86.1756C106.539 85.4149 105.256 85.0043 103.94 85H98C96.684 85.0043 95.4014 85.4149 94.3275 86.1756C93.2536 86.9363 92.4407 88.01 92 89.25L90.86 92.43H87.38C85.6879 92.43 84.0651 93.1022 82.8687 94.2987C81.6722 95.4951 81 97.1179 81 98.81V122.4C81.0026 124.091 81.6757 125.713 82.8716 126.908C84.0675 128.104 85.6887 128.777 87.38 128.78H129.94C131.631 128.777 133.253 128.104 134.448 126.908C135.644 125.713 136.317 124.091 136.32 122.4V98.81C136.32 97.1179 135.648 95.4951 134.451 94.2987C133.255 93.1022 131.632 92.43 129.94 92.43ZM95.76 90.59C95.9245 90.1268 96.2279 89.7256 96.6288 89.441C97.0296 89.1565 97.5084 89.0025 98 89H103.93C104.422 89.0025 104.9 89.1565 105.301 89.441C105.702 89.7256 106.005 90.1268 106.17 90.59L106.82 92.43H95.11L95.76 90.59ZM132.32 122.4C132.317 123.03 132.066 123.634 131.62 124.08C131.174 124.526 130.57 124.777 129.94 124.78H87.38C86.7496 124.777 86.1458 124.526 85.7 124.08C85.2542 123.634 85.0026 123.03 85 122.4V98.81C85 98.1788 85.2507 97.5734 85.6971 97.1271C86.1434 96.6807 86.7488 96.43 87.38 96.43H129.94C130.571 96.43 131.177 96.6807 131.623 97.1271C132.069 97.5734 132.32 98.1788 132.32 98.81V122.4ZM109.14 98.89C106.829 98.89 104.569 99.5751 102.647 100.859C100.725 102.142 99.2271 103.967 98.3418 106.102C97.4564 108.237 97.2237 110.586 97.6732 112.853C98.1226 115.12 99.234 117.203 100.867 118.839C102.5 120.475 104.581 121.59 106.847 122.043C109.113 122.496 111.463 122.268 113.6 121.386C115.736 120.504 117.563 119.009 118.85 117.089C120.137 115.169 120.826 112.911 120.83 110.6C120.83 107.498 119.599 104.522 117.407 102.327C115.216 100.131 112.242 98.8953 109.14 98.89V98.89ZM109.14 118.27C107.619 118.27 106.132 117.819 104.868 116.974C103.603 116.129 102.617 114.928 102.035 113.523C101.453 112.118 101.301 110.571 101.598 109.08C101.894 107.588 102.627 106.218 103.702 105.142C104.778 104.067 106.148 103.334 107.64 103.038C109.131 102.741 110.678 102.893 112.083 103.475C113.488 104.057 114.689 105.043 115.534 106.308C116.379 107.572 116.83 109.059 116.83 110.58C116.831 111.591 116.633 112.593 116.248 113.527C115.862 114.462 115.296 115.312 114.582 116.028C113.868 116.744 113.02 117.312 112.086 117.7C111.152 118.088 110.151 118.289 109.14 118.29V118.27Z" fill="#56BCB4"/>
<rect x="121" y="113" width="24" height="24" rx="12" fill="white"/>
<path d="M132.087 117.702V124.367H125.484V127.095H132.087V133.729H134.97V127.095H141.511V124.367H134.97V117.702H132.087Z" fill="#56BCB4"/>
<defs>
<filter id="filter0_d" x="0" y="0" width="218" height="218" filterUnits="userSpaceOnUse" color-interpolation-filters="sRGB">
<feFlood flood-opacity="0" result="BackgroundImageFix"/>
<feColorMatrix in="SourceAlpha" type="matrix" values="0 0 0 0 0 0 0 0 0 0 0 0 0 0 0 0 0 0 127 0" result="hardAlpha"/>
<feOffset dy="4"/>
<feGaussianBlur stdDeviation="12"/>
<feComposite in2="hardAlpha" operator="out"/>
<feColorMatrix type="matrix" values="0 0 0 0 0 0 0 0 0 0 0 0 0 0 0 0 0 0 0.06 0"/>
<feBlend mode="normal" in2="BackgroundImageFix" result="effect1_dropShadow"/>
<feBlend mode="normal" in="SourceGraphic" in2="effect1_dropShadow" result="shape"/>
</filter>
</defs>
</svg>
