<svg width="44" height="44" viewBox="0 0 44 44" fill="none" xmlns="http://www.w3.org/2000/svg">
<path d="M37.3817 15.1754C36.9952 8.57541 31.5546 3.2998 24.9949 3.2998C21.0129 3.2998 17.1571 5.25267 14.7679 8.43901C14.7136 8.41041 14.6557 8.39134 14.6007 8.36421C14.4555 8.29381 14.3081 8.22634 14.157 8.16694C14.0727 8.13394 13.9883 8.10387 13.9033 8.07381C13.7551 8.02174 13.6055 7.97627 13.4523 7.93447C13.3672 7.91174 13.2829 7.88827 13.1963 7.86847C13.0321 7.83107 12.8649 7.80247 12.6955 7.77754C12.6207 7.76654 12.5473 7.75187 12.4718 7.74307C12.2298 7.71667 11.9834 7.69981 11.7333 7.69981C8.09453 7.69981 5.13333 10.6603 5.13333 14.2998C5.13333 14.3944 5.13847 14.4868 5.14507 14.5792C2.09513 16.2417 0 19.7257 0 23.2127C0 28.4069 4.22547 32.6331 9.41967 32.6331H13.2C13.6048 32.6331 13.9333 32.3053 13.9333 31.8998C13.9333 31.4943 13.6048 31.1665 13.2 31.1665H9.41967C5.03433 31.1665 1.46667 27.5988 1.46667 23.2127C1.46667 20.1665 3.45033 17.0043 6.18347 15.6939L6.6 15.4951V15.0331C6.6 14.9429 6.60587 14.8505 6.611 14.7581L6.6176 14.6298L6.6088 14.4919C6.60513 14.4281 6.6 14.3643 6.6 14.2998C6.6 11.4699 8.90267 9.16647 11.7333 9.16647C11.9599 9.16647 12.1836 9.18627 12.4058 9.21561C12.463 9.22294 12.5195 9.23247 12.5759 9.24201C12.7725 9.27427 12.9661 9.31681 13.1567 9.37181C13.1817 9.37914 13.2073 9.38354 13.2315 9.39087C13.4413 9.45467 13.6459 9.53607 13.8461 9.62701C13.8967 9.64974 13.9465 9.67467 13.9964 9.69961C14.1739 9.78687 14.3477 9.88367 14.5149 9.99221C15.928 10.9081 16.8667 12.4951 16.8667 14.2998C16.8667 14.7053 17.1952 15.0331 17.6 15.0331C18.0048 15.0331 18.3333 14.7053 18.3333 14.2998C18.3333 12.2802 17.4196 10.4725 15.9867 9.26107C18.0884 6.51107 21.5512 4.76647 24.9949 4.76647C30.6739 4.76647 35.3921 9.26547 35.8835 14.9503C35.134 14.8975 34.0113 14.8703 32.8893 15.0419C32.4889 15.1028 32.2139 15.4768 32.2747 15.8772C32.3297 16.2402 32.6421 16.5005 32.9985 16.5005C33.0352 16.5005 33.0726 16.4976 33.11 16.4917C34.7409 16.2453 36.4415 16.4763 36.5449 16.4903C39.9593 17.1393 42.5333 20.2845 42.5333 23.8126C42.5333 27.8672 39.2341 31.1665 35.1795 31.1665H32.2667C31.8619 31.1665 31.5333 31.4943 31.5333 31.8998C31.5333 32.3053 31.8619 32.6331 32.2667 32.6331H35.1795C40.0429 32.6331 44 28.6761 44 23.8126C44 19.7873 41.1935 16.1771 37.3817 15.1754Z" fill="#56BCB4"/>
<path d="M23.2524 22.5819C23.185 22.5137 23.1036 22.4601 23.0134 22.4227C22.8344 22.3487 22.632 22.3487 22.4531 22.4227C22.3629 22.4601 22.2822 22.5137 22.214 22.5819L16.3481 28.4478C16.0614 28.7345 16.0614 29.198 16.3481 29.4847C16.4911 29.6277 16.6788 29.6996 16.8666 29.6996C17.0543 29.6996 17.242 29.6277 17.385 29.4847L21.9999 24.8699V39.9663C21.9999 40.3718 22.3284 40.6996 22.7332 40.6996C23.138 40.6996 23.4666 40.3718 23.4666 39.9663V24.8699L28.0814 29.4847C28.2244 29.6277 28.4122 29.6996 28.5999 29.6996C28.7876 29.6996 28.9754 29.6277 29.1184 29.4847C29.4051 29.198 29.4051 28.7345 29.1184 28.4478L23.2524 22.5819Z" fill="#56BCB4"/>
</svg>
