<svg width="27" height="16" viewBox="0 0 27 16" fill="none" xmlns="http://www.w3.org/2000/svg">
<path d="M26.4074 1.33943C26.2246 1.2348 26.0144 1.16968 25.795 1.14976C25.5757 1.12983 25.3539 1.15572 25.1492 1.22514L20.1879 2.90514C20.0407 2.09824 19.5581 1.3623 18.8271 0.829735C18.096 0.297173 17.1645 0.00294918 16.2 0H4.05C2.97587 0 1.94574 0.361224 1.18622 1.00421C0.426695 1.64719 0 2.51926 0 3.42857V12.5714C0 13.4807 0.426695 14.3528 1.18622 14.9958C1.94574 15.6388 2.97587 16 4.05 16H16.2C17.1643 15.9971 18.0957 15.703 18.8267 15.1707C19.5577 14.6384 20.0404 13.9027 20.1879 13.096L25.1492 14.776C25.354 14.8453 25.5758 14.871 25.7952 14.8509C26.0145 14.8309 26.2247 14.7656 26.4073 14.6608C26.5899 14.5561 26.7394 14.415 26.8428 14.25C26.9461 14.085 27.0001 13.901 27 13.7143V2.28571C27 2.099 26.946 1.91512 26.8427 1.75016C26.7394 1.5852 26.5899 1.44418 26.4074 1.33943ZM16.2 13.7143H4.05C3.69196 13.7143 3.34858 13.5939 3.09541 13.3796C2.84223 13.1652 2.7 12.8745 2.7 12.5714V3.42857C2.7 3.12547 2.84223 2.83478 3.09541 2.62045C3.34858 2.40612 3.69196 2.28571 4.05 2.28571H16.2C16.558 2.28571 16.9014 2.40612 17.1546 2.62045C17.4078 2.83478 17.55 3.12547 17.55 3.42857V12.5714C17.55 12.8745 17.4078 13.1652 17.1546 13.3796C16.9014 13.5939 16.558 13.7143 16.2 13.7143ZM24.3 12.0263L20.25 10.6549V5.34514L24.3 3.97371V12.0263Z" fill="#56BCB4"/>
</svg>
