<svg width="48" height="48" viewBox="0 0 48 48" fill="none" xmlns="http://www.w3.org/2000/svg">
<circle cx="24" cy="24" r="24" fill="#56BCB4"/>
<path fill-rule="evenodd" clip-rule="evenodd" d="M22.169 12.1633C21.9438 12.2507 21.5756 12.4885 21.3506 12.6919L20.9415 13.0615L23.1406 13.0652C25.2173 13.0687 25.3335 13.0609 25.2274 12.9256C25.0087 12.6464 24.782 12.4792 24.2968 12.239C23.8818 12.0336 23.7108 11.9967 23.192 12.0002C22.7914 12.0029 22.4361 12.0597 22.169 12.1633ZM20.5093 14.1213C20.4769 14.2007 20.4531 14.5079 20.4563 14.8038C20.4718 16.2457 21.6683 17.4512 23.0965 17.464C23.7787 17.4701 24.1973 17.3536 24.6996 17.0181C25.4537 16.5143 25.8926 15.6657 25.8926 14.7115C25.8926 13.9101 26.139 13.9769 23.1807 13.9769C20.7695 13.9769 20.5636 13.988 20.5093 14.1213ZM22.0742 18.1745C21.7161 18.349 21.4733 18.5437 21.2356 18.847C20.6461 19.5992 20.6465 19.5948 20.6727 24.4701L20.696 28.7934L20.8878 29.2061C21.0581 29.5725 21.0846 29.7779 21.1246 31.0363L21.1694 32.4536L19.1323 32.4808C16.9449 32.5098 16.8298 32.5309 16.4296 32.9746C15.8015 33.6711 15.8712 34.7561 16.5791 35.3006C17.0436 35.6579 17.4758 35.7 20.3853 35.6711L23.0692 35.6445L23.4375 35.4381C23.7162 35.282 23.8604 35.1228 24.0308 34.7836L24.2559 34.3354V32.3858C24.2559 31.2991 24.2895 30.4013 24.3317 30.3576C24.3787 30.3091 24.0801 29.3686 23.5485 27.891L22.6894 25.5029L22.5682 22.5341C22.4886 20.5853 22.4746 19.5375 22.5276 19.4841C22.684 19.3263 22.853 19.4956 22.8955 19.8533C22.9188 20.0488 22.979 21.3769 23.0293 22.8044L23.1207 25.3999L24.066 28.0459C24.5859 29.5012 25.0631 30.7937 25.1264 30.9181C25.5486 31.7489 26.7928 31.4586 26.7928 30.5294C26.7928 30.3715 25.5533 26.7854 25.0244 25.4132C24.9301 25.1684 24.8712 24.3977 24.7886 22.3277C24.7279 20.8101 24.6977 19.5175 24.7214 19.4553C24.7751 19.314 24.9461 19.3089 25.054 19.4454C25.0997 19.5032 25.1787 20.7444 25.2334 22.2665C25.3021 24.1763 25.3639 25.0599 25.4415 25.2381C25.5371 25.4577 25.5528 25.1266 25.5586 22.7621C25.5662 19.6447 25.5379 19.4504 24.9847 18.8164C24.452 18.206 24.0249 17.9962 23.2404 17.9598C22.6395 17.9318 22.5316 17.9517 22.0742 18.1745ZM25.5653 25.565C25.5653 25.5959 25.8098 26.3052 26.1087 27.1412L26.6522 28.6612L26.9885 28.686L27.3247 28.7109L27.2945 31.5245C27.2659 34.1954 27.2727 34.3571 27.428 34.7113C27.9533 35.9091 29.7179 35.9306 30.2331 34.7454C30.3648 34.4426 30.3868 34.009 30.4386 30.6919C30.4913 27.3188 30.484 26.9472 30.3594 26.6484C30.1745 26.2053 29.933 25.9556 29.4993 25.759C29.1851 25.6166 28.8994 25.5891 27.3511 25.5518C26.3689 25.5282 25.5653 25.5342 25.5653 25.565Z" fill="white"/>
</svg>
