<svg width="85" height="85" viewBox="0 0 85 85" fill="none" xmlns="http://www.w3.org/2000/svg">
<rect width="85" height="85" rx="42.5" fill="#7C56BB"/>
<path d="M42.7041 29.3721C44.9464 29.3721 46.7641 27.5543 46.7641 25.312C46.7641 23.0697 44.9464 21.252 42.7041 21.252C40.4618 21.252 38.644 23.0697 38.644 25.312C38.644 27.5543 40.4618 29.3721 42.7041 29.3721Z" fill="white"/>
<path d="M54.9602 62.1704V62.1695C54.9156 61.9348 51.1723 51.5154 51.1723 51.5154L45.5172 45.7569C45.5172 45.7569 45.5172 36.7233 45.5172 34.0681C45.5172 31.4129 40.7008 29.6789 40.1373 30.0682C39.7676 30.3234 31.2965 35.5812 31.2965 35.5812L30.3981 44.5262C30.387 44.6086 30.3794 44.691 30.3794 44.7761C30.3794 45.7854 31.1976 46.6037 32.207 46.6037C33.2163 46.6037 34.0346 45.7854 34.0346 44.7761L34.7904 37.9642L38.9997 35.513V45.7231L46.7238 53.171L50.6658 63.3833C50.9879 64.2265 51.8021 64.826 52.758 64.826C53.9958 64.826 54.9998 63.8221 54.9998 62.5851C55.0003 62.443 55.0003 62.3802 54.9602 62.1704Z" fill="white"/>
<path d="M29.5358 60.7186C29.2022 61.1101 29 61.6165 29 62.1706C29 63.408 30.004 64.412 31.2414 64.412C32.0325 64.412 32.726 64.0013 33.1251 63.3822L39.9806 54.5138L42.0893 49.852L38.6225 46.603L36.06 51.8319L29.5358 60.7186Z" fill="white"/>
<path d="M46.5173 38.688C46.5173 38.688 46.4487 43.7226 46.5173 43.6188C46.5774 43.5284 49.0522 45.5823 49.6892 46.1132C49.7359 46.1573 49.7849 46.1979 49.8362 46.2366C49.8371 46.2366 49.8379 46.2375 49.8379 46.2375C50.1426 46.4665 50.5208 46.6028 50.9315 46.6028C51.9399 46.6028 52.7586 45.7845 52.7586 44.7752C52.7586 44.095 52.3889 43.6754 51.8339 43.1881L46.5173 38.688Z" fill="white"/>
</svg>
