<svg width="48" height="48" viewBox="0 0 48 48" fill="none" xmlns="http://www.w3.org/2000/svg">
<circle cx="24" cy="24" r="24" fill="#56BCB4"/>
<path fill-rule="evenodd" clip-rule="evenodd" d="M23.1469 10.0816C22.6623 10.2104 22.2685 10.4366 21.917 10.788C21.2571 11.4479 20.9837 12.3882 21.2049 13.2373C21.4678 14.2465 22.2132 14.9808 23.2147 15.2168C23.6561 15.3209 23.9044 15.3197 24.3465 15.2109C25.3462 14.9652 26.0941 14.2172 26.3399 13.2176C26.4486 12.7755 26.4499 12.5272 26.3458 12.0858C26.003 10.6318 24.5359 9.71266 23.1469 10.0816ZM19.8223 16.4249C19.4719 16.5995 19.1333 16.9752 19.0215 17.3133C18.9382 17.5655 18.0058 27.4259 18.0001 28.116C17.9948 28.7441 18.3989 29.3157 19.0085 29.5422C19.1341 29.5889 20.7379 29.8483 22.5727 30.1186C24.4075 30.3889 25.9786 30.6289 26.0642 30.6519C26.2163 30.6928 26.1685 30.7474 23.9423 33.0726C22.6896 34.381 21.6002 35.5594 21.5213 35.6912C21.3122 36.041 21.2812 36.6566 21.4526 37.0552C21.7035 37.6382 22.3703 38.041 22.9867 37.9818C23.5962 37.9232 23.569 37.948 27.2665 34.08C29.1686 32.0902 30.7512 30.3897 30.818 30.2641C30.9151 30.0817 30.9386 29.9468 30.9386 29.5726C30.9386 29.0379 30.8441 28.8042 30.4934 28.4712C30.0915 28.0898 30.2205 28.1207 27.089 27.6574C25.8733 27.4775 24.8697 27.3215 24.8589 27.3107C24.8325 27.2844 25.4274 20.8208 25.459 20.7892C25.4726 20.7756 27.4719 21.2575 29.902 21.86C32.4832 22.5 34.4247 22.955 34.5715 22.9543C35.2939 22.9508 35.8602 22.2584 35.7271 21.5415C35.6694 21.2303 35.4194 20.8802 35.1479 20.7301C35.0172 20.6578 33.1788 20.1757 30.5161 19.5156C28.0878 18.9135 26.0024 18.3943 25.8818 18.3619C25.6814 18.3079 25.6625 18.2871 25.6625 18.1198C25.6625 17.5873 25.2801 17 24.7719 16.7522C24.514 16.6264 24.3151 16.5973 22.6936 16.4484C20.4358 16.2409 20.1955 16.239 19.8223 16.4249Z" fill="white"/>
</svg>
