<svg width="48" height="48" viewBox="0 0 48 48" fill="none" xmlns="http://www.w3.org/2000/svg">
<circle cx="24" cy="24" r="24" fill="#56BCB4"/>
<path fill-rule="evenodd" clip-rule="evenodd" d="M22.8165 12.1713C20.4461 12.8937 19.7529 15.9785 21.6047 17.5625C22.3171 18.1717 22.8831 18.3794 23.8223 18.3759C26.3003 18.3667 27.8357 15.8319 26.6493 13.7083C26.1921 12.8898 25.6184 12.4289 24.7346 12.1698C23.9611 11.943 23.5644 11.9434 22.8165 12.1713ZM20.5738 18.9873C20.5005 19.1754 20.4404 19.5091 20.4404 19.7292C20.4404 19.9491 20.3792 20.2405 20.3045 20.3764C20.1591 20.641 15.8299 23.1355 13.1207 24.5158C11.2032 25.4927 11 25.6419 11 26.0731C11 26.8551 12.0172 27.9359 12.4869 27.6531C12.5611 27.6086 12.7128 27.8873 12.8249 28.2737C14.9884 35.7287 15.0373 35.8808 15.3097 35.9762C15.7165 36.1187 17.9733 35.4369 18.1888 35.1064C18.3372 34.8789 18.2519 34.4538 17.6058 32.2019C17.1895 30.751 16.8719 29.5419 16.9003 29.515C16.9284 29.4882 17.8443 29.647 18.9354 29.8679L20.9193 30.2697L23.724 32.9714C25.2666 34.4574 26.6827 35.753 26.8708 35.8505C27.1406 35.9905 28.1947 36.0197 31.8647 35.9889C35.8604 35.9556 36.5502 35.9205 36.7559 35.7408C36.9526 35.5689 36.9953 35.3015 36.9953 34.24C36.9953 32.3295 37.3252 32.4516 32.4487 32.5579L28.4442 32.6454L26.55 30.8765L24.6559 29.1078L25.1699 24.203C25.6128 19.979 25.6573 19.2724 25.4907 19.1123C25.3011 18.9299 22.8162 18.6498 21.3605 18.6468C20.7846 18.6456 20.6915 18.686 20.5738 18.9873ZM19.9856 24.1435C19.945 24.3084 19.8684 24.9431 19.8154 25.5538C19.7346 26.4855 19.6835 26.6547 19.4983 26.6047C17.263 26.0014 16.4735 25.768 16.4772 25.7115C16.4825 25.6291 19.7742 23.8618 19.9421 23.8511C20.0068 23.847 20.0264 23.9787 19.9856 24.1435Z" fill="white"/>
</svg>
