<svg xmlns="http://www.w3.org/2000/svg" width="66.647" height="66.428" viewBox="0 0 66.647 66.428">
  <g id="Group_296" data-name="Group 296" transform="translate(-299.531 -362.725)">
    <g id="Group_89" data-name="Group 89" transform="translate(313.7 376.808)" opacity="0.12">
      <path id="Path_124" data-name="Path 124" d="M1197.564,2442.451a19.133,19.133,0,1,1,19.135-19.133A19.155,19.155,0,0,1,1197.564,2442.451Zm0-33.352a14.219,14.219,0,1,0,14.22,14.218A14.234,14.234,0,0,0,1197.564,2409.1Z" transform="translate(-1178.431 -2404.185)" fill="#318981"/>
    </g>
    <g id="Group_90" data-name="Group 90" transform="translate(306.511 369.62)" opacity="0.12">
      <path id="Path_125" data-name="Path 125" d="M1100.268,2352.343a26.322,26.322,0,1,1,26.322-26.321A26.351,26.351,0,0,1,1100.268,2352.343Zm0-47.7a21.382,21.382,0,1,0,21.382,21.382A21.4,21.4,0,0,0,1100.268,2304.64Z" transform="translate(-1073.946 -2299.7)" fill="#318981"/>
    </g>
    <g id="Group_91" data-name="Group 91" transform="translate(299.531 362.729)" opacity="0.12">
      <path id="Path_126" data-name="Path 126" d="M1005.787,2265.969a33.212,33.212,0,1,1,33.3-33.212A33.294,33.294,0,0,1,1005.787,2265.969Zm0-61.76a28.548,28.548,0,1,0,28.625,28.548A28.618,28.618,0,0,0,1005.787,2204.209Z" transform="translate(-972.485 -2199.545)" fill="#318981"/>
    </g>
    <path id="Path_127" data-name="Path 127" d="M1440.7,2409.083s-2.631-2.567,0-4.915c0,0,16.234-.475,19.006,17.055a3.294,3.294,0,0,1-4.825.591S1453.9,2409.955,1440.7,2409.083Z" transform="translate(-1107.865 -2027.36)" fill="#ba9bc9"/>
    <path id="Path_128" data-name="Path 128" d="M1440.655,2304.593a3.252,3.252,0,0,1,0-4.94s21.051-.8,25.843,21.788c0,0-1.574,2.533-4.792.958C1461.706,2322.4,1459.406,2305.233,1440.655,2304.593Z" transform="translate(-1107.821 -1930.033)" fill="#85ddae"/>
    <path id="Path_129" data-name="Path 129" d="M1439.008,2204.158s-2.913-2.405,0-4.665c0,0,22.42-.821,31.181,21.63,0,0,2.738,7.529,2.054,13.347a3.338,3.338,0,0,1-4.655-.342,27.437,27.437,0,0,0-9.1-22.245S1452.044,2204.168,1439.008,2204.158Z" transform="translate(-1106.175 -1836.764)" fill="#94beef"/>
  </g>
</svg>
