<svg xmlns="http://www.w3.org/2000/svg" width="99.294" height="99.026" viewBox="0 0 99.294 99.026">
  <g id="Group_94" data-name="Group 94" transform="translate(-299.531 -431.154)" opacity="0.12">
    <g id="Group_89" data-name="Group 89" transform="translate(320.654 452.143)">
      <path id="Path_124" data-name="Path 124" d="M1206.955,2461.232a28.523,28.523,0,1,1,28.526-28.523A28.557,28.557,0,0,1,1206.955,2461.232Zm0-49.72a21.2,21.2,0,1,0,21.2,21.2A21.219,21.219,0,0,0,1206.955,2411.512Z" transform="translate(-1178.431 -2404.185)" fill="#318981"/>
    </g>
    <g id="Group_90" data-name="Group 90" transform="translate(309.938 441.426)">
      <path id="Path_125" data-name="Path 125" d="M1113.187,2378.18a39.24,39.24,0,1,1,39.241-39.24A39.284,39.284,0,0,1,1113.187,2378.18Zm0-71.116a31.876,31.876,0,1,0,31.876,31.876A31.91,31.91,0,0,0,1113.187,2307.064Z" transform="translate(-1073.946 -2299.7)" fill="#318981"/>
    </g>
    <g id="Group_91" data-name="Group 91" transform="translate(299.531 431.154)">
      <path id="Path_126" data-name="Path 126" d="M1022.132,2298.571a49.513,49.513,0,1,1,49.647-49.513A49.635,49.635,0,0,1,1022.132,2298.571Zm0-92.072a42.559,42.559,0,1,0,42.674,42.559A42.664,42.664,0,0,0,1022.132,2206.5Z" transform="translate(-972.485 -2199.545)" fill="#318981"/>
    </g>
  </g>
</svg>
